<?xml version="1.0" encoding="utf-8"?>
<!-- Generator: Adobe Illustrator 26.4.1, SVG Export Plug-In . SVG Version: 6.00 Build 0)  -->
<svg version="1.1" id="Layer_1" xmlns:svgjs="http://svgjs.com/svgjs"
	 xmlns="http://www.w3.org/2000/svg" xmlns:xlink="http://www.w3.org/1999/xlink" x="0px" y="0px" viewBox="0 0 1980 1080"
	 style="enable-background:new 0 0 1980 1080;" xml:space="preserve">
<style type="text/css">
	.st0{fill:none;stroke:#0D0D0D;stroke-width:5;stroke-miterlimit:10;}
	.st1{fill:none;stroke:#0D0D0D;stroke-width:3;stroke-miterlimit:10;}
	.st2{fill:none;stroke:#0D0D0D;stroke-width:6;stroke-miterlimit:10;}
	.st3{fill:none;stroke:#0D0D0D;stroke-width:2;stroke-miterlimit:10;}
	.st4{fill:none;stroke:#0D0D0D;stroke-width:4;stroke-miterlimit:10;}
</style>
<path class="st0" d="M623.3,433.2c0,0,28.5-2.2,34.3,11.9s11.3,32.7-17.2,41.1c-28.5,8.3-41.7-8.3-47.6-36.3
	c-97.6-23.6-125.6,47.6-125.6,47.6s17.3-14.5,35.3-8.2c18,6.3,23.2,19.5,24.7,34.2c1.5,14.7,14.4,24.7,30.5,22.4
	c0,0,12.9,34.2,51.9,30.2c39-4,47.1-20.2,47.1-20.2s25.8,19.8,53.4,20.6s39.7-24.4,36.4-46.6"/>
<path class="st0" d="M592.9,449.9c0,0-4.3-56.9,69.5-55.9c27.7,2,49.3,14.7,58.1,33.9c0,0,55.9-23.6,81,22.1s-21.6,97.6-81.5,74.1
	c-33.4-18.6-17.7-45.1-2.9-53c14.7-7.9,38.8-10.8,46.1,10.8c0,0,4,6.8,2.9,19.2"/>
<path class="st0" d="M614.8,520.2c0,0-22.1-28.7-48.6-4.4c-9.6,8.5-9.9,20.2-8.5,30.2"/>
<path class="st1" d="M1027.1,459.5c0,0,16.3-1.3,19.6,6.8c3.4,8.1,6.4,18.7-9.8,23.5c-16.3,4.8-23.8-4.8-27.2-20.7
	c-55.8-13.5-71.7,27.2-71.7,27.2s9.9-8.3,20.2-4.7c10.3,3.6,13.2,11.1,14.1,19.5s8.2,14.1,17.4,12.8c0,0,7.4,19.5,29.6,17.2
	s26.9-11.6,26.9-11.6s14.7,11.3,30.5,11.7s22.7-13.9,20.8-26.6"/>
<path class="st1" d="M1009.7,469c0,0-2.5-32.5,39.7-31.9c15.8,1.1,28.1,8.4,33.2,19.3c0,0,31.9-13.5,46.2,12.6
	c14.3,26.1-12.3,55.8-46.5,42.3c-19.1-10.6-10.1-25.8-1.7-30.3c8.4-4.5,22.1-6.2,26.3,6.2c0,0,2.3,3.9,1.7,10.9"/>
<path class="st1" d="M1022.2,509.1c0,0-12.6-16.4-27.7-2.5c-5.5,4.8-5.7,11.6-4.8,17.2"/>
<path class="st2" d="M1128.2,65.3c0,0,38.1-2.9,46,15.9s15.1,43.9-23,55c-38.1,11.2-55.9-11.2-63.8-48.6
	c-130.8-31.6-168.3,63.8-168.3,63.8s23.2-19.4,47.3-11c24.2,8.4,31.1,26.1,33,45.8s19.2,33,40.9,30.1c0,0,17.3,45.8,69.5,40.4
	s63.1-27.1,63.1-27.1s34.5,26.5,71.5,27.6s53.2-32.7,48.8-62.4"/>
<path class="st2" d="M1087.4,87.7c0,0-5.8-76.2,93.1-74.9c37.1,2.6,66,19.7,77.8,45.4c0,0,74.9-31.6,108.5,29.6
	c33.5,61.1-28.9,130.8-109.1,99.3c-44.7-25-23.7-60.5-3.9-71s51.9-14.5,61.8,14.5c0,0,5.3,9.2,3.9,25.7"/>
<path class="st2" d="M1116.8,181.9c0,0-29.6-38.5-65.1-5.9c-12.8,11.3-13.3,27.1-11.3,40.4"/>
<path class="st3" d="M662.2,114.5c0,0,9.8-0.8,11.8,4.1c2,4.8,3.9,11.2-5.9,14.1c-9.8,2.9-14.3-2.9-16.3-12.4
	c-33.5-8.1-43.1,16.3-43.1,16.3s5.9-5,12.1-2.8s7.9,6.7,8.5,11.7c0.5,5,4.9,8.5,10.5,7.7c0,0,4.4,11.7,17.8,10.3
	c13.4-1.4,16.1-6.9,16.1-6.9s8.8,6.8,18.3,7.1c9.5,0.3,13.6-8.4,12.5-16"/>
<path class="st3" d="M651.8,120.2c0,0-1.5-19.5,23.8-19.2c9.5,0.7,16.9,5,19.9,11.6c0,0,19.2-8.1,27.7,7.6s-7.4,33.5-27.9,25.4
	c-11.4-6.4-6.1-15.5-1-18.2c5-2.7,13.3-3.7,15.8,3.7c0,0,1.4,2.3,1,6.6"/>
<path class="st3" d="M659.3,144.3c0,0-7.6-9.8-16.6-1.5c-3.3,2.9-3.4,6.9-2.9,10.3"/>
<path class="st0" d="M148,72.7c0,0,29.3-2.3,35.3,12.2s11.6,33.7-17.7,42.2c-29.3,8.6-42.9-8.6-48.9-37.3
	C16.3,65.6-12.5,138.8-12.5,138.8s17.8-14.9,36.3-8.5c18.5,6.4,23.8,20.1,25.4,35.2c1.5,15.1,14.8,25.4,31.4,23.1
	c0,0,13.2,35.2,53.4,31c40.1-4.2,48.4-20.8,48.4-20.8s26.5,20.4,54.9,21.2s40.9-25.1,37.5-47.9"/>
<path class="st0" d="M116.7,89.8c0,0-4.5-58.5,71.4-57.5c28.5,2,50.7,15.1,59.8,34.8c0,0,57.5-24.2,83.2,22.7
	c25.7,46.9-22.2,100.4-83.8,76.2c-34.3-19.2-18.2-46.4-3-54.5s39.9-11.1,47.4,11.1c0,0,4.1,7,3,19.7"/>
<path class="st0" d="M139.3,162.1c0,0-22.7-29.5-49.9-4.5c-9.8,8.7-10.2,20.8-8.7,31"/>
<path class="st1" d="M187,641.1c0,0,18.4-1.4,22.2,7.7s7.3,21.2-11.1,26.6s-27-5.4-30.8-23.5C104.1,636.7,86,682.7,86,682.7
	s11.2-9.4,22.9-5.3c11.7,4,15,12.6,16,22.2s9.3,16,19.8,14.5c0,0,8.3,22.2,33.6,19.5s30.5-13.1,30.5-13.1s16.7,12.8,34.5,13.3
	s25.7-15.8,23.6-30.2"/>
<path class="st1" d="M167.3,651.9c0,0-2.8-36.8,45-36.2c17.9,1.3,31.9,9.5,37.6,21.9c0,0,36.2-15.2,52.4,14.3
	c16.2,29.5-14,63.2-52.7,48c-21.6-12.1-11.4-29.2-1.9-34.3c9.5-5.1,25.1-7,29.9,7c0,0,2.6,4.4,1.9,12.4"/>
<path class="st1" d="M181.5,697.4c0,0-14.3-18.6-31.4-2.9c-6.2,5.5-6.4,13.1-5.5,19.5"/>
<path class="st4" d="M22.9,996c0,0,22.1-1.7,26.7,9.3s8.8,25.5-13.3,31.9s-32.4-6.5-37-28.2c-75.9-18.3-97.6,37-97.6,37
	s13.4-11.3,27.5-6.4c14,4.9,18,15.2,19.2,26.6s11.2,19.2,23.7,17.4c0,0,10,26.6,40.3,23.5c30.3-3.1,36.6-15.7,36.6-15.7
	s20,15.4,41.5,16c21.5,0.6,30.9-19,28.3-36.2"/>
<path class="st4" d="M-0.7,1008.9c0,0-3.4-44.2,54-43.5c21.5,1.5,38.3,11.4,45.2,26.3c0,0,43.5-18.3,62.9,17.2s-16.8,75.9-63.3,57.6
	c-25.9-14.5-13.7-35.1-2.3-41.2c11.4-6.1,30.1-8.4,35.9,8.4c0,0,3.1,5.3,2.3,14.9"/>
<path class="st4" d="M16.4,1063.6c0,0-17.2-22.3-37.8-3.4c-7.4,6.6-7.7,15.7-6.6,23.5"/>
<path class="st1" d="M638.2,938.1c0,0,14.9-1.2,18,6.3c3.1,7.4,5.9,17.2-9,21.6c-14.9,4.4-21.9-4.4-25-19.1c-51.3-12.4-66,25-66,25
	s9.1-7.6,18.6-4.3c9.5,3.3,12.2,10.2,12.9,18s7.5,12.9,16,11.8c0,0,6.8,18,27.3,15.8c20.5-2.1,24.7-10.6,24.7-10.6
	s13.5,10.4,28,10.8c14.5,0.4,20.9-12.8,19.1-24.5"/>
<path class="st1" d="M622.2,946.9c0,0-2.3-29.9,36.5-29.4c14.5,1,25.9,7.7,30.5,17.8c0,0,29.4-12.4,42.5,11.6
	c13.1,24-11.3,51.3-42.8,38.9c-17.5-9.8-9.3-23.7-1.5-27.8c7.7-4.1,20.4-5.7,24.2,5.7c0,0,2.1,3.6,1.5,10.1"/>
<path class="st1" d="M633.8,983.8c0,0-11.6-15.1-25.5-2.3c-5,4.4-5.2,10.6-4.4,15.8"/>
<path class="st4" d="M1186.9,708.8c0,0,21.1-1.6,25.5,8.8s8.4,24.3-12.7,30.5s-30.9-6.2-35.3-26.9c-72.4-17.5-93.2,35.3-93.2,35.3
	s12.8-10.7,26.2-6.1c13.4,4.6,17.2,14.5,18.3,25.4c1.1,10.9,10.6,18.3,22.7,16.6c0,0,9.6,25.4,38.5,22.4s34.9-15,34.9-15
	s19.1,14.7,39.6,15.3c20.5,0.6,29.5-18.1,27-34.6"/>
<path class="st4" d="M1164.4,721.2c0,0-3.2-42.2,51.5-41.5c20.5,1.5,36.5,10.9,43.1,25.1c0,0,41.5-17.5,60,16.4
	c18.6,33.8-16,72.4-60.4,54.9c-24.7-13.8-13.1-33.5-2.2-39.3c10.9-5.8,28.7-8,34.2,8c0,0,2.9,5.1,2.2,14.2"/>
<path class="st4" d="M1180.6,773.3c0,0-16.4-21.3-36-3.3c-7.1,6.3-7.4,15-6.3,22.4"/>
<path class="st4" d="M1292.3,998c0,0,21.9-1.7,26.4,9.1c4.5,10.8,8.7,25.2-13.2,31.6c-21.9,6.4-32-6.4-36.6-27.9
	c-75-18.1-96.5,36.6-96.5,36.6s13.3-11.1,27.1-6.3c13.9,4.8,17.8,15,18.9,26.3c1.1,11.3,11,18.9,23.5,17.2c0,0,9.9,26.3,39.9,23.2
	c30-3.1,36.2-15.6,36.2-15.6s19.8,15.2,41,15.8c21.2,0.6,30.5-18.8,28-35.8"/>
<path class="st4" d="M1269,1010.8c0,0-3.3-43.7,53.4-43c21.3,1.5,37.9,11.3,44.6,26c0,0,43-18.1,62.2,17s-16.6,75-62.6,56.9
	c-25.6-14.3-13.6-34.7-2.3-40.7c11.3-6,29.8-8.3,35.4,8.3c0,0,3,5.3,2.3,14.7"/>
<path class="st4" d="M1285.8,1064.8c0,0-17-22.1-37.3-3.4c-7.4,6.5-7.6,15.6-6.5,23.2"/>
<path class="st4" d="M1917.8,968.2c0,0,21.9-1.7,26.4,9.1c4.5,10.8,8.7,25.2-13.2,31.6c-21.9,6.4-32-6.4-36.6-27.9
	c-75-18.1-96.5,36.6-96.5,36.6s13.3-11.1,27.1-6.3c13.9,4.8,17.8,15,18.9,26.3c1.1,11.3,11,18.9,23.5,17.2c0,0,9.9,26.3,39.9,23.2
	s36.2-15.6,36.2-15.6s19.8,15.2,41,15.8c21.2,0.6,30.5-18.8,28-35.8"/>
<path class="st4" d="M1894.4,981.1c0,0-3.3-43.7,53.4-43c21.3,1.5,37.9,11.3,44.6,26c0,0,43-18.1,62.2,17
	c19.2,35.1-16.6,75-62.6,56.9c-25.6-14.3-13.6-34.7-2.3-40.7c11.3-6,29.8-8.3,35.4,8.3c0,0,3,5.3,2.3,14.7"/>
<path class="st4" d="M1911.3,1035.1c0,0-17-22.1-37.3-3.4c-7.4,6.5-7.6,15.6-6.5,23.2"/>
<path class="st0" d="M1703.6,506.3c0,0,29.3-2.3,35.4,12.3c6.1,14.5,11.6,33.7-17.7,42.3s-43-8.6-49-37.4
	c-100.6-24.3-129.4,49-129.4,49s17.8-14.9,36.4-8.5c18.6,6.4,23.9,20.1,25.4,35.2s14.8,25.4,31.5,23.1c0,0,13.3,35.2,53.4,31.1
	c40.2-4.2,48.5-20.8,48.5-20.8s26.5,20.4,55,21.2c28.4,0.8,40.9-25.2,37.5-48"/>
<path class="st0" d="M1672.2,523.5c0,0-4.5-58.6,71.5-57.6c28.5,2,50.7,15.2,59.8,34.9c0,0,57.6-24.3,83.4,22.7
	s-22.2,100.6-83.9,76.3c-34.4-19.2-18.2-46.5-3-54.6c15.2-8.1,39.9-11.1,47.5,11.1c0,0,4.1,7,3,19.7"/>
<path class="st0" d="M1694.8,595.9c0,0-22.7-29.6-50-4.5c-9.9,8.7-10.2,20.8-8.7,31.1"/>
<path class="st3" d="M1563.1,848.6c0,0,8.7-0.7,10.5,3.6c1.8,4.3,3.5,10-5.3,12.6c-8.7,2.6-12.8-2.6-14.6-11.1
	c-29.9-7.2-38.4,14.6-38.4,14.6s5.3-4.4,10.8-2.5s7.1,6,7.5,10.5c0.5,4.5,4.4,7.5,9.3,6.9c0,0,3.9,10.5,15.9,9.2s14.4-6.2,14.4-6.2
	s7.9,6.1,16.3,6.3c8.4,0.2,12.2-7.5,11.2-14.3"/>
<path class="st3" d="M1553.8,853.7c0,0-1.3-17.4,21.3-17.1c8.5,0.6,15.1,4.5,17.8,10.4c0,0,17.1-7.2,24.8,6.8
	c7.7,14-6.6,29.9-24.9,22.7c-10.2-5.7-5.4-13.8-0.9-16.2c4.5-2.4,11.9-3.3,14.1,3.3c0,0,1.2,2.1,0.9,5.9"/>
<path class="st3" d="M1560.5,875.2c0,0-6.8-8.8-14.9-1.4c-2.9,2.6-3,6.2-2.6,9.2"/>
<path class="st0" d="M1820-5.7c0,0,31.5-2.4,38,13.2s12.5,36.2-19,45.5s-46.2-9.2-52.7-40.2c-108.1-26.1-139,52.7-139,52.7
	s19.1-16,39.1-9.1c20,6.9,25.7,21.6,27.3,37.9c1.6,16.3,15.9,27.3,33.8,24.8c0,0,14.3,37.9,57.4,33.4c43.2-4.5,52.1-22.4,52.1-22.4
	s28.5,21.9,59.1,22.8c30.5,0.9,44-27,40.3-51.6"/>
<path class="st0" d="M1786.3,12.7c0,0-4.8-63,76.9-61.9c30.6,2.2,54.5,16.3,64.3,37.5c0,0,61.9-26.1,89.6,24.4s-23.9,108.1-90.1,82
	c-36.9-20.6-19.6-50-3.3-58.7s42.9-11.9,51,11.9c0,0,4.4,7.6,3.3,21.2"/>
<path class="st2" d="M1810.6,90.5c0,0-24.4-31.8-53.8-4.9c-10.6,9.4-11,22.4-9.4,33.4"/>
</svg>
