<?xml version="1.0" encoding="UTF-8"?><svg xmlns="http://www.w3.org/2000/svg" width="1080" height="1920" viewBox="0 0 1080 1920"><defs><style>.j{fill:#a8a46f;}.k{fill:#8e9ab0;}.l{fill:#b2c1db;}.m{fill:#8a96ad;}.n{fill:#2e394b;}.o{fill:#cad9ef;}.p{fill:#d0deef;}.q{fill:#101823;}.r{fill:#bacae0;}.s{fill:#58657b;}</style></defs><g id="a"><rect class="q" x="-386.27" y="-49" width="1979" height="1979"/></g><g id="b"><path class="l" d="M1486.45,1851.56c-17.01-20.79-56.7-47.25-56.7-47.25-175.79-113.41-410.17-204.14-410.17-204.14,37.8-128.53,30.24-215.48,15.12-260.84s-18.9-122.86-18.9-122.86c0,0,5.67-253.28-7.56-285.41s-7.56-54.81-20.79-130.42c-13.23-75.61-51.03-162.55-51.03-162.55,0,0-9.45-26.46-75.61-107.74-66.16-81.28-187.13-107.74-224.93-134.2-64.27-32.13-204.14-5.67-204.14-5.67,0,0-35.91-24.57-90.73-18.9-42.38,3.63-80.5,24.53-113.35,52.55-.08,.06-.15,.13-.23,.19-19.15,16.37-36.48,35.16-51.87,54.34-.04,.06-.08,.11-.13,.15-40.39,50.52-67.06,103.86-76.36,123.37-18.9,39.69-41.58,120.97-66.16,181.46-24.57,60.49,26.46,179.57,26.46,179.57,0,0,9.45,281.63,13.23,361.02,3.78,79.39,15.12,136.09,37.8,200.36s16.07,150.27,16.07,150.27c-143.65,26.46-334.56,120.97-357.24,130.42s-24.57,20.79-60.49,45.36c-35.91,24.57-56.7,79.39-56.7,79.39H195.88c.11-.93,.25-1.87,.4-2.84,6.28-41.55,45.02-125.9,52.11-143.65,7.56-18.9,24.57-34.02,24.57-34.02,1.04-6.73,6.05-21.11,12.76-38.45,4.04,4.59,5.2,14.82,5.2,14.82,0,35.91,13.23,88.84,39.69,134.2,18.94,32.47,45.63,56.23,59.28,67.1,1.34,1.08,2.55,2.02,3.63,2.84h32.25c-1.64-.93-3.27-1.87-4.86-2.84-1.38-.83-2.74-1.66-4.08-2.5,0,0-.02,0-.02-.02-.66-.42-1.29-.83-1.95-1.25-12.49-8.07-23.65-17.14-33.61-26.95-1.21-1.19-2.42-2.4-3.59-3.61-1.06-1.08-2.1-2.17-3.12-3.27-.11-.13-.25-.26-.36-.4-1.15-1.23-2.27-2.46-3.38-3.72-.89-.98-1.76-1.98-2.61-2.99-1.36-1.59-2.7-3.19-4.03-4.84-.98-1.21-1.95-2.44-2.89-3.67-2.02-2.59-3.97-5.24-5.86-7.9-.42-.59-.83-1.15-1.25-1.76-.11-.15-.23-.32-.34-.49-.51-.74-1-1.46-1.49-2.19-.51-.74-1.02-1.49-1.51-2.25-1.08-1.63-2.14-3.25-3.18-4.91-.79-1.29-1.59-2.55-2.36-3.84-.17-.26-.32-.55-.49-.81-.08-.15-.17-.28-.25-.42-.76-1.27-1.49-2.53-2.21-3.8-2.19-3.8-4.27-7.64-6.24-11.47-.59-1.15-1.17-2.32-1.74-3.5l-1.7-3.52c-.76-1.57-1.49-3.12-2.19-4.69-.36-.79-.7-1.57-1.06-2.36-.34-.77-.68-1.57-1.02-2.34-.36-.77-.7-1.57-1.02-2.36-.66-1.57-1.3-3.14-1.95-4.71-1.29-3.16-2.5-6.29-3.63-9.43-.53-1.46-1.06-2.91-1.57-4.37-.06-.11-.09-.23-.11-.34-.55-1.57-1.08-3.12-1.61-4.69-.47-1.42-.93-2.84-1.38-4.25-.66-2.06-1.29-4.1-1.89-6.14-.6-2.04-1.19-4.06-1.76-6.09-.38-1.34-.74-2.67-1.08-3.99-.23-.89-.45-1.76-.68-2.63-.38-1.53-.76-3.02-1.13-4.54-.21-.83-.42-1.66-.6-2.49-.34-1.44-.66-2.87-.98-4.29-.66-2.93-1.27-5.82-1.83-8.69-.43-2.17-.83-4.31-1.23-6.45-.26-1.42-.51-2.82-.74-4.22-.17-1.04-.36-2.08-.53-3.12-.17-1.04-.32-2.06-.47-3.08-.32-2.04-.6-4.04-.89-6.03-.17-1.32-.34-2.63-.51-3.91-.02-.13-.04-.26-.06-.42-.15-1.15-.28-2.31-.42-3.44-.09-.77-.19-1.53-.26-2.29-.09-.76-.17-1.49-.25-2.25-.17-1.49-.3-2.95-.43-4.39-.15-1.57-.28-3.1-.42-4.59-.13-1.53-.25-3.02-.34-4.48-.09-1.46-.19-2.87-.26-4.27-.08-1.1-.13-2.17-.17-3.21-.06-.96-.09-1.91-.13-2.84-.06-1.29-.09-2.53-.13-3.76-.02-.74-.04-1.47-.06-2.19-.02-.74-.04-1.44-.04-2.14-.02-.68-.02-1.36-.02-2.04-.02-1.17-.02-2.31-.02-3.38,3.67-8.79,7.39-17.6,10.96-25.95,2.72-6.31,5.33-12.36,7.75-17.96,.47-1.12,.95-2.21,1.42-3.29,.98-2.27,1.93-4.44,2.84-6.5,.59-1.36,1.17-2.67,1.72-3.93,.3-.68,.59-1.34,.87-2,.42-.93,.81-1.83,1.19-2.7,.36-.79,.7-1.55,1.02-2.29,.23-.49,.43-.96,.62-1.44,2.25-5.07,3.87-8.75,4.71-10.58,.06-.13,.11-.26,.17-.4,.02-.06,.04-.09,.08-.13,0-.02,0-.04,.02-.06,.06-.15,.11-.28,.15-.38,.02-.02,.04-.06,.04-.08,.06-.09,.08-.17,.09-.21,.02-.02,.02-.04,.02-.04,9.45,35.91,5.67,71.83,160.66,92.62,177.68,26.46,268.4-32.13,268.4-32.13,0,1.44,.02,2.91,.06,4.4,.02,.74,.04,1.49,.08,2.25,.04,1.47,.11,2.97,.21,4.48,.04,.83,.09,1.68,.15,2.53,.53,7.98,1.46,16.48,2.66,25.21v.08c1.1,7.96,2.42,16.1,3.86,24.16,.36,2.02,.74,4.03,1.12,6.03,2.44,13.04,5.16,25.71,7.73,36.86,.19,.85,.38,1.7,.59,2.55,.28,1.29,.59,2.55,.87,3.78,.13,.59,.28,1.17,.42,1.74,.28,1.15,.55,2.29,.81,3.4,.13,.53,.25,1.06,.38,1.59,.36,1.47,.72,2.91,1.06,4.29,.28,1.13,.55,2.23,.81,3.29,.34,1.36,.7,2.68,1.08,3.97,1.32,4.65,2.84,8.77,4.35,12.4,.08,.19,.15,.38,.23,.57,0,0-.02,0-.02,.02-3.27,2.23-7.3,5.01-12.25,8.56-1.83,2.44-4.54,5.76-7.94,9.81-1.13,1.34-2.34,2.78-3.63,4.27-3.97,4.65-8.6,9.96-13.67,15.69-.62,.7-1.23,1.38-1.85,2.08-4.33,4.9-8.94,10.07-13.68,15.37-1.3,1.47-2.63,2.93-3.97,4.42-2.21,2.46-4.44,4.93-6.67,7.39-1.29,1.44-2.57,2.85-3.86,4.27-12.89,14.25-25.73,28.28-35.88,39.33-.79,.87-1.59,1.74-2.36,2.57-4.29,4.67-8,8.69-10.93,11.87-.66,.72-1.27,1.38-1.83,2h18.96c16.56-18.3,87.74-97.06,91.09-102.07,2.91-4.39,11.44-8.73,15.2-10.51,.17-.09,.32-.15,.47-.23,3.25,6.52,4.14,9.81-1.49,11.68-11.34,3.78-17.01,11.34-17.01,11.34,0,0,7.56,3.78,1.89,34.02-4.33,23.06,.13,46.1,2.5,55.76h801.77l-6.62-16.07c-35.91-39.69-73.72-41.58-90.73-62.38Z"/><path class="j" d="M425.76,1930h-104.43l-.62-2.84h73.22c-3.78-1.89-7.56-5.67-7.56-5.67,0-5.67-1.89-13.23-1.89-13.23,0,3.78-1.89,11.34-1.89,11.34-60.49-52.92-75.61-115.3-75.61-115.3l3.78-1.89c-22.68-47.25-17.01-107.74-17.01-107.74l3.78-3.78c-1.81,101.37,43.19,154.2,47.01,158.49,.08,.13,.17,.26,.25,.42,.17,.26,.32,.55,.49,.81,.77,1.29,1.57,2.55,2.36,3.84,1.04,1.66,2.1,3.29,3.18,4.91,.49,.76,.98,1.51,1.51,2.25,.49,.74,.98,1.46,1.49,2.19,.11,.17,.23,.34,.34,.49,.42,.6,.83,1.17,1.25,1.76,1.89,2.67,3.84,5.31,5.86,7.9,.95,1.23,1.91,2.46,2.89,3.67,1.32,1.64,2.67,3.25,4.03,4.84,.85,1,1.72,2,2.61,2.99,1.1,1.25,2.23,2.5,3.38,3.72,.11,.13,.25,.26,.36,.4,1.02,1.1,2.06,2.19,3.12,3.27,1.17,1.21,2.38,2.42,3.59,3.61,9.96,9.81,21.11,18.88,33.61,26.95,.66,.42,1.29,.83,1.95,1.25,0,.02,.02,.02,.02,.02,1.34,.83,2.7,1.66,4.08,2.5,1.59,.96,3.21,1.91,4.86,2.84Z"/><path class="j" d="M793.21,1812.49l-22.19,13.55-75.61,86.95-9.92,17.01h-15.06c.57-.62,1.19-1.29,1.83-2,2.93-3.18,6.63-7.2,10.93-11.87,.77-.83,1.57-1.7,2.36-2.57,10.15-11.06,22.98-25.08,35.88-39.33,1.29-1.42,2.59-2.85,3.86-4.27,2.23-2.46,4.46-4.93,6.67-7.39,1.32-1.47,2.65-2.95,3.97-4.42,4.74-5.29,9.36-10.47,13.68-15.37,.64-.7,1.25-1.4,1.85-2.08,5.07-5.73,9.7-11.04,13.67-15.69,1.29-1.49,2.49-2.93,3.63-4.27,3.4-4.04,6.11-7.37,7.94-9.81,4.95-3.55,8.98-6.33,12.25-8.56,1.59,4.12,3.02,7.45,4.27,10.13Z"/><polygon class="q" points="810.54 1930 685.49 1930 695.41 1912.99 771.02 1826.04 793.21 1812.49 798.84 1809.05 805.04 1805.25 810.51 1929.04 810.54 1930"/><g id="c"><g><path class="o" d="M793.7,1930l-.95-23.63-11.34-1.89c9.45,0,11.34-7.56,11.34-7.56,0-24.57,9.45-24.57,9.45-24.57l-9.45-7.56c1.89,11.34,7.56-34.02,7.56-34.02,0,0,1.89-17.01-5.67-35.91-7.56-18.9,9.45-49.14,9.45-49.14,22.68,3.78,26.46-9.45,32.13-15.12,5.67-5.67,1.89-58.6-3.78-85.06-5.67-26.46-30.24-18.9-30.24-18.9v7.56l-15.12,9.45-1.89-9.45s-9.45-5.67-7.56,39.69c1.89,45.36,11.34,58.6,11.34,58.6l-9.45,7.56c-9.45-15.12-9.45-105.85-9.45-105.85-20.79-60.49-24.57-251.39-24.57-251.39,0,0-7.56-215.48,20.79-355.35,28.35-139.87-5.67-192.8-5.67-192.8,1.89-17.01-22.68-173.89-153.1-277.85-130.42-103.96-173.89-170.11-274.07-156.88-122.86,0-206.03,175.79-223.04,209.81-17.01,34.02-11.34,45.36-11.34,45.36l-22.68,41.58,1.89,30.24c-75.61,98.29,7.56,219.26,7.56,219.26l1.89,39.69c9.45,15.12,9.45,45.36,9.45,45.36v141.76s11.34,37.8,9.45,54.81c-7.56,73.72-1.89,147.43-1.89,177.68s11.34,30.24,11.34,30.24l-1.89,17.01s28.35,79.39,35.91,107.74,11.34,134.2,11.34,134.2c0,0,13.23,35.91,15.12,64.27s13.23,54.81,13.23,54.81c5.67,18.9,1.89,26.46,1.89,26.46h-5.67l-1.89-3.78-3.78,5.67,1.89,1.89v9.45l7.56,3.78v32.13l-3.78-18.9-5.67-3.78-1.89-11.34-7.56-5.67v-17.01l11.34-7.56c-17.01-37.8-18.9-75.61-18.9-75.61l-20.79-64.27c1.89,9.45,0,20.79,0,20.79l-5.64-16.94c.07,.1,.58-.62,3.75-13.3,3.78-15.12,1.89-85.06-22.68-158.77-24.57-73.72-35.91-145.54-34.02-170.11,1.89-24.57-11.34-109.63-15.12-136.09-3.78-26.46,0-158.77,0-219.26s-20.79-86.95-34.02-141.76c-13.23-54.81,22.68-113.41,30.24-126.64s3.78-34.02,9.45-45.36c11.34-15.12,22.68-56.7,22.68-56.7,0,0,28.35-62.38,39.69-81.28,11.34-18.9,113.41-232.49,311.88-137.98,198.47,94.51,296.76,279.74,302.43,306.21s22.68,30.24,22.68,37.8-1.89,26.46,1.89,35.91c11.34,22.68,18.9,77.5,18.9,77.5,0,0,1.89,154.99-17.01,266.51-18.9,111.52-13.23,117.19-13.23,179.57s18.9,60.49,18.9,60.49c0,0,5.67,75.61,13.23,107.74,7.56,32.13,11.34,69.94,11.34,69.94,11.34,1.89,15.12,9.45,15.12,9.45,0,0-3.78-52.92-5.67-85.06-1.85-31.34-9.07-111.2-9.43-115.15,.45,3.16,7.66,54.36,11.32,103.81,3.78,51.03,11.34,62.38,11.34,62.38,0-7.56-3.78-35.91-7.56-60.49-3.78-24.57-7.56-86.95-7.56-86.95,1.89-66.16-9.45-198.47-13.23-219.26-3.78-20.79,0-45.36,0-45.36l13.23,15.12s-9.45,0-7.56,7.56c5.67,24.57,0,34.02,0,34.02,7.56-3.78,3.78-28.35,3.78-34.02s5.67-5.67,5.67-5.67c0,0,18.9-187.13,34.02-277.85,15.12-90.73-7.56-85.06-7.56-85.06,0,13.23-15.12,20.79-15.12,20.79,0-64.27-22.68-175.79-34.02-198.47-11.34-22.68-26.46-24.57-13.23,9.45,52.92,126.64,35.91,249.5,35.91,249.5-18.9-98.29-41.58-132.31-60.49-175.79s-41.58-60.49-41.58-60.49l-9.45-5.67c-11.34-30.24-56.7-73.72-56.7-73.72l1.89,17.01c-17.01-32.13-151.21-124.75-151.21-124.75,0,0,43.47-1.89,62.38,0s18.9-9.45,18.9-9.45l-7.56,1.89c-9.45-9.45-37.8-7.56-71.83-7.56s-47.25-9.45-47.25-9.45c0,0,145.54-26.46,190.91,17.01,45.36,43.47,69.94,49.14,92.62,58.6,22.68,9.45,22.68-3.78,22.68-3.78l20.79,13.23c43.47,17.01,58.6,47.25,58.6,47.25l26.46,64.27,7.56,1.89c0,22.68,11.34,34.02,11.34,34.02h-15.12l5.67,26.46h-5.67c13.23,18.9,24.57,60.49,32.13,103.96,18.9,98.29-13.23,260.84-22.68,313.77-9.45,52.92-15.12,137.98-15.12,137.98-30.24,96.4-18.9,209.81-18.9,209.81,30.24-83.17,62.38-349.68,62.38-349.68,0,0,5.67-136.09,24.57-181.46,18.9-45.36,13.23-94.51,13.23-94.51,47.25,54.81,35.91,217.37,41.58,336.45,5.67,119.08-30.24,340.23-43.47,451.75-13.23,111.52-35.91,158.77-35.91,158.77v41.58c3.78-20.79,11.34-30.24,11.34-28.35,0,1.3,2.72,7.16,6.92,10,0,0,.15,.09,.43,.26,.74,.47,1.53,.83,2.34,1.04,5.46,2.04,18.41,4.31,33.51-10.89t.04-.04c2.51-1.97,6.2-5.05,11.57-9.83,17.01-15.12,20.79-45.36,34.02-77.5,13.23-32.13,30.24-26.46,30.24-26.46,1.89,7.56,5.67,9.45,5.67,9.45-1.89-1.89,0-9.45,0-9.45,5.67,0,7.56-7.56,7.56-7.56l7.56,9.45h9.45c11.34,11.34,105.85,62.38,115.3,58.6,9.45-3.78,37.8-3.78,37.8-3.78-1.89,5.67,7.56,9.45,7.56,9.45l-7.56,5.67c7.56,20.79,66.16,35.91,120.97,58.6,53.09,21.96,76.04,49.28,77.42,50.96-34-32.04-71.75-20.72-71.75-20.72-37.8-28.35-103.96-49.14-103.96-49.14,15.12,34.02,77.5,58.6,147.43,90.73,69.94,32.13,110.57,87.89,110.57,87.89H793.7Z"/><path class="k" d="M136.89,1689.04v.03s0-.02,0-.03Z"/><path class="o" d="M116.08,1055.8s-1.89,37.8,5.67,81.28c7.56,43.47,13.23,190.91,13.23,190.91,0,0,9.45-52.92,3.78-107.74,0,0,34.02-143.65,1.89-185.24,0,0-15.12,37.8-13.23,60.49,0,0,3.78,13.23-1.89,13.23,0,0,0-51.03-9.45-52.92Z"/><path class="o" d="M174.67,1155.98s-39.69,172-28.35,272.18l-5.67-5.67s11.34,71.83,22.68,111.52,9.45,62.38,9.45,62.38c0,0,7.56-11.34,1.89-34.02-1.89-11.34,0-20.79,0-20.79l5.67,7.56s41.58-323.22-5.67-393.15Z"/><path class="o" d="M197.36,1826.99s-1.89-39.69-15.12-103.96c-13.23-64.27,15.12-200.36,32.13-211.7,17.01-11.34,15.12,120.97,20.79,137.98,5.67,17.01,15.12,60.49,15.12,60.49,0,0,11.34,37.8-17.01,64.27,0,0-15.12,68.05-35.91,52.92Z"/><path class="o" d="M250.28,1630.41s-22.68,47.25,20.79,103.96c0,0,22.68-85.06,7.56-90.73-15.12-5.67-9.45,7.56-28.35-13.23Z"/><path class="o" d="M135.93,1708.85s5.67,22.68,9.45,28.35,1.89,18.9-1.89,32.13-7.56,22.68-7.56,30.24-8.51,10.4-8.51,10.4c0,0-3.78,18.9-9.45,34.02-5.67,15.12-3.78,17.01-3.78,17.01,0,0-3.78-5.67,0-28.35,0,0-5.67,11.34-7.56,26.46,0,0-1.89-9.45,1.89-24.57s1.89-24.57,1.89-24.57c0,0-17.01,71.83-11.34,115.3h-5.67s0-58.6,9.45-98.29c9.45-39.69,20.79-79.39,20.79-79.39,0,0,7.56-35.91,12.29-38.75Z"/><path class="o" d="M90.56,1882.75c0,5.67-1.89,47.25-1.89,47.25H37.64s24.57-20.79,45.36-62.38c0,0,7.56-1.89,9.45,3.78s-1.89,5.67-1.89,11.34Z"/><path class="l" d="M-9.62,1928.11s49.14-83.17,69.94-103.96c20.79-20.79,18.9-17.01,24.57-17.01s-5.67,20.79-7.56,22.68,1.89,17.01-9.45,34.02c-11.34,17.01-43.47,64.27-43.47,64.27H-9.62Z"/><path class="l" d="M1075.26,1646.81s-26.38-28.68-35.83-7.89c-9.45,20.79,22.68,28.35,22.68,28.35l13.15-20.46Z"/><path class="o" d="M181.29,1826.04s-14.18,3.62-13.23,17.01c0,15.12,11.34,22.68,18.9,28.35,0,0-11.34-20.79-7.56-28.35s5.67-7.56,5.67-7.56l-3.78-9.45Z"/><path class="o" d="M986.5,1652.15s-24.57,3.78-13.23-45.36c11.34-49.14,17.01-81.28,18.9-120.97s3.78-88.84,26.46-86.95c22.68,1.89,13.23,49.14,13.23,62.38s1.89,45.36,1.89,45.36c0,0-21.74,6.62-21.74,48.2,1.89,22.68-13.23,32.13-13.23,43.47,0,0-3.78,34.02-9.45,43.47-7.56,3.78-2.84,10.4-2.84,10.4Z"/><path class="o" d="M75.44,1780.68s-30.24,62.38-47.25,77.5c-13.87,12.34-35.31,56.12-42.74,71.83H-168.39v-17.01c-5.1,0-11.04,10.3-14.38,17.01h-21.04c.62-4.37,2.02-10.68,5.18-17.01,5.67-11.34,28.35-35.91,7.56-30.24-16.33,4.46-25.65,34.53-28.9,47.25h-39.49l-3.44-58.6c10.07-13.72,38.79-28.35,40.56-29.24-7.5,5.69-9.38,16.95-9.38,16.95,0,22.68,20.79,7.56,20.79,7.56l28.35-32.13s22.68,9.45,41.58-17.01c51.92-57.5,122.05-69.48,124.68-69.92-22.76,5.75-88.76,49.13-88.76,49.13,24.14,1.85,64.68-14.52,66.12-15.1-8.81,5.29-24.12,18.73-26.2,20.58,19.37-15.29,112.31-63.11,133.03-59.35,20.79,3.78,7.56,37.8,7.56,37.8Z"/><path class="o" d="M783.37,1717.83s.07,26.36,28.83,28.54c28.76,2.18,53.33-18.61,53.33-18.61l-26.46-103.96s-35.91-26.46-37.8-26.46-22.68,18.9-22.68,18.9c0,0-5.67,32.13-5.67,34.02s7.56,69.94,7.56,69.94l2.89-2.36Z"/></g></g></g><g id="d"><path class="m" d="M280.52,1562.36s0-.28,.43-.66l-.43,.66Z"/><path class="p" d="M332.5,916.87l-27.41,25.52s-1.89,18.9,11.34,28.35c13.23,9.45,26.46,43.47,41.58,28.35,15.12-15.12,28.35-45.36,47.25-32.13,18.9,13.23,45.36,39.69,45.36,39.69,0,0,17.01-30.24,17.01-41.58s-17.01-47.25-17.01-47.25c0,0-88.84-20.79-118.14-.95Z"/><path class="m" d="M765.67,1697.64c-1.29-26.42-1.53-59.14-8.83-78.57-11.34-30.24-22.68-304.32-17.01-364.8,5.67-60.49,13.23-170.11,13.23-170.11,13.23-51.03,20.79-168.22,15.12-187.13-5.67-18.9-18.9-83.17-18.9-83.17-5.67-75.61-56.7-156.88-128.53-230.6s-181.46-156.88-213.59-170.11c-32.13-13.23-94.51-7.56-115.3,0s-102.07,85.06-105.85,90.73-11.34,7.56-11.34,7.56l-13.23,43.47c-24.57,20.79-32.13,45.36-32.13,45.36v13.23c-5.67,5.67-7.56,11.34-7.56,11.34,3.78,0,3.78,5.67,3.78,5.67,0,0-35.91,32.13-48.2,114.35-20.79,132.31,73.72,143.65,73.72,143.65,34.97,8.51,31.19,16.07,31.19,16.07l-15.12,15.12c-1.89,32.13,3.78,35.91,3.78,35.91l-5.67,147.43c9.45-15.12,9.45-54.81,15.12-66.16,5.67-11.34,13.23-34.02,13.23-34.02,7.56-7.56,18.9-47.25,18.9-47.25,15.12-9.45,20.79-20.79,20.79-20.79,28.35-5.67,37.8-18.9,35.91-18.9h-13.23c-6.5-5.03-5.99-8.03,0-9.45,11.34,0,17.01-3.78,17.01-3.78v-7.56h-15.12l-1.89-3.78c3.78,0,3.78-1.89,3.78-1.89,35.91-1.89,60.49-18.9,60.49-18.9,1.89-18.9,13.23-1.89,13.23-1.89h15.12v-13.23l15.12-30.24c-1.89-30.24,1.89-62.38,11.34-68.05s35.91-3.78,43.47,17.01c7.56,20.79,17.01,32.13,17.01,32.13l1.89-7.56c3.78,1.89,11.34,34.02,11.34,34.02l11.34-11.34,18.9,15.12c9.45-1.89,28.35,13.23,28.35,13.23,18.9,0,32.13,7.56,32.13,7.56l47.25,1.89,3.78,11.34c37.8-7.56,86.95,13.23,86.95,13.23,1.89-3.78,13.23-3.78,13.23-3.78,41.58,5.67,28.35,22.68,35.91,24.57,7.56,1.89,11.34,24.57,11.34,24.57,0,0,0,37.8,1.89,69.94,1.89,32.13-7.56,47.25-7.56,47.25v17.01l-9.45-11.34c-1.89,5.67,3.78,13.23,3.78,13.23v5.67c-1.89-1.89-7.56-18.9-7.56-18.9-3.78,3.78-3.78,13.23-3.78,13.23l-5.67,1.89v3.78c5.67,3.78,0,11.34,0,11.34v7.56c-3.78,0-5.67-1.89-5.67-1.89-1.89,13.23-3.78,17.01-3.78,17.01h-3.78c-3.78,5.67,1.89,15.12,1.89,15.12,5.67,9.45-3.78,11.34-3.78,11.34,1.89,3.78,1.89,7.56,1.89,7.56,1.89,7.56-3.78,15.12-3.78,15.12-3.78-5.67-9.45-3.78-9.45-3.78,3.78,7.56,0,11.34,0,11.34h-1.89c0,3.78-5.67,9.45-5.67,9.45,0,1.89,1.89,1.89,1.89,1.89v15.12c-3.78,1.89-3.78,7.56-3.78,7.56,0-7.56-3.78-9.45-3.78-9.45v-26.46c3.78,0,1.89-9.45,1.89-9.45,0,0-1.89,1.89-3.78,3.78s-1.89,7.56-1.89,7.56c0-5.67-3.78-11.34-3.78-11.34-1.89,7.56-5.67,5.67-5.67,5.67l-1.89,13.23s0-9.45-5.67-9.45-7.56,3.78-7.56,3.78v13.23h-1.89l-5.67-5.67v-9.45l3.78-1.89v-11.34c-5.67,1.89-7.56,9.45-7.56,9.45-3.78,1.89-3.78,5.67-3.78,5.67h-3.78c-1.89-3.78-5.67-5.67-5.67-5.67l-1.89,15.12c0-3.78-7.56-7.56-7.56-7.56,1.89,7.56-3.78,17.01-3.78,17.01,0-5.67-5.67-17.01-5.67-17.01l-1.89,18.9h-3.78l1.89,3.78c-1.89,1.89-5.67-9.45-5.67-9.45-9.45,15.12,3.78,15.12,3.78,15.12v22.68l-1.89-3.78-3.78,5.67c3.78,1.89,1.89,15.12,1.89,15.12h-13.23c-9.45,0-5.67-9.45-5.67-9.45,13.23-13.23,0-37.8,0-37.8l-3.78,11.34c0-9.45-9.45-24.57-9.45-24.57l-3.78,5.67c1.89-7.56-5.67-22.68-5.67-22.68l1.89-3.78c5.67-9.45-1.89-17.01-1.89-17.01l-1.89,13.23c-1.89-3.78-9.45-5.67-9.45-5.67l-1.89-9.45s13.23-1.89,11.34-7.56c-3.78-1.89-3.78-17.01-3.78-17.01-18.9,3.78-18.9-17.01-18.9-17.01l-5.67,3.78c-5.67-3.78-5.67-13.23-5.67-13.23-3.78-1.89-9.45,9.45-9.45,9.45,0-5.67-7.56-17.01-7.56-17.01-1.89,13.23-9.45,11.34-9.45,11.34,3.78,1.89,7.56,15.12,7.56,15.12,0,0-13.23,0-11.34,11.34s-5.67,15.12-5.67,15.12c5.38-3.54,8.22-27.67,5.67-39.69-2.39-11.25,5.67-18.9,3.78-17.01s-9.45,1.89-9.45,1.89c1.89-5.67-1.89-11.34-1.89-11.34,0,5.67-7.56,15.12-7.56,15.12,0-3.78-9.45-9.45-9.45-9.45v7.56c-13.23-1.89-15.12-9.45-15.12-9.45-9.45-7.56-22.68-1.89-22.68,7.56s7.56,15.12,7.56,15.12c0-5.67,3.78-3.78,3.78-3.78l1.89,18.9c-15.12,7.56-35.91-7.56-35.91-7.56,0,0-1.89,22.68-37.8,11.34-35.91-5.67-26.46-20.79-26.46-20.79,22.68,3.78,22.68-11.34,15.12-22.68s22.68-11.34,22.68-11.34v24.57l-3.78,7.56c5.67,7.56,20.79-1.89,22.68-9.45s11.34-17.01,11.34-17.01c5.67-13.23-9.45-26.46-9.45-26.46-1.89,9.45,1.89,11.34,1.89,11.34l-5.67,1.89c0,11.34-5.67,9.45-5.67,9.45-9.45-7.56-3.78-22.68-3.78-22.68l11.34-11.34-3.78-3.78c1.89-13.23,18.9-13.23,22.68-5.67s11.34,7.56,11.34,7.56c15.12-1.89,15.12,13.23,15.12,13.23h13.23c11.34,0,13.23-13.23,13.23-13.23v-26.46l-18.9,5.67c-22.68-37.8-51.03-34.02-51.03-34.02l-3.78-3.78-13.19,16.5-17.99,24.14-2.04-1.36c-3.06-1.59-11.21-7.28-16.58-11.1l.02-.02-4.5-3.19-.23-.17c-.19-.15-.3-.23-.3-.23-24.57-13.23-32.13-37.8-32.13-37.8-1.89,41.58,1.89,79.39,1.89,79.39,0,0-7.56,13.23-7.56,32.13s-19.51,33.08-20.74,33.99c11.28-7.45,11.28,13.27,11.28,13.27,0,0-18.9,5.67-24.57,26.46-5.67,20.79-13.23,13.23-13.23,13.23l1.89,5.67c-9.45-3.78-9.45-24.57-9.45-24.57h9.45c-1.89-7.56-11.34-18.9-11.34-18.9h5.67c0-3.78-15.12-13.23-15.12-13.23,1.89-5.67,13.23-5.67,13.23-5.67,0,0,0-5.67-5.67-5.67s-9.45-11.34-9.45-11.34c5.67,0,11.34,5.67,11.34,5.67,0,0,0-7.56-3.78-15.12s-32.13-28.35-32.13-28.35c0,0,0,77.5,5.67,137.98,5.67,60.49-1.89,179.57-7.56,219.26-5.67,39.69-3.78,90.73-3.78,90.73,0,0,0-9.45,17.01-68.05,17.01-58.6,26.46-34.02,26.46-34.02,0,0,3.78,32.13,5.67,79.39s-1.89,126.64-1.89,126.64c5.67-1.89,22.68-60.49,30.24-52.92s11.34,24.57,11.34,24.57l-3.33,5.01c1.15-1,5.33-2.59,20.34-1.23,19.26,1.76,14.2,31.09,11.83,50.43v.02s.02,.06,.02,.09c.02,.06,.04,.13,.08,.23,.09,.34,.26,.91,.53,1.72,.04,.17,.09,.32,.15,.51,.06,.17,.11,.36,.17,.57,.43,1.27,.98,2.89,1.68,4.8,1.04,2.84,2.42,6.29,4.14,10.17-.47,1.08-.95,2.17-1.42,3.29-2.42,5.59-5.03,11.64-7.75,17.96-3.57,8.35-7.3,17.16-10.96,25.95,0,1.08,0,2.21,.02,3.38,0,.68,0,1.36,.02,2.04,0,.7,.02,1.4,.04,2.14,.02,.72,.04,1.46,.06,2.19,.04,1.23,.08,2.48,.13,3.76,.04,.93,.08,1.87,.13,2.84,.04,1.04,.09,2.12,.17,3.21,.08,1.4,.17,2.82,.26,4.27,.09,1.46,.21,2.95,.34,4.48,.13,1.49,.26,3.02,.42,4.59,.13,1.44,.26,2.89,.43,4.39,.08,.76,.15,1.49,.25,2.25,.08,.76,.17,1.51,.26,2.29,.13,1.13,.26,2.29,.42,3.44,.02,.15,.04,.28,.06,.42,.17,1.29,.34,2.59,.51,3.91,.28,1.98,.57,3.99,.89,6.03,.15,1.02,.3,2.04,.47,3.08,.17,1.04,.36,2.08,.53,3.12,.23,1.4,.47,2.8,.74,4.22,.4,2.14,.79,4.27,1.23,6.45,.57,2.87,1.17,5.77,1.83,8.69,.32,1.42,.64,2.85,.98,4.29,.19,.83,.4,1.66,.6,2.49,.38,1.51,.76,3.01,1.13,4.54,.23,.87,.45,1.74,.68,2.63,.34,1.32,.7,2.65,1.08,3.99,.57,2.02,1.15,4.04,1.76,6.09,.6,2.04,1.23,4.08,1.89,6.14,.45,1.42,.91,2.84,1.38,4.25,.53,1.57,1.06,3.12,1.61,4.69,.02,.11,.06,.23,.11,.34,.51,1.46,1.04,2.91,1.57,4.37,1.13,3.14,2.34,6.28,3.63,9.43,.64,1.57,1.29,3.14,1.95,4.71,.32,.79,.66,1.59,1.02,2.36,.34,.78,.68,1.57,1.02,2.34,.36,.79,.7,1.57,1.06,2.36,.7,1.57,1.44,3.12,2.19,4.69l1.7,3.52c.57,1.17,1.15,2.34,1.74,3.5,1.97,3.84,4.04,7.67,6.24,11.47,.72,1.27,1.46,2.53,2.21,3.8,.15,.19,.25,.28,.25,.28v3.78c28.35,41.58,51.03,56.7,51.03,56.7v9.45h3.78c1.89-5.67,3.78-3.78,3.78-3.78v9.45h1.89c0-5.67,3.78-5.67,3.78-5.67l1.89,7.56h1.89l1.89-3.78s.09,0,.13,.02c.7,.06,1.36,.59,1.95,1.25,0,.02,.02,.02,.02,.02,.98,1.1,1.68,2.5,1.68,2.5h175.79l1.89-3.78,3.78,3.78h3.78l1.89-5.67,3.78-1.89,1.89,7.56h3.78c-1.89-1.89-1.89-9.45-1.89-9.45,1.89-3.78,9.45,1.89,9.45,1.89v-7.56l3.78,1.89c3.78,5.67,7.56,9.45,7.56,9.45v3.78h5.67l1.89-5.67h-3.78c-7.56-3.78-3.78-15.12-3.78-15.12l3.78,5.67v-5.67l5.67-3.78,3.78,9.45c3.78-3.78,0-11.34,0-11.34l9.45-1.89s9.45-15.12,22.68-37.8c41.58-69.94,90.73-122.86,90.73-122.86v-5.67c-2.7-7.41-3.7-20.13-4.4-34.76v-.08ZM290.92,858.28v-9.45c17.01,5.67,0,9.45,0,9.45Zm33.08-33.08c-1.89-1.89-11.34,0-11.34-1.89s-9.45-3.78-3.78,1.89-1.89,17.01-1.89,17.01h-30.24v-3.78c-9.45-1.89-15.12,9.45-15.12,9.45-11.34,1.89-9.45-7.56-9.45-7.56h1.89l1.89-5.67-3.78-1.89v-1.89c9.45-3.78,47.25-7.56,47.25-7.56,0-5.67-11.34-7.56-11.34-7.56v3.78h-3.78v-3.78s-17.01,1.89-17.01-1.89,9.45-11.34,9.45-11.34h15.12c11.34,0,20.79,7.56,32.13,13.23s0,9.45,0,9.45Zm20.79,26.46l-13.23-15.12c9.45,0,9.45,7.56,9.45,7.56,0-3.78,3.78-1.89,3.78-1.89v9.45Zm189.96,348.73l-3.78,5.67c0-1.89-3.78-11.34-3.78-11.34,7.56,0,7.56,5.67,7.56,5.67Zm75.61,262.73c37.8,1.89,62.38-73.72,98.29-26.46v230.6s-34.02,34.02-153.1,18.9c0,0-11.34,3.78-17.01-3.78,0,0,17.01,1.89,20.79-1.89v-3.78s-15.12,1.89-17.01-5.67l-1.89,7.56-3.78-1.89s-5.67-9.45-15.12-9.45c0,0,1.89-3.78-1.89-5.67h5.67v3.78s9.45,0,9.45-1.89c0,0,1.89,5.67,3.78,5.67s5.67-5.67,5.67-5.67c0,0,1.89,3.78,3.78,3.78s1.89-5.67,1.89-7.56h7.56s3.78-1.89,3.78-3.78c0,0-13.23,0-15.12-9.45v-7.56s-3.78-1.89-7.56,0c0,0-1.89-3.78,1.89-7.56,3.78-3.78,5.67-11.34,1.89-15.12,0,0,0-5.67,1.89-5.67h-9.45s0,5.67-5.67,1.89c0,0-5.67-5.67,0-5.67v1.89h3.78s5.67-1.89,3.78-5.67c0,0-15.12-1.89-20.79-7.56,0,0-3.78,0-3.78,3.78h-3.78v-5.67s-3.78-5.67-13.23-5.67v5.67s-7.56,1.89-3.78-3.78h1.89v-3.78s1.89-5.67-9.45-5.67c0,0,3.78-1.89,3.78-13.23,0,0,32.13-103.96,122.86-103.96Zm-230.6,153.1h7.56s-5.67-3.78-5.67-9.45c0,0,7.56,1.89,7.56,5.67h13.23l3.78-7.56v5.67s5.67-1.89,7.56,1.89c0,0,3.78-1.89,3.78-3.78h5.67s1.89,5.67,7.56,5.67c0,0-1.89,3.78-3.78,3.78,0,0,7.56,1.89,11.34,7.56l1.89,1.89v5.67s1.89,0,3.78,5.67,1.89,7.56,1.89,7.56c0,0,5.67,1.89,5.67,9.45,0,0,3.78,13.23,9.45,17.01s-1.89,11.34-32.13,1.89-52.92-13.23-73.72-43.47h13.23s-3.78-18.9,11.34-15.12Zm-69.94-446.08c7.56-20.79,94.51-56.7,158.77-24.57,0,0,45.36-5.67,49.14,45.36l3.78-1.89v9.45l-7.56,7.56s-1.89-15.12-18.9-17.01l-1.89,15.12s-3.78,9.45-13.23,7.56v5.67l-5.67-18.9h-3.78v7.56s-1.89-9.45-9.45-9.45c0,0,1.89-7.56-7.56-11.34,0,0,0,11.34-3.78,11.34v-7.56l-9.45-11.34-1.89,7.56s-64.27-32.13-128.53,1.89v-17.01Z"/><path class="m" d="M406.22,1060.53s-7.56,3.78-7.56,15.12h-1.89l-1.89,11.34s9.45,0,11.34-5.67c1.89-5.67,1.89-11.34,1.89-11.34h1.89v-7.56s0-1.89-1.89-1.89h-1.89Z"/><path class="m" d="M413.78,1073.76s-5.67,5.67-5.67,7.56,0,3.78,1.89,3.78,1.89-1.89,1.89-1.89c0,0,5.67-5.67,5.67-7.56s-3.78-1.89-3.78-1.89Z"/><path class="m" d="M496.95,1245.76s0,7.56,3.78,11.34c3.78,3.78,1.89,9.45,5.67,11.34l1.89-17.01h-5.67s0-5.67-5.67-5.67Z"/><path class="m" d="M521.52,1274.11s-7.56,7.56-7.56,13.23v5.67h7.56s-1.89-5.67,0-11.34v-7.56Z"/><path class="m" d="M476.16,1268.44s-9.45,5.67-3.78,9.45c5.67,3.78,7.56,3.78,7.56,3.78v7.56l7.56-1.89-3.78-3.78v-7.56l-7.56-7.56Z"/><path class="m" d="M470.49,1283.56v15.12s3.78,5.67,5.67,5.67v-13.23l-5.67-7.56Z"/><polygon class="m" points="457.25 1236.31 455.36 1240.09 461.03 1245.76 461.03 1243.87 461.03 1236.31 457.25 1236.31"/><polygon class="m" points="451.58 1243.87 455.36 1247.65 455.36 1255.21 459.14 1253.32 459.14 1245.76 451.58 1243.87"/><polygon class="m" points="440.24 1236.31 442.13 1241.98 442.13 1245.76 445.91 1245.76 445.91 1238.2 440.24 1236.31"/><path class="m" d="M430.79,1232.53s-3.78,1.89-3.78,3.78,1.89,5.67,3.78,5.67,5.67-1.89,5.67-3.78-5.67-5.67-5.67-5.67Z"/><polygon class="m" points="410 1238.2 408.11 1245.76 411.89 1245.76 410 1238.2"/><path class="m" d="M402.44,1277.89v9.45s3.78,1.89,3.78,3.78h3.78s1.89-7.56,0-9.45c-1.89-1.89-5.67-5.67-7.56-3.78Z"/><polygon class="m" points="453.47 1291.13 451.58 1294.91 455.36 1302.47 457.25 1296.8 453.47 1291.13"/><path class="m" d="M479.94,1672.94c-1.88-.21,1.89-5.67,1.89-5.67,0,0,15.12-1.89,20.79,5.67v5.67s-5.67-3.78-22.68-5.67Z"/><path class="m" d="M489.39,1650.26v3.78s1.89,5.67,13.23,3.78v-5.67c-.97,2.12-2.84,2.78-5.67,1.89,1.61-1.24-3.78-3.78-7.56-3.78Z"/><path class="m" d="M451.58,1642.7s1.89,5.67,9.45,9.45l7.56,9.45s1.89,0,1.89-3.78h5.67s-1.89,3.78,1.89,3.78h1.89s1.89-5.67-3.78-7.56c-5.67-1.89-7.56-1.89-7.56-1.89,0,0-3.78-7.56-7.56-7.56h-5.67v-1.89h-3.78Z"/><path class="q" d="M788.96,1802.34s-.02,0-.02,.02c-3.27,2.23-7.3,5.01-12.25,8.56-1.83,2.44-4.54,5.76-7.94,9.81-1.13,1.34-2.34,2.78-3.63,4.27-3.97,4.65-8.6,9.96-13.67,15.69-.62,.7-1.23,1.38-1.85,2.08-4.33,4.9-8.94,10.07-13.68,15.37-1.32,1.47-2.65,2.95-3.97,4.42-2.21,2.46-4.44,4.93-6.67,7.39-1.29,1.44-2.57,2.85-3.86,4.27-12.89,14.25-25.73,28.28-35.88,39.33-.81,.89-1.61,1.74-2.36,2.57-4.29,4.67-8,8.69-10.93,11.87-.66,.72-1.27,1.38-1.83,2h-244.66c-1.64-.93-3.27-1.87-4.86-2.84-1.38-.83-2.74-1.66-4.08-2.5,0,0-.02,0-.02-.02-.66-.42-1.29-.83-1.95-1.25-12.49-8.07-23.65-17.14-33.61-26.95-1.21-1.19-2.42-2.4-3.59-3.61-1.06-1.08-2.1-2.17-3.12-3.27-.11-.13-.25-.26-.36-.4-1.15-1.23-2.27-2.46-3.38-3.72-.89-.98-1.76-1.98-2.61-2.99-1.36-1.59-2.7-3.19-4.03-4.84-.98-1.21-1.95-2.44-2.89-3.67-2.02-2.59-3.97-5.24-5.86-7.9-.42-.59-.83-1.15-1.25-1.76-.11-.15-.23-.32-.34-.49-.51-.74-1-1.46-1.49-2.19-.51-.74-1.02-1.49-1.51-2.25-1.08-1.63-2.14-3.25-3.18-4.91-.79-1.29-1.59-2.55-2.36-3.84-.17-.26-.32-.55-.49-.81-.08-.15-.17-.28-.25-.42-.76-1.27-1.49-2.53-2.21-3.8-2.19-3.8-4.27-7.64-6.24-11.47-.59-1.15-1.17-2.32-1.74-3.5l-1.7-3.52c-.76-1.57-1.49-3.12-2.19-4.69-.36-.79-.7-1.57-1.06-2.36-.34-.77-.68-1.57-1.02-2.34-.36-.77-.7-1.57-1.02-2.36-.66-1.57-1.3-3.14-1.95-4.71-1.29-3.16-2.5-6.29-3.63-9.43-.53-1.46-1.06-2.91-1.57-4.37-.06-.11-.09-.23-.11-.34-.55-1.57-1.08-3.12-1.61-4.69-.47-1.42-.93-2.84-1.38-4.25-.66-2.06-1.29-4.1-1.89-6.14-.6-2.04-1.19-4.06-1.76-6.09-.38-1.34-.74-2.67-1.08-3.99-.23-.89-.45-1.76-.68-2.63-.38-1.53-.76-3.02-1.13-4.54-.21-.83-.42-1.66-.6-2.49-.34-1.44-.66-2.87-.98-4.29-.34-1.47-.64-2.91-.95-4.37-.32-1.46-.6-2.89-.89-4.33-.43-2.17-.83-4.31-1.23-6.45-.26-1.42-.51-2.82-.74-4.22-.17-1.04-.36-2.08-.53-3.12-.17-1.04-.32-2.06-.47-3.08-.32-2.04-.6-4.04-.89-6.03-.17-1.32-.34-2.63-.51-3.91-.02-.13-.04-.26-.06-.42-.15-1.15-.28-2.31-.42-3.44-.09-.77-.19-1.53-.26-2.29-.09-.76-.17-1.49-.25-2.25-.17-1.49-.3-2.95-.43-4.39-.15-1.57-.28-3.1-.42-4.59-.13-1.53-.25-3.02-.34-4.48-.09-1.46-.19-2.87-.26-4.27-.08-1.1-.13-2.17-.17-3.21-.06-.96-.09-1.91-.13-2.84-.06-1.29-.11-2.53-.13-3.76-.02-.74-.04-1.47-.06-2.19-.02-.74-.04-1.44-.04-2.14-.02-.68-.02-1.36-.02-2.04-.02-1.17-.02-2.31-.02-3.38,3.67-8.79,7.39-17.6,10.96-25.95,2.72-6.31,5.33-12.36,7.75-17.96,.47-1.12,.95-2.21,1.42-3.29,.98-2.27,1.93-4.44,2.84-6.5,.59-1.36,1.17-2.67,1.72-3.93,.3-.68,.59-1.34,.87-2,.42-.93,.81-1.83,1.19-2.7,.36-.79,.7-1.55,1.02-2.29,.23-.49,.43-.96,.62-1.44,2.25-5.07,3.87-8.75,4.71-10.58,.06-.13,.11-.26,.17-.4,.02-.06,.04-.09,.08-.13,0-.02,0-.04,.02-.06,.06-.15,.11-.28,.15-.38,.02-.02,.04-.06,.04-.08,.06-.09,.08-.17,.09-.21,.02-.02,.02-.04,.02-.04,9.45,35.91,5.67,71.83,160.66,92.62,177.68,26.46,268.4-32.13,268.4-32.13,0,1.44,.02,2.91,.06,4.4,.02,.74,.04,1.49,.08,2.25,.04,1.47,.11,2.97,.21,4.48,.04,.83,.09,1.68,.15,2.53,.53,7.98,1.46,16.48,2.66,25.21v.08c1.1,7.96,2.42,16.1,3.86,24.16,.36,2.02,.74,4.03,1.12,6.03,2.44,13.04,5.16,25.71,7.73,36.86,.19,.85,.38,1.7,.59,2.55,.28,1.29,.59,2.55,.87,3.78,.13,.59,.28,1.17,.42,1.74,.28,1.15,.55,2.29,.81,3.4,.13,.53,.25,1.06,.38,1.59,.36,1.47,.72,2.91,1.06,4.29,.28,1.13,.55,2.23,.81,3.29,.34,1.36,.7,2.68,1.08,3.97,1.32,4.65,2.84,8.77,4.35,12.4,.08,.19,.15,.38,.23,.57Z"/><path class="q" d="M396.77,1930H190.74l-2.84-61.43,7.56-13.23v-13.23s5.67,13.23,9.45,13.23c0,0,3.78,3.78-1.89,7.56l3.78,3.78,7.56-7.56-7.56-1.89s15.12-18.9,18.9-37.8,34.02-64.27,41.58-71.83c7.56-7.56,17.01-32.13,22.68-66.16,0,0,20.79-47.25,22.68-66.16,.13-1.38,.3-2.84,.49-4.37,.13,.49,2.19,7.81,6.77,18.09-2.82,6.5-5.92,13.68-9.17,21.25-3.57,8.35-7.3,17.16-10.96,25.95-.17,32.08,5.75,107.8,44.76,173.18-3.82-4.29-48.82-57.12-47.01-158.49l-3.78,3.78s-5.67,60.49,17.01,107.74l-3.78,1.89s15.12,62.38,75.61,115.3c0,0,1.89-7.56,1.89-11.34,0,0,1.89,7.56,1.89,13.23,0,0,6.62,6.62,10.4,8.51Z"/><path class="q" d="M328.72,1580.32s-6.98,27.91-12.94,38.53c-5.96,10.62,9.16,18.18,9.16,18.18,0,0,13.23-51.03,9.45-62.38l-5.67,5.67Z"/><path class="s" d="M418.87,739.93s-8.87-25.99-74.08-14.31c-65.21,11.68,12.29-22.34,12.29-22.34,0,0,68.05-7.56,73.72,15.12s-11.92,21.53-11.92,21.53"/><path class="m" d="M312.66,1160.7s8.51,22.68,38.75,15.12c30.24-7.56,52.92-5.67,60.49-3.78,7.56,1.89,45.36-11.34,68.05-30.24,0,0-8.51,2.84-31.19-10.4,0,0-88.84-13.23-136.09,29.3Z"/></g><g id="e"><path class="s" d="M277.69,427.32s56.7-45.36,145.54-5.67c61.43,36.86,199.41,142.71,269.35,244.78s51.03,126.64,58.6,154.99,15.12,81.28,20.79,85.06c0,0,0,9.45-1.89,11.34,0,0-3.78,73.72-11.34,139.87-7.56,66.16-7.56,81.28-7.56,81.28l-11.34,98.29v168.22s7.56-56.7-56.7-47.25c0,0-11.34,15.12-30.24,13.23l-9.45,11.34s-26.46,5.67-34.02,22.68c-7.56,17.01-34.02,39.69-34.02,39.69h-9.45s-34.02,20.79-41.58,32.13c-7.56,11.34-5.67-9.45-39.69,26.46h-3.78v5.67h-7.56v9.45h-7.56l3.78-3.78-1.89-3.78h-1.89v3.78h-9.45v-1.89s-3.78,3.78-1.89,7.56l1.89,3.78s-5.67,1.89-7.56-7.56l-1.89,5.67s1.89,3.78,3.78,3.78c0,0-3.78,1.89-7.56-1.89,0,0-5.67,3.78-7.56,7.56s-5.67,7.56-9.45,7.56c0,0,5.67-3.78,3.78-11.34l-13.23,11.34s0,3.78,1.89,3.78c0,0-7.56,3.78-11.34-1.89h-5.67s-3.78,1.89-9.45-3.78c0,0,3.78,7.56,9.45,9.45,0,0,1.89,5.67-1.89,5.67,0,0,0-3.78-1.89-3.78,0,0-3.78,7.56-9.45,5.67,0,0,0,5.67,1.89,5.67,0,0-5.67-1.89-9.45-7.56,0,0-3.78,3.78,3.78,7.56h-1.89v3.78s-45.36-1.89-43.47-58.6l9.45,11.34v-11.34s-7.56,0-9.45-3.78l-3.78,1.89v17.01l-1.89,1.89v9.45l1.89,1.89v9.45l-1.89,1.89v18.9s1.89,7.56,1.89,7.56l-7.56,7.56s3.78-41.58-9.45-45.36l3.78-1.89h-11.34s-9.45,7.56-17.01-1.89c-7.56-9.45-5.67-20.79-13.23-20.79s-26.46,37.8-26.46,37.8c0,0,9.45-43.47,0-132.31-9.45-88.84-17.01-68.05-20.79-62.38s-13.23,18.9-17.01,32.13-9.45,28.35-13.23,30.24c0,0,18.9-172,9.45-204.14v-39.69l-5.67-7.56v-62.38l5.67,11.34s9.45,66.16,18.9,73.72c0,0,0,17.01,3.78,17.01l15.12-24.57,5.67-1.89-1.89-26.46s5.67,0,13.23-18.9c7.56-18.9,18.9-30.24,24.57-30.24,0,0,0-9.45-3.78-9.45l11.34-1.89v-9.45l-3.78-1.89,9.45-15.12s-5.67-11.34,1.89-34.02c0,0,0-18.9-7.56-20.79v-28.35h1.89v-30.24s15.12,32.13,51.03,51.03h7.56l13.23-13.23s-1.89-26.46,22.68-22.68,43.47,43.47,49.14,45.36h-11.34s-5.67,7.56-18.9,0-18.9-15.12-34.02-7.56v7.56h1.89v9.45s-15.12,20.79-26.46,24.57c-11.34,3.78-18.9,18.9-17.01,32.13,0,0-20.79,13.23-18.9,28.35,0,0,15.12-1.89,22.68,3.78,7.56,5.67,54.81,20.79,83.17,5.67,0,0,15.12-7.56,17.01,9.45,0,0-11.34,1.89-18.9,5.67h-52.92s-15.12,13.23-39.69,17.01l-32.13,28.35-1.89-7.56h-7.56s3.78-9.45,1.89-17.01l-11.34,22.68h9.45v24.57s51.03-26.46,88.84-24.57c22.68,0,34.02,9.45,34.02,9.45l20.79,1.89,1.89,15.12s3.78-9.45,9.45-9.45l1.89,20.79-17.01,17.01-1.89,3.78h-3.78s1.89-7.56-7.56-7.56v7.56h-7.56v1.89h-3.78v1.89h-5.67v1.89l3.78,1.89v7.56h-5.67v-1.89l-1.89,3.78h7.56v11.34c4.6,.62,6.96-.75,8.51-2.84,1.78,7.54-2.38,19.34-6.62,31.19l-7.56,5.67h-3.78v13.23l3.78-5.67v-5.67l7.56-5.67,1.89,5.67,1.89-3.78h3.78s-1.89-17.01,9.45-24.57l1.89,7.56s4.3-4.3,5.41-6.66c.16-.35,.26-.66,.26-.9,0-1.89,1.89,7.56-1.89,11.34l3.78,3.78,1.89-3.78h3.78s3.78,1.89,5.67,3.78c0,0,1.89-7.56,1.89-15.12,0,0,3.78-3.78,7.56-1.89,0,0,1.89,9.45,3.78,9.45v-11.34s-1.89,0-3.78-3.78,1.89-13.23,1.89-13.23c0,0,0,9.45,7.56,15.12v15.12s0,5.67-5.67,5.67c0,0,0,7.56-3.78,7.56v15.12s3.78-1.89,7.56,3.78h1.89v-17.01h-3.78s5.67-5.67,5.67-11.34c0,0,15.12,18.9,1.89,26.46v15.12h5.67l1.89-11.34,1.89,5.67h1.89v-13.23h1.89v-20.79s5.67,5.67,5.67,15.12h1.89s-1.89-24.57,7.56-30.24c0,0,3.78,1.89,3.78,5.67,0,0,1.89-13.23,1.89-18.9,0,0,5.67,3.78,5.67,7.56v11.34l1.89,1.89v37.8s0-5.67,3.78-5.67v-30.24s1.89,9.45,5.67,11.34v3.78l-1.89,3.78,7.56,17.01v-17.01l3.78-1.89h-7.56s9.45-5.67,9.45-9.45c0,0,1.89,3.78,3.78,3.78s1.89-3.78,0-3.78l9.45-1.89v-5.67h-3.78v-17.01s-5.67-1.89-5.67-7.56v13.23s1.89,7.56,3.78,7.56c0,0-1.89,3.78-3.78,5.67l-1.89-11.34-7.56,1.89s-1.89,5.67-3.78,5.67c0,0,7.56-24.57-5.67-20.79,0,0-7.56-15.12,1.89-24.57,0,0,3.78,11.34,11.34,11.34,0,0,3.78-20.79-5.67-18.9,0,0,3.78-3.78,3.78-7.56,0,0,3.78,7.56,7.56,1.89,0,0,9.45,11.34,7.56,20.79h3.78s0-9.45-1.89-11.34c0,0,3.78-3.78,3.78-5.67,0,0,5.67,18.9,5.67,37.8,0,0,5.67,0,5.67-1.89,0,0,1.89,5.67,3.78,5.67,0,0-3.78,3.78-7.56,0,0,0-1.89,18.9,3.78,22.68,0,0,3.78,0,3.78-9.45h-3.78s5.67-5.67,5.67-15.12c0,0,7.56-3.78,1.89-7.56h-5.67s-3.78-5.67-5.67-5.67c0,0,5.67-32.13-15.12-30.24v-9.45s5.67-3.78,5.67-5.67v-5.67s-7.56-3.78-13.23-17.01h-3.78s0-11.34-13.23-15.12v-7.56s-9.45-13.23-18.9-13.23v-5.67l1.89-1.89v-5.67h-1.89v-7.56l1.89-1.89v-3.78s-7.56,1.89-11.34-5.67l1.89-9.45s1.89,3.78,9.45,3.78c0,0,3.78,13.23,9.45,17.01l1.89-5.67h3.78s3.78-5.67-3.78-7.56c0,0,5.67-1.89,7.56,0v5.67h1.89v13.23s-7.56,1.89,1.89,5.67l1.89-11.34s5.67,7.56,7.56,15.12c1.89,7.56,0,9.45,0,9.45,0,0,5.67-1.89,9.45,3.78l1.89-7.56s1.89,13.23,9.45,15.12v7.56l1.89,1.89,1.89,5.67s-5.67-1.89-11.34-15.12c0,0-5.67,5.67,0,9.45,5.67,3.78,11.34,7.56,13.23,18.9l1.89,11.34,3.78,1.89s0,5.67,9.45,9.45v11.34l-1.89,1.89v9.45l5.67,7.56v15.12s3.78-1.89,3.78-5.67v9.45s3.78,5.67,9.45,0c5.67-5.67,1.89,13.23,7.56,15.12v-9.45s0-3.78-3.78-7.56c0,0,0-3.78,3.78-1.89,0,0,3.78,3.78,5.67,0s0-11.34,0-11.34c0,0,3.78-3.78,3.78-5.67,0,0,0,11.34,5.67,11.34h1.89s9.45,18.9,3.78,26.46h5.67s1.89,17.01,7.56,18.9c0,0,7.56,1.89,1.89-9.45-5.67-11.34-3.78-15.12-3.78-15.12l-7.56-7.56s-1.89-7.56,1.89-7.56c0,0,1.89-5.67-1.89-5.67s1.89-11.34,1.89-11.34c0,0,5.67,15.12,9.45,17.01l7.56-7.56v-13.23h11.34v-13.23s0,7.56,9.45,7.56v11.34l-1.89,1.89v9.45l1.89,1.89v3.78s9.45-1.89,9.45-5.67v-7.56s3.78-7.56,7.56-7.56l-3.78-1.89,1.89-5.67s1.89-9.45,5.67-9.45c0,0,1.89,3.78,3.78,3.78s5.67-17.01,5.67-17.01c0,0,0,11.34,3.78,11.34l-1.89,1.89s3.78,3.78,3.78,5.67c0,0,1.89-7.56,7.56-9.45,0,0-3.78-3.78-5.67-17.01l-1.89,5.67s-3.78-1.89-3.78-5.67c0,0-1.89,5.67-5.67,5.67v-24.57s-1.89-1.89-3.78-1.89c0,0,9.45-7.56,9.45-13.23,0,0,0,24.57,5.67,26.46,0,0,1.89,5.67,5.67,7.56,3.78,1.89,1.89,3.78,1.89,3.78l1.89-7.56s-7.56,1.89-7.56-5.67c0,0,5.67-1.89,3.78-13.23,0,0-5.67,1.89-5.67,7.56,0,0-3.78-3.78,0-9.45,3.78-5.67,1.89-13.23,1.89-13.23,0,0,5.67,9.45,5.67,13.23h3.78s0-3.78-3.78-5.67c0,0,9.45-3.78,9.45,5.67l-3.78,1.89,1.89,5.67,1.89-3.78s5.67,9.45,5.67,15.12c0,0,7.56-7.56,0-11.34v-11.34s6.49,4.87,7.44,8.59c.08,.3,.12,.58,.12,.86,0,3.78,1.89-7.56,5.67-9.45s-3.78-3.78-3.78-3.78c0,0,0-22.68-5.67-28.35,0,0,9.45,3.78,9.45,7.56v-18.9s-3.78,0-3.78-9.45c0,0,9.45-1.89,13.23,5.67v-7.56s-3.78-13.23-3.78-26.46l3.78,1.89s-3.78-7.56-3.78-15.12l5.67,1.89v-11.34s-1.89-3.78,0-20.79c0,0,3.78,7.56,7.56,7.56,0,0,13.23-51.03,3.78-92.62,0,0,0-54.81-9.45-60.49,0,0,1.89-17.01-22.68-32.13v-5.67s-47.25-13.23-69.94-7.56l-13.23-7.56-17.01,1.89v3.78l-18.9-11.34-1.89,3.78s-37.8,5.67-49.14-3.78-7.56-20.79-7.56-20.79c0,0-24.57-3.78-24.57,17.01,0,0-32.13,3.78-35.91-9.45,0,0,15.12-18.9,64.27-17.01l9.45-13.23,5.67,7.56h13.23l3.78-3.78v3.78h9.45s-11.34-5.67-15.12-13.23h-13.23s0,3.78,1.89,3.78c0,0-3.78,1.89-7.56-1.89h-7.56s1.89,3.78,3.78,3.78c0,0-7.56,1.89-11.34-3.78h-3.78l1.89,3.78s-5.67,1.89-9.45-3.78c0,0-7.56,1.89-1.89,18.9l-9.45,1.89s0-9.45-9.45-3.78l1.89,7.56-13.23,3.78v-9.45s-26.46,17.01-45.36-5.67l3.78-1.89s1.89-5.67-1.89-7.56,0-5.67,0-5.67c0,0,1.89,1.89,9.45,1.89h1.89s1.89-3.78,0-11.34l5.67-1.89v13.23h1.89s1.89-15.12,1.89-18.9h3.78s-3.78,15.12-1.89,22.68c0,0,3.78,1.89,3.78,9.45l3.78,3.78s0-9.45,3.78-9.45h5.67s-1.89-5.67,1.89-7.56,0-5.67,0-5.67c0,0,5.67,1.89,3.78,7.56h3.78s3.78-5.67,5.67-5.67c0,0-15.12-3.78-17.01-13.23,0,0,0,1.89-3.78,1.89,0,0,1.89-1.89,0-3.78s-17.01,15.12-34.02,11.34c0,0-3.78-7.56-15.12-5.67,0,0,7.56-15.12-3.78-18.9s-17.01-17.01-17.01-24.57,1.89-22.68-3.78-26.46c0,0-3.78,7.56-3.78,13.23h-11.34v3.78s-7.56,0-11.34-5.67v-13.23s-1.89,7.56-7.56,7.56c0,0,1.89,3.78,1.89,5.67,0,0-7.56-3.78-9.45,3.78,0,0-9.45,1.89-11.34-3.78s0-17.01,0-17.01c0,0-11.34,5.67-13.23,15.12-1.89,9.45-13.23,9.45-13.23,9.45v7.56s5.67,5.67,5.67,11.34v17.01s22.68,18.9,22.68,35.91v24.57s-3.78,3.78-3.78,9.45c0,0-1.89,7.56-7.56,7.56,0,0-3.78-7.56-9.45-7.56,0,0-1.89-5.67-5.67-5.67v-9.45s-1.89-11.34-15.12-11.34c0,0-22.68-17.01-47.25-13.23s-34.02,22.68-35.91,28.35l3.78,3.78-3.78,5.67v11.34l-5.67,7.56s0,5.67,7.56,5.67c0,0,13.23-11.34,24.57-9.45,0,0,5.67-5.67,17.01-5.67h30.24s3.78,5.67,9.45,0h3.78s9.45,9.45,20.79,11.34c5.67,1.89,1.89,7.56-5.67,7.56s-17.01-7.56-17.01-7.56l-1.89,15.12s-15.12,1.89-24.57,9.45-30.24,9.45-37.8,0l-15.12,13.23h-3.78l-1.89,11.34-5.67-3.78-1.89,5.67s-1.89-3.78-7.56-5.67c0,0,0,7.56-3.78,7.56,0,0,0-7.56-5.67-7.56,0,0,1.89,56.7-7.56,66.16,0,0-11.34-1.89-13.23,13.23s-13.23,49.14-18.9,47.25c0,0,11.34-66.16,7.56-94.51h-3.78s0-18.9,9.45-20.79v-13.23s-1.89-5.67-18.9-7.56-37.8-9.45-37.8-9.45c0,0-56.7-24.57-52.92-92.62,3.78-68.05,0-103.96,66.16-175.79,0,0,15.12-17.01,13.23-28.35l-3.78-1.89s11.34-3.78,13.23-11.34l7.56-3.78,7.56-17.01-1.89-17.01s3.78-7.56,9.45-7.56l-7.56-7.56s26.46-20.79,37.8-37.8h9.45s15.12-30.24,48.2-51.98Z"/><path class="o" d="M336.28,988.7c0-.28,.04-.68,.12-1.14,.47-2.72,2.32-7.75,5.55-4.53,3.78,3.78,11.34,1.89,11.34,1.89,0,0,5.67,9.45,9.45,9.45s9.45-15.12,9.45-15.12l-7.56-1.89s3.78-5.67-11.34-9.45c-15.12-3.78-22,18.91-22,18.91l3.5,2.83"/><path class="s" d="M461.03,1138.02l-40.54-5.58,15.89-9.54s14.79,2.75,24.65,15.12"/><path class="s" d="M551.76,807.24s-17.25-2.36-25.63,3.54,4.84,2.13,4.84,2.13h20.79v-5.67Z"/><path class="q" d="M549.52,814.35s-7.21-1.43-10.99-7.1c0,0,3.78,9.45,7.56,9.45s3.43-2.35,3.43-2.35"/><path class="q" d="M541.44,816.69s-2.91,0-4.8-3.78c0,0,.14,3.49,3.85,5.53s.95-1.75,.95-1.75"/><path class="s" d="M442.13,1015.16s-5.67,13.23,9.45,11.34c0,0,0-5.67,3.78-5.67,0,0-1.89-5.67-13.23-5.67Z"/><path class="s" d="M461.03,1075.65v18.9s7.56,7.56,7.56,15.12,9.45,0,9.45,0c0,0,0-15.12-3.78-17.01s-5.67-9.45,0-9.45h7.56s-3.78-15.12-11.34-7.56-5.67,0-9.45,0Z"/><path class="s" d="M434.57,1075.65v20.79s5.67-3.78,5.67-5.67c0,0-1.89,5.67,3.78,5.67s1.89-17.01,1.89-17.01h3.78s-7.56-11.34-11.34-11.34v5.67l-3.78,1.89Z"/><path class="s" d="M421.34,1069.98s1.89-3.78,5.67-3.78,3.78,3.78,3.78,3.78c0,0-1.89,1.89-9.45,0Z"/><path class="s" d="M375.98,1056.74v20.79s1.89,3.78,5.67,0c3.78-3.78,3.78-11.34,3.78-11.34l9.45-9.45s0-7.56,1.89-9.45c0,0-11.34,9.45-13.23,11.34,0,0-1.89-1.89-7.56-1.89"/><path class="m" d="M515.85,778.89s5.67,3.78,5.67,7.56,5.67-1.89,5.67-1.89l-3.78-3.78s7.56,3.78,7.56,5.67,5.67-3.78,5.67-3.78c0,0-7.56-9.45-9.45-7.56s1.89,5.67,1.89,5.67l-7.56-5.67s-7.56,0-5.67,3.78Z"/></g><g id="f"><g><path class="q" d="M382.59,415.03s41.58,3.78,98.29,51.03,107.74,86.95,141.76,122.86c34.02,35.91,98.29,120.97,111.52,160.66,13.23,39.69,17.01,83.17,17.01,83.17,0,0,18.9,77.5,17.01,94.51,0,0-9.45-30.24-17.01-43.47s-3.78-26.46-39.69-35.91c-35.91-9.45-51.03-13.23-66.16-13.23l-15.12,13.23s-5.67-17.01-32.13-5.67c0,0-21.74,4.73-40.64,2.84-20.79-9.45-7.56-22.68-17.96-27.41,0,0,15.12-9.45,56.7-1.89,15.12,3.78,24.57,1.89,24.57,1.89,0,0-11.34-9.45-37.8-39.69-26.46-30.24-92.62-15.12-92.62-15.12l-39.69-15.12,5.67-5.67s-3.78-11.34,5.67-15.12c3.78-1.89,13.23,0,11.34-11.34,0,0,0,7.56-11.34,7.56,0,0,1.89-15.12-32.13-20.79s-90.73,0-90.73,0l-34.02,17.01s-5.67,13.23,0,18.9,9.45,13.23,9.45,17.01c0,0,5.67,9.45,13.23,11.34v17.01s7.56,0,9.45,5.67l3.78-1.89,1.89,3.78s15.12-1.89,17.01,15.12c1.89,17.01-1.89,34.02-1.89,34.02,0,0-17.01-41.58-58.6-45.36s-54.81,1.89-62.38,17.01c-7.56,15.12-17.01,26.46-9.45,35.91v13.23s-5.67,1.89-7.56-5.67v9.45h5.67v5.67l-7.56-1.89v11.34s9.45,0,9.45-7.56h7.56s13.23-20.79,54.81-24.57c0,0-1.89,15.12,5.67,15.12s3.78-13.23,0-15.12h15.12l1.89,1.89h9.45l-1.89,22.68-3.78-7.56s-9.45,22.68-43.47,20.79c-7.56,0-13.23-17.01-13.23-17.01l-22.68,24.57s-5.67,1.89-7.56-7.56c0,0,1.89,7.56-13.23,5.67l-3.78,43.47s1.89,13.23-9.45,17.01c0,0-3.78,9.45-9.45,13.23,0,0,0,20.79-7.56,24.57v-28.35h1.89s0-45.36,0-45.36h1.89v-15.12s-9.45-9.45-39.69-11.34-68.05-34.02-69.94-81.28c-1.89-47.25,0-94.51,24.57-137.98,24.57-43.47,66.16-77.5,66.16-77.5h5.67s15.12-13.23,15.12-13.23c0,0-1.89-15.12-5.67-11.34s-13.23,18.9-13.23,18.9c0,0,5.67-17.01,9.45-22.68s9.45-26.46,17.01-30.24h5.67s-5.67-13.23,9.45-28.35c15.12-15.12,49.14-73.72,86.95-85.06,37.8-11.34,69.94-7.56,81.28-5.67Z"/><path class="q" d="M514.9,819.53s-17.01,5.67-17.01,13.23h15.12s3.78-7.56,7.56-7.56c0,0,0-5.67-5.67-5.67Z"/><path class="q" d="M324,855.44s9.45,3.78,15.12,11.34l5.67-7.56s-15.12-11.34-20.79-3.78Z"/><path class="n" d="M380.7,978.3s13.23-15.12,34.02,1.89c17.01,17.01,17.01,30.24,9.45,34.02s-11.34,0-11.34,0c0,0,7.56-13.23-32.13-13.23,0,0-9.45-15.12,0-22.68Z"/><path class="n" d="M304.15,971.69s20.79,30.24,60.49,39.69l11.34,9.45s-7.56,17.01-18.9,24.57l-12.29,.95s-5.67,17.01-13.23,22.68v15.12s-35.91,39.69-41.58,51.03h-3.78s-1.89,3.78,1.89,5.67c0,0,1.89,7.56-3.78,15.12-5.67,7.56-9.45,11.34-9.45,11.34v18.9s3.78,0,3.78-1.89,3.78,3.78,3.78,13.23h3.78s0,15.12-5.67,17.01v13.23s0,1.89-3.78,1.89c0,0,3.78,0,3.78,3.78v3.78h13.23s-1.89-24.57,11.34-26.46h3.78s0-11.34,13.23-11.34h3.78v9.45s0-5.67,7.56-5.67c0,0,5.14,0,5.63-3.27,.02-.16,.04-.33,.04-.51,0-3.78,0,3.78,0,3.78,0,0,5.67-1.89,5.67-3.78v-11.34s5.67,1.89,9.45-3.78h11.34v3.78l3.78-3.78s1.89-3.78,7.56-3.78,3.78,3.78,3.78,3.78h13.23s11.34,1.89,11.34,11.34l7.56-1.89s0,5.67,1.89,5.67l1.89-5.67h5.67v7.56s3.78-1.89,5.67-3.78v13.23h5.67s1.89,1.89,1.89,5.67c0,0,0-1.89-3.78-1.89,0,0,0,3.78-5.67,5.67h1.89v7.56s-7.56-5.67-13.23-3.78v5.67h-7.56l-9.45,9.45v7.56h-3.78s0-3.78-3.78-3.78c0,0-1.89,3.78-3.78,3.78,0,0-1.89,0-3.78-3.78,0,0-1.89,3.78-5.67,3.78h-3.78s1.89-5.67-1.89-7.56c-3.78-1.89-3.78,1.89-3.78,1.89h-5.67s3.78,7.56-7.56,9.45h-11.34s-1.89,5.67-9.45,7.56c0,0,0-9.45-5.67-11.34h-3.78s-3.78,1.89-3.78,9.45v13.23s5.67,1.89,7.56-9.45c0,0,1.89,11.34,1.89,28.35,0,0,0,7.56,3.78,9.45,0,0,1.89-9.45,1.89-17.01,0,0,7.56,7.56,3.78,20.79,0,0,3.78,5.67,7.56,0,0,0,1.89,9.45-3.78,13.23,0,0,5.67,0,5.67,3.78v-11.34s7.56,3.78,11.34-7.56h3.78s0,5.67-3.78,7.56v5.67h5.67s0,5.67-3.78,5.67v3.78s3.78,3.78,7.56,0c0,0-1.89-7.56,1.89-9.45,1.89-1.89-1.89-9.45-5.67-9.45,0,0-1.89-5.67,3.78-7.56,0,0,0-5.67-3.78-5.67,0,0,0-5.67,5.67-7.56,0,0,1.89,7.56,3.78,7.56v3.78h-1.89s-1.89,5.67,1.89,9.45c0,0,5.67-5.67,7.56-24.57,0,0,1.89,1.89,1.89,3.78,0,0,3.78-5.67,0-15.12,0,0,7.56,1.89,7.56,15.12s-9.45,28.35-9.45,28.35c0,0,11.34,0,11.34,5.67v9.45s3.78-7.56,3.78-11.34c0,0,5.67,3.78,5.67,13.23h5.67v-11.34s5.67-1.89,7.56-9.45h3.78s0,9.45,5.67,9.45-1.89-24.57-1.89-24.57c0,0,5.67,1.89,7.56,7.56h3.78s1.89-7.56-1.89-9.45c0,0,5.67,1.89,5.67,3.78,0,0,1.89-3.78,5.67-3.78,0,0-3.78,5.67-1.89,17.01,0,0,0-9.45,7.56-9.45v13.23h-3.78v13.23s-5.67,1.89-3.78,7.56c0,0,3.78-1.89,3.78,3.78,0,0,0-15.12,9.45-20.79,0,0,5.67,9.45,5.67,17.01l1.89-5.67s3.78,5.67,3.78,9.45l3.78-3.78,1.89,3.78s5.67-15.12,7.56-34.02c0,0,7.56,7.56,7.56,17.01,0,0,0-11.34,1.89-13.23,0,0,3.78,5.67,3.78,7.56,0,0,3.78-5.67,3.78-11.34,0,0,3.78,5.67,0,11.34,0,0,5.67,0,5.67,9.45,0,0-1.89-3.78-7.56-3.78l1.89,17.01s5.67-3.78,5.67-9.45h3.78s3.78-5.67,3.78-13.23c0,0,3.78,5.67,3.78,13.23,0,0,3.78,3.78,9.45-1.89,3.78-3.78,0-11.34,0-11.34,0,0,3.78,0,5.67,3.78v-7.56s5.67-3.78,5.67-7.56v-13.23s3.78,5.67,3.78,9.45c0,0,3.78,1.89,3.78,7.56s1.89,9.45,1.89,9.45c0,0,1.89-5.67,0-9.45,0,0,5.67,1.89,5.67,5.67,0,0,5.67-7.56,5.67-9.45s1.89,5.67,1.89,5.67c0,0,7.56-18.9,7.56-32.13,0,0,5.67,17.01,3.78,26.46,0,0,5.67,0,7.56,3.78,0,0-1.89-24.57,7.56-39.69,0,0,1.89,18.9,7.56,20.79,5.67,1.89,9.45,0,9.45,0,0,0,1.89,1.89-1.89,3.78v13.23s3.78,1.89,5.67-3.78c0,0,3.78,7.56,7.56,7.56,0,0,1.89-1.89,3.78,1.89s9.45-5.67,0-18.9c0,0,7.56,7.56,9.45,11.34s7.56-3.78,7.56-9.45c0,0,7.56-3.78,11.34-9.45h3.78s1.89-5.67-3.78-5.67l-1.89-11.34s11.34,3.78,13.23,17.01l1.89-5.67,1.89,7.56,5.67,3.78s9.45,1.89,9.45-3.78h1.89s1.89-26.46-7.56-28.35c0,0,1.89-7.56,7.56-9.45v-9.45s5.67-3.78,5.67-9.45c0,0,9.45,5.67,15.12,32.13l1.89-20.79s7.56-7.56,7.56-13.23c0,0,3.78,7.56,1.89,13.23,0,0-1.89,1.89-3.78,0-1.89-1.89-3.78,7.56,5.67,7.56s3.78-17.01,0-20.79-1.89-11.34-1.89-11.34c0,0,3.78,7.56,11.34,1.89,7.56-5.67-3.78-9.45-5.67-17.01,0,0,7.56,1.89,7.56,3.78,0,0,3.78-5.67,1.89-13.23,0,0,3.78,3.78,3.78,22.68h3.78s3.78-20.79,1.89-32.13l5.67-1.89s-1.89-7.56-5.67-9.45-1.89-9.45-1.89-9.45c0,0,9.45-5.67,9.45-26.46h5.67l-3.78,37.8s-3.78,56.7-3.78,170.11c0,0-56.7,18.9-134.2,41.58-30.24,11.34-34.02,52.92-34.02,52.92,0,0-20.79-3.78-60.49,32.13h-13.23s-11.34,30.24-39.69,17.01c0,0-7.56-3.78-9.45-15.12s-15.12-3.78-15.12-3.78c0,0,5.67-13.23-13.23-15.12,0,0-1.89-7.56-7.56-9.45-5.67-1.89-20.79-9.45-30.24-34.02,0,0-13.23-3.78-24.57,3.78l-17.01-15.12s-9.45-1.89-9.45,5.67,1.89,103.96,1.89,103.96c0,0-13.23,18.9-24.57,18.9,0,0-9.45-24.57-18.9-28.35,0,0-5.67-1.89-5.67-5.67,0,0-7.56,13.23-18.9,13.23l1.89-88.84s-3.78-11.34-7.56-13.23v-20.79l-3.78-5.67s0-51.03-13.23-52.92c0,0-13.23,7.56-13.23,20.79,0,0-7.56,5.67-7.56,15.12,0,0-7.56,3.78-7.56,17.01l-5.67-5.67v-5.67h3.78s0-24.57,3.78-56.7c3.78-32.13,5.67-83.17-3.78-107.74l-5.67-75.61s11.34,32.13,15.12,60.49,5.67,32.13,11.34,37.8c5.67,5.67,7.56,13.23,7.56,13.23,0,0,1.89-9.45-5.67-15.12l1.89-7.56s3.78,5.67,5.67,5.67c0,0,3.78-5.67-1.89-5.67l5.67-9.45s3.78,3.78,3.78,5.67l5.67-1.89s15.12-39.69,5.67-41.58c0,0,7.56-9.45,7.56-20.79h5.67s7.56-17.01,0-20.79c0,0,13.23-15.12,20.79-17.01h5.67s0-9.45,5.67-17.01-1.89-15.12-1.89-15.12l9.45-7.56-7.56-7.56v-20.79h3.78s-1.89-24.57-9.45-28.35,0-35.91,2.84-38.75Z"/><path class="n" d="M300.37,1141.8s-11.34,17.01,0,26.46c0,0,6.62,.95,10.4-6.62l3.78-1.89s5.67-13.23,9.45-13.23c0,0-1.89-5.67-5.67-1.89-3.78,3.78-7.56,13.23-7.56,13.23,0,0-1.89,3.78-5.67-1.89,0,0,3.78-13.23-4.73-14.18Z"/><path class="n" d="M316.44,1131.41s1.89,5.67,7.56,5.67v7.56l1.89,3.78s5.67-1.89,5.67-5.67h3.78s1.89,1.89,1.89,3.78c0,0,3.78,0,3.78-3.78h9.45s5.67-1.89,7.56-5.67h5.67s1.89-7.56-5.67-11.34v-3.78h-11.34s-3.78,0-3.78-3.78c0,0-1.89,5.67-1.89,7.56h-1.89s-1.89-1.89-1.89-3.78h-9.45s-3.78,7.56-11.34,7.56v1.89Z"/><path class="n" d="M470.49,1088.88l-1.89,13.23h-3.78s7.56,3.78,9.45,9.45v-13.23h-1.89l-1.89-9.45Z"/><path class="n" d="M515.85,1253.32s7.56,3.78,7.56,5.67v7.56h5.67s0-7.56-1.89-7.56-1.89-9.45-1.89-9.45c0,0-1.89,3.78-9.45,3.78Z"/><path class="n" d="M532.86,1241.98s0,7.56,5.67,9.45c5.67,1.89,3.78,0,3.78,0,0,0-3.78-7.56-9.45-9.45Z"/><path class="n" d="M538.53,1258.99s-3.78,7.56,3.78,7.56c0,0-3.78-3.78-3.78-7.56Z"/><path class="n" d="M547.98,1294.91s0,7.56,1.89,7.56h3.78s-3.78-3.78-5.67-7.56"/><path class="n" d="M527.19,1160.7s1.89,28.35,18.9,35.91v7.56s3.78,5.67,7.56,7.56l-1.89,26.46s7.56,5.67,13.23,5.67c0,0-3.78-7.56-1.89-13.23h5.67s1.89-7.56-5.67-7.56-1.89-5.67-1.89-5.67c0,0-1.89-5.67-1.89-9.45,0,0-3.78-1.89-3.78-9.45s-1.89-18.9-11.34-20.79c-3.78-5.67-11.34-5.67-17.01-17.01Z"/><path class="s" d="M228.54,570.97s-33.94,2.65-51.03,20.79c0,0-3.78-17.01,9.82-24.22,7.19-2.24,10.97,3.43,10.97,3.43h30.24Z"/><path class="q" d="M519.69,825.35s7.5-6.76,26.41-6.76,10.39-5.27,10.39-5.27c0,0-40.03,3.4-44.11,7.17s3.48,5.66,3.48,5.66l3.84-.8Z"/></g></g><g id="g"><path class="r" d="M444.02,831.82c20.79,73.72,172,139.87,232.49,69.94,0,0-61.43-23.63-65.21-23.63,0,0,15.12-1.89,17.01-1.89,0,0-17.01-5.67-43.47,3.78-26.46,9.45-73.72-24.57-73.72-24.57,0,0,5.67,9.45,9.45,11.34,0,0-58.6-22.68-76.55-34.97Z"/><path class="o" d="M730.58,987.49l-22.88-56.44s-174.57,8.88-218.74,13.54l-18.48-69.3-51.03-35.91-43.47,17.01s-27.03,54.59-33.36,56.59c0,0,10.68,13.35,44.7,7.68s73.72,22.68,77.5,30.24c2.03,4.06,5.68,10.28,8.64,15.18-2.68,17.88-4.62,43.33-5.8,57.59-1.89,22.68-37.8,11.34-37.8,11.34,0,0-1.89-11.34-5.67-11.34s-17.01-5.67-17.01-5.67c0,0-7.56-13.23-15.12-7.56s1.89,9.45,1.89,9.45l5.67,13.23,1.89-11.34,3.78,11.34,1.89-9.45c5.67,5.67-1.89,26.46-1.89,26.46,0,0,30.24-13.23,37.8,3.78,7.56,17.01,17.01,13.23,17.01,13.23l-3.78-9.45c5.67,0,11.34,9.45,11.34,9.45,1.89,0,7.56-11.34,7.56-11.34,3.78,0,7.56,9.45,7.56,9.45,0-1.89-3.78-15.12-3.78-15.12,9.45,5.67,13.23,22.68,13.23,22.68,1.89-3.78,7.56-5.67,7.56-5.67-1.89,11.34,11.34,13.23,11.34,13.23l3.78-7.56c1.89,11.34,5.67,15.12,5.67,15.12l3.78-7.56c1.89,30.24,15.12,20.79,15.12,20.79,1.89-1.89-3.78-17.01-3.78-17.01,7.56,9.45,13.23,41.58,13.23,41.58v-9.45c5.67,5.67,5.67,26.46,5.67,26.46l11.34,15.12c0-3.78,3.78-18.9,3.78-18.9l3.78,32.13,7.56,11.34c-1.89-5.67,1.89-28.35,1.89-28.35l9.45,22.68,1.89-20.79c5.67,1.89,9.45,17.01,9.45,17.01v-22.68c7.56,17.01,9.45,9.45,9.45,9.45l1.89-18.9c5.67,18.9,13.23,9.45,13.23,9.45,3.78-1.89,5.67-24.57,5.67-24.57l3.78,15.12c0-3.78,3.78-13.23,3.78-13.23,0,0,1.89-7.56,0,1.89s9.45,20.79,9.45,20.79v-17.01l9.45,13.23v-13.23c1.89,5.67,7.56,13.23,7.56,13.23v-11.34h1.89c1.89,0,1.89-13.23,1.89-13.23,5.67,11.34,3.78,32.13,3.78,32.13h3.78v-1.89c0-5.67,3.78-7.56,5.67-11.34s1.89-24.57-3.78-32.13c-5.67-7.56-13.23-32.13-13.23-32.13,7.56,13.23,24.57,22.68,24.57,22.68v-11.34c-3.78-3.78-3.78-15.12-3.78-15.12,0,0,1.89,3.78,9.45,11.34s9.45-18.9,9.45-18.9c-1.89-5.67-1.89-13.23-1.89-13.23l3.78,1.89c-1.89-9.45,6.62-29.3,6.62-29.3,0,11.34,7.56,22.68,7.56,22.68,15.12-5.67,6.81-59.8,6.81-59.8Z"/><path class="p" d="M708.65,890.41s-13.23,18.9-77.5,3.78c0,0-66.16,69.94-134.2-3.78-68.05-73.72-90.73-111.52-90.73-111.52,0,0-30.24-7.56-34.02,22.68-3.78,15.12-20.79,75.61-20.79,75.61,0,0,.95,34.97-19.85,40.64,0,0,32.13-11.34,62.38-41.58s86.95,20.79,83.17,52.92,35.91,119.08,92.62,96.4c56.7-22.68,90.73-117.19,160.66-32.13,0,0,3.78-83.17-21.74-103.01Z"/><path class="o" d="M372.2,924.43s-22.68,13.23-7.56,28.35c0,0,5.67,1.89,9.45,3.78s-9.45-22.68,7.56-26.46c0,0-9.45-1.89-9.45-5.67Z"/><path class="s" d="M381.65,1408.32s15.12,9.45,30.24,5.67c15.12-3.78,7.56,0,7.56,0,0,0,7.56-1.89,9.45-3.78s28.35-1.89,32.13,0,41.58,1.89,47.25-1.89c5.67-3.78,62.38-22.68,111.09-29.57,45.79-13.91-35.49,33.35-35.49,33.35l-7.56,24.57-45.36,22.68-34.02,24.57-45.36,13.23-51.03-24.57-32.13-49.14,13.23-15.12Z"/></g><g id="i"><g><g><path class="q" d="M337.19,284.7c-8.87,0-20.82-3.34-27.35-19.24-6.44-15.67-12.98-31.46-19.53-47.18v65.63h-85.59V63.17h18.9c5.37,0,10.71-.01,16.03-.03,5.3-.01,10.57-.03,15.83-.03,10.19,0,23.61,.05,37.11,.4,13.01,.35,21.53,11.99,24.51,18.82,11.36,26,22.71,52.47,33.71,78.17,6.57-16,13.04-31.75,19.51-47.5,1.15-2.81,2.37-5.6,3.59-8.39,2.59-5.92,5.03-11.51,6.6-16.9,6.5-22.34,23.55-24.75,30.58-24.75,4.12,0,8.48,.7,13.33,2.13l15.03,4.45-1.59,15.59c-.86,8.5-.6,17.45-.32,26.93,.59,19.73,1.25,42.09-8.87,64.7-9.77,21.82-18.51,44.85-26.96,67.12-2.72,7.17-5.44,14.35-8.2,21.5-6.16,15.95-17.93,19.3-26.73,19.3-.7,0-1.42-.02-2.17-.07-4.18-.25-8.43-.37-12.62-.37s-8.4,.12-12.54,.37c-.78,.05-1.54,.07-2.27,.07Z"/><path class="l" d="M271.41,130.48v134.53h-47.79V82.07c23.22,0,45.86-.26,68.47,.34,2.68,.07,6.32,4.36,7.69,7.49,15.88,36.35,31.41,72.86,47.05,109.32,1.19,2.77,2.57,5.45,4.55,9.62,12.57-30.6,24.51-59.63,36.42-88.66,3.71-9.03,8.14-17.86,10.85-27.18,3.08-10.57,9.28-13.07,20.4-9.78-2.88,28.31,5.09,57.4-7.64,85.83-13.11,29.28-23.98,59.58-35.54,89.54-1.97,5.11-4.32,7.51-10.15,7.17-9.1-.54-18.28-.54-27.39,0-6.09,.36-8.77-2.01-11.02-7.48-16.51-40.19-33.35-80.24-50.11-120.33-1.15-2.76-2.45-5.46-3.67-8.19-.71,.24-1.42,.48-2.13,.72Z"/><path class="q" d="M936.48,284.72c-.86,0-1.75-.03-2.67-.09-1.86-.12-3.94-.17-6.53-.17-1.73,0-3.46,.02-5.19,.05-1.89,.02-3.79,.05-5.68,.05-3.94,0-7.18-.11-10.21-.34-8.86-.67-20.02-6.78-24.21-17.13-12.41-30.68-24.69-61.96-36.56-92.22l-6.25-15.93c-.93-2.38-2.48-6.32-2.5-11.37-.06-17.1-.06-34.21-.05-51.35v-26.31s12.71-4.41,12.71-4.41c4.94-1.71,9.46-2.55,13.81-2.55,14.07,0,24.37,8.07,30.63,24,9.62,24.49,19.5,48.56,29.88,73.73,10.93-25.39,22.1-51.42,32.85-77.14,5.71-13.66,15.73-20.58,29.78-20.58,.37,0,.75,0,1.14,.01,7.85,.2,16.45,.29,27.07,.29,5.9,0,11.81-.03,17.76-.05,6.07-.03,12.17-.06,18.31-.06h18.9v220.55h-85.44v-65.06c-6.39,15.36-12.77,30.79-19.03,46.11-6.73,16.49-19.23,19.95-28.53,19.95Z"/><path class="l" d="M855.53,83.36c11.95-4.14,16.76,.59,20.65,10.5,14.83,37.76,30.55,75.18,46.74,114.65,1.97-3.77,3.3-5.95,4.3-8.27,15.65-36.43,31.43-72.82,46.73-109.4,2.68-6.41,5.73-9.15,13.01-8.97,21.01,.53,42.04,.19,63.62,.19v182.75h-47.63V130.59l-2.02-.41c-1.25,2.67-2.6,5.3-3.74,8.02-16.62,39.78-33.37,79.52-49.67,119.43-2.57,6.28-5.84,8.57-12.51,8.14-9.09-.58-18.29,.29-27.36-.4-2.9-.22-7.09-2.82-8.12-5.37-14.51-35.88-28.59-71.94-42.74-107.97-.57-1.45-1.18-3.01-1.19-4.52-.08-21.35-.05-42.71-.05-64.14Z"/><polygon class="q" points="647.01 283.83 647.01 211.88 768.49 211.88 768.49 207.58 654.65 207.58 654.65 136.42 768.52 136.42 768.52 135.91 647.96 135.91 647.96 63.9 856.87 63.9 856.87 283.83 647.01 283.83"/><path class="l" d="M665.91,230.79h121.47v-42.11h-113.84v-33.36h113.87v-38.31h-120.56v-34.21h171.11v182.12h-172.06v-34.14Z"/><polygon class="q" points="14.98 284.08 14.98 64.01 223.73 64.01 223.73 135.66 102.23 135.66 102.23 136.13 217.2 136.13 217.2 206.89 102.22 206.89 102.22 211.57 224.54 211.57 224.54 284.08 14.98 284.08"/><path class="l" d="M204.83,116.76H83.32v38.27h114.97v32.95H83.32v42.48h122.32v34.71H33.88V82.91H204.83v33.85Z"/><path class="q" d="M622.42,284.58c-10.24,0-18.07-.09-25.4-.28-10.14-.27-18.6-6.71-22.76-12.15-30.29-39.58-59.43-78.18-83.95-110.73-4.62-6.13-7.01-12.41-7.09-18.64-.21-15.14-.19-30.52-.16-46.81,0-5.27,.01-10.7,.01-16.33V40.7l30.59,24.08c1.4,1.1,2.73,2.04,4.02,2.96,3.3,2.33,7.03,4.98,10.22,9.21,17.92,23.81,36.01,48.03,53.66,71.7V63.73h85.71v220.79h-18.9c-4.44,0-8.82,.01-13.16,.03-4.3,.01-8.56,.03-12.8,.03Z"/><path class="l" d="M648.38,265.62c-17.52,0-34.19,.23-50.85-.22-2.83-.08-6.44-2.37-8.25-4.75-28.12-36.75-56.02-73.66-83.87-110.61-1.62-2.15-3.25-4.98-3.28-7.51-.27-19.8-.15-39.61-.15-62.89,5.04,3.96,8.65,5.78,10.83,8.68,27.44,36.47,54.68,73.09,81.98,109.67,1.29,1.73,2.72,3.37,5.69,7.01V82.63h47.91v182.99Z"/><rect class="q" x="417.08" y="63.78" width="86.44" height="220.36"/><path class="l" d="M484.62,265.24h-48.63V82.69h48.63v182.56Z"/></g><g><path class="l" d="M271.41,130.48v134.53h-47.79V82.07c23.22,0,45.86-.26,68.47,.34,2.68,.07,6.32,4.36,7.69,7.49,15.88,36.35,31.41,72.86,47.05,109.32,1.19,2.77,2.57,5.45,4.55,9.62,12.57-30.6,24.51-59.63,36.42-88.66,3.71-9.03,8.14-17.86,10.85-27.18,3.08-10.57,9.28-13.07,20.4-9.78-2.88,28.31,5.09,57.4-7.64,85.83-13.11,29.28-23.98,59.58-35.54,89.54-1.97,5.11-4.32,7.51-10.15,7.17-9.1-.54-18.28-.54-27.39,0-6.09,.36-8.77-2.01-11.02-7.48-16.51-40.19-33.35-80.24-50.11-120.33-1.15-2.76-2.45-5.46-3.67-8.19-.71,.24-1.42,.48-2.13,.72Z"/><path class="l" d="M855.53,83.36c11.95-4.14,16.76,.59,20.65,10.5,14.83,37.76,30.55,75.18,46.74,114.65,1.97-3.77,3.3-5.95,4.3-8.27,15.65-36.43,31.43-72.82,46.73-109.4,2.68-6.41,5.73-9.15,13.01-8.97,21.01,.53,42.04,.19,63.62,.19v182.75h-47.63V130.59l-2.02-.41c-1.25,2.67-2.6,5.3-3.74,8.02-16.62,39.78-33.37,79.52-49.67,119.43-2.57,6.28-5.84,8.57-12.51,8.14-9.09-.58-18.29,.29-27.36-.4-2.9-.22-7.09-2.82-8.12-5.37-14.51-35.88-28.59-71.94-42.74-107.97-.57-1.45-1.18-3.01-1.19-4.52-.08-21.35-.05-42.71-.05-64.14Z"/><path class="l" d="M665.91,230.79h121.47v-42.11h-113.84v-33.36h113.87v-38.31h-120.56v-34.21h171.11v182.12h-172.06v-34.14Z"/><path class="l" d="M204.83,116.76H83.32v38.27h114.97v32.95H83.32v42.48h122.32v34.71H33.88V82.91H204.83v33.85Z"/><path class="l" d="M648.38,265.62c-17.52,0-34.19,.23-50.85-.22-2.83-.08-6.44-2.37-8.25-4.75-28.12-36.75-56.02-73.66-83.87-110.61-1.62-2.15-3.25-4.98-3.28-7.51-.27-19.8-.15-39.61-.15-62.89,5.04,3.96,8.65,5.78,10.83,8.68,27.44,36.47,54.68,73.09,81.98,109.67,1.29,1.73,2.72,3.37,5.69,7.01V82.63h47.91v182.99Z"/><path class="l" d="M484.62,265.24h-48.63V82.69h48.63v182.56Z"/></g></g></g></svg>