<?xml version="1.0" standalone="no"?>
<!DOCTYPE svg PUBLIC "-//W3C//DTD SVG 1.0//EN" "http://www.w3.org/TR/2001/REC-SVG-20010904/DTD/svg10.dtd">
<svg xmlns="http://www.w3.org/2000/svg" xmlns:xlink="http://www.w3.org/1999/xlink" id="body_1" width="45" height="45">

<defs>
    <radialGradient cx="50.847458%" cy="100%" r="141.42136%" gradientUnits="objectBoundingBox" id="1">
        <stop offset="0%" stop-color="#660000" stop-opacity="1"/>
        <stop offset="50%" stop-color="#C30000" stop-opacity="1"/>
        <stop offset="100%" stop-color="#A00000" stop-opacity="1"/>
    </radialGradient>
<mask id="327">
<path  transform="matrix(1 0 0 1 0 0)"   d="M295 150C 295 188.44164 279.71283 225.34814 252.53049 252.53049C 225.34814 279.71283 188.44164 295 150 295C 111.55836 295 74.65186 279.71283 47.469517 252.53049C 20.28717 225.34814 5 188.44164 5 150C 5 111.55836 20.28717 74.65186 47.469517 47.469517C 74.65186 20.28717 111.55836 5 150 5C 188.44164 5 225.34814 20.28717 252.53049 47.469517C 279.71283 74.65186 295 111.55836 295 150z" fill="white"/>
</mask>
</defs>

<g transform="matrix(0.15 0 0 0.15 0 0)">
    <path d="M295 150C 295 190.04065 280.8435 224.21748 252.53049 252.53049C 224.21748 280.8435 190.04065 295 150 295C 109.95936 295 75.78253 280.8435 47.46952 252.53049C 19.156507 224.21748 5 190.04065 5 150C 5 109.95936 19.156507 75.78253 47.46952 47.46952C 75.78253 19.156507 109.95936 5 150 5C 190.04065 5 224.21748 19.156507 252.53049 47.46952C 280.8435 75.78253 295 109.95936 295 150C 295 151.68733 294.97058 153.37415 294.91168 155.06042" stroke="#000000" stroke-width="10" mask="url(#327)" fill="url(#1)"  />
	<g transform="matrix(-0.49999985 0.86602545 -0.86602545 -0.49999985 354.90378 95.09615)">
        <path d="M180 60C 180 68.28427 177.07108 75.35534 171.2132 81.2132C 165.35535 87.07107 158.28427 90 150 90C 141.71573 90 134.64467 87.07107 128.7868 81.2132C 122.92894 75.35534 120 68.28427 120 60C 120 51.71573 122.92894 44.64466 128.7868 38.786797C 134.64467 32.928932 141.71573 30 150 30C 158.28427 30 165.35535 32.928932 171.2132 38.786797C 177.07108 44.64466 180 51.71573 180 60C 180 60.349102 179.99391 60.698097 179.98172 61.046986" stroke="#000000" stroke-width="15" fill="none" />
        <path d="M151.1 24.6L174.1 43.1L180 82.5C 240.9 62.8 255 166.9 244.1 161.2C 255 183.2 264.5 185 262.9 181.9C 260.5 177.2 260.8 175.4 260.8 171C 264.9 103.6 227 34 151.1 24.6z" stroke="none" fill="#000000" fill-rule="nonzero" />
	</g>
	<g transform="matrix(-0.49999985 0.86602545 -0.86602545 -0.49999985 354.90378 95.09615)">
        <path d="M180 60C 180 68.28427 177.07108 75.35534 171.2132 81.2132C 165.35535 87.07107 158.28427 90 150 90C 141.71573 90 134.64467 87.07107 128.7868 81.2132C 122.92894 75.35534 120 68.28427 120 60C 120 51.71573 122.92894 44.64466 128.7868 38.786797C 134.64467 32.928932 141.71573 30 150 30C 158.28427 30 165.35535 32.928932 171.2132 38.786797C 177.07108 44.64466 180 51.71573 180 60C 180 60.349102 179.99391 60.698097 179.98172 61.046986" stroke="#000000" stroke-width="15" fill="none" />
        <path d="M151.1 24.6L174.1 43.1L180 82.5C 240.9 62.8 255 166.9 244.1 161.2C 255 183.2 264.5 185 262.9 181.9C 260.5 177.2 260.8 175.4 260.8 171C 264.9 103.6 227 34 151.1 24.6z" stroke="none" fill="#000000" fill-rule="nonzero" />
	</g>
	<g transform="matrix(-0.49999985 0.86602545 -0.86602545 -0.49999985 354.90378 95.09615)">
        <path d="M180 60C 180 68.28427 177.07108 75.35534 171.2132 81.2132C 165.35535 87.07107 158.28427 90 150 90C 141.71573 90 134.64467 87.07107 128.7868 81.2132C 122.92894 75.35534 120 68.28427 120 60C 120 51.71573 122.92894 44.64466 128.7868 38.786797C 134.64467 32.928932 141.71573 30 150 30C 158.28427 30 165.35535 32.928932 171.2132 38.786797C 177.07108 44.64466 180 51.71573 180 60C 180 60.349102 179.99391 60.698097 179.98172 61.046986" stroke="#000000" stroke-width="15" fill="none" />
        <path d="M151.1 24.6L174.1 43.1L180 82.5C 240.9 62.8 255 166.9 244.1 161.2C 255 183.2 264.5 185 262.9 181.9C 260.5 177.2 260.8 175.4 260.8 171C 264.9 103.6 227 34 151.1 24.6z" stroke="none" fill="#000000" fill-rule="nonzero" />
	</g>
    <path d="M178 150C 178 157.732 175.26634 164.33165 169.799 169.799C 164.33165 175.26634 157.732 178 150 178C 142.26802 178 135.66837 175.26634 130.201 169.799C 124.73367 164.33165 122 157.732 122 150C 122 142.26802 124.73367 135.66837 130.201 130.201C 135.66837 124.73367 142.26802 122 150 122C 157.732 122 164.33165 124.73367 169.799 130.201C 175.26634 135.66837 178 142.26802 178 150C 178 150.32584 177.99432 150.65155 177.98294 150.97719" stroke="none" fill="#000000" fill-rule="nonzero" />
</g>
</svg>