<?xml version="1.0" encoding="UTF-8"?><svg xmlns="http://www.w3.org/2000/svg" width="1080" height="1920" viewBox="0 0 1080 1920"><defs><style>.n{opacity:.52;}.n,.o{fill:#081921;}.p{fill:#2c3749;}.q{fill:#737f95;}.r{fill:#f84353;}.s{fill:#9da6b5;opacity:.26;}.t{fill:#083c66;}.u{fill:#4d5a70;}.v,.w{fill:#2e394b;}.x{fill:#96a2b9;}.y{opacity:.19;}.y,.z,.aa{fill:#515e74;}.ab{fill:#8795aa;}.ac{fill:#fff;opacity:.25;}.z{opacity:.5;}.ad{fill:#727e94;}.ae{fill:#0f7ce8;}.af{fill:#041c2b;}.w{opacity:.48;}.ag{fill:#030a10;}.ah{fill:#515d73;}</style></defs><g id="a"><rect class="r" x="-440" y="-26.97" width="1972" height="1972"/></g><g id="b"><rect class="r" x="-15.81" y="-19.61" width="1105.28" height="1964.94"/></g><g id="c"><path class="ag" d="M139.72,1730.27l-25.22,73.18-11.9,34.52-36.86,106.94-.1,.32-.07,.18H23.31v-.5H-333.8c-.08,.35-.16,.7-.25,1.05l-.38-.05s.08-.34,.25-1c.59-2.33,2.19-8.65,4.55-18.08,17.7-70.83,88.81-456.52,102.23-502.25,20.98-71.48,55.82-149.3,100.34-191.81,73.53-70.21,137.63-72.97,137.63-72.97l13.2,9.39,66.1,49.53,20.8,213.5,29.04,298.04Z"/><path class="t" d="M998.94,1146.14l-113.49,743.93-8.38,54.96-.05,.3-.03,.17H-16.28v-410.42c.15-.32,.31-.64,.47-.96,6-12.33,13.29-23.61,22.12-33.48,1.15-1.3,2.34-2.57,3.55-3.83,15.63-16.08,35.68-27.92,61.22-33.61,17.06-3.8,36.58-4.85,58.87-2.58,.73,.08,1.45,.15,2.19,.24,4.82,.53,9.76,1.22,14.84,2.06,2.05,.34,4.11,.71,6.2,1.1,13.59,2.55,28.1,6.22,43.57,11.09,.25,.08,.48,.15,.73,.23,.28,.09,.57,.18,.85,.25,10.41,3.24,20.9,5.92,31.47,8.08h0c.6,.12,1.22,.25,1.83,.37,0,0,0,0,.02,0,2.03,.41,4.05,.79,6.09,1.16,17.75,3.19,35.68,4.94,53.71,5.4h.02c5.61,.16,11.23,.18,16.85,.08,28.53-.49,57.27-4.06,85.95-10.14,6.85-1.45,13.71-3.05,20.55-4.79,1.46-.37,2.92-.74,4.39-1.13,3.48-.91,6.96-1.86,10.44-2.84,.34-.09,.69-.2,1.03-.29,6.34-1.8,12.67-3.71,18.98-5.73,1.86-.58,3.71-1.19,5.57-1.8,4.35-1.43,8.7-2.92,13.04-4.46,19.09-6.72,38.03-14.36,56.75-22.74,124.14-55.59,238.28-143.69,317.37-213.37,56.11-49.42,94.57-89.57,106.46-102.28,2.57-2.74,7.2,7.58,7.2,7.58l9.51-3.67h0l14.21,8.98,19.15,12.12Z"/><path class="af" d="M-69.54,1945.03v-94.26l160.25-202.11,49.04,22.05s-71.66,69.77-105.59,114.08-55.42,160.25-55.42,160.25h-48.27Z"/><path class="af" d="M656.29,1719.74s-217.75,131.97-384.6,52.79c0,0,35.82,59.39,89.55,85.78,0,0-104.63,23.57-298.82-62.21,0,0,80.12,163.08,312.96,142.34,232.83-20.74,280.91-218.69,280.91-218.69Z"/><path class="af" d="M999.88,1245.12c-7.54,2.83-59.39,332.75-59.39,332.75l-45.25,282.79-9.8,29.41-18.48,55.43h-64.69c4.22-17.69,7.56-37.65,7.19-55.62-.94-46.19,79.18-310.13,77.3-350.66-1.89-40.53,12.25-248.86,23.57-271.48,0,0-1.89,45.25,0,57.5,0,0,28.28-69.76,42.42-91.44,14.14-21.68,17.91-70.7,26.39-81.07,8.13-9.94,.67-17.85,.04-18.49l-.03-.03h0s.64-.21,.64-.21l19.15-5.79s8.48,114.06,.94,116.89Z"/><path class="ag" d="M1089.9,1945.03h-243.66c1.48-6.46,2.62-13.38,3.29-20.74,4.71-51.85,50.9-278.08,64.1-320.5s18.85-256.4,19.8-279.96c.94-23.57,25.45-75.41,32.99-111.23,7.54-35.82,25.45-65.98,25.45-65.98-3.31-.83-3.71-6.01-12.69-12.36l-.03-.03h0c-1.23-.89-2.64-1.78-4.24-2.7-8.1-4.63-13.72-2.87-16.84-.81-1.97,1.29-2.95,2.7-2.95,2.7l-1.56-2.46h0s-1.73-2.72-1.73-2.72c0,0,1-.38,3.16-.96,2.23-.6,5.7-1.41,10.6-2.23h0c11.43-1.92,30.6-3.91,59.76-3.4,53.73,.94,28.28,37.71,28.28,37.71,5.83-5.83,24.09-7.15,32.05-7.46,2.33-.08,3.77-.08,3.77-.08l.47,793.23Z"/><path class="ag" d="M505.09,1028.82l-2.47,7.9-.3,.98-.57,1.83-3.82,12.23-16.6,53.14-.1,.34h0s-4.98,15.93-4.98,15.93l-8.72,28-.25,.83-20.94,67.26-14.39,46.26-19.01,21.7-5.8,6.62-14.96,17.08-7.81,8.92-67.57,77.15-17.11,19.53-60.89,69.51-1.06,1.21-20.59,23.51-.45,.52-4.39,5.01-21.48,4.46-1.84,.38-15.73,3.26-2.98,.62-19.49,4.03-5.49,1.14-35.41,7.33-68.22,14.15-13.56,2.81-44.39,9.2V1019.12l53.82-8.64,160.39-25.74,119.02-19.11,13.65-1.21,18.4-1.62,10.37,14.14c29.22,.94,62.21,5.66,62.21,5.66,1.45-7.96,12.15-12.99,17.04-14.88,.67-.27,1.23-.47,1.65-.61,.5-.18,.78-.26,.78-.26l.02,.02,3.44,3.33,53.89,52.17,.1,.09,.96,.93h0v.02l5.62,5.43Z"/><path class="ag" d="M197.48,1475.35c.08,13.31-1.65,26.65-5.56,39.84-.3,1.02-.61,2.05-.95,3.06-.05,.15-.09,.3-.14,.45-.71,2.15-1.47,4.29-2.29,6.43-1.58,4.11-3.26,8.24-5.02,12.4-.56,1.31-1.12,2.62-1.71,3.94h0c-1.8,4.16-3.7,8.32-5.67,12.51-2.2,4.68-4.5,9.38-6.88,14.08-.22,.44-.44,.9-.68,1.34-.18,.36-.36,.72-.55,1.07-16.96,33.15-38,66.62-59.41,97.51C55.08,1745.26-.73,1806.46-.73,1806.46l-15.55,17.44v-617.76l69.55,37.18,14.82,7.93s27.59,23.76,57.28,60.49c2.2,2.71,4.4,5.5,6.61,8.34,6.37,8.24,12.76,17.03,18.92,26.28,7.29,10.95,14.25,22.55,20.46,34.6,14.98,29.05,25.61,60.76,26.11,92.68,.02,.58,.03,1.14,.02,1.71Z"/><path class="ag" d="M1079.53,1152.27s40.31-3.77,54.89,8.48c14.58,12.25,13.37,18.85,17.01,20.74,3.65,1.89,134.78,25.45,195.4,109.35,55.11,77.3,136.67,408.16,185.16,655.13l-519.39-.94,66.93-792.76Z"/><path d="M-16.28,1515.02s77.77,161.36,70.23,269.76c0,0,83.89-72.58,62.21-202.67-21.68-130.08-132.44-67.09-132.44-67.09Z"/><path d="M90.71,1699.94s28.28,9.43,32.05,43.36c0,0,5.66-29.22-2.83-43.36,0,0,6.6,16.97,27.34,25.45,0,0-8.48-27.34-5.66-49.02s-44.3-33.93-44.3-33.93l-6.6,57.5Z"/></g><g id="d"><path class="q" d="M961.7,1135.3s-41,70.23-47.6,85.31c-1.07,2.44-3.32,8.83-6.41,17.93-1.71,5.01-3.66,10.86-5.82,17.32-18.04,54.09-49.77,151.19-60.36,167.42-2.22,3.39-5.81,12.72-11.13,25.97-21.4,53.32-70.71,170.22-170,220.52-21.18,10.75-44.65,18.45-70.6,21.85-15.43,2.03-31.74,2.54-48.97,1.25-22.74-1.69-43.53-4.34-62.64-7.81-3.92-.71-7.78-1.45-11.56-2.23-.63-.13-1.25-.26-1.88-.4-4.51-.94-8.92-1.94-13.23-2.99-3.75-.9-7.44-1.85-11.05-2.83-.72-.19-1.42-.38-2.13-.57h0c-.32-.08-.62-.18-.93-.26-2.61-.73-5.18-1.47-7.71-2.23-116.96-35.07-156.33-106.07-206.75-158.9-2.41-2.54-4.85-5.02-7.33-7.47,0,0,23.98-37.06,52.87-96.25,5.79-11.85,11.76-24.59,17.8-38.11,3.46-7.75,6.93-15.76,10.4-24,13.72-32.66,27.32-61.13,39.24-84.4,2.14-4.16,4.21-8.15,6.23-11.97,19.24-36.49,32.77-57.27,32.77-57.27,0,0,1.11-2.22,2.53-6.16,2.71-7.54,6.58-21.43,5.96-38.15-.16-4.35,2.38-10.65,6.71-18.08,8.13-13.94,22.53-31.92,37.13-48.71,23.09-26.54,46.65-50.1,46.65-50.1l12.71-12.73,17.67,1.65,86.57,8.09,308.14,28.78,1.45,.13s-6.6,24.51,20.74,40.53c13.51,7.92,23.56,16.52,30.28,23.22,1.69,1.68,3.18,3.23,4.44,4.64,1.25,1.38,2.3,2.58,3.14,3.6,1.79,2.16,2.68,3.42,2.68,3.42Z"/><path class="ab" d="M479.07,1629.24c-3.04,10.43-10.6,19.28-16.02,30.16-4.7,9.45-18.58,6.46-24.72,16.63-.32-.08-.62-.18-.93-.26-2.61-.73-5.18-1.47-7.71-2.23-.83-.25-1.65-.5-2.46-.74-115.06-35.32-154.23-105.7-204.29-158.16-2.41-2.54-4.85-5.02-7.33-7.47,0,0,13.68-21.13,32.83-56.99,5.74-10.75,55.4-118.78,61.9-132.01-30.16,71.64,32.06,102.05,67.11,118.98,72.2,34.87,126.75,105.69,101.62,192.09Z"/><path class="aa" d="M713.32,1191c-.09-.61-.25-1.24-.45-1.89l-5.2-102.35-116.82-54.83-86.57-8.09-17.67-1.65-12.71,12.73s-23.57,23.57-46.65,50.1c-14.6,16.79-29.01,34.76-37.13,48.71-4.33,7.43-6.87,13.72-6.71,18.08,.48,13-1.74,24.27-4.03,32.19-2.2,7.6-4.46,12.11-4.46,12.11,0,0-.4,.6-1.15,1.8,30.86,6.37,130.4,29.54,161.19,69.18,7.07,9.1,10.52,19.06,8.69,29.88,0,0,35.82-25.45,37.71-73.53,.2-4.94,.85-9.19,1.87-12.84,8.95-31.82,46.24-17.3,54.69-8.84,1.94,1.94,3.45,4.89,4.61,8.34,4.47,13.29,3.87,34.08,3.87,34.08,0,0,48.33-19.87,62.93-40.38,3.06-3.19,4-5.81,4-5.81l-.12-2.47c.3-1.52,.36-3.03,.12-4.52Z"/><path class="x" d="M959.03,1131.88c-13.15,21.83-43.63,66.63-78.86,79.3-47.13,16.97-143.28,42.42-206.44,44.3,0,0,128.2-94.26,149.88-132.91,21.68-38.65,20.74-38.65,20.74-38.65l54.64-24.17,1.45,.13s-6.6,24.51,20.74,40.53c13.51,7.92,23.56,16.52,30.28,23.22,1.69,1.68,3.18,3.23,4.44,4.64,1.25,1.38,2.3,2.58,3.14,3.6Z"/><path class="v" d="M562.5,1181.96s-62.21-14.14-114.06-42.42c-17.6-9.6-38.46-10.18-58.33-6.77,8.13-13.94,22.53-31.92,37.13-48.71,23.09-26.54,46.65-50.1,46.65-50.1l12.71-12.73,17.67,1.65,5.44,10.13s6.49,85.12,33.52,128.59c5.52,8.89,11.91,16.03,19.27,20.35Z"/><path class="v" d="M497.93,1058.01s194.18,105.58,206.44,117.83c99.92,12.25,206.38-117.83,206.38-117.83l-412.82-34.76v34.76Z"/><path d="M542.29,1161.61c-26.8-1.5-51.43-38.09-60.86-56-6.36-12.08-36.32-18.59-55.13-21.54,23.09-26.54,46.65-50.1,46.65-50.1l12.71-12.73,17.67,1.65,5.44,10.13s6.49,85.12,33.52,128.59Z"/><path class="v" d="M961.7,1135.3s-41,70.23-47.6,85.31c-1.07,2.44-3.32,8.83-6.41,17.93,10.17-45.49-18.1-34.9-18.1-34.9l66.3-75.36c3.89,4.28,5.82,7.02,5.82,7.02Z"/><path class="ab" d="M779.55,1552.84c-6.2,9.97-12.94,19.98-20.26,29.82-.73,.98-1.46,1.96-2.21,2.93h0c-.74,.99-1.5,1.97-2.25,2.94-.56,.74-1.12,1.46-1.7,2.18-.32,.41-.65,.83-.97,1.23-1,1.26-2.01,2.53-3.04,3.78-.02,.04-.05,.07-.08,.1-1.02,1.25-2.05,2.5-3.08,3.74-.53,.63-1.06,1.26-1.59,1.89-.8,.95-1.61,1.89-2.44,2.84-.11,.15-.24,.3-.38,.44-.57,.66-1.15,1.32-1.73,1.98-1.18,1.34-2.37,2.66-3.57,3.98-.9,.98-1.8,1.96-2.71,2.94-2.33,2.49-4.69,4.95-7.12,7.36-.64,.65-1.28,1.28-1.92,1.91-.23,.23-.46,.45-.69,.68l-.18,.18c-.77,.75-1.56,1.51-2.35,2.26-.7,.68-1.4,1.34-2.1,1.99-.93,.89-1.88,1.75-2.83,2.63-.27,.25-.55,.5-.82,.74-.91,.83-1.83,1.65-2.75,2.46-.2,.19-.39,.35-.57,.51-.45,.41-.9,.8-1.37,1.2-.54,.47-1.08,.94-1.63,1.4-.64,.55-1.28,1.09-1.93,1.63-1.63,1.38-4.94,4.04-4.94,4.04-12.88,10.28-26.83,19.48-41.94,27.14-21.18,10.75-44.65,18.45-70.6,21.85-15.43,2.03-31.74,2.54-48.97,1.25-12.48-.92-24.38-2.14-35.73-3.63h0c-5.5-.73-10.87-1.51-16.11-2.35-2.36-.38-4.68-.76-6.98-1.17-.03,.02-.08,.06-.09,.08-11.18-1.85-24.14-4.92-37.52-8.25-1.97-.49-3.94-.99-5.92-1.49l-.13-.03c1.94-3.21,4.18-6,6.44-8.64,4.42-5.13,8.98-9.64,11.75-15.39,.32-.65,.61-1.33,.88-2.02,7.58-6.58,43.08-41.15,55.11-48.99,45.99-29.98,88.3-46.37,125.04-54.59,60.2-13.48,125.27-25.56,163.92-102.86,9.56,2.77-21.91,109.3-21.91,109.3Z"/><path class="y" d="M454.56,1680.15c-131.97-28.28-181.56-113.05-231.63-165.51-2.41-2.54-4.85-5.02-7.33-7.47,0,0-4.54,12.76,14.61-23.09,104.63-2.83,223.29,68.55,224.35,196.07Z"/><path class="y" d="M724.49,1622.91c-.23,.23-.46,.45-.69,.68l-.18,.18c-.77,.75-1.56,1.51-2.35,2.26-.7,.68-1.4,1.34-2.1,1.99-.93,.89-1.88,1.75-2.83,2.63-.27,.25-.55,.5-.82,.74-.91,.83-1.83,1.65-2.75,2.46-.2,.19-.39,.35-.57,.51-.45,.41-.9,.8-1.37,1.2-.54,.47-1.08,.94-1.63,1.4-.64,.55-1.28,1.09-1.93,1.63-1.63,1.38-3.27,2.71-4.93,4.04h0c-12.88,10.28-26.83,19.48-41.94,27.14-21.18,10.75-42.75,17.92-70.6,21.85-23.05,7.38-109.58-4.24-124.85-8.64,32.05-40.53,168.02-74.61,259.23-67.87l.33,7.81Z"/><path class="v" d="M901.87,1255.86c-18.04,54.09-49.77,151.19-60.36,167.42-2.22,3.39-5.81,12.72-11.13,25.97-10.04,25.02-26.22,64.03-50.84,103.6-19.85,31.93-45.19,64.2-77.21,89.79-12.88,10.28-26.83,19.48-41.95,27.14,4.63-3.81,17.99-14.99,33.77-29.94,27.17-25.72,61.49-62.6,70.72-92.13,.1-.31,.2-.62,.29-.93,15.08-50.9,54.67-150.82,54.67-150.82l-56.53,44.28c1.85-2.08,111.93-125.96,138.57-184.36Z"/><path class="w" d="M510.26,1652.46c-6.43,3.65-16.22,23.43-21.28,34.43-2.36-.38-4.68-.76-6.98-1.17-.03,.02-.08,.06-.09,.08-11.18-1.85-24.14-4.92-37.52-8.25-.04-.49-.02-1,.06-1.52,.3-2.17,.4-5.14,.33-8.64-.36-21.08-6.24-61.43-6.43-62.73,6.17,11.54,12.99,31.04,18.17,47.34,4.95,15.53,8.42,28.15,8.42,28.15,1.77-6.21,40.81-25.49,45.32-27.69Z"/></g><g id="e"><path d="M431.94,917.55s32.99,106.52,16.97,170.62c0,88.61-30.16,104.63-38.65,167.79-8.48,63.16,129.69,286.26,56.36,426.86,.2,.15,0,0,0,0,0,0,39.79-149.73-62.96-220.43,0,0,49.02,51.85,50.9,106.52,0,0-27.34-89.55-103.69-110.29l-42.56,32.06s-18.71,34.86,20.88,62.2c0,0-16.02,27.34-106.52,8.48-90.49-18.85-174.39-305.41-174.39-305.41l67.87-172.5,177.22-213.98,138.57,48.07Z"/></g><g id="f"><path class="q" d="M996.22,677.56c-.47-6.54-1.77-15.8-3.49-26.21-.74-4.39-1.55-8.98-2.39-13.66-5.7-31.4-13.45-66.56-14-69.47-.46-2.51-18.29-37.5-30.01-65.41t0-.02c-4.8-11.42-8.58-21.65-9.73-28-.59-3.22-1.28-6.47-2.06-9.7v-.02c-1.48-6.18-3.25-12.38-5.2-18.57-1.64-5.23-3.4-10.46-5.2-15.69-.24-.69-.47-1.37-.71-2.06-.25-.74-.52-1.49-.77-2.23-.03-.08-.05-.17-.08-.25-2.17-6.23-4.34-12.46-6.41-18.68h.02l-.06-.12c-.46-1.4-.91-2.82-1.4-4.23l-.28-.16-.59-1.56-.42-1.08-3.11-8.14h0s-6.22-16.3-6.22-16.3l-19.18-50.27-57.67-76.88s-.02-.03-.03-.04l-5.94-7.92c.69,.25,1.35,.52,1.96,.78,1.18,.5,2.21,1.01,3,1.52-.16-.21-.92-1.16-2.27-2.45-.66-.63-1.47-1.34-2.41-2.09h0c-1.13-.9-2.46-1.83-4-2.73l-1.61-2.14-24.79-33.06s-.02-.02-.03-.04l-5.82-7.76s0-.03-.02-.03l-2.22-2.96h0s-17.41-23.23-17.41-23.23l-11.93-15.91c-100.82-18.18-178.62-10.27-238.62,13.68h0c-15.23,6.07-29.32,13.18-42.33,21.15-.04,.03-.08,.05-.12,.08-.08-.71-.13-1.4-.2-2.1,0,0-.04,.84-.09,2.28-.02,0-.04,.02-.06,.03h0c-11.93,7.34-22.97,15.42-33.18,24.09-.37,.3-.73,.61-1.08,.92-4.48,3.84-8.79,7.8-12.94,11.86l-.02,.02c-1.79,1.75-3.55,3.53-5.29,5.32-.48,.48-.94,.96-1.4,1.45-11.15,11.66-21.12,24.1-30.02,37.08v.02c-51.34,74.79-67.43,167.43-71.86,232.43-2.95,43.15-.75,74.13-.31,79.59,.05,.57,.08,.87,.08,.87-4.31,20.57-7.71,44.02-7.92,67.41,0,.56,0,1.11,0,1.67v.59c0,15.2,1.38,30.33,4.76,44.6,.56,2.38,1.18,4.72,1.86,7.05,1.34,4.61,2.9,9.12,4.73,13.48,.71,1.7,1.45,3.37,2.24,5.03,.46,.98,.94,1.95,1.43,2.91,13.83,26.97,28.86,58.03,42.42,87.91,17.39,38.33,32.36,74.71,39.24,98.02,.52,1.77,1,3.48,1.42,5.09,0,.03,.02,.05,.02,.07,1.43,5.44,2.31,9.97,2.53,13.39h0c.02,.36,.04,.7,.05,1.03,0-.02,0-.03,0-.05h0s.78,1.01,2.23,2.85c4.56,5.84,15.7,20.06,29,36.52,1.59,1.97,3.21,3.97,4.85,6,13.39,16.5,28.31,34.43,40.63,48.16,.13,.15,.26,.29,.4,.44,.16,.17,.3,.33,.45,.49,1.98,2.2,3.89,4.28,5.71,6.22,1.73,1.85,3.61,3.69,5.62,5.5,1.4,1.28,2.87,2.55,4.39,3.79,2.36,1.96,4.85,3.89,7.48,5.78,.3,.23,.61,.44,.91,.66h0s.08,.07,.11,.08c34.76,24.84,89.64,44.83,122.62,49.78,21.13,3.18,46.77,10.84,75.41,16.13,24.46,4.52,51.12,7.31,79.03,4.06,.87-.09,1.73-.2,2.6-.31,19.26-2.49,32.5-5.36,42.76-8.63,22.56-7.17,30.67-16.22,56.63-27.16,1.67-.7,3.28-1.45,4.85-2.23,1.93-.97,3.78-2.01,5.56-3.09,29.6-18.01,39.29-50.34,39.29-50.34,0,0,22.86-56.65,28.83-78.52,.59-2.17,1.24-4.35,1.94-6.56,0-.03,.02-.07,.03-.09,1.06-3.35,2.22-6.76,3.47-10.39,.04-.11,.08-.24,.11-.35,6.14-17.89,14.07-40.51,19.67-80.64,.04-.27,.08-.55,.11-.81,0-.04,0-.07,.02-.1,.17-.81,.36-2.37,.57-4.57,0-.07,.02-.13,.02-.2,2.54-25.45,8.26-133.61,1.88-162.64Z"/><path class="z" d="M696.05,219.46s31.81-.34,49.7,15.56c17.89,15.9,35.78,43.73,43.73,73.55s49.7,23.85,63.61,35.78c13.91,11.93,43.4,47.5,49.53,47.6s-121.09-224.52-121.09-224.52c0,0-176.92-9.94-178.91,13.91-1.99,23.85,7.95,31.81,7.95,31.81l9.94-3.98,29.82,5.96,39.76,11.93,5.96-7.61h0Z"/><path class="u" d="M658.29,922.81c-12.95,8.1-13.01,17.59-5.96,27.83,0,0,21.87-5.96,49.7,3.98,28.71,17.4,101.38,23.85,123.25,23.85,15.9-7.95,47.71-17.89,47.71-57.65-5.96-41.74-134.12-14.9-134.12-14.9,0,0-50.75,42.73-80.57,16.88Z"/><path class="u" d="M910.75,819.44c4.11,6.46,0,19.88,0,19.88,0,0,14.85-.42,17.89,3.98,3.98-7.95,3.98-17.89,1.99-19.88s-10.01-5.3-19.88-3.98Z"/><path class="x" d="M779.55,1018.23s105.36,15.9,145.11-59.64c0,0-9.94,49.7-21.87,63.61-11.93,13.91-37.77,25.84-57.65,25.84s-59.81-25.48-65.6-29.82Z"/><path class="aa" d="M788.45,1115.43c-38.35,4.13-73.65-.26-157-20.67-91.44-17.89-137.16-59.64-145.11-69.57s-67.59-81.5-71.56-85.48-13.91,7.95-13.91,7.95c-1.45,.8-3.02,1.33-4.69,1.65l-1.81-5.74-48.17-151.95s119.27,119.27,208.72,143.12c0,0,0,43.73,45.72,75.54,44.77,31.15,150.56,31.79,186.64,102.75,.42,.8,.82,1.59,1.17,2.41Z"/><path class="aa" d="M318.37,594.82l37-49.59,5.27,20.74s19.35-58.61,23.33-152.04c3.98-93.43,73.55-184.87,194.81-194.81,121.26-9.94-97.4-63.61-97.4-63.61l-214.69,256.43,63.61,111.32s17.89,39.76-11.93,71.56Z"/><path class="aa" d="M702.02,710.11l33.79,43.73s-48.02-11.93-49.85,17.89,26,29.82,37.93,19.88c11.93-9.94,13.91-19.88,49.7-9.94,35.78,9.94,41.74-19.88,41.74-19.88,0,0,11.93-29.82,45.72-19.88,0,0,9.94,0,1.99-15.9-7.95-15.9-22.6-19.21-22.6-19.21,0,0,54.4,31.14,8.68,49.03l-25.84,11.93s-7.95,41.74-51.68,23.85c0,0-27.83,19.88-45.72,29.82-19.88,5.96-45.72,3.98-43.73-17.89,1.99-21.87,0-35.78,0-35.78l19.88-57.65Z"/><path class="aa" d="M692.08,624.63s37.02-15.9,71.19,21.87,0,0,0,0h4.35l-23.85-75.54-71.56,19.88,19.88,33.79Z"/><path class="aa" d="M785.51,668.37l27.83,43.73s21.87-7.54,36.77-.79c14.91,6.75-64.6-42.95-64.6-42.95Z"/><path class="x" d="M719.91,630.6s55.66,101.38,59.64,113.31,9.94,23.85,23.85,21.87c11.93-5.96,11.93-23.85,11.93-33.79-5.96-21.87-47.71-71.56-47.71-71.56,0,0-23.85-25.84-47.71-29.82Z"/><path class="x" d="M819.31,718.06s25.84-7.95,33.79,11.93l1.99,5.96s-21.87,0-25.84,5.96c0,0,0-13.91-9.94-23.85Z"/></g><g id="g"><path class="aa" d="M711.96,565s65.6-63.61,73.55-79.51c7.95-15.9,38.77-39.54,60.13-19.77,21.37,19.77-10.44,29.71-10.44,29.71,0,0-33.79-3.98-45.72,15.9-11.93,19.88-57.65,51.68-77.53,53.67Z"/><path class="aa" d="M781.66,501.85s0-18.85,21.68-39.59c21.68-20.74,84.84-2.83,84.84-33.93s-13.99-63.05-19.25-68.29c-5.26-5.24,16.42,5.13,16.42,5.13l26.39,52.79,16.02,48.07-1.89,15.08-90.67-10.62-53.55,31.36Z"/><path class="v" d="M582.75,185.32s15.9,47.71,127.22,31.81c79.51-3.98,157.04,119.27,176.92,166.98,19.88,47.71,40.54,47.32,40.54,47.32,0,0-74.33-365.38-344.68-246.11Z"/><path class="v" d="M946.53,503.38c-.91,.89-3.86,2.52-4.97,2.98-19.88,7.95-11.93,29.82-33.79,51.68-21.87,21.87-67.59,27.83-67.59,27.83,2.74,3.53,9.57,4.26,17.89,3.98-24.85,4.97-61.62,0-61.62,0-14.91,4.97-31.81,17.89-31.81,17.89l-1.99-27.83s-13.91-29.82-15.9-33.79,50.69-58.64,94.42-78.52c43.73-19.88,65.6,11.93,77.53,5.96,11.93-5.96-17.85-63.05-17.85-63.05l3.24-33.77,10.36,27.09,.28,.16c.48,1.41,.93,2.82,1.39,4.23l.06,.12h-.02c8.45,22.21,26.12,83.32,30.37,95.04Z"/><path class="aa" d="M454.56,571.6s37.23-.47,78.71-12.73,58.44,32.05,58.44,32.05c0,0-131.97,38.65-149.88,57.5s-65.04,25.45-65.04,25.45l-75.41,23.57,4.71,27.34s31.11-12.25,42.42-9.43,62.21-10.37,85.78-4.71c23.57,5.66,127.73,41,188.06-28.75,0,0,9.43,16.02-5.66,45.25,0,0,48.07-25.45,51.85-61.27,15.47-4.97,23.29-1.1,31.58,12.73l-21.68-85.78s91.28-65.98,94.66-90.96c0,0-53.18,66.46-104.08,57.03-50.9-9.43-68.81-18.85-68.81-18.85,0,0-123.49-12.25-145.64,31.58Z"/><path class="v" d="M436.65,694.15s33.93-107.46,146.11-78.24c0,0,22.15,6.13,25.92,8.96,0,0-25.45-21.68-37.71-22.62,41.95-.47,77.77,20.27,84.37,62.69-13.2-1.89-20.74,.94-20.74,.94-52.79,50.9-155.54,63.16-197.95,28.28Z"/><path class="s" d="M773.59,629.62c11.92,26.89,107.34,54.65,161.01-4.98,0,0,17.89,35.78-1.99,63.61-111.32,61.62-155.05-43.71-159.03-58.63h0Z"/><path class="s" d="M574.8,801.55s23.85,25.84,47.71,13.91c39.76-17.89,75.54-59.64,73.55-75.54-1.99-15.9,17.89-71.56-9.94-115.29,9.94,59.64-31.81,129.21-111.32,176.92Z"/><path class="v" d="M410.26,675.29s17.9,6.04,36.76-3.58,2.3,20.57,2.3,20.57l-1.35,9.34s-31.11-9.37-49.02,4.77-6.6-27.34-5.66-28.28,16.97-2.83,16.97-2.83Z"/><path class="aa" d="M659.12,654.56c24.21,23.83,26.41,59.63,27.42,96.07l7.62-1.04s23.41-93.14-16.18-107.28c-39.59-14.14-18.85,12.25-18.85,12.25Z"/><path class="v" d="M776.95,595.17s10.37,33.93,35.82,35.82c0,0-20.74,2.83-44.3-8.48-23.57-11.31-7.54-27.34-7.54-27.34h16.02Z"/></g><g id="h"><path class="aa" d="M484.73,689.43s48.07,15.08,106.52-22.62c58.44-37.71-43.86-35.26-56.81-33.65s-61.02,38.37-59.14,45.91,9.43,10.37,9.43,10.37Z"/><path class="v" d="M554.48,684.72s35.82-16.97,30.16-28.28c-5.66-11.31-17.91-23.57-38.65-19.8s-48.6,23.3-48.6,23.3c0,0,21.42,34.75,39.96,30.47,0,0-32.36,6.09-59.7-1.46,0,0-5.66-21.68,7.54-29.22s36.76-43.36,90.49-28.28c53.73,15.08,40.53,23.57,40.53,23.57,0,0-50.9,28.28-61.74,29.69Z"/><path class="aa" d="M778.46,563.01s9.04,19.88,28.92,15.9c19.88-3.98,45.72-16.49,52.68-18.19s40.75-29.52,38.76-39.46c-1.99-9.94-75.54-19.88-87.46-7.95-11.93,11.93-28.03,33.79-32.9,49.7Z"/><path class="v" d="M853.1,521.27s29.84-5.84,40.76,2.05c10.92,7.89,18.87-10,18.87-15.96s-45.72-25.84-71.56-7.95c-25.84,17.89,0,1.99,0,1.99,0,0,13.91,9.94,11.93,19.88Z"/><path class="ae" d="M856.96,533.41c0,18.55-15.03,33.57-33.57,33.57-10.67,0-20.18-4.99-26.34-12.74-.89-1.13-1.73-2.33-2.46-3.58-1.03-1.73-1.93-3.54-2.62-5.43,6.14-13.22,16.76-27.03,35.07-35.42,4.73-2.17,9.08-3.98,13.14-5.51,1.41,.82,2.74,1.73,4.02,2.74,.02,.02,.02,.04,.04,.06,7.77,6.1,12.74,15.62,12.74,26.3Z"/><path class="ag" d="M854.09,531.21c0,20.32-16.46,36.77-36.77,36.77-8.65,0-31.81-16.9-25.84-28.82,6.74-14.47,43.28-36.1,47.71-37.77,1.55,.89,5.47,5.8,6.86,6.92l.06,.06c5.01,6.26,7.99,14.21,7.99,22.84Z"/><path class="ae" d="M836.2,533.19c0,7.14-5.78,12.92-12.92,12.92-3.82,0-7.26-1.65-9.62-4.29-2.05-2.29-3.3-5.31-3.3-8.63,0-7.14,5.78-12.92,12.92-12.92,3.32,0,6.34,1.25,8.63,3.3,2.64,2.37,4.29,5.8,4.29,9.62Z"/><path d="M900.81,495.42s9.94-1.99,11.93-3.98c0,0-1.99,7.95-7.95,7.95s-3.98-3.98-3.98-3.98Z"/><path d="M923.67,534.19s-11.93-5.96-15.9-5.96c-2.11,0-1.14-1.41,.54-4.51,3.42-.37,9.09,.76,9.09,.76-.68-3.42-4.33-5.84-6.29-6.91,.65-1.82,1.24-3.89,1.63-6.23,0-3.98-13.91-3.98-13.91-3.98,0,0-.99,8.95-3.98,13.91,0,0-13.71,31.91-41.54,41.85,0,0,25.64-4.08,33.59-12.04,0,0,4.97-4.97,14.91-2.98,0,0,0-5.96-1.99-7.95-1.99-1.99,3.98-5.96,23.85-5.96Z"/><path class="aa" d="M789.49,545.12s-1.99,19.88,5.96,23.85c7.95,3.98,23.78,5.85,29.78,4.91,0,0-17.85,9-31.77,5.03s-11.93-13.91-11.93-13.91c0,0,1.99-19.88,7.95-19.88Z"/><path class="v" d="M789.49,545.12s-1.99,19.88,5.96,25.84c7.95,5.96,23.78,3.86,29.78,2.93,0,0-15.87,10.99-31.77,5.03-13.91-3.98-11.93-13.91-11.93-13.91,0,0,1.99-19.88,7.95-19.88Z"/><path class="t" d="M777.56,570.96s-13.91-79.51,91.44-87.46c12.22,3.28,24.38,6.49,29.82,11.93,0,0-57.65-7.95-77.53,9.94-19.88,17.89-33.79,29.82-43.73,65.6Z"/><path d="M917.7,508.34c1.92,0,5.72-3.73,5.96-3.97-3.98,1.98-7.95,0-7.95,0,5.79-3.86,9.68-13.29,9.93-13.89-.54,.39-8.82,6.16-16.11,6.82-2.06,.19-4.03-.03-5.74-.88-.53-.45-1.07-.88-1.64-1.27-3.26-2.3-7.19-3.81-11.32-4.75-14.2-3.25-30.77,.06-30.77,.06,.79-.79,.95-3.37,.87-6.18-.14-4.26-.87-9.08-.87-9.08,0,0-.67,5.12-2,9.44-.98,3.12-2.3,5.83-3.97,5.83-3.86,0-11.42,3.74-11.91,3.96,.4-.41,.62-1.29,.74-2.45,.14-1.29,.14-2.92,.07-4.6-.04-.93-.1-1.89-.18-2.79-.25-3.26-.65-6.04-.65-6.04,0,2-.67,4.66-1.82,7.44-.32,.76-.68,1.55-1.07,2.32-1.27,2.54-2.91,5.03-4.76,7.08-1.62,1.8-3.41,3.23-5.28,4.03-36.07,12.8-48.3,42.63-52.24,65.16v.03c-2.8,15.97-1.43,28.24-1.43,28.24,8.79-8.79,17.23-11.71,22.68-12.61h0c.9-.15,1.71-.25,2.42-.3h.08c1.04-.08,1.84-.08,2.46-.07-.68-.08-1.37-.21-2.06-.39-.05,0-.08-.02-.13-.03-.02,0-.03-.02-.04-.03h0s-.07,0-.07,0c-2.34-.64-4.69-1.85-6.91-3.29-6.35-4.12-11.49-10.11-11.49-10.11,1.9-7.62,4.03-14.06,6.42-19.61,.18-.42,.36-.8,.54-1.21h0v-.06c.34-.75,.68-1.48,1.02-2.2h0s0-.02,0-.02c.49-1.03,1-1.99,1.51-2.95,2.2-4.08,4.58-7.6,7.2-10.71,.08-.09,.15-.18,.23-.27,.02-.02,.03-.04,.05-.06,5.67-6.66,12.4-11.47,20.41-16.02,2.78-1.57,5.72-3.12,8.83-4.7,.36-.18,.72-.37,1.08-.55,0,0,0,0,0,0,1.77-.9,3.6-1.81,5.49-2.74,0,0,0,0,.02,0,.28-.14,.58-.28,.86-.42,1.46-.73,2.91-1.38,4.35-1.95,.46-.21,.91-.39,1.38-.56h0c.15-.07,.31-.12,.47-.18,25.13-9.38,46.08,1.05,53.44,6.56,.75,.57,1.63,1.07,2.61,1.5,3.62,1.6,8.56,2.33,13.23,2.62,.28,.02,.56,.04,.84,.06,6.98,.36,13.14-.2,13.14-.2-3.98,0-7.96-3.98-7.96-3.98Zm-136.16,74.54v-7.95c0,1.99,5.97,3.97,5.97,3.97-5.97,0-5.97,3.98-5.97,3.98Z"/><path d="M840.05,568.38s-30.68,10.53-38.63,8.54c-7.95-1.99-9.94,0-9.94,0,0,0,11.29,3.68,14.59,2.83s24.9-6.01,33.98-11.38h0Z"/><path d="M835.21,531.68c0,7.42-6.02,13.44-13.44,13.44-3.45,0-6.59-1.3-8.97-3.43-2.13-2.38-3.43-5.52-3.43-8.97,0-7.42,6.02-13.44,13.44-13.44,3.45,0,6.59,1.3,8.97,3.43,2.13,2.38,3.43,5.52,3.43,8.97Z"/><path d="M857.81,520.49c-1.68-4.56-4.23-8.69-7.46-12.18-1.31-1.41-2.73-2.72-4.25-3.92-.02-.03-.04-.05-.06-.07-1.17-.93-2.38-1.77-3.64-2.55-.25-.16-.5-.3-.75-.45l-.37,.14c-.22,.08-.42,.16-.64,.25h0c-.22,.08-.44,.17-.67,.25-1.88,.73-3.81,1.51-5.82,2.37,0,0,0,0-.02,0h0c-.68,.28-1.37,.57-2.06,.88h0c-1.56,.67-3.15,1.39-4.79,2.13-.91,.41-1.78,.84-2.66,1.28,0,0,0,0,0,0-10.76,5.41-18.95,12.58-25.19,20.38l-.02,.03-.15,.2c-2.77,3.48-5.16,7.09-7.2,10.71-.53,.93-1.03,1.87-1.51,2.8-.41,.79-.81,1.58-1.19,2.38-.16,.34-.32,.68-.48,1.02,.03,.08,.06,.16,.09,.24,.12,.33,.25,.66,.4,.99v.02c.41,.99,.87,1.95,1.38,2.89v.02c.32,.61,.66,1.19,1.02,1.79,.08,.16,.18,.29,.27,.43v.02c.74,1.22,1.56,2.37,2.43,3.46,1.65,2.09,3.53,4,5.6,5.68,.93,.75,1.91,1.47,2.92,2.15,1.27,.84,2.61,1.61,3.98,2.29,.41,.22,.84,.41,1.25,.57,1.09,.51,2.22,.95,3.37,1.33,.66,.24,1.34,.43,2.01,.61,.9,.26,1.79,.48,2.72,.64,1.11,.22,2.22,.4,3.38,.47,1.19,.14,2.38,.21,3.59,.21,20.32,0,36.78-16.47,36.78-36.78,0-4.47-.8-8.74-2.25-12.7Zm-.87,13.96c0,.23,0,.45-.03,.68,0,.26-.03,.53-.05,.79-.02,.25-.04,.52-.07,.78-.05,.51-.11,1.03-.19,1.54-.03,.23-.07,.45-.1,.67-.05,.3-.1,.6-.16,.9-.05,.25-.1,.52-.16,.77-.22,1.03-.49,2.04-.81,3.03-.08,.25-.16,.5-.25,.74-.42,1.23-.91,2.44-1.48,3.6-.16,.33-.32,.65-.49,.97,0,.02-.02,.05-.03,.07-.18,.33-.35,.66-.54,.98-.04,.07-.08,.14-.12,.21,0,.02-.02,.03-.03,.05-.12,.22-.25,.44-.39,.65-.26,.43-.55,.87-.83,1.3-.3,.44-.61,.89-.93,1.31-.17,.23-.34,.44-.52,.67-.17,.22-.35,.43-.53,.65-.41,.51-.85,.99-1.29,1.47-.26,.3-.55,.58-.83,.87l-.12,.12c-.25,.25-.52,.51-.78,.74-.2,.2-.41,.39-.62,.57-.28,.25-.57,.5-.86,.74-.3,.25-.61,.5-.92,.74-.02,.02-.05,.03-.07,.05-.22,.16-.42,.32-.64,.47-.22,.16-.42,.31-.65,.46-.21,.14-.41,.29-.62,.42-.25,.17-.52,.34-.78,.5-.31,.2-.63,.39-.96,.58-.24,.14-.47,.27-.71,.4-.03,.02-.06,.04-.08,.05-.03,.02-.06,.03-.08,.05-.05,.03-.08,.05-.13,.08-.19,.1-.4,.2-.59,.3-.33,.16-.65,.32-.99,.48-.18,.08-.36,.17-.55,.25-.16,.08-.33,.15-.5,.22-.25,.1-.51,.21-.76,.31-.1,.04-.21,.08-.31,.12-.41,.15-.81,.3-1.23,.44-.03,0-.05,0-.06,.02-.49,.16-.97,.31-1.47,.45-.02,0-.04,0-.06,.02-.48,.14-.97,.26-1.46,.38-.1,.03-.22,.06-.32,.08-.21,.05-.41,.09-.62,.14-.14,.02-.27,.05-.41,.08-.14,.03-.28,.06-.42,.08,0,0-.03,0-.05,0-.34,.07-.69,.12-1.04,.17-.18,.03-.37,.06-.56,.08h-.03c-.35,.05-.71,.09-1.07,.12-.06,0-.1,0-.16,.02h-.07c-.41,.04-.84,.07-1.26,.08-.08,0-.15,0-.23,0-.5,.03-1,.04-1.5,.04-.33,0-.67,0-1-.02-.29,0-.59-.02-.89-.04-.24,0-.47-.03-.71-.05-.25-.02-.48-.04-.73-.07-.22-.02-.44-.04-.66-.07-.26-.03-.52-.07-.77-.1s-.51-.08-.76-.12c-.42-.08-.85-.15-1.27-.24-.21-.04-.41-.08-.62-.12-.21-.05-.41-.08-.62-.14-.02,0-.05-.02-.08-.03-.28-.07-.57-.14-.86-.23-.03,0-.06,0-.08-.02-.05,0-.08-.03-.13-.04-.3-.08-.6-.18-.9-.27-.3-.09-.59-.19-.9-.3-.25-.08-.5-.17-.74-.25h0c-.09-.05-.19-.08-.28-.11-.26-.1-.52-.2-.77-.31-.29-.12-.58-.25-.88-.38-.29-.13-.58-.27-.88-.41h-.03s-.05-.02-.07-.02c-.08-.04-.15-.08-.23-.12-.34-.16-.67-.34-.99-.51-.41-.22-.8-.44-1.19-.68-.21-.11-.41-.24-.59-.36-.02,0-.04-.02-.06-.03-.02,0-.05-.03-.07-.04-.18-.11-.36-.24-.54-.35-.21-.12-.41-.25-.6-.4-.03-.02-.05-.04-.07-.05-.26-.19-.52-.37-.78-.56-.36-.25-.72-.53-1.06-.8-.53-.41-1.05-.85-1.55-1.3-.17-.15-.34-.3-.5-.45-.05-.04-.09-.08-.14-.12-.08-.08-.15-.15-.23-.22-.73-.71-1.42-1.43-2.08-2.19-.36-.41-.71-.82-1.05-1.24-.9-1.13-1.73-2.32-2.47-3.57-.24-.38-.45-.75-.67-1.15v-.03c-.08-.14-.16-.29-.24-.43-.14-.25-.26-.51-.39-.76,0-.02,0-.03-.02-.05-.02-.03-.03-.05-.04-.08-.11-.22-.22-.44-.32-.66-.05-.09-.09-.19-.13-.29,0-.03-.03-.05-.04-.08-.03-.06-.05-.1-.07-.16-.08-.17-.16-.36-.24-.54-.02-.04-.04-.08-.05-.11,0,0,0-.03-.02-.04-.15-.35-.28-.7-.41-1.06,6.15-13.22,16.76-27.03,35.07-35.42,1.35-.61,2.66-1.21,3.95-1.76,.07-.03,.12-.06,.19-.08,.12-.06,.25-.1,.37-.16,.62-.26,1.23-.52,1.84-.77,.39-.17,.78-.34,1.17-.49,.39-.17,.77-.32,1.16-.47,.82-.34,1.63-.66,2.43-.98,.69-.26,1.37-.53,2.04-.78,1.41,.82,2.74,1.73,4.02,2.74,.02,.02,.02,.04,.04,.06,.25,.19,.48,.39,.72,.58l.4,.34c.3,.25,.58,.51,.87,.77,.27,.25,.54,.49,.8,.74,0,.02,.03,.03,.04,.04l.19,.19c.23,.22,.44,.44,.65,.68,.82,.87,1.6,1.79,2.32,2.74,.13,.18,.26,.35,.4,.53,.19,.26,.38,.53,.56,.8,.09,.12,.18,.25,.26,.39,.17,.26,.35,.53,.51,.8,.27,.43,.54,.88,.78,1.32,.09,.16,.18,.32,.26,.48,.09,.16,.17,.32,.25,.48,.09,.18,.19,.37,.28,.56,.14,.28,.27,.57,.41,.85,.25,.53,.47,1.07,.68,1.6,.08,.21,.16,.41,.24,.61,.08,.21,.16,.41,.23,.62,.06,.14,.1,.28,.15,.42h0c.13,.39,.25,.76,.37,1.15,0,.04,.03,.08,.04,.13,.15,.5,.28,1,.41,1.51s.24,1.03,.34,1.55c.06,.27,.1,.55,.15,.83,0,.02,0,.05,0,.07,.08,.49,.15,.98,.21,1.47,.02,.14,.04,.28,.05,.42,.03,.21,.05,.42,.07,.65,.03,.29,.05,.58,.07,.88,0,.07,0,.13,0,.2,0,.05,0,.09,0,.14,.02,.25,.03,.5,.03,.75,0,.33,.02,.67,.02,1,0,.35,0,.7-.02,1.05Z"/><path d="M550.86,636.03c-1.24-1.29-2.58-2.48-4.02-3.55-.05-.04-.1-.08-.15-.11t-.02,0c-.45-.34-.91-.67-1.39-.98-.9-.62-1.82-1.18-2.77-1.7,0,0-.02,0-.02,0-.75-.41-1.52-.79-2.31-1.15h0c-.74-.33-1.51-.63-2.28-.9-19.76,4.47-35.34,14.12-44.45,22.67-.34,1.23-.6,2.47-.79,3.75-.22,1.44-.34,2.91-.35,4.42h0c0,.15,0,.3,0,.45,0,.19,0,.37,0,.56,0,1.02,.08,2.03,.2,3.04,.1,.93,.25,1.86,.42,2.77,2.69,13.72,13.94,24.44,28.08,26.57,.08,.02,.17,.03,.25,.04,.7,.1,1.4,.19,2.11,.24h.05c.92,.08,1.84,.12,2.78,.12h.02c3.89,0,7.62-.65,11.09-1.84,0,0,.03,0,.04,0,1.6-.54,3.16-1.2,4.64-1.97,0,0,0,0,0,0,10.78-5.58,18.14-16.69,18.14-29.5,0-8.87-3.53-16.93-9.28-22.9Zm6.68,24.77c-.02,.44-.06,.88-.1,1.31-.03,.29-.07,.58-.1,.88-.09,.72-.22,1.43-.36,2.14h0c-.09,.44-.19,.88-.3,1.31-.22,.87-.47,1.73-.76,2.55-.14,.41-.29,.84-.46,1.24,0,.03-.02,.06-.03,.08-.15,.39-.32,.76-.49,1.14-.18,.41-.37,.8-.57,1.19-.16,.34-.34,.67-.52,1-.21,.38-.42,.74-.65,1.12-.26,.43-.54,.86-.82,1.27-.24,.37-.49,.73-.75,1.07-.23,.32-.47,.63-.72,.93-.24,.29-.47,.58-.73,.87-.12,.14-.25,.29-.39,.43-.5,.57-1.04,1.13-1.61,1.68-.19,.18-.38,.36-.57,.53-.19,.17-.38,.34-.57,.51s-.39,.34-.58,.5c-.24,.2-.48,.4-.73,.58-.11,.09-.22,.18-.34,.26-.11,.08-.23,.17-.34,.25-.41,.3-.82,.6-1.25,.89-.26,.17-.53,.35-.81,.52-.37,.24-.75,.46-1.13,.68,0,0-.02,0-.03,.02-.38,.21-.75,.41-1.14,.6-.4,.21-.79,.41-1.2,.58-.41,.19-.81,.37-1.23,.53-.41,.17-.83,.33-1.24,.48-.42,.16-.85,.3-1.28,.43-.43,.14-.87,.26-1.3,.38-.34,.09-.67,.18-1.02,.25-.04,.02-.08,.03-.12,.03-.16,.04-.31,.08-.47,.1-.23,.06-.46,.1-.7,.14-.18,.04-.37,.08-.56,.1-.31,.06-.62,.1-.94,.14-.25,.04-.5,.07-.74,.09-.52,.07-1.04,.11-1.56,.14,0,0,0,0,0,0-.14,.02-.28,.03-.42,.03-.14,0-.28,0-.42,.02-.41,.02-.83,.03-1.25,.03-.27,0-.56,0-.83-.02-.19,0-.39,0-.57-.02-.54-.02-1.07-.06-1.59-.1-.49-.05-.98-.1-1.47-.17-.43-.07-.88-.13-1.31-.22-.43-.08-.87-.16-1.29-.26l-.47-.11c-.41-.09-.81-.2-1.21-.31-.42-.12-.86-.25-1.28-.4-.25-.08-.48-.16-.73-.25-.25-.08-.49-.17-.74-.27-.33-.12-.66-.25-.98-.4-.8-.34-1.58-.71-2.34-1.12-.17-.08-.33-.17-.5-.26-.23-.12-.45-.25-.67-.38-.29-.17-.58-.35-.87-.53-.28-.17-.57-.36-.84-.54-.16-.11-.32-.22-.48-.34-.2-.13-.4-.27-.58-.41-.2-.14-.4-.29-.59-.44-.33-.25-.66-.52-.98-.79-.13-.1-.25-.21-.38-.32-.32-.27-.63-.56-.93-.84-.23-.2-.45-.41-.67-.64l-.15-.15c-.42-.41-.82-.84-1.21-1.28-.66-.75-1.29-1.54-1.88-2.35-.23-.3-.44-.61-.65-.92-.2-.28-.38-.56-.55-.85-.19-.28-.36-.57-.52-.86-.22-.36-.42-.73-.61-1.1-.04-.06-.07-.12-.09-.19-.05-.08-.08-.16-.12-.24-.02-.03-.03-.05-.04-.08-.21-.38-.39-.78-.57-1.18-.21-.43-.39-.88-.57-1.32-.17-.43-.33-.88-.48-1.32-.08-.25-.17-.49-.25-.74-.09-.31-.19-.61-.27-.91-.07-.21-.12-.42-.17-.63-.08-.3-.15-.61-.22-.92-.15-.68-.28-1.36-.39-2.05-.05-.29-.08-.59-.12-.89-.02-.12-.03-.25-.05-.39-.13-1.1-.19-2.21-.19-3.33,0-.55,0-1.09,.05-1.63,0-.29,.03-.58,.06-.87,.03-.37,.06-.74,.1-1.09,0-.03,0-.06,0-.08h0c0-.08,.02-.16,.03-.23,0-.14,.03-.27,.06-.41,.02-.13,.04-.26,.06-.4,.03-.22,.07-.44,.11-.66,.08-.47,.18-.94,.29-1.4,.07-.31,.14-.61,.23-.91,.02-.1,.05-.21,.08-.31,.16-.15,.33-.31,.5-.46,.16-.15,.33-.3,.51-.46,1.74-1.56,3.7-3.16,5.88-4.73,.8-.58,1.63-1.15,2.49-1.73,0-.02,.03-.03,.05-.03,.02,0,.04-.02,.05-.03,.02-.02,.03-.03,.05-.04,.03-.03,.06-.05,.08-.07,.32-.21,.64-.42,.96-.63,.2-.13,.41-.26,.62-.4,.54-.34,1.08-.68,1.64-1.02,.56-.34,1.12-.67,1.7-1,.57-.34,1.16-.67,1.75-.99,.48-.26,.96-.52,1.45-.77,.25-.13,.49-.26,.74-.39,.73-.38,1.47-.74,2.23-1.11,0,0,.02,0,.03,0,.4-.2,.79-.39,1.2-.57,.17-.08,.35-.17,.53-.25,.75-.35,1.53-.69,2.3-1.01,.17-.08,.34-.15,.51-.22,.95-.41,1.92-.79,2.9-1.16,.62-.24,1.25-.47,1.89-.7,.16-.06,.32-.11,.48-.17,.71-.25,1.42-.49,2.14-.73,.45-.14,.9-.29,1.37-.42,.2-.07,.41-.12,.61-.19,.21-.07,.41-.13,.61-.18,1.74-.51,3.53-.98,5.35-1.4,0,0,0-.02,0,0t.02,0c.16-.04,.31-.08,.47-.11,.04,0,.08,.03,.11,.05,0,0,0,0,0,0,1.38,.49,2.71,1.08,3.98,1.76,.23,.12,.45,.25,.68,.38,.23,.12,.44,.25,.67,.39,.92,.56,1.82,1.15,2.68,1.8t.02,0c.35,.26,.7,.54,1.05,.82,.45,.37,.9,.74,1.33,1.15,.38,.35,.74,.7,1.11,1.06,.75,.75,1.46,1.54,2.11,2.36,.15,.18,.3,.37,.44,.56,.38,.47,.73,.96,1.06,1.45,.12,.17,.24,.34,.35,.52,.24,.35,.45,.7,.66,1.05,.21,.35,.41,.71,.61,1.07,.2,.37,.39,.73,.57,1.09,.08,.17,.17,.33,.25,.5,.1,.21,.2,.41,.28,.62,.25,.54,.47,1.08,.68,1.64,.13,.37,.26,.74,.39,1.1,.08,.25,.17,.51,.25,.76,.08,.25,.15,.51,.23,.76,.14,.52,.26,1.04,.38,1.56,.09,.41,.18,.81,.25,1.23,.05,.23,.08,.45,.11,.68,.05,.3,.08,.6,.12,.9,.02,.16,.04,.33,.06,.5,.03,.24,.05,.48,.07,.72,.03,.3,.05,.6,.06,.9,.04,.52,.05,1.06,.05,1.58,0,.34,0,.68-.02,1.01,0,.27-.02,.53-.04,.79Z"/><path class="ae" d="M556.98,665.13c-2.88,14.09-15.56,24.72-30.76,24.72-11.67,0-21.86-6.27-27.25-15.56,6.2,7.52,16.61,13.26,27.23,13.26,14.48,0,25.91-9.86,30.78-22.42Z"/><path class="ag" d="M557.6,659.01c0,2.1-.22,4.15-.62,6.13-4.86,12.56-17.24,22.42-31.72,22.42-10.62,0-20.09-5.74-26.29-13.26-2.1-3.59-3.47-7.64-3.94-11.95-.13-1.1-.19-2.21-.19-3.33,0-2.77,.36-5.44,1.07-7.98,8.42-7.91,22.84-16.84,41.12-20.97,2.95,1.05,5.67,2.53,8.13,4.37t.02,0c7.55,5.63,12.43,14.54,12.43,24.58Z"/><path class="ae" d="M539.02,659.42c0,7.14-5.79,12.92-12.92,12.92s-12.92-5.79-12.92-12.92c0-.32,0-.63,.04-.94,.48,6.7,6.07,11.98,12.89,11.98s12.41-5.28,12.89-11.98c.03,.31,.04,.62,.04,.94Z"/><path d="M538.99,658.48c-.48,6.7-6.07,11.98-12.89,11.98s-12.41-5.28-12.89-11.98c.48-6.7,6.07-11.98,12.89-11.98s12.41,5.28,12.89,11.98Z"/><path class="t" d="M612.46,642.99s-51.37-38.39-101.33-11.06-52.74,48.72-58.42,57.82,19.77-1.27,19.77-1.27c0,0,26.39-54.67,65.04-58.44s75.41,15.08,75.41,15.08l-.47-2.14h0Z"/><path d="M612.46,642.99s-.06-.04-.08-.06c-7.53-4.26-19.85-9.38-39.98-14.77-42.29-11.33-72.47,13.64-91.05,33.23-2.88,.36-6.17,.21-9.57-1.12-.71-.27-1.41-.6-2.12-.99,.07,.09,.56,.79,1.44,1.69,1.36,1.39,3.68,3.22,6.86,4.07-3.17,3.47-5.94,6.66-8.31,9.31-.25,.28-.49,.57-.73,.84-2.59,1.25-5.99,2.29-9.9,2.05-.23,0-.45-.03-.69-.06,0,0,.2,.12,.56,.31,1.12,.58,3.87,1.81,7.1,1.78-1.94,3.13-3.26,6.09-5.77,9.22-.13,.16-.27,.32-.41,.46-1.7,.14-3.83,.09-6.43-.36h0c-.63-.1-1.29-.24-1.97-.41-.55-.12-1.11-.26-1.7-.43,0,0,.53,.43,1.41,1.02,.44,.3,.98,.64,1.58,.98,.94,.54,2.04,1.07,3.19,1.44-1.29,.42-2.68,.7-4.01,.87-.9,.12-1.76,.19-2.55,.23-2.39,.12-4.19-.03-4.19-.03,1.37,.65,2.68,1.23,3.94,1.72,8.58,3.46,14.84,3.66,19.39,2.22-.54,1.53-1.3,2.86-2.43,3.51,1.03-.57,6.84-3.86,10.12-6.95,1.73,.16,3.93,.32,6.64,.45,1.41,2.47,2.98,5.98,2.03,8.26,.49-.94,2.64-5.07,4.83-8.02,8.87,.18,21.02,0,36.56-1.2,0,0-.84-.05-2.31-.16h-.04c-.71-.05-1.53-.11-2.49-.21h-.04c-.1,0-.21-.02-.31-.03-9.89-.9-31.29-3.7-40.53-11.35v-.04s-1.16,1.16,12.45-15.19c.68-.81,1.4-1.67,2.14-2.57,.74-.88,1.51-1.8,2.32-2.77,0,0,0,0,.02-.02,1.75-2.1,3.69-4.42,5.83-6.98,1.52,.13,3.34,.09,5.11,0h0c3.63-.23,7-.74,7-.74-1.5,0-2.88-.4-4.07-.99-1.73-.84-3.1-2.07-4.03-3.05,.1-.13,.21-.25,.32-.39,.08-.09,.16-.19,.24-.28,7.01-6.46,14.67-10.64,22.51-13.16t.02,0s.03,0,.05,0c1.34-.43,2.7-.81,4.04-1.15,0,0,.02,0,.03,0t.02,0c2.21-.55,4.42-.97,6.64-1.29,1.4-.2,2.78-.36,4.17-.47,8.59-.74,17.05,.04,24.77,1.53,0,0,.02,0,.03,0,2.24,.43,4.43,.92,6.54,1.46,1.47,1.65,2.87,3.78,3.77,6.5,0,0-.25-2.92-1.1-5.8,12.46,3.47,19.46,6.72,22.31,8.15,3.36,1.68,2.83,8.51,2.83,11.31-9.41,9.22-43.91,27.57-45.21,28.26,4.43-1.77,8.66-3.51,12.68-5.17,.04-.02,.07-.03,.1-.05,.03-.02,.06-.03,.08-.04h0c2.12-.9,4.19-1.77,6.18-2.62,.03,0,.07-.03,.09-.04,.03-.02,.05-.03,.08-.04,16.02-6.83,27.83-12.41,33.18-15,6-3.43,12.59-5.32,12.59-5.32,0,0,.36-4.67-11.78-11.57Zm-3.3,4.03c3.77,1.89,6.6,5.66,6.6,5.66-1.83,0-6.31,1.77-6.59,1.88,.93-1.89,0-7.53,0-7.53Z"/></g><g id="i"><path class="o" d="M574.8,594.82l13.91,3.7s63.61-1.71,81.5,30.09c0,0,7.83,10.87,12.86,13.38,5.03,2.52-24.79-51.15-24.79-51.15,0,0-79.51-1.99-83.49,3.98Z"/><path d="M768.76,573.07s0,.08,0,.11c-.03,.3-.05,.6-.08,.9,.03-.37,.07-.74,.1-1.12,0,.04-.02,.08-.02,.11Zm-.23,2.61c0,.07-.02,.12-.02,.18-.05,.69-.09,1.38-.13,2.06,.05-.8,.1-1.61,.17-2.42,0,.07-.02,.12-.02,.19Zm-.37,12.82c-.03-1.59-.03-3.2,0-4.82-.04,1.62-.04,3.22,0,4.82Zm.59-15.43s0,.08,0,.11c-.03,.25-.05,.5-.08,.74-.02,.21-.03,.41-.05,.62,.02-.16,.03-.31,.05-.47,.03-.37,.07-.74,.1-1.12,0,.04-.02,.08-.02,.11Zm-.23,2.61c0,.07-.02,.12-.02,.18-.05,.69-.09,1.38-.13,2.06,.05-.8,.1-1.61,.17-2.42,0,.07-.02,.12-.02,.19Zm-.37,12.82c-.03-1.59-.03-3.2,0-4.82-.04,1.62-.04,3.22,0,4.82Zm.59-15.43s0,.08,0,.11c-.03,.25-.05,.5-.08,.74-.02,.21-.03,.41-.05,.62,.02-.16,.03-.31,.05-.47,.03-.37,.07-.74,.1-1.12,.04-.38,.08-.75,.11-1.13-.05,.41-.09,.83-.13,1.24Zm-.23,2.61c0,.07-.02,.12-.02,.18-.05,.69-.09,1.38-.13,2.06,.05-.8,.1-1.61,.17-2.42,0,.07-.02,.12-.02,.19Zm-.37,12.82c-.03-1.59-.03-3.2,0-4.82-.04,1.62-.04,3.22,0,4.82Zm.58-15.32c-.03,.25-.05,.5-.08,.74-.06,.65-.11,1.29-.16,1.93-.05,.69-.09,1.38-.13,2.06,.05-.8,.1-1.61,.17-2.42l.03-.37v-.02c.02-.14,.03-.28,.04-.43,0-.04,0-.08,0-.11h0c.02-.17,.03-.32,.05-.48,.03-.37,.07-.74,.1-1.12,.04-.38,.08-.75,.11-1.13-.05,.41-.09,.83-.13,1.24,0,.04,0,.08,0,.11Zm-.58,15.32c-.03-1.59-.03-3.2,0-4.82-.04,1.62-.04,3.22,0,4.82Zm264.82-179.55s-24.85-8.95-55.65,0c-30.81,8.95-49.7,17.89-49.7,17.89,0,0-.39,.17-1.12,.5-.08,.05-.18,.08-.28,.13-.7,.31-1.64,.74-2.82,1.28-.02,.02-.05,.03-.08,.04-.05,.03-.09,.05-.15,.07-.57,.27-1.21,.57-1.89,.89-1.4,.65-3.04,1.42-4.86,2.29-1.39,.66-2.88,1.38-4.5,2.16-12.49,6.03-31.37,15.56-52.81,27.69,0,0,0,0,0,0h0c-3.59,2.04-7.26,4.15-10.98,6.33-1.76,1.03-3.53,2.07-5.32,3.14h-.02c-21.78,12.99-45.04,28.23-66.23,44.93-5.86,4.62-11.35,8.84-16.52,12.72h0s-.02,.03-.02,.03c0,0,0,0,0,0,0,0,0,0,0,0h0c-7.36,5.45-14.04,10.23-20.32,14.38,0,0,0,0,0,0,0,0,0,0,0,0,0,0,0,0-.02,0-5.39,3.55-10.45,6.66-15.33,9.39-30.07,16.84-52.62,19.05-96.82,23.07-12.63,1.15-26.14,3.63-39.85,6.92-57.53,13.79-118.64,41.94-133.09,46.75-6.24,2.08-33.01,14.55-65.24,29.9,0,.02-.02,.02-.02,.02-8.05,4.17-16.38,11.44-22.54,17.5h0c-5.73,5.66-9.6,10.23-9.6,10.23-11.04,2.6-26.31,7.74-41.88,13.49-.11,.04-.22,.08-.32,.11-4.06,1.51-8.14,3.04-12.17,4.6-8.9,3.41-17.53,6.85-25.16,9.95-10.99,4.47-19.9,8.23-24.47,10.17-2.15,.91-3.34,1.43-3.34,1.43h17.89l1.64-.4,16.29-3.98,19.31-4.7,14.74-3.6,.47-.11,29.05-7.09s3.13,4.71,6.63,8.55c.43,.48,.88,.95,1.32,1.4,3.98,3.97,21.87,0,27.83,13.91,15.91,35.78,51.68,85.48,79.52,105.35,27.83,19.88,87.46,29.83,149.09-5.96,39.04-22.68,54.15-34.97,65.03-48.53,1.47-1.84,2.87-3.7,4.24-5.6,1.05-1.47,2.07-2.97,3.12-4.52h0c1.54-2.27,3.07-4.64,4.69-7.14,1.94-2.98,4-6.16,6.29-9.6,.04-.06,.08-.11,.11-.17,6.47-9.7,9.57-22.95,10.67-37.34h0c2.28-29.85-4.02-64.49-6.7-81.92-.78-5.11-.79-9.51-.29-13.3,1.99-15.38,12.23-20.49,12.23-20.49,33.79-19.88,37.76,19.87,43.73,33.79,1.1,2.57,3.37,6.37,6.58,10.93,6.43,9.12,16.69,21.28,29.17,32.76,12.92,11.89,28.23,23.03,44.12,29.27h0c2.52,.99,5.05,1.86,7.59,2.58,.9,.25,1.79,.49,2.71,.7h0c.55,.13,1.1,.25,1.66,.37,1.22,.25,2.44,.46,3.68,.64,2.73,.4,5.54,.62,8.42,.69,38.91,.98,89.81-26.68,130.69-60.95,.47-.4,.95-.79,1.42-1.2,.45-.39,.91-.77,1.36-1.16,1.05-.9,2.08-1.79,3.12-2.7,47.72-41.75,35.78-192.83,35.78-192.83-1.61-2.06,7.96-27.83,7.96-27.83,3.02-7.79-.1-13.62-7.96-17.89Zm-422.93,409.65c-.8,.47-1.61,.94-2.42,1.41-.44,.25-.89,.51-1.33,.76-.84,.49-1.67,.96-2.51,1.42-1.14,.64-2.28,1.27-3.43,1.89-.87,.46-1.73,.92-2.59,1.38-.83,.44-1.67,.88-2.51,1.31-1.18,.61-2.37,1.21-3.55,1.79-.5,.25-1,.49-1.5,.74-.85,.41-1.7,.82-2.55,1.23-.86,.4-1.71,.79-2.56,1.18-.64,.3-1.28,.58-1.92,.87-.65,.29-1.29,.57-1.93,.85-1.29,.57-2.58,1.11-3.88,1.63-.6,.25-1.22,.5-1.83,.74-.73,.29-1.45,.58-2.18,.85-.73,.28-1.46,.56-2.19,.82-1.46,.54-2.91,1.06-4.37,1.55-1.72,.57-3.44,1.12-5.16,1.64-.87,.25-1.72,.51-2.59,.75-1.39,.39-2.76,.75-4.14,1.09-.29,.08-.59,.14-.89,.22-.69,.17-1.37,.33-2.05,.48-.83,.19-1.65,.37-2.48,.54-.56,.11-1.11,.23-1.67,.33-.78,.15-1.56,.29-2.35,.42-.64,.11-1.27,.22-1.91,.31-.35,.07-.7,.11-1.04,.16-.29,.04-.58,.08-.88,.12-.13,.03-.26,.05-.39,.06-.47,.07-.93,.13-1.4,.18-.27,.04-.54,.07-.8,.09-.58,.08-1.15,.13-1.73,.19-.75,.08-1.49,.14-2.23,.2-.29,.03-.57,.05-.87,.07-.74,.05-1.48,.09-2.22,.13-.74,.04-1.48,.07-2.22,.08-.19,0-.38,0-.56,0-1.55,.04-3.09,.04-4.64,0-.62-.02-1.23-.04-1.86-.07-.46-.02-.92-.05-1.39-.08-.14,0-.27-.02-.41-.03-.44-.03-.89-.06-1.31-.09-.48-.04-.95-.08-1.43-.12-.03,0-.05,0-.07,0-.5-.05-1-.1-1.5-.16-.4-.05-.78-.09-1.16-.14-.3-.04-.6-.08-.9-.12-.41-.06-.84-.12-1.25-.19-.61-.08-1.22-.19-1.82-.3-.49-.08-.98-.17-1.47-.27-.52-.09-1.03-.2-1.55-.31-.64-.13-1.27-.28-1.9-.43-.26-.06-.52-.12-.77-.19-.65-.16-1.3-.33-1.94-.51-.26-.07-.54-.14-.8-.23-.26-.08-.54-.15-.8-.24-.47-.14-.93-.28-1.4-.43-.41-.12-.81-.25-1.22-.4-.1-.03-.21-.06-.3-.1-.22-.07-.42-.14-.63-.22-.22-.07-.43-.14-.64-.23-.46-.16-.92-.33-1.39-.51-.46-.17-.92-.35-1.39-.54-.46-.18-.92-.37-1.39-.57-.46-.19-.92-.39-1.38-.59-.45-.21-.91-.41-1.37-.62-.46-.21-.91-.42-1.37-.65-.46-.23-.91-.45-1.37-.68-.45-.24-.9-.47-1.36-.71-2.26-1.21-4.5-2.53-6.72-3.99,0,0-45.73-39.76-69.58-93.43,0,0-.37-.64-.95-1.81-.07-.13-.13-.26-.2-.41-.47-.96-1.04-2.22-1.65-3.72-.06-.14-.12-.29-.18-.44-.18-.44-.36-.91-.54-1.4-.12-.32-.25-.65-.37-1-.67-1.88-1.34-4-1.92-6.32-.08-.36-.18-.73-.26-1.1-.12-.5-.24-1-.34-1.52-.08-.36-.15-.72-.22-1.08-.09-.44-.18-.9-.25-1.35-.08-.45-.15-.91-.22-1.39-.08-.46-.14-.93-.2-1.4-.04-.34-.08-.68-.12-1.03,0-.05,0-.09-.02-.14-.03-.3-.06-.6-.08-.9-.07-.7-.11-1.4-.16-2.12,0-.08,0-.14,0-.21-.03-.5-.05-1.01-.06-1.52-.02-.93-.03-1.89,0-2.85,0-.34,.02-.69,.04-1.04,.02-.38,.04-.75,.07-1.13,0-.14,.02-.28,.03-.42,.03-.36,.06-.73,.09-1.08h0c.03-.28,.06-.56,.08-.83,.06-.55,.13-1.1,.22-1.66,.04-.28,.08-.56,.12-.84,.07-.42,.14-.84,.23-1.26,.08-.42,.16-.84,.25-1.26,.04-.17,.07-.32,.11-.49,.15-.69,.32-1.38,.51-2.06,.15-.55,.31-1.09,.48-1.64,.12-.41,.25-.81,.4-1.21,.15-.45,.31-.9,.48-1.35,.11-.31,.24-.63,.37-.95,.05-.13,.1-.26,.16-.4,.15-.38,.31-.75,.48-1.14,.53-1.21,1.11-2.4,1.77-3.61,.15-.28,.3-.56,.46-.83,.23-.41,.46-.82,.71-1.23,.03-.05,.07-.09,.08-.14,.25-.41,.52-.82,.78-1.23,.18-.29,.37-.58,.57-.86,.19-.28,.39-.57,.58-.85,.2-.28,.41-.57,.61-.84,.31-.42,.63-.85,.96-1.26,.26-.34,.54-.68,.81-1.01,.07-.08,.13-.17,.21-.25,1.93-2.32,4.15-4.6,6.69-6.82,.34-.29,.68-.58,1.03-.88,.37-.32,.74-.63,1.13-.93,.36-.29,.73-.57,1.09-.87,.42-.33,.86-.66,1.3-.98,.58-.44,1.19-.87,1.8-1.3,.47-.33,.94-.65,1.43-.97,.22-.15,.43-.29,.66-.43,.45-.3,.91-.59,1.39-.89,.24-.15,.46-.29,.71-.43,.24-.15,.47-.3,.72-.44,4.05-2.43,8.46-4.95,13.14-7.5,.67-.37,1.35-.74,2.03-1.1,3.08-1.67,6.28-3.35,9.57-5.03,1.8-.92,3.63-1.85,5.49-2.78,.74-.38,1.5-.74,2.26-1.12,1.17-.57,2.35-1.15,3.53-1.73,.44-.22,.9-.43,1.35-.65,.11-.05,.23-.1,.33-.14h.02s0-.02,0-.02h0s.02-.03,.02-.03c.92-.44,1.86-.9,2.79-1.34,1.18-.57,2.36-1.12,3.55-1.69,.7-.33,1.41-.66,2.13-.99,1-.47,2.01-.93,3.02-1.4,.79-.37,1.57-.73,2.37-1.08,2.26-1.03,4.54-2.05,6.83-3.06,1.27-.57,2.55-1.12,3.83-1.68,.77-.34,1.54-.67,2.31-1,1.29-.56,2.58-1.11,3.88-1.66,1.03-.44,2.06-.88,3.09-1.3,.77-.32,1.56-.65,2.34-.97,1.54-.63,3.07-1.26,4.61-1.89,.94-.39,1.88-.76,2.81-1.13,.93-.38,1.87-.74,2.81-1.11,1.3-.52,2.6-1.03,3.9-1.53,1.58-.61,3.16-1.22,4.73-1.81,3.16-1.2,6.32-2.37,9.45-3.49,1.57-.57,3.14-1.12,4.7-1.67,1.53-.53,3.04-1.06,4.56-1.57,.04,0,.08-.03,.12-.04h.05c.51-.18,1-.35,1.5-.52,.51-.18,1.01-.34,1.52-.51,1.54-.51,3.06-1.01,4.58-1.5,1.02-.33,2.03-.65,3.04-.96,.89-.28,1.76-.56,2.64-.82,.93-.28,1.86-.57,2.77-.84,.66-.2,1.32-.4,1.98-.58,1.03-.31,2.05-.6,3.06-.89,1.14-.33,2.28-.65,3.41-.96,1.09-.3,2.18-.59,3.26-.89,.04,0,.08-.02,.12-.03h0c.09-.03,.19-.06,.28-.08,.08-.03,.14-.05,.22-.07,.02,0,.02,0,.03-.03t0,0h.08c.87-.23,1.73-.45,2.6-.67,.86-.23,1.72-.43,2.56-.64,1.03-.25,2.06-.5,3.08-.74,.9-.21,1.79-.41,2.68-.6,.74-.17,1.47-.33,2.2-.48,.39-.08,.77-.17,1.16-.25,.55-.11,1.07-.23,1.61-.33,1.14-.24,2.26-.45,3.38-.66,.83-.16,1.65-.3,2.46-.44,.59-.1,1.18-.21,1.76-.29,.51-.08,1.01-.17,1.51-.25,.82-.12,1.63-.25,2.43-.36,.77-.11,1.55-.22,2.31-.31,.84-.11,1.66-.21,2.48-.29,.64-.07,1.27-.13,1.89-.19,.63-.06,1.25-.11,1.87-.16,.56-.05,1.11-.08,1.66-.12,.57-.04,1.13-.07,1.7-.09,.56-.04,1.1-.06,1.64-.07,.06,0,.12,0,.19,0,.25,0,.49-.02,.74-.02,1.52-.04,3-.04,4.43,.02,.41,0,.82,.03,1.22,.05,.41,.02,.8,.05,1.19,.08,1.36,.09,2.67,.23,3.92,.41,41.74,5.97,55.66,39.76,55.66,39.76l1.92,6.42,1.04,3.45,2.77,9.25v.02l3.07,10.22,.7,2.32,2.42,8.08s3.35,12.98,2.93,31.07c0,.7-.03,1.4-.07,2.12-.03,.87-.08,1.73-.12,2.62-.11,1.9-.26,3.86-.48,5.83-.05,.43-.09,.87-.14,1.3,0,.12-.02,.25-.04,.36-.04,.36-.08,.71-.13,1.07-.32,2.59-.74,5.23-1.27,7.92-.05,.25-.09,.5-.15,.74,0,.08-.03,.18-.05,.26-.08,.41-.16,.8-.25,1.21-.02,.07-.03,.13-.05,.2-.08,.37-.16,.74-.25,1.12-.17,.79-.37,1.59-.57,2.39-.12,.49-.25,.97-.38,1.46-.13,.51-.26,1.01-.41,1.51-.15,.54-.31,1.07-.47,1.6-.15,.52-.31,1.04-.48,1.56-.65,2.08-1.39,4.18-2.2,6.26-.2,.52-.41,1.05-.62,1.56-.42,1.05-.87,2.08-1.34,3.13-.27,.61-.56,1.22-.84,1.82-.14,.3-.28,.61-.43,.91-.15,.3-.3,.6-.45,.9-.33,.68-.68,1.35-1.04,2.03-.29,.56-.59,1.11-.9,1.66-.26,.49-.54,.98-.83,1.47-.41,.7-.82,1.4-1.25,2.1-.36,.58-.73,1.16-1.09,1.73-.38,.59-.76,1.18-1.16,1.76-.4,.59-.81,1.19-1.23,1.78-.41,.58-.84,1.16-1.27,1.74-.43,.57-.88,1.15-1.33,1.73-.33,.42-.67,.85-1.02,1.27-.25,.32-.51,.64-.78,.95-.26,.32-.53,.63-.8,.95-.54,.63-1.09,1.25-1.65,1.88-.52,.57-1.05,1.14-1.58,1.7-.53,.57-1.07,1.12-1.63,1.68-1.94,1.48-3.97,3.03-6.07,4.63-.42,.32-.84,.64-1.26,.96-1.69,1.27-3.42,2.59-5.21,3.93-.59,.45-1.2,.9-1.8,1.35-1.21,.91-2.44,1.83-3.7,2.75-.74,.55-1.49,1.1-2.24,1.65-.52,.39-1.04,.76-1.56,1.14-.74,.54-1.48,1.08-2.22,1.62-1.15,.84-2.33,1.68-3.52,2.53-1.43,1.02-2.89,2.04-4.36,3.06-1.34,.94-2.71,1.88-4.08,2.82-.2,.13-.4,.27-.6,.41-.79,.54-1.59,1.07-2.39,1.61-.8,.54-1.6,1.07-2.41,1.61-1,.66-2.01,1.32-3.02,1.98-4.13,2.67-8.37,5.31-12.7,7.86h0Zm405.04-248.63c-.02,.16-.05,.33-.07,.5-.03,.17-.05,.35-.07,.53-.1,.84-.2,1.77-.29,2.79-.07,.66-.12,1.35-.19,2.07-.1,1.13-.22,2.35-.35,3.64-.05,.44-.09,.9-.14,1.36-.07,.56-.13,1.12-.2,1.71-.04,.29-.08,.59-.11,.9-.23,1.81-.5,3.73-.85,5.75-.29,1.69-.62,3.43-1.02,5.23-.08,.36-.16,.73-.25,1.08-.08,.37-.17,.74-.26,1.1-.41,1.66-.86,3.37-1.37,5.1-.17,.58-.35,1.17-.54,1.75-.14,.45-.29,.92-.45,1.39-.25,.79-.54,1.6-.83,2.41-.11,.31-.23,.63-.35,.94-.15,.41-.31,.84-.48,1.26-.15,.4-.31,.79-.47,1.19-.16,.4-.32,.8-.5,1.21-.16,.39-.32,.76-.49,1.15-.17,.38-.34,.76-.51,1.15-.02,.05-.04,.08-.06,.12-.15,.33-.3,.67-.46,1.01-.08,.19-.17,.38-.26,.57-.12,.27-.25,.55-.4,.82-.13,.28-.27,.57-.41,.85-.25,.49-.5,.99-.76,1.49-.32,.63-.67,1.26-1.02,1.91-.35,.62-.7,1.23-1.06,1.86-.27,.47-.56,.95-.85,1.43-.47,.79-.96,1.58-1.47,2.38-.21,.32-.41,.63-.61,.94s-.41,.63-.64,.95c-.42,.64-.87,1.27-1.32,1.91-.4,.58-.82,1.16-1.25,1.73-.43,.57-.87,1.16-1.32,1.74-.27,.35-.55,.7-.83,1.05-.34,.43-.7,.87-1.06,1.31-.4,.47-.79,.95-1.21,1.43-.39,.45-.78,.91-1.2,1.38-.56,.63-1.12,1.26-1.72,1.89-.39,.41-.77,.83-1.17,1.24-1.21,1.26-2.48,2.53-3.8,3.79-.43,.41-.87,.81-1.3,1.22-.35,.33-.71,.65-1.07,.97-.36,.33-.73,.65-1.09,.98-1.16,1.02-2.36,2.04-3.6,3.04-.58,.47-1.16,.93-1.75,1.4-.4,.31-.79,.62-1.2,.92-.54,.41-1.08,.83-1.63,1.23-.5,.37-1.01,.74-1.53,1.11-.54,.4-1.08,.78-1.63,1.17-.48,.33-.97,.67-1.47,1.01-.56,.39-1.11,.75-1.68,1.13-.52,.34-1.04,.68-1.56,1.02-.57,.37-1.14,.74-1.73,1.09-.58,.37-1.17,.74-1.76,1.09-1.3,.79-2.59,1.57-3.86,2.35-1.05,.64-2.09,1.27-3.12,1.9-.57,.35-1.14,.7-1.71,1.04-1.13,.69-2.26,1.38-3.37,2.05-1.67,1.02-3.32,2.02-4.95,3-1.08,.66-2.16,1.31-3.22,1.95-.06,.03-.11,.07-.17,.1-.87,.52-1.72,1.04-2.58,1.55-5.93,3.53-11.6,6.82-17.06,9.79-.49,.27-.97,.54-1.45,.78-.48,.26-.96,.52-1.43,.77-.74,.4-1.49,.78-2.22,1.16-.76,.4-1.53,.79-2.28,1.17-.75,.38-1.51,.75-2.25,1.12-.75,.37-1.49,.73-2.23,1.07-.38,.18-.74,.35-1.11,.53-1.28,.6-2.56,1.18-3.83,1.73-.9,.39-1.8,.77-2.7,1.14-.45,.19-.9,.38-1.34,.55-.57,.24-1.15,.46-1.73,.68-1.2,.46-2.38,.9-3.57,1.31-.5,.18-1,.35-1.5,.51-.5,.17-1,.33-1.5,.48-.65,.21-1.3,.41-1.94,.59-.09,.03-.19,.06-.28,.08-.56,.16-1.1,.31-1.66,.46-.74,.2-1.48,.39-2.22,.57-.52,.12-1.05,.25-1.56,.36-.52,.11-1.04,.22-1.56,.32-.39,.08-.78,.16-1.18,.23-.66,.12-1.31,.24-1.97,.34-.3,.05-.6,.09-.91,.13-.42,.07-.85,.12-1.27,.17-.43,.06-.86,.1-1.29,.15-.28,.03-.57,.06-.86,.08-.51,.05-1.02,.08-1.53,.12-.54,.04-1.07,.08-1.61,.09-.26,0-.52,.02-.78,.03-.35,.02-.69,.02-1.03,.03-.35,0-.69,0-1.04,0-.59,0-1.19,0-1.78-.03-.59-.02-1.19-.04-1.78-.08-.5-.03-1.01-.07-1.51-.1-.42-.04-.86-.08-1.28-.12-.25-.02-.52-.05-.78-.08-.41-.04-.8-.09-1.2-.15-.41-.05-.8-.11-1.2-.17-.4-.07-.8-.13-1.2-.2-.6-.11-1.2-.23-1.8-.35s-1.21-.25-1.81-.4c-.8-.19-1.6-.4-2.41-.62-.81-.22-1.62-.46-2.43-.72-1.63-.52-3.26-1.1-4.91-1.76-.83-.32-1.65-.67-2.48-1.04-.83-.37-1.67-.74-2.51-1.15-.41-.2-.84-.41-1.25-.61-.85-.42-1.69-.86-2.54-1.32-.32-.17-.63-.34-.95-.52-.32-.18-.64-.37-.96-.55-.64-.36-1.29-.74-1.93-1.12-.87-.52-1.73-1.05-2.6-1.6-.88-.56-1.73-1.11-2.58-1.68-.81-.53-1.61-1.07-2.4-1.6-.73-.49-1.45-.99-2.16-1.49-.71-.5-1.41-.99-2.1-1.49-2.55-1.84-4.99-3.69-7.3-5.56-.25-.2-.5-.4-.74-.6-1.24-1.01-2.45-2.03-3.63-3.05-.44-.38-.88-.75-1.3-1.14-1.33-1.18-2.61-2.37-3.85-3.55-.49-.45-.96-.92-1.42-1.39-.94-.92-1.85-1.85-2.73-2.78-.22-.22-.42-.44-.63-.67,0,0-.02,0-.02-.02-.31-.32-.61-.64-.9-.97-.86-.93-1.7-1.87-2.51-2.81-.33-.38-.66-.75-.97-1.14-1.21-1.42-2.36-2.86-3.45-4.3-.34-.44-.67-.87-.99-1.31-.05-.07-.09-.13-.15-.21-.32-.42-.63-.86-.92-1.28-1.37-1.9-2.64-3.82-3.83-5.74-.3-.48-.6-.96-.88-1.44-.87-1.44-1.68-2.89-2.45-4.35-.52-.97-1.01-1.93-1.49-2.91-.93-1.9-1.8-3.83-2.59-5.75,0-.03-.03-.07-.04-.09-.28-.69-.56-1.38-.82-2.06-.19-.49-.38-.98-.56-1.47-.13-.38-.26-.74-.4-1.11-.09-.26-.19-.52-.27-.78-.09-.26-.18-.52-.26-.78-.03-.06-.05-.12-.07-.18-.1-.32-.22-.64-.31-.97-.16-.47-.31-.95-.45-1.43-.07-.21-.12-.41-.18-.61-.13-.41-.25-.83-.37-1.24-.12-.41-.24-.82-.34-1.23-.22-.81-.42-1.62-.62-2.43-.1-.4-.2-.79-.28-1.2-.09-.37-.18-.74-.25-1.12-.08-.37-.16-.73-.24-1.08-.11-.54-.23-1.07-.32-1.61-.16-.83-.31-1.66-.45-2.49-.08-.4-.14-.8-.2-1.21-.08-.45-.14-.9-.21-1.36-.1-.75-.21-1.51-.3-2.26-.07-.49-.12-.97-.17-1.45-.05-.4-.09-.8-.13-1.2-.07-.6-.12-1.22-.17-1.83-.02-.19-.04-.38-.05-.57-.07-.8-.12-1.6-.18-2.4-.05-.78-.09-1.56-.13-2.37-.05-.74-.08-1.5-.11-2.25-.04-.74-.07-1.46-.09-2.21-.03-.74-.06-1.47-.07-2.22-.02-.74-.03-1.49-.04-2.24-.03-1.59-.03-3.2,0-4.82,0-1.18,.05-2.37,.1-3.56,.03-.71,.07-1.4,.1-2.11,0-.04,0-.07,0-.09,.05-.8,.1-1.61,.17-2.42l.03-.37v-.02c.02-.14,.03-.28,.04-.43,0-.04,0-.08,0-.11h0c.02-.17,.03-.32,.05-.48,.03-.37,.07-.74,.1-1.12,.04-.38,.08-.75,.11-1.13,0-.11,.02-.23,.04-.34,.08-.64,.15-1.27,.24-1.91v-.02c.16-1.13,.32-2.26,.51-3.39,.12-.74,.25-1.48,.4-2.22,0-.06,.02-.1,.03-.16,.08-.43,.17-.87,.25-1.3,.21-.99,.42-1.99,.67-2.98,.18-.74,.37-1.49,.57-2.23,.09-.38,.2-.75,.31-1.13,.03-.11,.06-.23,.09-.34,.14-.53,.3-1.06,.46-1.58,.12-.41,.25-.83,.4-1.24,.14-.45,.29-.9,.44-1.35,.2-.6,.41-1.22,.64-1.82,.08-.25,.18-.5,.27-.74,.23-.62,.47-1.24,.73-1.87,.11-.29,.23-.57,.35-.86,.61-1.48,1.27-2.96,1.99-4.43,.31-.64,.63-1.28,.96-1.92,.22-.42,.43-.84,.66-1.25,.21-.39,.42-.78,.64-1.17,.43-.78,.88-1.56,1.35-2.34,.24-.39,.47-.78,.72-1.17,.2-.32,.4-.64,.6-.96,.27-.42,.55-.86,.83-1.28,.03-.04,.06-.08,.08-.13,0,0,.02-.02,.02-.03,.25-.38,.51-.75,.76-1.12,.29-.42,.58-.86,.91-1.28,1.06-1.48,2.18-2.96,3.37-4.43,.34-.41,.68-.84,1.04-1.25,.78-.94,1.6-1.88,2.45-2.82,1.16-1.28,2.38-2.55,3.65-3.83,.37-.37,.74-.74,1.13-1.11,.41-.4,.82-.79,1.23-1.18,.32-.3,.64-.6,.96-.9,.48-.44,.96-.88,1.46-1.31,.51-.46,1.04-.91,1.56-1.38,.53-.45,1.07-.91,1.62-1.37,.45-.37,.91-.74,1.38-1.12,.19-.16,.39-.31,.57-.46,.9-.73,1.84-1.44,2.79-2.16,.39-.29,.77-.58,1.17-.87,.16-.12,.32-.24,.48-.36,.42-.31,.85-.62,1.28-.92,.55-.4,1.1-.78,1.67-1.17,1.78-1.24,3.64-2.47,5.56-3.69,.62-.4,1.26-.79,1.9-1.19l.06-.03c.7-.42,1.41-.86,2.14-1.29,.7-.41,1.39-.82,2.06-1.22,3.04-1.8,5.99-3.51,8.82-5.15,0,0,0,0,0,0,0,0,0,0,.02,0,2.46-1.41,4.84-2.77,7.15-4.07,.84-.47,1.66-.93,2.47-1.4,3.58-2.01,6.98-3.87,10.21-5.63,2.45-1.32,4.79-2.57,7.03-3.75,.95-.5,1.88-.99,2.79-1.46h.02c.76-.41,1.52-.79,2.25-1.18,1.18-.61,2.33-1.2,3.45-1.76,.41-.21,.82-.42,1.23-.62,.81-.41,1.61-.81,2.38-1.2,.87-.43,1.72-.86,2.55-1.26,.92-.45,1.82-.89,2.69-1.31,2.64-1.27,5.04-2.4,7.2-3.38,1.93-.9,3.69-1.67,5.24-2.35,.22-.09,.42-.18,.63-.27,.28-.13,.57-.25,.84-.36,.25-.1,.48-.21,.71-.3,3.65-1.56,5.98-2.43,7.05-2.83,.07-.02,.13-.05,.19-.07,.35-.12,.52-.18,.52-.18,0,0,.3-.13,.88-.37,.14-.06,.3-.12,.48-.2,.39-.15,.85-.34,1.38-.55,.17-.08,.36-.14,.56-.22,.03,0,.06-.02,.08-.04,.17-.07,.33-.13,.51-.2,.66-.25,1.4-.54,2.21-.85,.4-.15,.82-.31,1.25-.47,.43-.16,.9-.33,1.37-.51,.39-.14,.78-.28,1.2-.43,.41-.15,.83-.3,1.25-.45,.65-.24,1.33-.47,2.04-.72,1.55-.54,3.2-1.1,4.96-1.68,1.29-.42,2.64-.86,4.03-1.29,2.08-.65,4.26-1.31,6.52-1.95,.1-.03,.22-.07,.33-.09,.16-.05,.32-.09,.49-.14,.71-.2,1.42-.4,2.14-.59,2.46-.67,5-1.32,7.58-1.92,.98-.25,1.98-.47,2.98-.69,.8-.19,1.62-.36,2.43-.52,1.36-.28,2.72-.56,4.09-.8,.69-.13,1.37-.25,2.05-.37l2.06-.34c.51-.09,1.02-.17,1.53-.24,.51-.08,1.02-.15,1.53-.22,1.02-.15,2.04-.27,3.05-.39,1.13-.13,2.25-.25,3.37-.34,.9-.08,1.78-.15,2.67-.2,2.9-.18,5.76-.25,8.53-.14,.42,0,.85,.03,1.26,.05,.28,0,.58,.02,.86,.05,.39,.02,.76,.05,1.15,.08,.39,.03,.76,.06,1.14,.1,.75,.07,1.51,.15,2.24,.25,.37,.05,.74,.09,1.1,.16,.37,.05,.73,.11,1.08,.18,.73,.12,1.43,.26,2.13,.42,.63,.13,1.25,.28,1.87,.45,.07,.02,.13,.04,.2,.06,.34,.08,.68,.19,1.01,.29,.66,.2,1.31,.41,1.95,.65,.32,.11,.63,.23,.95,.36,.62,.25,1.23,.51,1.83,.79,0,0,0,0,0,0,.09,.04,.18,.08,.27,.13,.8,.38,1.57,.8,2.32,1.25,.56,.33,1.09,.69,1.61,1.06s1.03,.75,1.52,1.17c.26,.22,.51,.43,.76,.67,.15,.12,.28,.25,.42,.4,.12,.11,.25,.25,.38,.37,.13,.12,.25,.25,.37,.39,.5,.51,.96,1.05,1.4,1.61,21.87,27.83,15.9,105.35,13.91,119.27Zm-246.93,18.53c-.03-1.59-.03-3.2,0-4.82-.04,1.62-.04,3.22,0,4.82Zm.37-12.82c0,.07-.02,.12-.02,.18-.05,.69-.09,1.38-.13,2.06,.05-.8,.1-1.61,.17-2.42,0,.07-.02,.12-.02,.19Zm.23-2.61s0,.08,0,.11c-.03,.25-.05,.5-.08,.74-.02,.21-.03,.41-.05,.62,.02-.16,.03-.31,.05-.47,.03-.37,.07-.74,.1-1.12,.04-.38,.08-.75,.11-1.13-.05,.41-.09,.83-.13,1.24Zm-.59,15.43c-.03-1.59-.03-3.2,0-4.82-.04,1.62-.04,3.22,0,4.82Zm.37-12.82c0,.07-.02,.12-.02,.18-.05,.69-.09,1.38-.13,2.06,.05-.8,.1-1.61,.17-2.42,0,.07-.02,.12-.02,.19Zm.23-2.61s0,.08,0,.11c-.03,.25-.05,.5-.08,.74-.02,.21-.03,.41-.05,.62,.02-.16,.03-.31,.05-.47,.03-.37,.07-.74,.1-1.12,0,.04-.02,.08-.02,.11Zm-.59,15.43c-.03-1.59-.03-3.2,0-4.82-.04,1.62-.04,3.22,0,4.82Zm.37-12.82c0,.07-.02,.12-.02,.18-.05,.69-.09,1.38-.13,2.06,.05-.8,.1-1.61,.17-2.42,0,.07-.02,.12-.02,.19Zm.23-2.61s0,.08,0,.11c-.03,.3-.05,.6-.08,.9,.03-.37,.07-.74,.1-1.12,0,.04-.02,.08-.02,.11Zm-.59,15.43c-.03-1.59-.03-3.2,0-4.82-.04,1.62-.04,3.22,0,4.82Zm.59-15.43s0,.08,0,.11c-.03,.3-.05,.6-.08,.9,.03-.37,.07-.74,.1-1.12,0,.04-.02,.08-.02,.11Zm-.23,2.61c0,.07-.02,.12-.02,.18-.05,.69-.09,1.38-.13,2.06,.05-.8,.1-1.61,.17-2.42,0,.07-.02,.12-.02,.19Z"/><path class="ac" d="M1015.1,569.97c-1.99,13.91,0,59.63-55.65,93.42-55.66,33.79-87.47,55.65-131.2,27.83-43.74-27.83-57.65-59.63-59.64-91.44-1.99-31.8,0-71.57,53.67-103.37,53.67-31.8,77.52-39.76,77.52-39.76,0,0,79.52-33.79,101.38-5.96,21.87,27.83,15.9,105.35,13.91,119.27Z"/><path class="ac" d="M667.23,778.69c-41.74,31.8-123.24,95.41-186.85,53.67,0,0-45.73-39.76-69.58-93.43,0,0-27.83-47.71,21.87-77.52,49.7-29.82,151.07-71.57,192.82-65.6,41.74,5.97,55.66,39.76,55.66,39.76l11.92,39.75s15.9,61.62-25.85,103.37Z"/><path d="M913.73,408.95c-4.91,2.37-34.79-58.64-146.11,78.52-13.41,11.89-22.86,18.88-22.86,18.88,0,0-15.9-7.95-13.91-39.76,0,0,.26-.22,.76-.62,1.13,9.56,3.98,22.06,11.17,24.47,0,0-6.5-14.29-7.93-27.11,.48-.4,.99-.81,1.53-1.27,1.53,6.54,3.96,15.25,6.4,16.46,0,0-3.22-18.57,9.28-29.14t.04-.04c30.24-24.37,83.41-66.59,96.03-72.2,17.89-7.95,51.68-5.96,61.62,15.9l3.98,15.9Z"/><path d="M365.09,665.38s54.67-134.18,231.58-110.32l37.77-9.94s-.99-28.82-14.91-38.76c0,0,5.96,15.9,5.96,25.84,0,0-3.98-19.88-15.9-23.85,0,0,5.96,5.96,5.96,11.93,0,0-125.23-17.89-208.72,51.68,0,0-41.74,55.66-45.72,85.48l3.98,7.95Z"/><path d="M845.15,745.89s19.88-1.99,15.9,7.95-21.87,9.94-27.83,11.93-9.94,1.99-13.91,5.96c0,0,7.95-21.87,25.84-25.84Z"/><path d="M773.59,791.61s-35.78-19.88-49.7,11.93c0,0,11.93,7.95,29.82-1.99,17.89-13.91,19.88-9.94,19.88-9.94Z"/><path d="M725.88,821.43s-47.71,13.91-37.77-35.78c9.94-49.7-11.93-11.93-9.94,3.98,1.99,15.9-1.99,53.67,47.71,31.81Z"/><path d="M841.17,708.12s27.83,15.9,25.84,31.81c0,0,5.96-21.87-13.91-31.81-17.89-7.95-11.93,0-11.93,0Z"/></g><g id="j"><path class="ad" d="M409.81,934.74l-18.11,14.93c-18.49-.34-45.3-20.69-56.93-30.27l.5,.44s-5.96,0-11.93,11.93l7.93,7.95-134.16-68.58-13.91-129.21,23.85-37.77,53.67-3.98,81.5,73.55s57.73,120.4,66.51,153.88c.08,.32,.16,.64,.24,.93,.7,2.82,.99,4.93,.83,6.2Z"/><path class="ah" d="M314.4,785.65s-27.83,35.78-1.99,69.57c25.84,33.79,45.72-3.98,45.72-3.98,0,0-31.81-69.57-43.73-65.6Z"/><path class="p" d="M272.65,741.92s-67.59,7.95-25.84,59.64c0,0,0-29.82,33.79-43.73,33.79-13.91-7.95-15.9-7.95-15.9Z"/><path class="p" d="M318.37,867.15s37.77,11.93,49.7,1.99c7.95,0,29.82,37.77-21.87,17.89-15.9-3.98-19.88-5.96-27.83,1.99,0,0,33.79,13.91,37.77,23.85s17.89,7.95,19.88,0c1.99-7.95,11.93-13.91,17.89-5.96,5.96,7.95,13.91,27.83,13.91,27.83l3.93-4.75s-19.84-78.74-61.58-74.76c0,0-41.74-1.99-31.81,11.93Z"/></g><g id="k"><path d="M345.12,872.7c-.49-.05-.99-.1-1.48-.16-.25-.03-.49-.06-.74-.08-.39-.05-.78-.09-1.17-.15-.16-.02-.33-.05-.49-.07,.68,4.68-1.26,8.71-4.88,12.15l-.14,.14c.37,.08,.74,.17,1.14,.27,.14,.03,.28,.07,.42,.1,.06,.02,.12,.03,.19,.05h.02c.13,.03,.26,.07,.41,.1,.38,.08,.75,.18,1.15,.28,.23,.06,.46,.11,.7,.18,.2,.05,.41,.09,.61,.15,.09,.02,.19,.05,.28,.08,.6,.15,1.23,.31,1.88,.48,5.43-5.14,6.47-10.17,6.49-13.21-1.45-.07-2.92-.18-4.39-.32Zm0,0c-.49-.05-.99-.1-1.48-.16-.25-.03-.49-.06-.74-.08-.39-.05-.78-.09-1.17-.15-.16-.02-.33-.05-.49-.07,.68,4.68-1.26,8.71-4.88,12.15l-.14,.14c.37,.08,.74,.17,1.14,.27,.14,.03,.28,.07,.42,.1,.06,.02,.12,.03,.19,.05h.02c.13,.03,.26,.07,.41,.1,.38,.08,.75,.18,1.15,.28,.23,.06,.46,.11,.7,.18,.2,.05,.41,.09,.61,.15,.09,.02,.19,.05,.28,.08,.6,.15,1.23,.31,1.88,.48,5.43-5.14,6.47-10.17,6.49-13.21-1.45-.07-2.92-.18-4.39-.32Zm0,0c-.49-.05-.99-.1-1.48-.16-.25-.03-.49-.06-.74-.08-.39-.05-.78-.09-1.17-.15-.16-.02-.33-.05-.49-.07,.68,4.68-1.26,8.71-4.88,12.15l-.14,.14c.37,.08,.74,.17,1.14,.27,.14,.03,.28,.07,.42,.1,.06,.02,.12,.03,.19,.05h.02c.13,.03,.26,.07,.41,.1,.38,.08,.75,.18,1.15,.28,.23,.06,.46,.11,.7,.18,.2,.05,.41,.09,.61,.15,.09,.02,.19,.05,.28,.08,.6,.15,1.23,.31,1.88,.48,5.43-5.14,6.47-10.17,6.49-13.21-1.45-.07-2.92-.18-4.39-.32Zm0,0c-.49-.05-.99-.1-1.48-.16-.25-.03-.49-.06-.74-.08-.39-.05-.78-.09-1.17-.15-.16-.02-.33-.05-.49-.07,.68,4.68-1.26,8.71-4.88,12.15l-.14,.14c.37,.08,.74,.17,1.14,.27,.14,.03,.28,.07,.42,.1,.06,.02,.12,.03,.19,.05h.02c.13,.03,.26,.07,.41,.1,.38,.08,.75,.18,1.15,.28,.23,.06,.46,.11,.7,.18,.2,.05,.41,.09,.61,.15,.09,.02,.19,.05,.28,.08,.6,.15,1.23,.31,1.88,.48,5.43-5.14,6.47-10.17,6.49-13.21-1.45-.07-2.92-.18-4.39-.32Zm0,0c-.49-.05-.99-.1-1.48-.16-.25-.03-.49-.06-.74-.08-.39-.05-.78-.09-1.17-.15-.16-.02-.33-.05-.49-.07,.68,4.68-1.26,8.71-4.88,12.15l-.14,.14c.37,.08,.74,.17,1.14,.27,.14,.03,.28,.07,.42,.1,.06,.02,.12,.03,.19,.05h.02c.13,.03,.26,.07,.41,.1,.38,.08,.75,.18,1.15,.28,.23,.06,.46,.11,.7,.18,.2,.05,.41,.09,.61,.15,.09,.02,.19,.05,.28,.08,.6,.15,1.23,.31,1.88,.48,5.43-5.14,6.47-10.17,6.49-13.21-1.45-.07-2.92-.18-4.39-.32ZM913.75,395.34c-.29-6.16-1.49-13.87-3.35-22.53,0,0,0-.02,0-.03,0,0,0-.02,0-.03,0,0,0-.02,0-.03v-.02c-8.44-39.38-30.52-98.68-44.36-124.77-17.89-33.79-81.5-194.81-341.9-214.69C263.71,13.37,223.95,166.44,223.95,166.44c-17.89,7.95-23.85,43.73-23.85,43.73-58.64,24.85-124.24,112.32-135.17,174.93-10.12,41.47,3.98,208.72-17.89,252.45-21.87,43.74-25.85,79.52-25.85,79.52,0,0,11.93-17.89,11.93-13.92s-17.34,40.57-17.87,41.73l15.88-13.89L-.67,814.48c-5.95,18.29-11.12,36.89-15.61,55.72v502.55c8.9,51.07,18.59,93.81,26.15,124.07,4.11,16.48,7.59,29.25,9.95,37.64,2.12,7.53,3.36,11.54,3.36,11.54l1.28-1.28,10.65-10.64s2.69,6.57,6.55,15.55c6.13,14.18,15.2,34.35,21.28,44.09,9.94,15.9,23.86,11.92,23.86,11.92-7.96-13.91,0-19.88,0-19.88,22.75,26.54,41.88,29.57,43.61,29.8-17.77-3.32-28.92-26.3-32.46-34.69,5.02,3.88,16.68,8.87,16.68,8.87l-5.97-11.92,7.96,1.98-5.97-7.95h9.94c-3.97-1.99-3.97-9.94-3.97-9.94,16.52,6.61,36.72,8.33,51.42,8.56,.36,0,.72,0,1.07,0,11.26,.12,19.07-.62,19.07-.62-6.83-.31-13.12-.92-18.91-1.79-.48-.08-.96-.15-1.43-.23-33.88-5.41-50.15-19.64-57.94-32.36-7.59-12.35-7.18-23.26-7.18-23.26,13.43,11.1,28.24,15.35,42.48,15.78,.05,.05,.08,.1,.12,.15,3.17,3.7,6.43,7.11,9.78,10.21,6.79,6.33,13.89,11.46,21.07,15.63,5.34,3.09,10.73,5.65,16.08,7.74,39.72,15.58,77.45,6.15,77.45,6.15-.11-.03-.24-.06-.35-.09-35.11-9.21-61.29-24.48-80.78-42.64-1.49-1.38-2.93-2.77-4.34-4.19,1.66-.61,3.25-1.23,4.79-1.87,.67-.27,1.33-.56,1.98-.83,11.26-4.83,18.6-9.7,19.05-10-6.18,2.84-12.26,5.11-18.1,6.94-3.61,1.13-7.12,2.09-10.51,2.9-7.42-7.85-13.73-16.12-19.1-24.59,0,0,0,0,0,0-6.34-10.04-11.37-20.36-15.32-30.56-12.68-32.7-14.45-64.28-14.22-82.07h0c.12-8.96,.74-14.4,.74-14.76,.42-.46,.84-.92,1.25-1.39,2.05-2.26,4.08-4.53,6.09-6.8h0c3.41-3.86,6.76-7.71,10.05-11.56,4.78-5.59,9.44-11.18,13.95-16.77,149.82-184.68,166.45-364.04,166.45-364.04l-.71-1.13-19.17-30.67c9.62,7.71,32.32,19.14,33.74,19.83l-13.88-13.88-7.94-7.95c5.97-11.93,11.92-11.93,11.92-11.93l-.49-.43c-.48-.4-.93-.77-1.36-1.13l-3.28-2.85c-.09-.08-.2-.16-.29-.24-.12-.1-.22-.18-.3-.24l-.22-.21c-.06-.04-.12-.09-.16-.13-.04-.04-.08-.07-.09-.08l-.03-.02-7.69-6.6c-4.57-2.01-9.16-4.45-13.73-7.35,9.38-1.67,16.68-3.84,22.37-6.25,5.69-2.41,9.77-5.07,12.66-7.72,.13-.11,.25-.24,.38-.35,5.43-5.14,6.47-10.17,6.49-13.21,0-1.57-.25-2.61-.31-2.85,.54,.97,1,1.93,1.39,2.88,2.48,5.95,2.2,11.37,.83,15.86-.07,.21-.13,.41-.21,.62-2.13,6.48-6.45,10.93-7.66,12.08-.22,.2-.33,.3-.33,.3,.26,0,.52,0,.77-.03,5.85-.39,9.1-5.18,10.9-11.09,.08-.23,.14-.46,.21-.7,1.66-5.86,1.97-12.66,2.02-17.24,.02-1.05,.02-1.97,.02-2.75,0-7.95,7.96-5.96,7.96-5.96,1.5,.11,2.97,.44,4.41,.94,13.34,4.68,24.23,24.96,31.14,41.58,4.16,9.98,6.87,18.65,7.82,21.8,.24,.81,.36,1.27,.36,1.27,.08-.38,.14-.8,.16-1.23,.02-.25,.04-.49,.04-.75,0-.02,0-.03,0-.05,.02-.38,0-.77,0-1.19-.07-2.71-.63-6.24-1.59-10.47v-.02s0-.02,0-.03c0,0,0-.02,0-.03-.54-2.35-1.22-4.9-2.01-7.65-6.56-22.81-21.35-58.96-38.68-97.27-13.8-30.53-29.22-62.42-43.38-90.03-.31-.61-.62-1.23-.92-1.84-.8-1.64-1.56-3.3-2.28-4.99-1.88-4.35-3.5-8.86-4.88-13.48-.7-2.31-1.33-4.66-1.91-7.02-3.53-14.4-4.99-29.71-5.02-45.11,0-.56,0-1.11,0-1.67,.09-23.67,3.5-47.44,7.84-68.28,4.79-22.88,10.72-42.22,14.7-54.01h0c2.63-7.83,4.4-12.33,4.4-12.33,10.59,18.72,11.5,35.1,8.89,47.93h0c-3.69,18.15-14.43,29.17-14.84,29.58,15.73-6.44,21.94-22.67,23.44-40.8,1.57,4.81,3.2,8.82,4.73,12.14-1.27,4.28-2.22,6.5-2.33,6.79,1.56-.46,2.92-1.48,4.18-3.01,2.07,3.98,3.82,6.5,4.84,7.83-1.28-1.8-2.47-4.11-3.53-6.83h0s0-.04,0-.05c0,0,0-.03,0-.04,0,0,0-.03,0-.04,0,0,0-.03,0-.04s0-.02,0-.03,0,0,0-.02c-.23-.53-.41-1.04-.62-1.6,.06-.08,.1-.15,.16-.23,.92-1.33,1.77-2.93,2.56-4.82,0,0,0,0,0-.02s0-.02,0-.03h0c1.87-4.51,3.34-10.5,4.52-17.65,8.37-50.35,2.39-157.99,17.73-204.02,19.88-59.64,75.54-97.41,75.54-97.41-6.96-14.9-34.78-14.9-34.78-14.9,23.85-1.99,46.71,12.92,46.71,12.92-1.64-11.45-.58-41.73-.15-52.11h0c.08-2.24,.15-3.55,.15-3.55,.08,1.09,.19,2.18,.32,3.26,2.82,24.39,15.58,44.45,15.58,44.45,1-16.89,26.84-34.78,26.84-34.78-11.57,11.68-19.27,22.88-16.89,32.79,15.9-21.87,85.47-15.9,85.47-15.9-6.5,1.31-10.45,5.17-12.41,7.67h0c-.94,1.21-1.41,2.09-1.49,2.24,2.33-1.51,7.9-1.56,13.86-1.05,1.28-.86,2.88-1.89,4.59-2.87,2.09-1.21,4.35-2.34,6.37-3.02-.05,.1-.52,1.04-1.26,2.33-.71,1.24-1.69,2.83-2.8,4.35,7.01,.97,13.02,2.26,13.02,2.26,4.62-6.16,10.74-9.04,16.5-10.26,9.1-1.91,17.3,.32,17.3,.32-2.71,.6-5.15,1.43-7.32,2.41-11.78,5.26-16.2,14.75-16.51,15.44,13.95-17.83,47.71-9.9,71.54-3.94,9.53,2.38,16.51-1.57,21.35-7.95,.66-.88,1.29-1.8,1.88-2.76,5.81-9.51,7.68-22.54,6.6-29.04-.68-4-2.69-7.78-5.05-11.04,68.54-1.21,96.49,48.8,96.49,48.8-5.78,0-15.29,3.73-15.87,3.97,11.02-1.83,19.48,.58,25.41,3.71,1.68,.88,3.15,1.82,4.42,2.74h0c3.94,2.85,5.91,5.48,5.91,5.48-.63-.41-1.41-.84-2.31-1.25-.51-.24-1.06-.46-1.63-.69-7.42-2.98-19.78-5.57-21.64-5.95,7.59,2.06,13.27,11.26,13.63,11.85-7.7-3.84-19.11-5.83-19.81-5.94,4.56,1.56,17.14,9.94,22.86,13.87-8.55-4.47-27.81-7.45-30.51-7.85,29.12,5.93,42.97,23.25,43.39,23.79-17.88-13.91-26.83-10.93-26.83-10.93,18.4,3.2,37.77,22.82,54.34,45.13,0,0,0,0,0,0,24.6,33.11,43.05,72.14,43.05,72.14l2.82,5.41h0s3.78,7.31,3.78,7.31v.02s.03,.03,.03,.03h0s1.57,3.04,1.57,3.04l.89,1.71h0s0,.03,0,.03l2.4,4.59,.02,.03v.03s1.08,2.08,1.08,2.08l.31,.58c.11-1.72,.11-3.6,.02-5.67Zm-210.61-225.51c-1.68-1.53-3.05-2.61-3.7-3.09,0,0,0,0,0,0-.25-.2-.4-.3-.4-.3,0,0,.25,.05,.67,.26t.02,0c.75,.37,2.05,1.22,3.41,3.13ZM216,762.79s-.3-.2-.82-.56c2.13-8.27,5.63-15.33,8.87-20.62,5.96,6.41,11.59,10.67,16.74,13.42,17.17,9.23,28.87,1.78,28.87,1.78-3.53,12.96-21.73,12.65-35.97,10.26-9.78-1.65-17.69-4.29-17.69-4.29Zm55.65-23.86c-1.44,1.59-2.92,2.89-4.41,3.94h0s0,0,0,0c-4.06,2.87-8.25,3.88-12.36,3.7-10.2-.44-19.77-8.26-24.93-13.32,1.22-1.49,1.97-2.28,1.97-2.28,0,0,10.74-3.86,21.23-5.41,6.26-.91,12.43-1.01,16.19,1.04,3.49,1.9,4.89,5.66,2.33,12.32Zm52.98,152.84c-6.12,2.74-13.28,4.91-20.39,6.61-6.98-4.68-13.98-10.3-20.96-16.71-19.11-17.51-38.22-40.92-57.34-67.19-9.86-13.56-13.04-26.74-12.7-38.47,7.41,6.96,15.93,10.76,24.73,12.43,3.71,.71,7.47,1.04,11.22,1.07h0c28.49,.24,56.26-16.79,56.26-16.79-9.94,57.65-39.75,61.63-39.75,61.63,10.89,2.18,25.36-8.17,36.22-17.98,8.96-8.1,15.47-15.82,15.47-15.82,0,0,1.98,1.98,13.91,23.85,5.96,10.93,5.96,22.34,4.47,31.03-1.12,6.58-3.09,11.59-4,13.66-.29,.67-.47,1.03-.47,1.03,9.94-1.99,9.94,1.99,9.94,1.99,0,.04,0,.08,.02,.12,.68,4.68-1.26,8.71-4.88,12.15l-.14,.14c-2.94,2.77-6.97,5.17-11.59,7.24Zm33.87-334.23c-.09,.35-.19,.69-.27,1.02-1.09-4-2.05-8.49-2.86-13.33-8.91-52.57-2.23-145.52,5.74-86.58,6.84,50.69,1.42,83.43-2.61,98.89ZM655.31,212.16c-10.6-6.06-31.62-7.49-41-7.84-2.92-.1-4.72-.1-4.72-.1,1.11-.52,2.25-1.03,3.4-1.54,25.62-11.24,60.21-20.33,60.21-20.33,12.03-3,23.16-4.55,33.4-4.97,1.37,4.68,2.38,11.37,2.38,20.87,0,29.82-39.76,21.87-53.67,13.91ZM345.12,872.7c-.49-.05-.99-.1-1.48-.16-.25-.03-.49-.06-.74-.08-.39-.05-.78-.09-1.17-.15-.16-.02-.33-.05-.49-.07,.68,4.68-1.26,8.71-4.88,12.15l-.14,.14c.37,.08,.74,.17,1.14,.27,.14,.03,.28,.07,.42,.1,.06,.02,.12,.03,.19,.05h.02c.13,.03,.26,.07,.41,.1,.38,.08,.75,.18,1.15,.28,.23,.06,.46,.11,.7,.18,.2,.05,.41,.09,.61,.15,.09,.02,.19,.05,.28,.08,.6,.15,1.23,.31,1.88,.48,5.43-5.14,6.47-10.17,6.49-13.21-1.45-.07-2.92-.18-4.39-.32Zm0,0c-.49-.05-.99-.1-1.48-.16-.25-.03-.49-.06-.74-.08-.39-.05-.78-.09-1.17-.15-.16-.02-.33-.05-.49-.07,.68,4.68-1.26,8.71-4.88,12.15l-.14,.14c.37,.08,.74,.17,1.14,.27,.14,.03,.28,.07,.42,.1,.06,.02,.12,.03,.19,.05h.02c.13,.03,.26,.07,.41,.1,.38,.08,.75,.18,1.15,.28,.23,.06,.46,.11,.7,.18,.2,.05,.41,.09,.61,.15,.09,.02,.19,.05,.28,.08,.6,.15,1.23,.31,1.88,.48,5.43-5.14,6.47-10.17,6.49-13.21-1.45-.07-2.92-.18-4.39-.32Zm0,0c-.49-.05-.99-.1-1.48-.16-.25-.03-.49-.06-.74-.08-.39-.05-.78-.09-1.17-.15-.16-.02-.33-.05-.49-.07,.68,4.68-1.26,8.71-4.88,12.15l-.14,.14c.37,.08,.74,.17,1.14,.27,.14,.03,.28,.07,.42,.1,.06,.02,.12,.03,.19,.05h.02c.13,.03,.26,.07,.41,.1,.38,.08,.75,.18,1.15,.28,.23,.06,.46,.11,.7,.18,.2,.05,.41,.09,.61,.15,.09,.02,.19,.05,.28,.08,.6,.15,1.23,.31,1.88,.48,5.43-5.14,6.47-10.17,6.49-13.21-1.45-.07-2.92-.18-4.39-.32Zm0,0c-.49-.05-.99-.1-1.48-.16-.25-.03-.49-.06-.74-.08-.39-.05-.78-.09-1.17-.15-.16-.02-.33-.05-.49-.07,.68,4.68-1.26,8.71-4.88,12.15l-.14,.14c.37,.08,.74,.17,1.14,.27,.14,.03,.28,.07,.42,.1,.06,.02,.12,.03,.19,.05h.02c.13,.03,.26,.07,.41,.1,.38,.08,.75,.18,1.15,.28,.23,.06,.46,.11,.7,.18,.2,.05,.41,.09,.61,.15,.09,.02,.19,.05,.28,.08,.6,.15,1.23,.31,1.88,.48,5.43-5.14,6.47-10.17,6.49-13.21-1.45-.07-2.92-.18-4.39-.32Z"/><path d="M973.36,933.74c-2.98,12.92-13.91,43.73-15.9,49.7s-7.95,21.87-17.89,45.72c-9.94,23.85-25.84,41.74-39.76,47.71-13.91,5.96-31.81,15.9-41.74,21.87s-49.7,13.91-49.7,13.91c-6.88,1.15-13.44,2.09-19.92,2.78-38.35,4.13-73.65-.26-157-20.67-91.44-17.89-137.16-59.64-145.11-69.57s-67.59-81.5-71.56-85.48-13.91,7.95-13.91,7.95c-1.45,.8-3.02,1.33-4.69,1.65-1.41,.28-2.92,.38-4.47,.36-18.49-.34-45.3-20.69-56.93-30.27-.48-.4-.93-.78-1.35-1.13-1.87-1.55-3.2-2.72-3.88-3.32,.08,.06,.18,.14,.3,.24,.1,.08,.2,.16,.3,.24,3.36,2.7,14.91,11.29,40.91,24.29,10.2,5.11,17.75,5.57,23.32,3.86,8.99-2.76,12.78-11.17,14.09-15.07,.12-.34,.2-.64,.28-.89,.16-.56,.26-.93,.28-1.05,.02-.04,.02-.06,.02-.06,0,0,53.45,68.88,83.27,100.68,29.82,31.81,101.38,59.64,141.14,65.6,39.06,5.86,93.49,27.07,153.84,20.26,1.07-.12,2.13-.24,3.2-.38,61.62-7.95,61.62-19.88,99.39-35.78,37.77-15.9,49.7-55.66,49.7-55.66,0,0,22.86-56.65,28.82-78.52,35.78-95.42,31.81-238.54,25.84-266.37-1.99-27.83-17.08-100.98-17.89-105.36-.91-4.95-37.47-73.83-41.74-97.4-4.31-23.79-11.93-47.71-19.88-71.56l-8.95-4.97s0-5.29,3.24-5.07c.72,.04,1.61,.36,2.72,1.09,.62,.4,1.29,1.19,2.01,2.29,6.32,9.6,16.28,43.28,19.86,59.34,3.98,17.89,7.95,33.79,13.91,49.7,5.96,15.9,27.83,53.67,31.81,69.57,3.98,15.9,17.89,93.43,17.89,93.43,0,0,14.91,160.02-23.85,266.37Z"/><path d="M139.72,1347.4s4.71,68.81,34.88,94.26l2.83,16.97s-38.65-47.13-50.9-98.03c-12.25-50.9,13.2-13.2,13.2-13.2Z"/><path class="t" d="M800.51,210.57s-49.96-68.81-161.19-22.62c0,0,99.92-63.16,161.19,22.62Z"/><path class="t" d="M410.26,228.48s26.39-3.77,44.3,11.31c0,0-83.89,53.73-81.07,133.85,0,0-4.71-81.07,74.47-133.85,0,0-10.37-8.48-37.71-11.31Z"/><path class="aa" d="M215.13,214.34s4.71-34.88,21.68-36.76c0,0-10.37,4.71-12.25,14.14,0,0,.94-3.77,11.31-4.71,0,0-12.25,4.71-13.2,15.08,0,0-.94,5.66,0,8.48,0,0-3.77-3.77-2.83-6.6,0,0-2.83,3.77-4.71,10.37Z"/><path class="v" d="M381.04,1221.08c-10.37,108.4,81.07,199.84,88.61,312.01-28.28-136.68-118.77-208.32-88.61-312.01Z"/><path class="v" d="M312.23,1439.77s55.62,2.83,78.24,27.34c0,0-22.62-42.42-78.24-27.34Z"/><path class="v" d="M236.81,248.28s-123.49,26.39-147.05,169.67c0,0,15.08-65.98,64.1-89.55,0,0-59.39,58.44-60.33,147.05,0,0,9.43-57.5,38.65-80.12l-4.71,31.11s35.82-81.07,118.77-115c0,0-37.71-2.83-48.07,6.6,0,0,36.76-34.88,85.78-46.19,0,0-52.79,8.48-68.81,17.91,0,0,25.45-23.57,45.25-29.22,0,0-26.39,1.89-34.88,6.6,0,0-.94-14.14,11.31-18.85Z"/><path class="v" d="M154.8,638.53l11.31-65.04c-14.14,22.62-31.11,88.61-31.11,88.61-2.74,4.08-5.43,8.35-8.08,12.79-1.57-7.14-3.47-16.16-5.16-25.38v-.02c-15.83-177.45,91.47-244.74,91.47-244.74-77.3,111.23-77.3,211.15-77.3,211.15,14.97-69.21,82.82-139.35,83.89-140.44-27.34,40.54-65.03,163.07-65.03,163.07Z"/><path class="v" d="M186.85,758.73s-49.02,107.92-43.36,195.58c0,0,5.66-85.78,21.68-107.46,0,0-10.37,31.11-4.71,40.53,0,0,13.2-45.25,26.39-63.16,0,0-3.77,21.68,0,37.71,0,0,3.77-35.82,17.91-43.36l-17.91-5.66s5.66-10.37,14.14-11.31c0,0-13.2-8.48-17.91,0,0,0,3.77-11.31,12.25-20.74,0,0-9.43-2.83-12.25,4.71,0,0-.94-19.77,3.77-26.85Z"/><path class="v" d="M186.85,692.26s63.16-31.11,90.49-2.83c0,0-4.71-15.08-39.59-19.8h25.45c3.77,0-28.28-21.68-61.27,7.54-32.99,29.22-15.08,15.08-15.08,15.08Z"/><path class="v" d="M329.19,198.32s88.61-3.77,125.37,20.74c0,0-16.02-13.2-54.67-22.62,0,0,27.34-.94,34.88,3.77,0,0-5.66-12.25-24.51-15.08l35.19,13.29s-25.76-31.2-53.1-36.86c0,0,14.14,9.43,16.97,13.2,0,0-30.16-15.08-48.07-16.97,0,0,29.22,12.25,36.76,24.51,0,0-30.16,4.71-68.81,16.02Z"/><path d="M373.5,1840.4c-45.25-63.16-168.73-102.75-168.73-102.75-37.22-18.76-69.03-42.4-96.14-69.68-33.56-33.75-59.93-73.05-80.52-115.54-1.24-2.56-2.46-5.14-3.65-7.72-1.59-3.4-3.13-6.82-4.64-10.26-4.86-11.09-9.36-22.38-13.51-33.81-9.11-25.04-16.55-50.78-22.6-76.81v-469.52l53.82,56.16,76.09,79.42,53.44,55.78s-10.72,87.91-2.22,183.92c1.51,17.02,3.62,34.29,6.5,51.37,5.5,32.62,13.82,64.54,26.11,92.68,.28,.66,.57,1.31,.87,1.96,5.04,11.32,10.75,22,17.18,31.84,.23,.36,.46,.71,.7,1.06,.16,.25,.32,.49,.49,.74,9.8,14.65,21.28,27.36,34.67,37.47,.03,.02,.05,.04,.08,.06l.03,.03c8.7,6.54,16.76,13.64,24.26,21.19,11.13,11.2,20.97,23.35,29.71,36.14,0,0,0,0,0,.02,.24,.33,.46,.65,.68,.98h0s0,.02,.02,.03c67.37,99.52,67.34,235.24,67.34,235.24Z"/><path d="M-3.97,824.92s-105.35,263.14-112.8,321.64c-7.45,58.5-20.16,211.11,49.83,342.66,69.98,131.54,187.25,215.88,296.88,257.61,109.63,41.73-46.42-209.3-46.42-209.3,0,0-172.93-433.33-161.62-594.52,11.31-161.19-25.86-118.09-25.86-118.09Z"/><path d="M-125.16,1262.56s23.57,227.18-25.45,366.69c0,0,31.11-13.2,66.93-60.33,0,0-20.74,141.4-66.93,174.39,0,0,93.32-46.19,104.63-160.25,0,0,17.91,41.48-4.71,86.72,0,0,73.53-77.3,72.58-172.5-.94-95.21-147.05-234.72-147.05-234.72Z"/></g><g id="l"><path class="ag" d="M904.52,857.81h-.02c-10.3,7.71-23.7,10.95-30.53,12.32-9.94,1.99-15.9,7.95-23.85,11.93-7.95,3.98-31.81,17.89-31.81,17.89,1.49,1.29,2.8,2.78,3.96,4.41-1.75,.62-3.52,1.23-5.29,1.83-1.57-2.66-2.64-4.25-2.64-4.25l-19.88,5.96c1.67,.99,3.04,2.44,4.19,4.15-1.43,.44-2.86,.85-4.27,1.29-2.21-3.26-3.9-5.45-3.9-5.45l-9.94,1.99c-17.89,3.98-27.83,9.94-27.83,9.94-1.99-1.99-17.89,3.98-17.89,3.98v3.98s-1.99-1.99-7.95,0c-1.79,.6-2.68,1.55-3.06,2.58-21.45,4.08-33.79,5.25-27.75,3.3,.02,0,.04-.02,.06-.02,21.85-7.1,51.64-34.71,71.5-54.57,15.9-15.9,45.72-17.89,45.72-17.89,21.87-19.88,41.74-19.88,51.68-19.88,35.78,1.99,49.7-5.96,49.7-5.96,0,0-6.36,17.81-10.2,22.46Z"/><path class="ag" d="M843.16,960.58c-51.68,13.91-149.01-12.94-149.01-12.94l.97-13.86c.32-.04,.64-.08,.93-.12,.02,0,.04-.02,.06-.02,5.19-.7,9.28-1.35,10.87-1.89,5.96-1.99,45.72-17.89,45.72-17.89,0,0,17.89-11.93,27.83-9.94,9.94,1.99,17.89-7.95,17.89-7.95,0,0,7.95,3.98,11.93,1.99,3.98-1.99,1.99-7.95,1.99-7.95,1.99,1.99,7.95,1.99,7.95,1.99l19.88-13.91c19.88-13.91,38.76-12.92,50.69-16.9,4.91-1.63,16.32-10.02,19.88-13.91,0,0,5.96,95.42-67.59,113.31Z"/><path class="n" d="M926.65,827.39c-4.97,2.98-4.97,4.97-10.93,16.9-2.44,5.49-6.36,9.86-10.93,13.32-.08,.06-.18,.14-.26,.2h-.02c-10.3,7.71-23.7,10.95-30.53,12.32-9.94,1.99-15.9,7.95-23.85,11.93-7.95,3.98-31.81,17.89-31.81,17.89,1.49,1.29,2.8,2.78,3.96,4.41,9.56,13.6,7.97,37.33,7.97,37.33,0-11.79-8.73-27.93-13.26-35.5-1.57-2.66-2.64-4.25-2.64-4.25l-19.88,5.96c1.67,.99,3.04,2.44,4.19,4.15,5.74,8.51,5.74,23.68,5.74,23.68,0-6.46-5.88-16.3-10.02-22.38-2.21-3.26-3.9-5.45-3.9-5.45l-9.94,1.99c-17.89,3.98-27.83,9.94-27.83,9.94-1.99-1.99-17.89,3.98-17.89,3.98v3.98s-1.99-1.99-7.95,0c-1.79,.6-2.68,1.55-3.06,2.58-.87,2.44,1.07,5.37,1.07,5.37h-7.95s-9.94-1.99-15.9,0-5.96,11.93-5.96,11.93c-.3,0-.6,0-.91-.02-13.93-.4-34.87-9.92-34.87-9.92,0,0,21.49-2.05,35.84-3.94,.32-.04,.64-.08,.93-.12,.02,0,.04-.02,.06-.02,5.19-.7,9.28-1.35,10.87-1.89,5.96-1.99,45.72-17.89,45.72-17.89,0,0,17.89-11.93,27.83-9.94,9.94,1.99,17.89-7.95,17.89-7.95,0,0,7.95,3.98,11.93,1.99,3.98-1.99,1.99-7.95,1.99-7.95,1.99,1.99,7.95,1.99,7.95,1.99l19.88-13.91c19.88-13.91,38.76-12.92,50.69-16.9,4.91-1.63,9.14-4.95,12.7-8.85,2.62-2.88,4.91-6.1,6.8-9.16,1.79-2.84,3.22-5.59,4.35-7.83,3.98-7.95,11.93-7.95,11.93-7.95Z"/><path class="u" d="M747.74,887.03s29.82-25.84,47.71-27.83,23.85-13.91,31.81-15.9,25.84-7.95,31.81-5.96c5.96,1.99,1.99,0,1.99,0,0,0-33.79-3.98-43.73,1.99s-15.9,11.93-35.78,15.9c-13.91,7.95-33.79,31.81-33.79,31.81Z"/><path class="p" d="M811.35,964.55c19.88,0,57.65-13.91,65.6-21.87,0,3.98-23.85,23.85-65.6,21.87Z"/></g></svg>