<?xml version="1.0" encoding="UTF-8"?><svg id="b" xmlns="http://www.w3.org/2000/svg" width="889" height="1153.1" viewBox="0 0 889 1153.1"><defs><style>.i{fill:#343434;}.j{fill:#262626;}.k{opacity:.7;}.l,.m{fill:#fff;}.n{fill:#8b8b8b;}.o{fill:#272823;}.p{fill:#3f3f3f;}.q{fill:#343436;}.r{fill:#8c8c8c;}.s{fill:#3e3e3e;}.t{fill:#d6d6d6;}.u,.v{fill:#cfcfcf;}.w{fill:#1b1b1b;}.x{fill:#111;}.y,.z{fill:#2d2729;}.aa{fill:#2a2a2a;}.ab{fill:#626262;}.ac{fill:#444;}.ad{fill:#d4d4d4;}.ae,.af{fill:#ecefde;}.ag{fill:none;stroke-width:2px;}.ag,.ah{stroke:#000;stroke-miterlimit:10;}.ai{fill:#f9f9f9;}.aj{fill:#878787;}.ak{fill:#616161;}.al{fill:#858585;}.ah{fill:#ad3133;stroke-width:3px;}.am{fill:#7b7b7b;}.z{opacity:.4;}.af{opacity:.54;}.m{font-family:SoukouMincho, SoukouMincho;font-size:75px;letter-spacing:.2em;}.an{fill:#cecece;}.ao{fill:#262823;}.v{opacity:.34;}.ap{fill:#3c3c3c;}.aq{fill:#888;}</style></defs><g id="c"><text class="m" transform="translate(652.93 933.67)"><tspan x="0" y="0">死</tspan><tspan x="0" y="108">神</tspan></text></g><g id="d"><g><polygon class="l" points="621 995.93 534 1082.93 550 1082.93 621 1011.93 621 995.93"/><polygon class="l" points="621 939.93 534 1026.93 534 1040.93 621 953.93 621 939.93"/><polygon class="l" points="621 982.93 621 966.93 534 1053.93 534 1069.93 621 982.93"/><polygon class="l" points="592 1082.93 621 1082.93 621 1053.93 592 1082.93"/><polygon class="l" points="621 1040.93 621 1024.93 563 1082.93 579 1082.93 621 1040.93"/><polygon class="l" points="621 926.93 621 787.93 534 787.93 534 1013.93 621 926.93"/></g></g><g id="e"><circle class="l" cx="4" cy="107.93" r="4"/><circle class="l" cx="27" cy="107.93" r="4"/><circle class="l" cx="50" cy="107.93" r="4"/><circle class="l" cx="73" cy="107.93" r="4"/><circle class="l" cx="96" cy="107.93" r="4"/><circle class="l" cx="119" cy="107.93" r="4"/><circle class="l" cx="142" cy="107.93" r="4"/><circle class="l" cx="165" cy="107.93" r="4"/><circle class="l" cx="188" cy="107.93" r="4"/><circle class="l" cx="211" cy="107.93" r="4"/><circle class="l" cx="234" cy="107.93" r="4"/><circle class="l" cx="257" cy="107.93" r="4"/><circle class="l" cx="4" cy="133.93" r="4"/><circle class="l" cx="27" cy="133.93" r="4"/><circle class="l" cx="50" cy="133.93" r="4"/><circle class="l" cx="73" cy="133.93" r="4"/><circle class="l" cx="96" cy="133.93" r="4"/><circle class="l" cx="119" cy="133.93" r="4"/><circle class="l" cx="142" cy="133.93" r="4"/><circle class="l" cx="165" cy="133.93" r="4"/><circle class="l" cx="188" cy="133.93" r="4"/><circle class="l" cx="211" cy="133.93" r="4"/><circle class="l" cx="234" cy="133.93" r="4"/><circle class="l" cx="257" cy="133.93" r="4"/><circle class="l" cx="4" cy="159.93" r="4"/><circle class="l" cx="27" cy="159.93" r="4"/><circle class="l" cx="50" cy="159.93" r="4"/><circle class="l" cx="73" cy="159.93" r="4"/><circle class="l" cx="96" cy="159.93" r="4"/><circle class="l" cx="119" cy="159.93" r="4"/><circle class="l" cx="142" cy="159.93" r="4"/><circle class="l" cx="165" cy="159.93" r="4"/><circle class="l" cx="188" cy="159.93" r="4"/><circle class="l" cx="211" cy="159.93" r="4"/><circle class="l" cx="234" cy="159.93" r="4"/><circle class="l" cx="257" cy="159.93" r="4"/><circle class="l" cx="4" cy="185.93" r="4"/><circle class="l" cx="27" cy="185.93" r="4"/><circle class="l" cx="50" cy="185.93" r="4"/><circle class="l" cx="73" cy="185.93" r="4"/><circle class="l" cx="96" cy="185.93" r="4"/><circle class="l" cx="119" cy="185.93" r="4"/><circle class="l" cx="142" cy="185.93" r="4"/><circle class="l" cx="165" cy="185.93" r="4"/><circle class="l" cx="188" cy="185.93" r="4"/><circle class="l" cx="211" cy="185.93" r="4"/><circle class="l" cx="234" cy="185.93" r="4"/><circle class="l" cx="257" cy="185.93" r="4"/><circle class="l" cx="4" cy="211.93" r="4"/><circle class="l" cx="27" cy="211.93" r="4"/><circle class="l" cx="50" cy="211.93" r="4"/><circle class="l" cx="73" cy="211.93" r="4"/><circle class="l" cx="96" cy="211.93" r="4"/><circle class="l" cx="119" cy="211.93" r="4"/><circle class="l" cx="142" cy="211.93" r="4"/><circle class="l" cx="165" cy="211.93" r="4"/><circle class="l" cx="188" cy="211.93" r="4"/><circle class="l" cx="211" cy="211.93" r="4"/><circle class="l" cx="234" cy="211.93" r="4"/><circle class="l" cx="257" cy="211.93" r="4"/><circle class="l" cx="4" cy="237.93" r="4"/><circle class="l" cx="27" cy="237.93" r="4"/><circle class="l" cx="50" cy="237.93" r="4"/><circle class="l" cx="73" cy="237.93" r="4"/><circle class="l" cx="96" cy="237.93" r="4"/><circle class="l" cx="119" cy="237.93" r="4"/><circle class="l" cx="142" cy="237.93" r="4"/><circle class="l" cx="165" cy="237.93" r="4"/><circle class="l" cx="188" cy="237.93" r="4"/><circle class="l" cx="211" cy="237.93" r="4"/><circle class="l" cx="234" cy="237.93" r="4"/><circle class="l" cx="257" cy="237.93" r="4"/><circle class="l" cx="4" cy="263.93" r="4"/><circle class="l" cx="27" cy="263.93" r="4"/><circle class="l" cx="50" cy="263.93" r="4"/><circle class="l" cx="73" cy="263.93" r="4"/><circle class="l" cx="96" cy="263.93" r="4"/><circle class="l" cx="119" cy="263.93" r="4"/><circle class="l" cx="142" cy="263.93" r="4"/><circle class="l" cx="165" cy="263.93" r="4"/><circle class="l" cx="188" cy="263.93" r="4"/><circle class="l" cx="211" cy="263.93" r="4"/><circle class="l" cx="234" cy="263.93" r="4"/><circle class="l" cx="257" cy="263.93" r="4"/><circle class="l" cx="4" cy="289.93" r="4"/><circle class="l" cx="27" cy="289.93" r="4"/><circle class="l" cx="50" cy="289.93" r="4"/><circle class="l" cx="73" cy="289.93" r="4"/><circle class="l" cx="96" cy="289.93" r="4"/><circle class="l" cx="119" cy="289.93" r="4"/><circle class="l" cx="142" cy="289.93" r="4"/><circle class="l" cx="165" cy="289.93" r="4"/><circle class="l" cx="188" cy="289.93" r="4"/><circle class="l" cx="211" cy="289.93" r="4"/><circle class="l" cx="234" cy="289.93" r="4"/><circle class="l" cx="257" cy="289.93" r="4"/><circle class="l" cx="4" cy="315.93" r="4"/><circle class="l" cx="27" cy="315.93" r="4"/><circle class="l" cx="50" cy="315.93" r="4"/><circle class="l" cx="73" cy="315.93" r="4"/><circle class="l" cx="96" cy="315.93" r="4"/><circle class="l" cx="119" cy="315.93" r="4"/><circle class="l" cx="142" cy="315.93" r="4"/><circle class="l" cx="165" cy="315.93" r="4"/><circle class="l" cx="188" cy="315.93" r="4"/><circle class="l" cx="211" cy="315.93" r="4"/><circle class="l" cx="234" cy="315.93" r="4"/><circle class="l" cx="257" cy="315.93" r="4"/><circle class="l" cx="4" cy="341.93" r="4"/><circle class="l" cx="27" cy="341.93" r="4"/><circle class="l" cx="50" cy="341.93" r="4"/><circle class="l" cx="73" cy="341.93" r="4"/><circle class="l" cx="96" cy="341.93" r="4"/><circle class="l" cx="119" cy="341.93" r="4"/><circle class="l" cx="142" cy="341.93" r="4"/><circle class="l" cx="165" cy="341.93" r="4"/><circle class="l" cx="188" cy="341.93" r="4"/><circle class="l" cx="211" cy="341.93" r="4"/><circle class="l" cx="234" cy="341.93" r="4"/><circle class="l" cx="257" cy="341.93" r="4"/><circle class="l" cx="4" cy="367.93" r="4"/><circle class="l" cx="27" cy="367.93" r="4"/><circle class="l" cx="50" cy="367.93" r="4"/><circle class="l" cx="73" cy="367.93" r="4"/><circle class="l" cx="96" cy="367.93" r="4"/><circle class="l" cx="119" cy="367.93" r="4"/><circle class="l" cx="142" cy="367.93" r="4"/><circle class="l" cx="165" cy="367.93" r="4"/><circle class="l" cx="188" cy="367.93" r="4"/><circle class="l" cx="211" cy="367.93" r="4"/><circle class="l" cx="234" cy="367.93" r="4"/><circle class="l" cx="257" cy="367.93" r="4"/><circle class="l" cx="4" cy="393.93" r="4"/><circle class="l" cx="27" cy="393.93" r="4"/><circle class="l" cx="50" cy="393.93" r="4"/><circle class="l" cx="73" cy="393.93" r="4"/><circle class="l" cx="96" cy="393.93" r="4"/><circle class="l" cx="119" cy="393.93" r="4"/><circle class="l" cx="142" cy="393.93" r="4"/><circle class="l" cx="165" cy="393.93" r="4"/><circle class="l" cx="188" cy="393.93" r="4"/><circle class="l" cx="211" cy="393.93" r="4"/><circle class="l" cx="234" cy="393.93" r="4"/><circle class="l" cx="257" cy="393.93" r="4"/><circle class="l" cx="4" cy="419.93" r="4"/><circle class="l" cx="27" cy="419.93" r="4"/><circle class="l" cx="50" cy="419.93" r="4"/><circle class="l" cx="73" cy="419.93" r="4"/><circle class="l" cx="96" cy="419.93" r="4"/><circle class="l" cx="119" cy="419.93" r="4"/><circle class="l" cx="142" cy="419.93" r="4"/><circle class="l" cx="165" cy="419.93" r="4"/><circle class="l" cx="188" cy="419.93" r="4"/><circle class="l" cx="211" cy="419.93" r="4"/><circle class="l" cx="234" cy="419.93" r="4"/><circle class="l" cx="257" cy="419.93" r="4"/></g><g id="f"><circle class="l" cx="527" cy="505.93" r="4"/><circle class="l" cx="550" cy="505.93" r="4"/><circle class="l" cx="573" cy="505.93" r="4"/><circle class="l" cx="596" cy="505.93" r="4"/><circle class="l" cx="619" cy="505.93" r="4"/><circle class="l" cx="642" cy="505.93" r="4"/><circle class="l" cx="665" cy="505.93" r="4"/><circle class="l" cx="688" cy="505.93" r="4"/><circle class="l" cx="711" cy="505.93" r="4"/><circle class="l" cx="734" cy="505.93" r="4"/><circle class="l" cx="757" cy="505.93" r="4"/><circle class="l" cx="780" cy="505.93" r="4"/><circle class="l" cx="527" cy="531.93" r="4"/><circle class="l" cx="550" cy="531.93" r="4"/><circle class="l" cx="573" cy="531.93" r="4"/><circle class="l" cx="596" cy="531.93" r="4"/><circle class="l" cx="619" cy="531.93" r="4"/><circle class="l" cx="642" cy="531.93" r="4"/><circle class="l" cx="665" cy="531.93" r="4"/><circle class="l" cx="688" cy="531.93" r="4"/><circle class="l" cx="711" cy="531.93" r="4"/><circle class="l" cx="734" cy="531.93" r="4"/><circle class="l" cx="757" cy="531.93" r="4"/><circle class="l" cx="780" cy="531.93" r="4"/><circle class="l" cx="527" cy="557.93" r="4"/><circle class="l" cx="550" cy="557.93" r="4"/><circle class="l" cx="573" cy="557.93" r="4"/><circle class="l" cx="596" cy="557.93" r="4"/><circle class="l" cx="619" cy="557.93" r="4"/><circle class="l" cx="642" cy="557.93" r="4"/><circle class="l" cx="665" cy="557.93" r="4"/><circle class="l" cx="688" cy="557.93" r="4"/><circle class="l" cx="711" cy="557.93" r="4"/><circle class="l" cx="734" cy="557.93" r="4"/><circle class="l" cx="757" cy="557.93" r="4"/><circle class="l" cx="780" cy="557.93" r="4"/><circle class="l" cx="527" cy="583.93" r="4"/><circle class="l" cx="550" cy="583.93" r="4"/><circle class="l" cx="573" cy="583.93" r="4"/><circle class="l" cx="596" cy="583.93" r="4"/><circle class="l" cx="619" cy="583.93" r="4"/><circle class="l" cx="642" cy="583.93" r="4"/><circle class="l" cx="665" cy="583.93" r="4"/><circle class="l" cx="688" cy="583.93" r="4"/><circle class="l" cx="711" cy="583.93" r="4"/><circle class="l" cx="734" cy="583.93" r="4"/><circle class="l" cx="757" cy="583.93" r="4"/><circle class="l" cx="780" cy="583.93" r="4"/><circle class="l" cx="527" cy="609.93" r="4"/><circle class="l" cx="550" cy="609.93" r="4"/><circle class="l" cx="573" cy="609.93" r="4"/><circle class="l" cx="596" cy="609.93" r="4"/><circle class="l" cx="619" cy="609.93" r="4"/><circle class="l" cx="642" cy="609.93" r="4"/><circle class="l" cx="665" cy="609.93" r="4"/><circle class="l" cx="688" cy="609.93" r="4"/><circle class="l" cx="711" cy="609.93" r="4"/><circle class="l" cx="734" cy="609.93" r="4"/><circle class="l" cx="757" cy="609.93" r="4"/><circle class="l" cx="780" cy="609.93" r="4"/><circle class="l" cx="527" cy="635.93" r="4"/><circle class="l" cx="550" cy="635.93" r="4"/><circle class="l" cx="573" cy="635.93" r="4"/><circle class="l" cx="596" cy="635.93" r="4"/><circle class="l" cx="619" cy="635.93" r="4"/><circle class="l" cx="642" cy="635.93" r="4"/><circle class="l" cx="665" cy="635.93" r="4"/><circle class="l" cx="688" cy="635.93" r="4"/><circle class="l" cx="711" cy="635.93" r="4"/><circle class="l" cx="734" cy="635.93" r="4"/><circle class="l" cx="757" cy="635.93" r="4"/><circle class="l" cx="780" cy="635.93" r="4"/><circle class="l" cx="527" cy="661.93" r="4"/><circle class="l" cx="550" cy="661.93" r="4"/><circle class="l" cx="573" cy="661.93" r="4"/><circle class="l" cx="596" cy="661.93" r="4"/><circle class="l" cx="619" cy="661.93" r="4"/><circle class="l" cx="642" cy="661.93" r="4"/><circle class="l" cx="665" cy="661.93" r="4"/><circle class="l" cx="688" cy="661.93" r="4"/><circle class="l" cx="711" cy="661.93" r="4"/><circle class="l" cx="734" cy="661.93" r="4"/><circle class="l" cx="757" cy="661.93" r="4"/><circle class="l" cx="780" cy="661.93" r="4"/><circle class="l" cx="527" cy="687.93" r="4"/><circle class="l" cx="550" cy="687.93" r="4"/><circle class="l" cx="573" cy="687.93" r="4"/><circle class="l" cx="596" cy="687.93" r="4"/><circle class="l" cx="619" cy="687.93" r="4"/><circle class="l" cx="642" cy="687.93" r="4"/><circle class="l" cx="665" cy="687.93" r="4"/><circle class="l" cx="688" cy="687.93" r="4"/><circle class="l" cx="711" cy="687.93" r="4"/><circle class="l" cx="734" cy="687.93" r="4"/><circle class="l" cx="757" cy="687.93" r="4"/><circle class="l" cx="780" cy="687.93" r="4"/><circle class="l" cx="527" cy="713.93" r="4"/><circle class="l" cx="550" cy="713.93" r="4"/><circle class="l" cx="573" cy="713.93" r="4"/><circle class="l" cx="596" cy="713.93" r="4"/><circle class="l" cx="619" cy="713.93" r="4"/><circle class="l" cx="642" cy="713.93" r="4"/><circle class="l" cx="665" cy="713.93" r="4"/><circle class="l" cx="688" cy="713.93" r="4"/><circle class="l" cx="711" cy="713.93" r="4"/><circle class="l" cx="734" cy="713.93" r="4"/><circle class="l" cx="757" cy="713.93" r="4"/><circle class="l" cx="780" cy="713.93" r="4"/><circle class="l" cx="527" cy="739.93" r="4"/><circle class="l" cx="550" cy="739.93" r="4"/><circle class="l" cx="573" cy="739.93" r="4"/><circle class="l" cx="596" cy="739.93" r="4"/><circle class="l" cx="619" cy="739.93" r="4"/><circle class="l" cx="642" cy="739.93" r="4"/><circle class="l" cx="665" cy="739.93" r="4"/><circle class="l" cx="688" cy="739.93" r="4"/><circle class="l" cx="711" cy="739.93" r="4"/><circle class="l" cx="734" cy="739.93" r="4"/><circle class="l" cx="757" cy="739.93" r="4"/><circle class="l" cx="780" cy="739.93" r="4"/><circle class="l" cx="527" cy="765.93" r="4"/><circle class="l" cx="550" cy="765.93" r="4"/><circle class="l" cx="573" cy="765.93" r="4"/><circle class="l" cx="596" cy="765.93" r="4"/><circle class="l" cx="619" cy="765.93" r="4"/><circle class="l" cx="642" cy="765.93" r="4"/><circle class="l" cx="665" cy="765.93" r="4"/><circle class="l" cx="688" cy="765.93" r="4"/><circle class="l" cx="711" cy="765.93" r="4"/><circle class="l" cx="734" cy="765.93" r="4"/><circle class="l" cx="757" cy="765.93" r="4"/><circle class="l" cx="780" cy="765.93" r="4"/><circle class="l" cx="527" cy="791.93" r="4"/><circle class="l" cx="550" cy="791.93" r="4"/><circle class="l" cx="573" cy="791.93" r="4"/><circle class="l" cx="596" cy="791.93" r="4"/><circle class="l" cx="619" cy="791.93" r="4"/><circle class="l" cx="642" cy="791.93" r="4"/><circle class="l" cx="665" cy="791.93" r="4"/><circle class="l" cx="688" cy="791.93" r="4"/><circle class="l" cx="711" cy="791.93" r="4"/><circle class="l" cx="734" cy="791.93" r="4"/><circle class="l" cx="757" cy="791.93" r="4"/><circle class="l" cx="780" cy="791.93" r="4"/><circle class="l" cx="527" cy="817.93" r="4"/><circle class="l" cx="550" cy="817.93" r="4"/><circle class="l" cx="573" cy="817.93" r="4"/><circle class="l" cx="596" cy="817.93" r="4"/><circle class="l" cx="619" cy="817.93" r="4"/><circle class="l" cx="642" cy="817.93" r="4"/><circle class="l" cx="665" cy="817.93" r="4"/><circle class="l" cx="688" cy="817.93" r="4"/><circle class="l" cx="711" cy="817.93" r="4"/><circle class="l" cx="734" cy="817.93" r="4"/><circle class="l" cx="757" cy="817.93" r="4"/><circle class="l" cx="780" cy="817.93" r="4"/></g><g id="g"><path class="l" d="M252.71,1153.1c-1.92,0-3.86-.01-5.81-.03l-1.81-.02c-2.32-.03-4.67-.07-7.04-.13l-3.35-.08c-14.69-.35-27.38-.65-44.47-2.41l-.19-.02-13.54-1.93-.87-.52c-.57,.09-1.15,.13-1.74,.13-.54,0-1.1-.04-1.67-.11l-.85-.1-.82-.25c-.37-.11-3.64-1.12-8.93-3.59l-2.15-.59-.66-.77c-14.39-7.19-40.56-23.87-66.85-58.8-.69-.92-1.39-1.86-2.08-2.81l-.59-.81c-.62-.85-1.24-1.71-1.85-2.58l-.26-.36c-.67-.95-1.35-1.92-2.02-2.9l-.64-.93c-.56-.83-1.13-1.66-1.69-2.5l-.42-.62c-.67-1-1.32-2.02-1.98-3.04l-.65-1.02c-.53-.83-1.07-1.68-1.61-2.54l-.48-.76c-.66-1.06-1.31-2.14-1.97-3.22l-.59-.99c-.54-.91-1.09-1.83-1.63-2.76l-.45-.77c-.67-1.16-1.33-2.32-2-3.5l-.48-.86c-.58-1.04-1.15-2.08-1.73-3.13l-.35-.64c-.7-1.29-1.38-2.58-2.07-3.88l-.28-.54c-.65-1.25-1.3-2.5-1.94-3.77l-.19-.38c-13.47-26.63-24.53-57.2-32.86-90.85l-.18-.71c-.93-3.78-1.82-7.58-2.65-11.29l-.12-.52s-.76-3.45-.98-4.5l-.42-1.99c-.23-1.09-.46-2.17-.68-3.27l-.39-1.91c-.24-1.21-.48-2.42-.72-3.65l-.31-1.57c-.33-1.71-.66-3.44-.98-5.18l-.02-.11c-.34-1.83-.67-3.68-.99-5.55l-.18-1.07c-.25-1.47-.5-2.94-.75-4.43l-.27-1.67c-.21-1.32-.42-2.63-.63-3.95l-.29-1.84c-.2-1.31-.4-2.62-.59-3.95l-.27-1.8c-.21-1.42-.41-2.86-.61-4.3l-.21-1.49c-.54-3.94-1.05-7.93-1.52-11.88l-.18-1.51c-.18-1.49-.35-2.98-.52-4.49l-.23-2.06c-.15-1.34-.29-2.69-.43-4.04l-.23-2.27c-.13-1.33-.26-2.66-.39-4l-.21-2.27c-.13-1.43-.26-2.87-.38-4.32l-.17-1.99c-.18-2.1-.35-4.22-.51-6.35l-.03-.38v-2.18l.71-1.93,7.31-20.46c10.95-31.19,22.98-67.84,35.76-108.95,1.74-21.86,3.52-47.57,4.62-63.89-8.43-6.26-15.95-13.57-19.21-18.84-1.4-2.26-2.97-5.44-4.09-7.8-1.72-3.21-3.17-6.52-4.31-9.84-4.4-10.69-12.46-32.38-18.04-59.58-3.86-16.47-5.65-30.01-5.48-41.39,.01-.93,.03-1.91,.06-2.91-.6-26.75,3.42-52.69,6.91-69.8,3.62-20.08,8.06-33.98,13.58-42.49v-.02c5.47-9,15.5-21.4,32.44-29.94,8.44-4.91,21.18-10.67,34.51-10.67,.63,0,1.26,.01,1.89,.04,4.58-7.39,10.24-20.31,14.04-30.02-5.54-9.18-7.15-17.83-4.77-25.77,2.09-6.96,6.74-11.45,10.6-14.11,1.23-6.38,4.08-14.08,6.66-20.26,5.38-12.89,9.43-18.79,12.18-21.67-2.34-3.38-3.59-7.37-3.97-10.77l-.57-5.16,9.88-8.74-3.41-.68,24.16-22.55c.69-2.68,1.89-6.7,3.85-11.48l-10.19-6.37,3.09,.44,11.19-2.8c2.85-5.37,6.56-11.14,11.37-16.75,2.89-3.37,6.21-6.14,9.9-8.28l.68-2.28c.16-.52,.88-2.72,2.74-5.57-2.39-3.78-2.51-8.63-.33-13.31,2.26-4.84,10.32-16.23,36.91-20.52,9.44-23.41,36.63-63.79,111.94-64.84l28.1-2.03c7.29-4.78,28.62-16.4,63.67-16.4,2.72,0,5.49,.07,8.27,.21,7.96-5.03,29.97-17.07,58.42-17.07,18.79,0,36.86,5.24,53.71,15.56,18.92,11.6,36.3,29.7,51.72,53.86,9.55,.17,26.51,1.81,43.94,9.91,23.17,10.76,39.61,29.79,47.67,55.12,9.34,.7,25.58,3.22,41.51,11.98,17.71,9.74,39.38,29.77,44.47,70.22l40.14,19.75-8.34,4.17c24.7,44.13,47.91,89.41,52.87,123.65l.23,1.58-.28,1.57c-.06,.34-.4,2.16-1.9,8.31,9.44,15.12,21.32,43.58,13.85,67.78,1.61,3.81,3.6,9.71,4.11,16.64,1.09,14.59-4.88,27.41-16.88,36.58-1.67,12.23-7.59,42.53-26.03,54.33-1.49,7.72-5.4,17.1-10.95,28.8-1.87,13.37-7.69,24.91-17.31,34.34l-3.4,5.43-4.77-2.22c-1.62,3.16-3.58,6.07-5.96,8.45l-20.99,20.99,.95-6.93c-1.66,.89-3.46,1.67-5.4,2.31-1.42,3.74-2.91,7.42-4.46,10.91-.21,.66-.42,1.36-.63,2.08-2.1,7.18-2.07,9.96-2.05,10.42,.12,.52,.22,1.09,.3,1.72,.02,.18,.04,.38,.06,.57,.04,.35,.07,.74,.09,1.17,0,.19,.02,.4,.03,.61,.01,.32,.02,.67,.02,1.03v.52c0,.51-.02,.99-.04,1.48-.01,.25-.03,.53-.04,.8-.02,.3-.03,.61-.06,.94-.02,.28-.13,1.59-.13,1.59-.03,.38-.15,1.52-.15,1.52-.1,.95-.21,1.95-.34,2.99l-.4,2.92c-.1,.72-.21,1.44-.32,2.17l-9.9-1.4,9.88,1.52-.03,.18c-.28,1.83-.61,3.79-.97,5.85,.75,1.99,1.21,3.89,1.37,5.74,2.67,13.57-6.49,27.8-8.39,30.57l-24.29,35.34,.61-6.72-9.6,14.39,2.31-19.27c-8.5,6.74-15.45,11.59-20.71,14.45l-1.82,1.49c-.03,.06-.51,1.01-.51,1.01l-.47,.88c-.18,.33-.35,.64-.52,.94l-.58,1.01-.26,.44c-.16,.26-.35,.57-.54,.88l-.21,.33c-2.43,4.56-6.19,8.8-11.18,12.59-.3,.23-.61,.46-.93,.69-.74,1.51-1.31,2.42-1.53,2.74l-.99-.66c.13,1.65,.3,2.96,.46,3.5,0,0-.18-.58-.7-1.36l-.9,.68-2.91,11.91c-.5-.08-1.01-.18-1.51-.31-2.84,20-10.45,52.97-30.78,89.49-1.83,3.29-3.76,6.6-5.73,9.83-10.5,17.17-24.38,36.52-41.28,57.5-.06,.16-.12,.32-.17,.48-1.92,5.12-6.49,11.21-14.77,19.63-5.2,9.44-8.04,20.94-9.53,29.06-1.48,8.09-1.84,13.99-1.84,14.05l-2.62,45.29-16.66-42.18c-1.29-3.28-2.25-6.8-2.87-10.56-12.57,13.53-22.42,23.53-27,28.11-2.86,2.86-6.23,5.76-9.78,8.83-1.67,1.44-3.38,2.91-5.15,4.48-3.99,5.82-9.31,10.2-13.5,13.06-7.31,7.89-13.64,16.4-19.33,25.98-8.27,13.9-21.82,25.07-40.28,33.18l-4.83,2.12-4.48-2.78c-5.06-3.14-10.42-6.12-16.04-8.92v.73l-5.36,2.98-1.15,.6-.95,.48-1.24,.6-1.22,.58c-.32,.15-1.69,.77-1.69,.77l-1.1,.49-1.8,.78c-.44,.19-.9,.38-1.38,.58l-.94,.39-1.8,.73c-.74,.3-1.54,.61-2.36,.92l-.5,.19c-2.43,.93-5.03,1.87-7.71,2.79l-1.9-5.56v.05s1.89,5.51,1.89,5.51c-2.16,.74-4.22,1.42-6.28,2.07-9.99,3.15-20.78,5.94-32.09,8.3l-3.78,.77c-.84,.17-3.45,.67-3.45,.67l-1.19,.23-.67,.12c-1.36,.25-2.7,.49-4.07,.73l-.57,.1c-1.48,.25-3.01,.51-4.56,.76l-1.38,.22c-1.38,.22-2.77,.43-4.19,.64l-.77,.12c-1.62,.24-3.27,.47-4.95,.69l-1.34,.18c-1.48,.19-2.94,.38-4.41,.56l-.95,.12c-1.77,.21-3.55,.41-5.34,.61l-1.34,.14c-1.52,.16-3.06,.31-4.61,.46l-1.14,.11c-1.88,.17-3.77,.34-5.68,.49l-1.26,.1c-1.62,.13-3.26,.25-4.92,.36l-1.32,.09c-1.99,.13-3.99,.25-6.02,.37l-1.14,.06c-1.75,.09-3.5,.17-5.26,.25l-1.5,.06c-2.11,.08-4.22,.16-6.36,.22l-.97,.02c-1.86,.05-3.76,.09-5.68,.12l-1.67,.03c-2.21,.03-4.43,.05-6.69,.05h-1.1Z"/><path class="z" d="M873.93,444.03c9.83-23.34-5.34-54.51-13.78-66.48,2.44-9.78,2.81-11.89,2.81-11.89-4.71-32.57-27.21-76.59-53.19-122.86l-8.81-3.9,4.86-2.43-27.01-13.29c-6.85-82.5-84.27-78.96-84.27-78.96l-1.22-4.64c-19.2-65.36-88.22-60.07-88.22-60.07-70.07-115.43-155.58-52.25-155.58-52.25-47.5-3.36-71.22,15.78-71.22,15.78l-31.14,2.25c-76.82,.97-99.15,45.08-105.28,64.69-.82-.16-1.62-.31-2.42-.42-27.94,3.66-34.87,15.82-32.8,19.07-.29-5.08,10.73-10.91,23.23-12.78-9.24,5.99-10.26,13.59-10.26,13.59-12.16,4.86-14.59,12.97-14.59,12.97,8.92-10.54,18.65-3.24,18.65-3.24l-9.73,3.24c6.79,.38,9.36,2.68,10.18,5.04-8.02-1.65-21.85-2.3-31.67,9.15-14.59,17.03-17.84,35.67-17.84,35.67l-12.16,11.35,4.05,.81-21.08,18.65s.81,7.3,5.68,8.92c0,0,2.43,5.68-3.24,8.92-5.68,3.24-18.65,34.86-17.84,42.16,0,0-21.89,8.11-4.05,32.43,0,0-11.73,31.83-20.56,41.88-.49-.08-.98-.16-1.48-.24-10.45-1.69-23.12,2.22-34.81,9.07-15.17,7.57-24.09,18.77-28.75,26.49-.01,.02-.03,.04-.04,.05-5.22,8.02-9.22,22.57-12.18,38.99-3.98,19.44-7.29,44.16-6.73,67.92-.03,1.05-.05,2.08-.06,3.05-.17,11.61,1.99,25.19,5.25,39.09,4.88,23.86,11.99,44.52,17.64,58.21,0,.02,.01,.04,.02,.06,1.06,3.12,2.37,6.04,3.86,8.79,1.5,3.2,2.77,5.6,3.66,7.03,2.77,4.48,11.27,12.66,21.06,19.17-1.1,16.51-3.13,46.17-5.1,70.73-10.48,33.73-23.26,73.48-36.2,110.35l-.11,.32-7.25,20.27-.11,.28h0c.16,2.12,.33,4.2,.51,6.28,.06,.66,.11,1.31,.17,1.97,.12,1.43,.25,2.85,.38,4.26,.07,.75,.14,1.49,.21,2.24,.13,1.32,.25,2.64,.39,3.95,.08,.75,.15,1.5,.23,2.24,.14,1.33,.28,2.66,.42,3.98,.07,.68,.15,1.36,.22,2.04,.17,1.48,.34,2.96,.51,4.43,.06,.5,.12,1,.17,1.49,.47,3.96,.97,7.86,1.5,11.71,.07,.49,.14,.98,.2,1.47,.2,1.42,.4,2.83,.6,4.24,.09,.59,.17,1.18,.26,1.77,.19,1.3,.39,2.6,.59,3.89,.09,.61,.19,1.21,.28,1.81,.2,1.3,.41,2.6,.62,3.88,.09,.55,.18,1.1,.27,1.65,.24,1.46,.49,2.91,.74,4.36,.06,.35,.12,.71,.18,1.06,.32,1.83,.64,3.65,.98,5.46,0,.04,.01,.07,.02,.11,.31,1.71,.64,3.41,.96,5.1,.1,.52,.2,1.03,.3,1.54,.23,1.2,.47,2.4,.71,3.59,.13,.63,.26,1.25,.38,1.88,.22,1.07,.44,2.14,.67,3.2,.14,.65,.28,1.31,.42,1.96,.22,1.03,.45,2.06,.67,3.08,.1,.44,.19,.89,.29,1.32,.04,.18,.08,.36,.12,.54,.84,3.76,1.71,7.45,2.6,11.08,.06,.24,.12,.47,.18,.71,8.82,35.62,19.99,64.84,32.08,88.76,.06,.12,.12,.23,.18,.35,.62,1.23,1.25,2.44,1.88,3.65,.09,.18,.18,.36,.28,.53,.66,1.26,1.33,2.51,2,3.74,.12,.22,.23,.43,.35,.64,.56,1.02,1.12,2.03,1.68,3.04,.16,.28,.31,.56,.47,.83,.64,1.14,1.29,2.27,1.93,3.38,.15,.25,.29,.5,.44,.75,.53,.9,1.05,1.79,1.58,2.67,.19,.32,.38,.64,.57,.96,.63,1.05,1.27,2.09,1.91,3.12,.15,.25,.31,.49,.46,.74,.52,.83,1.04,1.65,1.56,2.46,.21,.33,.42,.65,.63,.98,.64,.99,1.27,1.97,1.91,2.93,.13,.2,.27,.4,.4,.6,.54,.81,1.08,1.62,1.62,2.41,.2,.3,.41,.6,.61,.9,.65,.94,1.3,1.88,1.95,2.8,.08,.12,.17,.23,.25,.35,.6,.84,1.19,1.67,1.79,2.49,.19,.26,.37,.51,.56,.77,.67,.91,1.34,1.82,2.01,2.71,26.34,34.99,52.26,50.61,65.12,56.74h0s.01,.01,.02,.01c5.25,2.5,8.33,3.43,8.33,3.43,1.14,.14,1.37-.2,1.07-.79,1.4,.33,2.83,.63,4.29,.92l1.12,.68,11.35,1.62c17.99,1.86,31.28,2.06,47.04,2.44,2.34,.06,4.64,.1,6.93,.12,.59,0,1.19,.01,1.78,.02,2.07,.02,4.13,.03,6.16,.03,.21,0,.43,0,.64,0,2.21,0,4.4-.02,6.56-.05,.55,0,1.1-.02,1.64-.03,1.88-.03,3.75-.07,5.59-.12,.31,0,.63-.01,.94-.02,2.1-.06,4.18-.13,6.23-.21,.5-.02,.99-.04,1.48-.06,1.73-.07,3.45-.16,5.15-.24,.38-.02,.76-.04,1.14-.06,1.99-.11,3.95-.23,5.89-.36,.44-.03,.87-.06,1.3-.09,1.62-.11,3.23-.23,4.82-.36,.41-.03,.82-.06,1.23-.1,1.87-.15,3.72-.31,5.55-.48,.38-.04,.76-.07,1.14-.11,1.52-.15,3.03-.3,4.52-.45,.44-.05,.87-.09,1.31-.14,1.76-.19,3.49-.39,5.2-.59,.32-.04,.63-.08,.95-.12,1.44-.18,2.87-.36,4.28-.54,.45-.06,.9-.12,1.34-.18,1.64-.22,3.26-.45,4.85-.68,.25-.04,.49-.07,.74-.11,1.38-.2,2.74-.41,4.09-.63,.45-.07,.9-.14,1.35-.22,1.51-.24,3-.49,4.47-.74,.18-.03,.35-.06,.53-.09,1.34-.23,2.65-.47,3.95-.71,.22-.04,.45-.08,.67-.12,.39-.07,.78-.15,1.16-.22,.31-.06,.63-.12,.94-.18,.81-.16,1.61-.31,2.41-.47,.23-.05,.46-.09,.69-.14,.95-.19,1.89-.38,2.83-.58,.06-.01,.13-.03,.19-.04,12.28-2.57,22.65-5.38,31.12-8.05,2.14-.68,4.15-1.34,6.05-1.99,0,0,.02,0,.02,0h0c2.72-.93,5.19-1.83,7.42-2.68,.15-.06,.31-.12,.46-.18,.78-.3,1.54-.6,2.26-.88,.19-.08,.39-.15,.58-.23,.38-.15,.76-.31,1.13-.46,.3-.12,.59-.24,.88-.36,.45-.19,.89-.37,1.32-.55,.27-.11,.53-.23,.79-.34,.31-.13,.61-.26,.89-.39,.35-.15,.68-.3,1-.44,.2-.09,.39-.18,.58-.26,.37-.17,.72-.33,1.05-.48,.14-.06,.26-.12,.38-.18,.26-.12,.51-.24,.74-.35,.1-.05,.21-.1,.3-.14,.29-.14,.55-.27,.8-.39,.08-.04,.16-.08,.23-.12,.23-.12,.45-.22,.63-.32,.03-.02,.06-.03,.09-.04,.17-.09,.31-.16,.43-.22,.03-.02,.06-.03,.09-.05,.12-.06,.21-.11,.28-.15,.03-.02,.03-.02,.05-.03,.04-.02,.07-.04,.07-.04v-10.37c12.09,5.01,22.47,10.45,31.32,15.95,12.87-5.66,27.17-14.79,35.71-29.14,7.09-11.93,14.43-21.12,21.4-28.54,3.87-2.53,9-6.59,12.4-12,6.07-5.41,11.42-9.71,15.49-13.77,5.19-5.19,23.31-23.5,44.84-47.77-.24,1.27-.47,2.55-.66,3.82-1.57,10.43-1.44,20.93,2.07,29.8,0,0,.36-6.39,1.99-15.28,1.8-9.84,5.15-22.72,11.32-33.35,6.95-6.98,11.9-12.9,13.45-17.05,.21-.56,.4-1.16,.58-1.79,15.15-18.73,30-38.74,41.71-57.91,1.95-3.18,3.79-6.34,5.52-9.47,22.56-40.55,28.8-76.54,30.52-93.4,1.43-3.11,1.94-7.7,1.94-7.7-.81,4.05,4.05,9.73,4.05,9.73-1.62-2.43-1.62-12.16-1.62-12.16,0,8.11,7.7,9.32,7.7,9.32-4.86-1.62-4.86-9.73-4.86-9.73,0,0,.83-1.25,1.86-3.83,.86-.56,1.84-1.23,2.87-2.02,3.05-2.32,6.52-5.62,8.59-9.68,.09-.14,.19-.29,.28-.43,.04-.06,.08-.13,.12-.19,.15-.25,.31-.49,.45-.74,.07-.11,.13-.22,.19-.33,.11-.18,.21-.36,.32-.54,.06-.1,.12-.21,.18-.31,.14-.25,.28-.49,.41-.74,.07-.13,.13-.25,.2-.37,.07-.13,.14-.27,.21-.4,.07-.14,.14-.27,.21-.41,.05-.1,.09-.19,.14-.28,.16-.32,.31-.62,.45-.91,0-.02,.02-.03,.02-.05,.03-.07,.07-.14,.1-.2,.14-.29,.26-.56,.37-.81,0,0,0-.02,.01-.03,0-.01,.01-.03,.02-.04l4.34-3.55c6.37-3.28,15.3-10.02,23.05-16.31,3.82-2.96,7.8-6.25,11.6-9.76,2.82-2.45,4.58-4.04,4.58-4.04h0s-.35,2.89-.35,2.89l2.83-4.24c1.48-2.23,4.55-4.54,4.58-4.57l.27-.2,.27-.69-.48,5.25,2.63-3.83c.37-.55,9.12-13.42,6.7-23.54-.04-1.79-.77-3.81-1.82-5.84,.5-2.74,1.02-5.73,1.48-8.68,.01-.09,.03-.17,.04-.26,.11-.7,.21-1.39,.31-2.08,.04-.3,.08-.59,.12-.88,.05-.33,.09-.65,.13-.98,.04-.3,.08-.6,.12-.89,.12-.96,.23-1.89,.32-2.79,.01-.11,.02-.22,.03-.33,.03-.34,.07-.68,.1-1.01,.02-.2,.03-.4,.05-.59,.02-.28,.05-.55,.06-.82,.02-.28,.03-.55,.05-.81,.01-.22,.03-.44,.03-.65,.02-.39,.03-.76,.03-1.12,0-.14,0-.28,0-.41,0-.26,0-.52-.01-.76,0-.13-.01-.26-.02-.39-.01-.24-.03-.46-.05-.68-.01-.1-.02-.2-.03-.29-.04-.29-.08-.56-.14-.8-.86-3.45,.62-10.02,2.21-15.43,.38-1.31,.77-2.54,1.13-3.65-.06,.28-.09,.43-.09,.43,7.89-17.66,14.16-40.63,16.66-50.4,3.08,18.26-6.93,34.18-6.93,34.18,20.68-6.08,18.24-34.46,18.24-34.46,6.49,2.43,4.05,20.27,4.05,20.27,8.92-8.92,10.54-31.62,10.54-31.62,6.49,3.24-1.22,27.16-1.22,27.16l4.05-6.49c9.67-9.09,14.17-19.8,15.42-30.83,6.06-12.69,11.34-24.74,11.34-32.41,21.89-8.11,25.94-53.51,25.94-53.51,28.38-17.84,11.35-47.03,11.35-47.03ZM206.16,168.72c-1.14-.32-2.44-.82-3.96-1.58l11.35-2.43s0,1.72-1.11,3.02l-6.81-.86,.53,1.85Zm20.39-9.62c.36,.1,.74,.21,1.15,.33l.1,.16c-.42-.17-.83-.34-1.25-.48-1.98-.56-3.26-.88-3.26-.88,1.06,.18,2.15,.48,3.26,.88Zm-24.35-4.12c.81-1.62,8.11-4.05,8.11-4.05l3.24,4.05s-12.16,1.62-11.35,0Zm-1.62,25.95c5.68-4.86,8.92,1.62,8.92,1.62l.8,.53,.71,2.47-.7,1.05-5.68-.81,6.49,4.05c-4.05-2.43-17.03-2.43-19.46-.81-2.43,1.62-5.68,1.62-5.68,1.62,0-7.3,14.59-9.73,14.59-9.73Zm-9.73-12.16l3.24,3.24-3.24,.81,3.24,1.62c-4.86,0-11.35,8.92-12.16,8.92-5.68,0,8.11-13.78,8.92-14.59Zm586.74,437.56l3.32-8.82s.01,.08,.02,.12l-3.35,8.71Z"/></g><g id="h"><path class="p" d="M73.69,622.4s-5.68,88.38-8.91,115.94c12.97,10.54,15.4-28.38,15.4-28.38l22.7-75.4-29.19-12.16Z"/><path class="ad" d="M408.55,1002.65v111.89s-55.91,31.19-170.25,28.39c-22.24-4.38-42.63-8.12-61.64-16.22-.02,0,0,0,0,0,0,0-4.05-1.62-4.05-1.62-6.8-2.89-9.01-4.02-15.4-7.3-20.99-10.71-40.43-26.42-57.26-39.91-32.89-43.69-66.39-117.56-75.85-240.83h0s.11-.29,.11-.29c2.42-6.62,4.83-13.39,7.25-20.27l.11-.32c30.84-87.86,60.78-192.14,60.78-192.14l252.15,47.84,64.05,330.8Z"/><path class="ak" d="M140.18,1039.95s16.5,90.51,104.33,60.26,78.1-83.77,78.1-83.77l-91.05-92.02-76.78-26.35-14.59,141.89Z"/><path class="n" d="M125.99,772.8s-26.76,141.08-6.49,197.83c20.27,56.75,20.27,105.4,20.27,105.4,0,0,48.65-158.1,30-223.78-18.65-65.67-43.78-79.46-43.78-79.46Z"/><path class="n" d="M291.39,1017.65l-57.97,96.89s72.16-43.78,94.86-30.81c21.08,.81-36.89-66.08-36.89-66.08Z"/><path class="p" d="M181.93,914.68l-10.13,131.75c9.56,20.82,27.81,27.34,55.13,25.95,0,0,30.4-45,50.67-47.43,20.27-2.43,28.38,0,28.38,0l-62.43-100.54-61.62-9.73Z"/><path class="n" d="M85.85,634.56s25.95,56.75-7.3,218.91c30.81,85.13,47.84,137.83,47.84,137.83l47.32-88.28-33.37-279.01-54.49,10.55Z"/><path class="x" d="M209.92,933.53s-3.26,40.75-5.69,55.34-1.62,31.62,5.68,35.67c7.3,4.05,7.3,4.86,14.59,4.86,18.65-12.16,58.38-47.84,58.38-47.84,0,0-55.91-52.3-72.95-48.04"/><path class="p" d="M111.68,625.45s-23.76,144.3-14.96,168.06c8.8,23.76,76.11,142.05,79.85,162.09,3.74,20.04,8.14,26.2,8.14,26.2l9.68-6.16,22-119.66s-52.79-241.96-104.7-230.53Z"/><path class="ad" d="M805.33,392.91s-30.32,202.73-31.13,210.84c-.81,8.11-7.91,39.99-7.91,39.99,0,0-1.47,3.86-2.86,8.63-1.58,5.41-3.06,11.98-2.21,15.43,1.62,6.49-4.86,36.49-4.86,36.49l-8.86,16.78-3.55,6.73s-30.56,27.57-42.72,31.63c0,0-4.86,12.97-12.16,16.22l-18.65,7.3s0,14.59-5.68,22.7c0,0,.18,4.37-.08,10.52-.52,12.6-2.82,32.67-12.08,38.12,0,0-8.11,23.51-23.51,44.59s-31.62,42.97-35.67,53.51c0,0-5.68,12.97-31.62,37.3l-5.68,9.73-135.4,67.29-183.24-107.83-41.35-271.61,68.11-294.31,109.57-55.36,46.1-23.29,68.24-99.21,179.05,26.24,138.15,151.58Z"/><path class="n" d="M805.33,392.91s-30.32,202.73-31.13,210.84c-.81,8.11-7.91,39.99-7.91,39.99,0,0-1.47,3.86-2.86,8.63-1.58,5.41-3.06,11.98-2.21,15.43,1.62,6.49-4.86,36.49-4.86,36.49l-8.86,16.78-4.11-59.75c25.13-21.08,15.4-142.7,4.86-169.45-32.38-8.31-14.59-39.73-46.21-98.92-31.62-59.19-71.35-73.78-71.35-73.78l26.76,38.92s-38.11-19.46-60.81-19.46-71.35-64.86-98.92-67.29c-27.57-2.43-123.94,66.26-123.94,66.26l46.1-23.29,68.24-99.21,179.05,26.24,138.15,151.58Z"/><path class="ad" d="M245.58,436.73s-97.29,323.5-116.75,328.37c0,0-17.84-8.92-12.16-46.21,4.59-30.15,9.71-63.48,11.5-75.14,.3-1.91,.5-3.24,.6-3.88,.04-.28,.06-.43,.06-.43l-.79,.62c-7.16,1.77-28.27,6.6-36.02,4.07-9.4-3.06-38.21-16.08-47.72-44.03-9.51-27.96-23.33-68.65-22.9-97.36,.19-12.75,1.37-31.91,3.79-51.03,3-23.92,7.92-47.76,15.19-58.93,13.07-20.09,42.75-38.99,63.59-35.62,20.83,3.36,32.18,7.42,32.18,7.42l26.39-5.49,1.18,.63,24.32,12.96,57.57,64.05Z"/><path class="r" d="M136.12,499.97s22.7-10.54,13.78-78.65c0,0,21.89,30.81,32.43,24.32,10.54-6.49,13.78,12.97,13.78,12.97,0,0-23.51,34.86-31.62,36.49,0,0-2.03-12.57,8.51-19.05,0,0-28.38,23.51-36.89,23.92Z"/><path class="ap" d="M75.72,565.24s-24.32-17.03-29.19-51.08,23.51-69.73,29.19-72.97,15.4-11.35,33.24,4.86,44.59,16.22,44.59,16.22l-3.24,11.35s-29.19,0-37.3-7.3c0,0-6.49,11.35-18.65,2.43-12.16-8.92-19.46,2.43-19.46,8.92s-8.97,30.81-1.65,53.11l23.54,19.86s14.97,22.35,19.65,24.96c4.68,2.61,16.81,7.73,19.66,5.17s10.93-19.8,0-41.18c0,0-2.82-16.52,1.23-23.81s4.86-15.4,12.16-14.59,15.4-9.73,17.03-18.65,11.35-15.4,9.73-18.65-9.71-14.67-22.69-13.41c0,0,.8-52.26-20.28-67.66-21.08-15.4-32.43-11.35-41.35-3.24s-33.24,25.95-33.24,25.95l-7.17,14.61s-44.72,116.74,24.19,145.12Z"/><path class="r" d="M136.12,587.53s-30.81,.81-40.54-11.35-30.81,21.89-30.81,21.89c0,0,23.51-6.49,27.57,0s26.76,8.11,35.67,8.92,8.11-19.46,8.11-19.46Z"/><path class="x" d="M115.04,466.73s12.97,5.68,21.08,4.86c8.11-.81,12.16-2.43,12.16-2.43,0,0-1.62,10.54,0,14.59s-8.92,18.65-16.22,20.27c-7.3,1.62-2.03-10.13-.41-11.76s8.11-3.24,8.92-6.49-4.05-6.49-4.05-6.49c0,0-21.08,4.86-27.57,11.35,0,0,14.59-12.97,6.08-23.92Z"/><path class="ap" d="M137.74,585.91s-15.4,7.3-28.38,2.43c0,0-3.24,16.22,8.11,20.27,11.35,4.05,14.59,0,14.59,0l5.68-22.7Z"/><path class="x" d="M136.12,520.24s-4.05,17.84,1.62,21.08c0,0-13.78-2.43-13.78-7.3s2.43-11.35,4.86-12.16,7.3-1.62,7.3-1.62Z"/><path class="x" d="M158.82,491.05s4.05,8.92-8.92,9.73c0,0,8.11-4.86,8.92-9.73Z"/><path class="ae" d="M185.49,430.48s-25.05,2.19-30.72-11.59c-5.68-13.78,6.49-46.21-52.7-54.32-59.19-8.11-73.78,111.89-73.78,111.89l-3.12-24.76c3-23.92,7.92-47.76,15.19-58.93,13.07-20.09,42.75-38.99,63.59-35.62,20.83,3.36,32.18,7.42,32.18,7.42l26.39-5.49,1.18,.63c10.12,21.08,25,55.68,21.79,70.77Z"/><path class="ae" d="M139.37,538.08s1.62-15.4,9.73-19.46c8.11-4.05,16.22-13.78,15.4-21.08l-20.27,6.49s-7.3,17.84-8.11,18.65c0,0-.81,10.54,3.24,15.4Z"/><path class="ae" d="M63.15,499.97c-1.71,1.83,4.59,33.77,21.08,47.84,0,0-8.92,1.62-21.08-21.89-12.16-23.51,0-25.95,0-25.95Z"/><path class="ae" d="M128.01,579.43s-22.7-2.43-26.76-18.65l-8.92-10.54s-2.43,18.65,8.92,25.95c11.35,7.3,19.46,8.92,26.76,3.24Z"/><path class="ae" d="M78.56,568.07c.92-2.77-26.76-3.24-38.11-38.92,0,0-.81,36.49,21.89,43.78,0,0,13.78,2.43,16.22-4.86Z"/><path class="af" d="M101.26,603.75s-16.22,4.86-30-5.68c0,0,20.27,15.4,30,17.84,0,0-3.24-10.54,0-12.16Z"/><path class="ae" d="M149.91,468.35c-4.05,1.62-8.92,4.05-21.89,0-12.97-4.05-48.65-2.43-53.51,8.92s-26.76,13.78-22.7,0,29.19-51.89,40.54-42.97c11.35,8.92,33.24,30,43.78,28.38s13.78,0,13.78,0v5.68Z"/><path class="o" d="M196.12,445.65c-5.12-9.7-10.7-19.13-16.73-28.24-3-4.56-6.11-9.04-9.39-13.39-3.26-4.36-6.64-8.62-10.22-12.71-7.16-8.12-14.93-15.78-23.87-21.63-4.43-2.95-9.16-5.4-14.12-7.06-2.48-.82-5.01-1.44-7.57-1.8l-1.92-.22-1.93-.12c-1.32-.04-2.67-.04-4.01-.07-5.35,.01-10.7,.43-15.94,1.36-5.24,.94-10.37,2.4-15.29,4.38-9.82,3.98-18.67,10.25-25.63,18.23-3.48,3.98-6.51,8.38-8.93,13.04-1.17,2.2-2.03,4.73-2.9,7.27-.85,2.54-1.62,5.14-2.36,7.75-2.91,10.45-5.18,21.12-7.01,31.85-1.83,10.73-3.16,21.55-3.91,32.39-.77,10.84-.95,21.72-.22,32.53,.76,10.77,2.46,21.59,4.58,32.25,2.15,10.67,4.84,21.24,8.02,31.66,3.17,10.42,6.89,20.69,11.14,30.69,1.07,2.49,2.18,4.97,3.38,7.38l.91,1.8,.96,1.71c.62,1.08,1.4,2.09,2.24,3.1,3.41,4.03,7.47,7.69,11.66,11.06,4.22,3.36,8.68,6.45,13.39,9.04,4.7,2.55,9.7,4.73,14.86,5.37,1.28,.15,2.56,.18,3.82,.07l4.06-.42c2.71-.29,5.41-.65,8.1-1.05,5.38-.8,10.77-1.79,16.03-3.06h0s1.51-.37,1.51-.37l-.21,1.49-2.97,21.02-.99-.11,1.9-21.14,1.3,1.12h0c-5.37,1.42-10.75,2.52-16.18,3.46-2.72,.46-5.44,.89-8.18,1.24-1.37,.19-2.74,.33-4.11,.49-1.47,.15-2.95,.14-4.39,0-2.88-.3-5.65-1.05-8.31-2.01-2.66-.96-5.21-2.14-7.68-3.45-4.94-2.62-9.58-5.72-13.98-9.12-4.39-3.43-8.58-7.08-12.33-11.36-.92-1.08-1.85-2.23-2.62-3.52l-1.08-1.86-.98-1.86c-1.28-2.48-2.45-4.99-3.58-7.51-2.24-5.05-4.3-10.18-6.21-15.35-.98-2.58-1.85-5.19-2.78-7.79-.86-2.62-1.75-5.23-2.57-7.86-3.3-10.52-6.11-21.2-8.37-32-2.24-10.82-4.04-21.69-4.91-32.78-.83-11.07-.75-22.16-.02-33.18,.74-11.03,2.07-22,3.89-32.88,1.84-10.88,4.1-21.69,7.06-32.37,.75-2.67,1.52-5.33,2.41-7.99,.9-2.64,1.81-5.33,3.2-7.98,2.64-5.06,5.89-9.74,9.63-14.01,7.47-8.54,17-15.26,27.51-19.49,5.26-2.11,10.72-3.64,16.27-4.63,5.55-.97,11.18-1.4,16.78-1.41,1.41,.03,2.79,.03,4.21,.08,.72,.05,1.45,.09,2.17,.16l2.16,.26c2.86,.43,5.67,1.15,8.38,2.08,5.42,1.88,10.48,4.57,15.13,7.74,4.64,3.2,8.93,6.82,12.93,10.7,4.01,3.87,7.73,8,11.23,12.3,7.01,8.58,13.15,17.78,18.75,27.26,5.52,9.52,10.59,19.3,14.79,29.44Z"/><path class="o" d="M70.85,563.62s-37.3-14.59-30.81-67.29c3.15-25.57,5.72-50.94,10.41-71.68,4.97-22.01,12.33-38.81,25.27-45.07,25.13-12.16,64.05-21.89,73.78,27.57,9.73,49.46,0,56.75,0,56.75,0,0,9.73-34.86-7.3-63.24-17.03-28.38-32.43-30.81-39.73-21.08-7.3,9.73-44.59,33.24-44.59,33.24l-4.05,17.03,5.68-5.68s-2.43,21.08-5.68,27.57-10.54,20.27-11.35,47.84,.81,39.73,28.38,64.05Z"/><path class="x" d="M140.18,572.13s2.43,12.16-11.35,8.11-17.84-6.49-26.76-19.46c-8.92-12.97-16.22-12.16-20.27-15.4s-21.89-34.05-10.54-60l4.86,5.68s-12.57,19.05,3.65,44.19c0,0,6.49,8.11,12.16,10.54,5.68,2.43,15.4,13.78,17.03,19.46s28.38,23.51,31.22,6.89Z"/><path class="n" d="M136.12,364.57s-.06-.2,.09-.2c-.06,.14-.09,.2-.09,.2Z"/><path class="n" d="M593.4,850.23v21.08l-15.36,69.52c.48-2.59,5.32-29.26-.85-34.66,0,0-11.35,7.3-17.84-.81-6.49-8.11-6.49-25.95-6.49-25.95,0,0-12.16-9.73-26.76-7.3-14.59,2.43-51.08,2.43-83.51-11.35-32.43-13.78-77.84,12.16-71.35,35.67,6.49,23.51,43.78,24.32,55.13,26.76s46.21,31.62,46.21,31.62l38.11,30s-2.43,22.7,12.97,23.51,17.03-21.89,17.03-21.89l15.4,12.97-62.43,43.78-46.21,47.03s-18.65,19.46-62.43,4.05c-43.78-15.4-54.32-17.84-81.89-40.54-27.57-22.7-82.7-64.86-144.32-167.02,0,0-50.27-82.7-49.46-116.75,0,0,13.78-17.03,20.27-47.03,6.49-30,28.38-121.62,54.32-170.26,25.95-48.65,42.97-92.43,39.73-103.78s-12.16-15.4-22.7,0c-10.54,15.4-4.86-12.97-35.67-51.08-24.45-30.23-34.25-30.79-34.86-30.81,2.67-5.94,70.12-144.68,124.05-160.53,55.13-16.22,227.83-12.16,255.4,15.4,27.57,27.57,36.49,51.89,36.49,51.89l-52.7-35.67,6.12,52.33,1.32,11.3,1.48,12.58s-1.11,.26-3.17,.79h0c-2.48,.64-6.35,1.68-11.35,3.16-5.12,1.52-11.44,3.5-18.67,6-50.13,17.26-144.45,58.87-193.01,139.23-68.11,112.7-81.89,244.86,47.03,389.99,0,0,55.13-50.27,104.59-38.92s92.43,15.4,118.37,5.68l47.03,30Z"/><path class="p" d="M483.95,229.98s60.34,32.27,68.92,38.11c0,0-10.32-12.85-15.4-21.08-10.53-17.46-39.29-47.3-85.94-55.94-.33-.06-.68-.12-1.01-.18-14.42-3.58-30.97-5.67-49.96-5.53-9.49-.51-19.27-.78-29.17-.78-11.3,0-22.74,.35-34.04,1.08-72.11,1.26-115.03,10.45-157.43,79.19-53.51,86.75-70.54,94.86-70.54,94.86,3.37-.64,26.07,7.13,33.24,13.78,0,0,55.94-103.78,137.83-130.54,0,0-17.41-3.42-35.67,4.32,15.02-12.54,77.83-48.91,251.88,16.23,.08,.15-12.7-33.53-12.7-33.53Z"/><path class="ao" d="M243.15,142.41s-2.43,9.73,9.73,15.4c12.16,5.68,8.92,1.62,8.92,1.62,0,0-12.16-.81-18.65-17.03Z"/><path class="p" d="M501.12,301.72c-88.31-56.95-198.79-61.2-198.79-61.2,0,0,89.19-14.59,196.21,37.3l2.58,23.9Z"/><path class="ao" d="M588.54,271.33l-120-47.03,17.03-17.03,87.2,33.72s20.63,24.66,15.77,30.33Z"/><path class="x" d="M873.93,444.03c9.83-23.34-5.34-54.51-13.78-66.48,2.44-9.78,2.81-11.89,2.81-11.89-4.71-32.57-27.21-76.59-53.19-122.86l-8.81-3.9,4.86-2.43-27.01-13.29c-6.85-82.5-84.27-78.96-84.27-78.96l-1.22-4.64c-19.2-65.36-88.22-60.07-88.22-60.07-70.07-115.43-155.58-52.25-155.58-52.25-47.5-3.36-71.22,15.78-71.22,15.78l-31.14,2.25c-76.82,.97-99.15,45.08-105.28,64.69-.82-.16-1.62-.31-2.42-.42-27.94,3.66-34.87,15.82-32.8,19.07-.29-5.08,10.73-10.91,23.23-12.78-9.24,5.99-10.26,13.59-10.26,13.59-12.16,4.86-14.59,12.97-14.59,12.97,8.92-10.54,18.65-3.24,18.65-3.24l-9.73,3.24c6.79,.38,9.36,2.68,10.18,5.04-8.02-1.65-21.85-2.3-31.67,9.15-14.59,17.03-17.84,35.67-17.84,35.67l-12.16,11.35,4.05,.81-21.08,18.65s.81,7.3,5.68,8.92c0,0,2.43,5.68-3.24,8.92s-18.65,34.86-17.84,42.16c0,0-21.89,8.11-4.05,32.43,0,0-14.19,38.51-23.11,44.19,0,0,21.08,0,38.11,12.97,0,0,68.92-137.02,113.51-156.48,7.4-3.23,33.68-14.62,45.08-16.94,7.86,6.75,28.93,3.63,52.22,3.16,40.54-.81,53.92,30.4,55.54,38.51,0,0,4.05-28.38,19.46-28.38s32.43,11.35,27.57,30.81c0,0,12.04-9.69,22.74-19.54,19.27,5.2,39.6,10.71,55.59,15.05-8.96,3.9-20.35,4.9-20.35,4.9,12.91,.2,20.65-1.65,25.2-3.58,3.29,.89,6.34,1.72,9.1,2.47-1.31,2.15-3.09,3.95-3.09,3.95,2.39,.48,4.21-1.58,5.3-3.34,.48,.13,.95,.26,1.4,.38-.7,8.13-13.6,13.1-13.6,13.1,5.11,.38,8.84-1.2,11.52-3.87,3.68,.99,11.71,3.18,21.68,6.02l23.95,22.58,34.05,10.54s-2.25-2.5-6.44-6.75c-7.84-1.43-2.58-2.58-2.58-2.58-1.26-1.25-2.64-2.6-4.14-4.05l-1.12-1.08c-1.23-1.17-2.53-2.41-3.91-3.69l-1.27-1.18c-1.18-1.09-2.43-2.23-3.7-3.38,15.85,5.02,30.59,10.2,37.75,14.1,19.67,10.69,11.62,17.77,56.64,64.42,45.02,46.66,51.15,164.06,51.15,164.06,30.57,63.35,14.25,137.28,14.25,137.28,10.29-23.04,17.84-55.13,17.84-55.13l-4.73,12.31,24.19-64.2,2.43-22.7c12.18,17.84,19.73,36.89,21.08,57.57,6.07-12.7,11.36-24.76,11.35-32.43,21.89-8.11,25.95-53.51,25.95-53.51,28.38-17.84,11.35-47.03,11.35-47.03ZM212.44,167.73l-6.81-.86,.53,1.85c-1.14-.32-2.44-.82-3.96-1.58l11.35-2.43s0,1.72-1.11,3.02Zm14.11-8.63c.36,.1,.75,.21,1.15,.33l.1,.16c-.42-.17-.83-.34-1.25-.48-1.98-.56-3.26-.88-3.26-.88,1.06,.18,2.15,.48,3.26,.88Zm-24.35-4.12c.81-1.62,8.11-4.05,8.11-4.05l3.24,4.05s-12.16,1.62-11.35,0Zm7.3,27.57l.8,.53,.71,2.47-.7,1.05-5.68-.81,6.49,4.05c-4.05-2.43-17.03-2.43-19.46-.81s-5.68,1.62-5.68,1.62c0-7.3,14.59-9.73,14.59-9.73,5.68-4.86,8.92,1.62,8.92,1.62Zm-18.65-13.78l3.24,3.24-3.24,.81,3.24,1.62c-4.86,0-11.35,8.92-12.16,8.92-5.68,0,8.11-13.78,8.92-14.59Zm358.87,82.3c1.41-1.94,2.42-4.25,3.13-6.72,.78,.21,1.52,.41,2.21,.6l3.47,3.27-8.81,2.85Z"/><path class="p" d="M243.15,201.6s-52.7-14.59-87.56,23.51c0,0,43.18,.81,42.27,14.19,0,0,25.03-28.78,45.3-37.7Z"/><path class="ac" d="M164.5,221.87s20.27-27.57,78.65-20.27c0,0-19.46,9.73-34.05,24.32,0,0-23.51-14.59-44.59-4.05Z"/><path class="al" d="M239.09,203.22s-51.07-8.58-72.97,16.79c0,0,18.64-7.06,27.56-7.06,0,0-13.78,4.05-16.22,7.3,0,0,27.57,.81,30,8.11,0,0,19.46-17.03,31.62-25.13Z"/><path class="l" d="M176.66,211.33s34.05-16.22,60.55-6.83l-9.42,6.28c-3.29-7.56-34.91-5.94-51.13,.55Z"/><path class="p" d="M191.38,247.7s-44.72-33.94-59.32,45.52v21.08s2.17-43.8,40-36.9l19.32-29.7Z"/><path class="al" d="M191.26,251.06s-39.94-34.64-58.08,36.6c0,0,11.05-23.62,22.4-22.81,0,0-5.68,5.68-4.05,9.73,0,0,6.49-9.73,22.7-9.73,0,0-7.3-2.43-8.11-1.62,0,0,5.3-3.5,16.84-2.56l8.3-9.6Z"/><path class="l" d="M136.21,281.99s.5-34.95,37.5-39.02c0,0-30.92,8.34-37.5,39.02Z"/><path class="n" d="M130.45,639.42l-2.29,4.31c.3-1.91,.5-3.24,.6-3.88,1.08-.27,1.69-.43,1.69-.43Z"/><path class="x" d="M587.49,254.47s32.67,37.94,52.13,46.85c19.46,8.92,43.78,34.05,43.78,34.05,0,0,48.25,60.12,50.47,80.74,2.23,20.61-4.26-99.38-4.26-99.38l-78.65-72.97-63.48,10.71Z"/><path class="x" d="M774.21,632.94s13.78-21.89,4.05-43.78c-9.73-21.89,21.89-85.94,21.89-85.94,0,0,50.27,66.48,9.73,104.59l-4.05,6.49s7.7-23.92,1.22-27.16c0,0-1.62,22.7-10.54,31.62,0,0,2.43-17.84-4.05-20.27,0,0,2.43,28.38-18.24,34.46Z"/><path class="ac" d="M243.1,113.36l6.35,4.72,18.3,13.58c7.56-21.47,25.43-40.76,35.44-50.39,.03-.06,.09-.11,.14-.17,3.75-3.58,6.36-5.77,6.88-6.21-10.57,9.8-24.82,37.29-30.59,48.97,14.55-28.2,38.59-46.55,45.04-51.12-22.51,16.59-49.06,73.7-49.06,73.7,2.01,.97,3.75,2.6,5.22,4.49h.02c4.34,5.54,6.38,13.28,6.38,13.28,14.45-16.7,29.86-48.53,44.4-76.16,14.54-27.63,39.48-42.14,39.48-42.14-13.63-.72-25.83-.3-36.76,1.03-79.4,9.65-91.27,66.41-91.27,66.41Z"/><path class="al" d="M243.1,113.36l3.92,2.92,2.43,1.8c2.65-4.7,9.51-13.52,24.01-13.71,0,0,25.45-27.5,44.85-36.59-.61,.4-7.5,5.07-14.97,13.32,3.75-3.58,6.36-5.77,6.88-6.21-10.57,9.8-24.82,37.29-30.59,48.97,13.96-27.05,36.65-45.03,44.16-50.49,.06-.05,.13-.1,.21-.15,.11-.09,.23-.17,.36-.25-22.43,16.87-48.75,73.48-48.75,73.48,.98,.47,1.9,1.1,2.73,1.84,.91,.78,1.73,1.68,2.49,2.65h.02s15.69-41.74,32.14-47.06c11.05-3.58,14.56-13.69,19.81-23.73,2.53-4.88,5.5-9.76,9.95-13.87,1.55-1.43,2.99-2.77,4.34-4,10.41-9.68,14.74-13.92,14.74-13.92l-21.87-1.11-5.61-.3c-79.4,9.65-91.27,66.41-91.27,66.41Z"/><path class="l" d="M243.1,113.36l3.92,2.92c1.78-5.37,7.99-19.78,26.19-31.68,22.84-14.94,49.88-29.01,60.38-26.81,0,0-22.84,14.94-30.11,28.76,0,0,19.08-17.92,27.92-18.26,0,0-2.84,1.55-7.03,4.69-22.43,16.87-48.75,73.48-48.75,73.48,.98,.47,1.9,1.1,2.73,1.84,5.86-12.84,22.42-47.28,34.75-55.35,6.17-4.03,13.46-8.21,19.72-12.79,2.53-4.88,5.5-9.76,9.95-13.87,1.55-1.43,2.99-2.77,4.34-4,.38-1.94,.37-3.95-.05-6.06-.8-4.02-3.49-6.91-7.08-8.97l-5.61-.3c-79.4,9.65-91.27,66.41-91.27,66.41Z"/><path class="i" d="M288.07,165.49l3.76,2.98,.05-.03c.61-.42,5.87-3.99,13.01-10.8,6.19-5.91,13.81-14.29,20.99-25.15,.03-.04,.06-.08,.09-.11,.95-1.42,1.87-2.87,2.8-4.39,0,0-.11,.42-.38,1.17-1.84,5.53-10.83,29.48-32.76,42.27,.93-.05,16.05-1,32.32,2.4s25.28-5.67,29.14-13.63c3.63-7.5,46.9-102.13,72.73-125.1,1.59-1.4,3.09-2.51,4.51-3.35,0,0-34.03-4.92-55.65,14.66-21.62,19.58-33.53,34.62-54.02,69.77-10.49,18.01-19.85,30.51-26.46,38.42-6.31,7.53-10.14,10.89-10.14,10.89Z"/><path class="aj" d="M391.44,79.75s-22.15,32.61-30.3,50.63c-8.15,18.01-16.3,36.03-44.02,32.42l4.83-23.09s52.74-116.04,116.6-107.08c0,0-37.97,13.97-61.89,54.98l-14.1,25.53s19.18-28.85,28.89-33.4Z"/><path class="u" d="M428.8,36.07s-36.63,8.77-51.61,38.5c-14.98,29.73-43.62,82.9-51.58,79.04s1.95-30.27,1.95-30.27c0,0,38.15-90.61,101.24-87.28Z"/><path class="l" d="M291.83,168.47l.05-.03c3.51-1.72,7.95-5.55,13.01-10.8,6.28-6.57,13.51-15.36,20.99-25.15,.03-.04,.06-.08,.09-.11,.81-1.06,1.63-2.13,2.43-3.22,23.39-30.97,46.23-72.27,55.44-79.18,15.01-11.25,35.01-14.09,45.99-14.88,1.59-1.4,3.09-2.51,4.51-3.35,0,0-34.03-4.92-55.65,14.66-21.62,19.58-33.53,34.62-54.02,69.77-10.49,18.01-19.85,30.51-26.46,38.42l-6.38,13.87Z"/><path class="i" d="M335.38,190.72c.36,.14,.73,.26,1.12,.39,2.19,.72,4.95,1.28,8.04,1.7,15.28,2.16,38.34,1.27,38.34,1.27,20.18-11.86,43.31-49.11,58.39-75.87l.03-.04c5.46-9.66,9.84-17.95,12.68-23.16,10.36-19.06,27.36-30.56,28.4-31.26-.15,.21-.91,1.19-2.2,2.85v.02c-6.95,9.13-28.83,38.73-49.33,76.14-24.79,45.21-38.7,48.87-38.7,48.87,.62,.17,1.25,.33,1.85,.47,2,.51,3.93,.91,5.79,1.23,28.81,4.95,41.65-9.94,42.46-10.89-2.13,3.61-5.19,6.82-8.44,9.54-.05,.01-.08,.05-.11,.09-7.21,5.96-15.14,9.45-15.14,9.45l21.22,2.55,27.94,3.34c17.67-.69,49.2-46.68,49.2-46.68-.39,1.85-.88,3.69-1.48,5.52-7.92,24.57-32.61,45.61-33.43,46.31,19.41-9.09,33.51-34.62,53.56-67.65,13.34-21.99,25.12-36.55,34.15-47.15l.52-.61c4.32-5.06,7.99-9.2,10.85-12.83,8.93-11.28,21.09-6.55,21.09-6.55-4.84-6.62-9.51-12.57-14.04-17.94-5.79-6.86-11.38-12.76-16.77-17.79-3.35-3.13-6.64-5.95-9.87-8.44-.23-.18-.47-.36-.7-.54-4.74-3.62-9.31-6.59-13.82-9.02-3.25-1.75-6.42-3.23-9.58-4.46-4.8-1.86-9.51-3.13-14.16-3.95-6.61-1.16-13.13-1.43-19.66-1.13-9.56,.43-19.16,2.04-29.17,3.7-40.86,6.79-66.52,56.2-98.14,113.13-15.22,27.42-25.28,42.21-31.61,50.16-.14,.17-.26,.32-.38,.47-3.21,4.02-5.43,6.18-6.84,7.38-1.46,1.21-2.06,1.37-2.06,1.37Z"/><path class="u" d="M482,212.58c19.41-9.09,33.51-34.62,53.56-67.65,13.34-21.99,25.12-36.55,34.15-47.15,0,0-26.35,20.3-36.6,37.88-5.26,9.02-11.67,20.72-17.68,30.61-7.92,24.57-32.61,45.61-33.43,46.31Z"/><path class="aj" d="M391.71,193.73l4.2,.88s1.45-.44,3.88-1.27c11.43-3.85,44.74-16.13,53.18-30.62,8.64-14.8,17.5-23.33,20.11-25.66-1.71,1.79-6.42,7.97-13.81,26.97-4.44,11.38-15.23,20.98-25.45,27.96-.05,.01-.08,.05-.11,.09-7.21,5.96-15.14,9.45-15.14,9.45l21.22,2.55c14.6-14.21,55.07-53.8,66.83-67.4,14.45-16.7,10.69-19.67,10.69-19.67-10.59,8.74-19.43,9.08-19.43,9.08,14.73-19.84,56.59-26.93,72.37-28.93,4.32-5.06,7.99-9.2,10.85-12.83,8.93-11.28,21.09-6.55,21.09-6.55-11-15.07-21.2-26.76-30.8-35.73-27.08,9.54-97.9,37.48-110.41,71.94-13.6,37.51-56.62,70.54-66.96,78.11-1.47,1.07-2.29,1.62-2.29,1.62Z"/><path class="u" d="M425.61,167.93c.59-.29,10.28-5.37,28.43-31.28,17.49-24.98,42.99-42.56,46.3-44.76-12.12,8.29-21.61,32.84-22.2,34.38,9.85-15.45,34.27-27.8,34.27-27.8l10.93,.1c46.6-1.8,60.68-26.6,64.79-38.71-5.79-6.86-11.38-12.76-16.77-17.79-3.35-3.13-6.64-5.95-9.87-8.44-.23-.18-.47-.36-.7-.54-6.47,2.57-18.9,6.65-36.55,8.7-26.74,3.11-97.55,124.25-98.65,126.14Z"/><path class="aj" d="M334.5,194.91s4.11-.06,10.04-2.11c7.05-2.4,16.72-7.66,25.06-19.04l13.03,.53s23.72-19.14,42.55-56.83c18.83-37.69,54.02-69.77,54.02-69.77,0,0-60.17,99.16-76.37,124.25l38.43-53.75,.03-.04,29.67-41.51s2.81-4.21,9.22-10.04v-.02c10.38-9.4,30.11-22.98,62.63-29.7,6.99-1.45,13.19-2.5,18.69-3.28-8.38-6.53-16.36-11.02-24.1-14.02-14.38,.06-47.77,1.38-63.47,11.64,.91-.05,15.74-1.2,22.7-4,7.18-2.88,16.79,3.51,16.79,3.51,0,0-30.7,.15-42.61,15.19-11.91,15.04-36.51,38.38-52.8,74.41-16.3,36.03-35.63,34.18-41.92,32.86,0,0-16.52,31.97-31.8,28.76-.86-.18-1.68-.46-2.51-.88l-4.33,8.25-.94,1.75-2,3.81Z"/><path class="l" d="M536.86,44.42s-39.47,10.63-59.43,48.5c-19.97,37.87-45.63,87.28-76.43,98.37,0,0,41.06-57.02,54.95-93.61s53.62-58.96,80.91-53.25Z"/><path class="u" d="M371.45,154.44l5.86,3.42c20.11,8.59,41.49-30.76,53.49-56.73,12-25.97,51.83-59.27,51.83-59.27l64.36-17.79c-3.25-1.75-6.42-3.23-9.58-4.46-4.8-1.86-9.51-3.13-14.16-3.95-14.99,.55-28.06,2.37-51.36,4.23-37.88,3.03-100.43,134.56-100.43,134.56Z"/><path class="l" d="M344.67,181.51c22.08-1.56,63.31-74.9,93.68-127.01,30.74-52.73,87.76-32.04,87.76-32.04-7.73-3.79-15.23-6.38-22.53-7.93-9.56,.43-19.16,2.04-29.17,3.7-40.86,6.79-66.52,56.2-98.14,113.13-15.22,27.42-25.28,42.21-31.61,50.16Z"/><path class="i" d="M483.2,217.24l18.35,5.39,33.25,9.78s8.92-.76,23.79-11.81c8.64-6.41,19.24-16.27,31.27-31.45,1.19-1.48,2.32-2.93,3.44-4.3,18.8-23.5,27.23-31.73,30.88-34.62,1.86-1.47,2.5-1.56,2.6-1.54-.77,.85-25.79,28-47.17,58.03-21.72,30.51-30.55,30.86-30.55,30.86l-.44,2.1,6.3,1.32s15.23-9.96,50.07-50.88c34.84-40.91,61.54-63.81,85.85-54.35,0,0-6.52-11.46-15.5-22.7-.62-.79-1.27-1.58-1.92-2.35-1.26-1.51-2.55-3.01-3.89-4.45-7.01-7.64-14.86-13.93-22.05-14.62-19.27-1.84-55.82,16.64-79.34,55.27,2.66-5.05,31.03-57.03,64.65-58.35l-31.49-6.58s-18.45-6.05-42.8,37.06c-8.73,15.44-17.01,30.14-25.43,43.45-15.09,23.86-30.61,43.29-49.87,54.73Z"/><path class="aj" d="M483.2,217.24l18.35,5.39c31.25-9.37,57.21-45.07,58.1-46.33l-7.68,15.88c13.03,.53,25.38-16.6,47-36.18,18.43-16.7,37.7-22.07,42.97-23.31-6.2,1.79-11.73,10.12-11.73,10.12-1.91,2.41-3.91,4.88-6.04,7.41,1.86-1.47,2.5-1.56,2.6-1.54-.77,.85-25.79,28-47.17,58.03-21.72,30.51-30.55,30.86-30.55,30.86l-.44,2.1,6.3,1.32s15.23-9.96,50.07-50.88c34.84-40.91,61.54-63.81,85.85-54.35,0,0-9.47-16.66-21.31-29.5-45.48-7.12-105.46,49-105.46,49,1.61-2.75,2.87-5.43,3.85-7.96,0-.02,0-.04,.03-.06,5.27-13.6,2.69-23.47,2.69-23.47-3,7.02-24.72,27.17-37.58,38.72-15.09,23.86-30.61,43.29-49.87,54.73Z"/><path class="u" d="M511.02,209.91s11.28,8.93,40.62-23.69c29.35-32.64,80.86-64.84,99.85-71.82,9.23-3.39,17.63-2.82,23.85-1.32-.62-.79-1.27-1.58-1.92-2.35-32.61-11.9-83.16,1.98-109.35,44.55-29.86,48.53-53.05,54.64-53.05,54.64Z"/><path class="l" d="M675.9,112.93s-23.13-7.1-37.41-5.67c-14.28,1.43-47.35,12.4-66.44,41.1,0,0,19.46-36.71,44.52-48.41,25.06-11.71,38.59-7.57,48.13,1.44,9.54,9.01,11.2,11.55,11.2,11.55Z"/><path class="i" d="M686.1,195.03v.02c-1.6,.41-4.75,2.07-8.93,4.75-.05,.01-.08,.05-.08,.07-8.07,5.19-19.97,14.21-32.46,25.92-5.95,5.59-12.96,11.16-19.8,16.19-15.1,11.11-29.3,19.55-29.3,19.55,23.97,.63,51.6,15.17,51.6,15.17,7.19-1.26,25.67-10.65,38.34-17.38,7.06-3.78,12.3-6.74,12.74-6.98-24.15,21.22-44.78,25.67-44.78,25.67l3.76,2.98c24.85-3.57,86.64-47.61,96.35-52.16,9.71-4.54,20.65-4.45,20.65-4.45-1.21-10.35-3.38-19.26-6.33-26.94-19.07-49.82-69.88-47.43-89.49-44.47-4.93,.74-7.88,1.53-7.88,1.53,.08-.4,.21-.79,.39-1.14,.18-.42,.39-.82,.69-1.19,4.72-6.66,22.15-9.24,22.15-9.24-39.25-12.19-53.84,13.35-72.15,39.42-1.84,2.62-3.71,5.25-5.65,7.85-16.81,22.45-36.75,40.17-44.36,46.59-2.02,1.7-3.18,2.62-3.18,2.62l13.42,3.9c-6.3-1.32-24.06,10.31-24.06,10.31l31.49,6.58s33.43-23.68,59.69-44.48c4.41-3.48,8.37-6.38,11.92-8.79,9.39-6.36,15.93-9.33,20-10.69,3.37-1.16,5.03-1.23,5.25-1.22Z"/><path class="aj" d="M644.63,225.79c-5.95,5.59-12.96,11.16-19.8,16.19,10.67,4.07,47.73,15.87,84.43-.49,0,0-11.09,9.16-23.8,17.83,7.06-3.78,12.3-6.74,12.74-6.98-24.15,21.22-44.78,25.67-44.78,25.67l3.76,2.98c24.85-3.57,86.64-47.61,96.35-52.16,9.71-4.54,20.65-4.45,20.65-4.45-1.21-10.35-3.38-19.26-6.33-26.94-1.76,7.37-101.6,13.57-90.77,2.41-8.07,5.19-19.97,14.21-32.46,25.92Z"/><path class="aj" d="M571.56,236.81l15.32,3.2,73.95-33.07c9.39-6.36,15.93-9.33,20-10.69,2.83-2.52,37.4-15.49,40.32-16.9-13.23,3.65-70.21,11.5-77.95,16.57-10.15,6.64-24.06,10.31-28.7,11.53s-6.44,15.09-13.18,15.87c-6.74,.78-8.84,.34-8.84,.34,0,0,11.03-10.84,27.57-27.1,14.34-14.11,38.58-36.04,50.81-43.19,1.75-1.04,3.26-1.77,4.45-2.11-.53,.11-1.88,.42-3.76,.92-6.42,1.66-18.86,5.41-24.7,10.54-5.45,4.78-17.83,14.11-25.29,19.64-1.84,2.62-3.71,5.25-5.65,7.85-16.81,22.45-36.75,40.17-44.36,46.59Z"/><path class="u" d="M598.4,221.61l8.4,1.76s1.76-8.4,6.83-11.72,13.91-3.66,22.75-4.01c8.84-.34,35.88-14.41,43.49-19.39,7.61-4.98,24.41-1.47,24.41-1.47-4.24-.16-11.12,3.28-18.18,8.25,0,0-.02,0,0,.02-14.63,10.24-30.13,26.87-25.06,30.89,7.52,5.95,39.44,10.44,39.44,10.44,0,0,28.7-11.53,47.69-18.51,15.1-5.56,18.8-16.25,19.69-20.4-19.07-49.82-69.88-47.43-89.49-44.47-11.88,5.36-25.36,14.33-35.41,23.16-16.11,14.16-44.56,45.46-44.56,45.46Z"/><path class="l" d="M762.95,210c-9.08-44.13-43.91-58.31-98.38-49.64,0,0,14.44-20.43,61.41-4.07,46.97,16.36,37.85,49.51,36.97,53.71Z"/><path class="l" d="M693.14,190.55s-17.43,15.08-24.72,19.76c-7.29,4.69-26.81,24.71-26.81,24.71,0,0,16.34-30.39,51.53-44.47Z"/><path class="i" d="M655.04,286.03s3.67,4.03,8.63,9.74c9.68,11.12,24.28,28.58,25.89,34.73,0,0,.24-.08,.66-.23,.74-.28,2.11-.76,3.96-1.45,7.01-2.5,21.04-7.48,35.21-12.29,18.93-6.38,38.08-12.46,41.14-11.82,0,0-4.31,3.42-10.62,7.53-.25,.17-.53,.35-.81,.53-9.19,5.92-22.29,13.02-32.49,13.43,0,0,17.51,2.37,29.08,6.17,3.53,1.15,6.52,2.44,8.27,3.83,0,0-48.81,2.94-63.07-2.23,0,0,11.28,8.93,28.95,8.24,14.51-.56,66.65,2.3,93.63,13.66,5.88,2.48,10.58,5.37,13.41,8.7-.1-.68-1.95-12.28-8.23-26.04-3.83-8.4-9.35-17.64-17.13-25.67-3.66-3.79-7.81-7.29-12.56-10.36,7.99,4.85,45.19,28.35,51.32,48.87-1.07-4.43-7.23-29.01-20.41-59.59-.02-.03-.03-.05-.03-.07-3.2-7.42-6.82-15.18-10.86-23.11-4.15-8.12-8.76-16.38-13.85-24.59,0,0-20.91-4.37-27.68-3.62,.16-.05,.7-.23,1.54-.47,4.26-1.28,15.81-4.45,19.89-2.7,0,0-17.14-12.35-34.03-4.92-16.89,7.42-28.7,11.53-41.83,21.93-13.13,10.4-55.4,34.43-67.99,31.79Z"/><path class="aj" d="M655.04,286.03s3.67,4.03,8.63,9.74c16.72,4.09,70.73,5.63,77.04,4.89,6.74-.78,37.44-.94,50.47-.4,13.03,.53,41.98,8.78,41.98,8.78,.41-1.95-1.34-9.63-3.29-17.25-.02-.03-.03-.05-.03-.07-3.2-7.42-6.82-15.18-10.86-23.11-4.15-8.12-8.76-16.38-13.85-24.59,0,0-20.91-4.37-27.68-3.62,.16-.05,.7-.23,1.54-.47,4.26-1.28,15.81-4.45,19.89-2.7,0,0-17.14-12.35-34.03-4.92-16.89,7.42-28.7,11.53-41.83,21.93-13.13,10.4-55.4,34.43-67.99,31.79Z"/><path class="u" d="M680.28,285.83s13.82,7.27,37.78,7.9c23.97,.63,46.28-1.28,55.89,5.11,0,0-36.35,5.37-44.56,17.68,18.93-6.38,38.08-12.46,41.14-11.82,0,0-4.31,3.42-10.62,7.53-.25,.17-.53,.35-.81,.53,.26,.21,.54,.44,.84,.68,3.76,2.98,18.55-4.89,27.38-5.23,8.84-.34,22.86,12.62,22.86,12.62-1.93-3.47-8.49-14.7-14.81-19.7,0,0,23.62-8.21,23.72-19.14s-17.04-23.28-17.04-23.28l-51.7-4.24s-61.26,31.01-70.09,31.35Z"/><path class="u" d="M700.89,333.96s11.28,8.93,28.95,8.24c14.51-.56,66.65,2.3,93.63,13.66,5.88,2.48,10.58,5.37,13.41,8.7-.1-.68-1.95-12.28-8.23-26.04-10.6-13.35-24.04-26.69-24.04-26.69,0,0-7.17-4.79-24.5,4.74-13.89,7.63-21.81,13.69-24.42,15.8,3.53,1.15,6.52,2.44,8.27,3.83,0,0-48.81,2.94-63.07-2.23Z"/><path class="l" d="M784.45,301.04s25.09,16.2,33.74,37.73c2.98,7.44,4.53,13,5.28,17.1,5.88,2.48,10.58,5.37,13.41,8.7-.17-1.09-4.83-30.54-25.36-51.71-7.26-5.7-16.16-10-27.06-11.81Z"/><path class="l" d="M726.75,262.68s19.33,1.85,29.48-4.79c8.98-5.88,55.78,4.74,68.76,32.1l-6-21.39c-4.15-8.12-8.76-16.38-13.85-24.59,0,0-20.91-4.37-27.68-3.62,.16-.05,.7-.23,1.54-.47l-3.69,.04s-39.29,20.27-48.57,22.71Z"/><path class="i" d="M690,328.39l.22,1.87c.74-.28,2.11-.76,3.96-1.45l-4.19-.41Z"/><path class="i" d="M699.96,343.62s42.14,39.48,63.38,63.64c21.24,24.16,34.43,55.4,34.43,55.4l3.95-18.89c2.07-9.91,9.93-28.09,13.89-43.78,1.07-4.27,1.85-8.33,2.16-12.01,1.41-17.23-12.4-24.5-12.4-24.5,4.2,.88,7.96,3.85,7.96,3.85l19.33,1.85c-19.58-21.62-132.68-25.55-132.68-25.55Z"/><polygon class="aj" points="726.81 351.43 792.77 360.83 801.41 382.36 788.34 434.4 717.1 355.97 771.83 398.08 726.81 351.43"/><path class="u" d="M721.48,360.78c74.34,67.56,76.28,101.88,76.28,101.88l3.95-18.89c2.07-9.91,9.93-28.09,13.89-43.78,1.42-14.43-.35-33.09-14.44-37.39-1.66-.35-6.73-1.56-13.52-3.05l-.19-.04c-19.11-4.17-28.28-5.69-60.64-8.08,0,0,5.46,3.33,11.09,4.71h.02s.02,0,.04,.01c14.53,3.54,41.26,10.88,47.53,18.5,8.74,10.59-2.48,43.3-2.48,43.3l.34,8.84s-8.4-11.27-19.83-25.13c-.03-.05-.05-.1-.08-.13-.05-.06-.08-.13-.14-.16-2.2-2.67-4.52-5.44-6.91-8.26-.04-.03-.07-.08-.13-.14-13.68-14.95-33.35-31.01-34.79-32.18Z"/><path class="l" d="M721.48,360.78c74.34,67.56,76.28,101.88,76.28,101.88l3.95-18.89c2.07-9.91,9.93-28.09,13.89-43.78,1.42-14.43-.35-33.09-14.44-37.39-4.04-1.24-8.67-2.23-13.52-3.05l-.19-.04c-21.6-3.57-47.86-3.39-49.49-3.36,1.7,.25,35.35,5,47.62,7.57,12.59,2.63,17.14,12.35,20.02,19.52,2.88,7.18-11.85,56.68-11.85,56.68,0,0-17.41-21.08-30.23-38.26-.03-.05-.05-.1-.08-.13-.05-.06-.08-.13-.14-.16-1.97-2.65-4.32-5.44-6.91-8.26-.04-.03-.07-.08-.13-.14-13.68-14.95-33.35-31.01-34.79-32.18Z"/><path class="i" d="M710.07,358.99c2.76,3.25,5.32,6.72,7.73,10.4,2.83,4.38,5.44,9,7.83,13.8,6.86,13.72,11.93,28.76,15.77,42.67,6.26,22.67,9.23,42.31,11.26,48.19,4.1,11.81-3.61,27.73,.15,30.7,3.76,2.98,10.65,32.9,14.31,46.81,1.91,7.23,3.64,20.94,4.85,32.43,1.15,10.63,1.85,19.36,1.85,19.36,0,0,4.73-12.16,11.56-23.87,6.83-11.72,11.75-45.74,10.53-50.38-.68-2.6-11.38-30.14-20.62-53.76l-.03-.07-21.8-47.06c13.82,7.27,33.21,50.76,33.21,50.76l3.51-10c-1.09-4.24-2.37-8.25-3.79-12.07-3.77-10.27-8.4-19.24-12.33-27.66-5.71-12.19-29.51-36.8-46.45-53.42-9.24-9.05-16.42-15.77-17.56-16.82Z"/><path class="aj" d="M710.07,358.99c15.38,18.11,25.02,44.03,31.33,66.87,13.95,31.27,27.13,81.92,31.34,109.35,3.13,20.33,1.39,37.58-.76,48.79,1.15,10.63,1.85,19.36,1.85,19.36,0,0,2.8-7.21,7.22-15.86,1.31-2.6,2.78-5.31,4.35-8.01,6.83-11.72,11.75-45.74,10.53-50.38-.68-2.6-11.38-30.14-20.62-53.76l-.03-.07-9.53-20.55c-.03-.07-.08-.15-.11-.22l-12.16-26.29c13.82,7.27,33.21,50.76,33.21,50.76l3.51-10c-3.97-15.58-10.72-28.18-16.12-39.74-8.81-18.84-60.78-67.24-64.01-70.24Z"/><path class="u" d="M756.32,440.85s31.95,98.7,25.71,139.02c-.47,2.97-.78,5.49-.98,7.62,1.31-2.6,2.78-5.31,4.35-8.01,6.83-11.72,11.75-45.74,10.53-50.38-.68-2.6-11.38-30.14-20.62-53.76l-.03-.07-9.53-20.55c-.03-.07-.08-.15-.11-.22-3.9-7.15-7.23-12.25-9.33-13.65Z"/><path class="u" d="M717.8,369.39c3.34,1.84,6.63,4.02,9.83,6.42,16.94,16.62,40.74,41.23,46.45,53.42,3.93,8.43,8.57,17.39,12.33,27.66,1.2,9.45,.32,16.61,.32,16.61,0,0-5.76-14.35-20.27-39.29-8.52-14.66-27.03-35.97-40.84-51.02l-7.83-13.8Z"/><path class="i" d="M858.12,491.46l-11.35-17.84c11.35,17.84,0,42.16,0,42.16-3.19-19.15-21.32-24.17-21.87-24.32,15.31,7.31,18.15,33.62,18.57,38.82-.72-5.8-7.81-15.79-8.03-16.12,4.05,10.54,0,27.56,0,27.56l-8.11-7.3c2.08,3.85,2.15,12.41,1.48,20.46-1.16,13.98-4.54,26.42-3.51,9.95,1.62-25.95-34.05-69.73-34.05-69.73,27.57-29.19,34.05-111.08,34.05-111.08,10.95,7.7,31.22-5.27,31.22-5.27l1.47,6.36,3.4,14.72c18.65,21.89,5.68,42.97,5.68,42.97,18.65,24.32-8.92,48.65-8.92,48.65Z"/><path class="aj" d="M812.31,514.56l-14.59-17.03s18.65-23.51,22.7-42.16c0,0,12.16,6.49,13.78,12.16,0,0-8.92-15.4-12.16-17.03l3.24-38.92,26.53,13.14,1.04,33.89,1.18,17.1-9.29,25.06-8.92-7.3-6.24-.16-4.3-3.89-3.24-.81,4.86,6.49,1.62,29.19-7.3,1.62-8.92-11.35Z"/><path class="aj" d="M824.48,411.59s12.97,8.92,14.59,11.35c1.62,2.43,1.62,0,1.62,0l-15.4-4.05,16.22,14.59-17.03,8.92s27.57,1.62,27.57,11.35-4.86,18.65-4.86,18.65l6.49,4.05,8.4-35.9-12.45-19.24s-14.59-11.35-25.13-9.73Z"/><path class="u" d="M858.12,491.46l-.04-.06-11.31-17.77c2.12,3.32,3.44,6.87,4.2,10.44,3.32,15.61-4.2,31.72-4.2,31.72-.49-2.94-1.34-5.55-2.42-7.86-5.93-12.71-18.99-16.33-19.46-16.45,15.31,7.31,18.15,33.62,18.57,38.82-.72-5.8-7.81-15.79-8.03-16.12,4.05,10.54,0,27.56,0,27.56l-8.11-7.3c2.08,3.85,2.15,12.41,1.48,20.46-2.57-14.89-11.62-31.4-11.62-31.4,8.11-4.05,5.68-34.05,5.68-34.05l18.65,4.05c8.92-1.62,2.43-22.7,2.43-22.7l8.92,2.43s4.05-9.73,2.43-21.89c-1.62-12.16-25.13-10.54-25.13-10.54l17.03-6.49-17.84-12.97,14.59,4.86c-3.24-9.73-19.46-14.59-19.46-14.59l3.24-18.65c12.06,1.86,23.05-3.19,30.25-7.83l1.02,4.42,2.38,10.31c12.6,14.79,10.77,29.2,8.25,37-1.21,3.75-2.58,5.97-2.58,5.97,.03,.04,.06,.07,.08,.11,18.48,24.28-9,48.53-9,48.53Z"/><path class="l" d="M858.12,491.46l-.04-.06c3.76-8.53,12.66-49.63-19.01-54.66l7.7-.41s13.02,2.37,20.35,6.6c18.48,24.28-9,48.53-9,48.53Z"/><path class="l" d="M846.77,515.78c-.49-2.94-1.34-5.55-2.42-7.86,1.67-6.31,5.11-20.93,3.23-27.81,0,0,1.8,1.5,3.39,3.96,3.32,15.61-4.2,31.72-4.2,31.72Z"/><path class="l" d="M867.45,441.59c-8.52-27.84-30.81-42.97-30.81-42.97,14.38,2.3,20.18-4.78,22.35-9.09-.9,5.29-2.4,10.2-6.95,13.14,21.04,4.73,20.83,27.65,15.4,38.92Z"/><path class="l" d="M806.64,506.39c10.27,9.03,21.89,41.41,14.59,66.55,0,0,22.7-37.3-14.59-66.55Z"/><path class="l" d="M828.53,508.08s7.3,12.16,4.86,27.57l-8.11-5.68s4.86-8.11,3.24-21.89Z"/><path class="l" d="M828.53,462.67s24.18,9.73,23.04,25.13-2.18,20.71-2.18,20.71c0,0,7.53-25.57-20.85-45.84Z"/><path class="i" d="M280.44,174.85s-6.49-34.86-41.35-51.89c0,0-5.68-8.92-15.4,8.92,0,0,20.28,19.32,7.3,29.19s-19.98,28.87-19.98,28.87c6.94-8.46,54.3-8.9,69.44-15.09Z"/><path class="ac" d="M235.85,122.96s42.16,19.46,41.35,51.89c-1.66,.09-42.49,1.38-55.2,6.09,0,0,10-17,21.96-25.55-1.62-7.3-5.68-23.51-16.22-24.32,0,0,.81-6.49,8.11-8.11Z"/><path class="al" d="M235.04,124.58s37.31,14.79,42.17,48.74c0,0-28.2-2.39-43.2,2.61,0,0,7-10,18.06-12.44-4.05-8.92-2.43-26.76-17.03-38.92Z"/><path class="l" d="M233.69,124.58s39.45,22.7,41.88,48.65l-4.05,.81s-18.91-38.11-37.83-49.46Z"/><path class="l" d="M252.43,170.4s13.2,.05,16.32,3.59,6.74-3.71,6.74-3.71c0,0-8.5-5.86-23.06,.12Z"/><path class="aq" d="M761.24,667.8c.51,2.04,.22,6.42-.42,11.46-.82,6.37-2.19,13.8-3.19,18.9-.72,3.66-1.26,6.13-1.26,6.13l-12.41,23.5s-30.56,27.57-42.72,31.63c0,0-.44,1.17-1.25,2.89-1.89,4.01-5.81,11.05-10.91,13.32l-3.4,1.33-15.25,5.97s0,14.59-5.68,22.7c0,0,.18,4.37-.08,10.52l-.32-.39s-4.05-66.48-3.24-71.35c.81-4.86,4.05-28.38,0-39.73s-9.73-37.3-9.73-37.3c0,0-7.3-11.35-27.57-7.3-15.89,3.18-40.25,8.85-56.67,14.66t-.02,0c-.69,.17-17.94,4.41-40.24,10.27-8.64-1.78-18.85-6.87-30.91-17.78-5.62-5.08-11.64-11.44-18.1-19.32-40.54-49.46-78.65-143.51-79.05-171.48,0,0,79.46-6.49,93.24,4.05,0,0-3.65-34.46-24.73-37.7-20.75-3.19-12.63-1.75,8.11-9.73,21.08-8.11,43.78-14.59,73.78-5.68,30,8.92,105.81,96.08,105.81,113.1,3.24,14.59-6.08,45.81-6.08,45.81,0,0,19.86,49.05,44.19,52.3,38.92,1.62,67.25,25.74,68.11,29.19Z"/><path class="ak" d="M578,579.24l-8.92,56.94,15.4,1.62s8.92-35.24-6.49-58.56Z"/><path class="ak" d="M488.13,500.9s-31.75-3.37-42.29,2.31l10.54,25.95s16.47-26.51,31.75-28.25Z"/><path class="p" d="M493.68,508.89s43.24,1.62,82.88,57.57l-.99,8.92s-.66-8.94-6.49-16.03c-12.94-15.74-39.37-42.35-75.4-50.46Z"/><path class="ae" d="M513.54,548.21s.81,8.11,8.92,13.78c8.11,5.68,17.84,12.16,21.89,16.22,0,0-2.43-9.73-7.3-13.78s-17.84-9.73-23.51-16.22Z"/><path class="aq" d="M571.51,634.56s-6.49-1.62-25.13-7.3c-18.65-5.68-67.29-26.76-79.46-47.03-12.16-20.27-12.25-40.92-5.31-56.94,6.93-16.03,0,0,0,0l109.9,111.27Z"/><path class="s" d="M573.66,545.78c2.63,15.24,1.9,34.5-6.2,57.97-3.67-5.88-10.02-10.88-17.84-15.4l15.26,23.14,7.03,22.07s14.19-50.88,1.74-87.78Z"/><path class="ak" d="M584.48,637.8c.16-1.56-8.35,.44-12.97-3.24-7.08-5.65-9.97-21.25-22.7-30.81-35.35-26.54-90.11-56.38-87.56-80.27-8.11-21.89-21.89-25.13-21.89-25.13,4.78,38.4,2.42,62.39,17.84,94.86-.72,9.81,125.79,58.88,127.29,44.59Z"/><path class="ab" d="M480.7,450.51s46.21,9.73,61.62,25.13c15.4,15.4,83.11,71.46,83.51,97.29,0,0,11.2-1.94,14.59-4.86,6.83-5.89,8.51-15.78,8.92-21.89,1.45-21.59-28.59-48.28-44.23-60.81-22.26-17.84-30.37-50.27-70.9-49.46-40.54,.81-53.51,14.59-53.51,14.59Z"/><polygon class="p" points="509.08 511.32 503.28 511.32 510.55 514.16 509.08 511.32"/><polygon class="p" points="510.41 512.74 513.95 516.18 515.1 516.18 517.01 517.08 519.62 520.24 522.36 517.71 510.7 513.75 510.41 512.74"/><polygon class="p" points="524.49 518.62 518.68 518.62 525.95 521.45 524.49 518.62"/><polygon class="p" points="524.2 520.04 527.73 523.48 528.88 523.48 530.79 524.38 533.41 527.54 536.14 525.01 524.49 521.05 524.2 520.04"/><polygon class="p" points="537.46 526.72 531.66 526.72 538.92 529.56 537.46 526.72"/><polygon class="p" points="538.79 529.77 542.32 533.21 543.47 533.21 545.39 534.11 548 537.27 550.74 534.74 539.08 530.78 538.79 529.77"/><polygon class="p" points="556.14 542.17 558.69 546.39 559.81 546.68 561.44 548.03 563.17 551.74 566.45 549.98 556.17 543.22 556.14 542.17"/><polygon class="p" points="564.26 549.94 565.53 554.7 566.51 555.29 567.7 557.05 568.32 561.1 571.97 560.33 563.99 550.95 564.26 549.94"/><polygon class="p" points="552.88 541.38 555.45 545.59 556.56 545.87 558.2 547.22 559.94 550.92 563.22 549.15 552.91 542.43 552.88 541.38"/><path class="ak" d="M747.05,724.15c-1.77,1.95-3.66,3.88-5.61,5.75-15.06,14.44-34.12,25.87-34.12,25.87l-7.26,5.93-1.66,1.36c-.92,6.45-6.02,11.59-10.27,14.82-3.11,2.38-5.75,3.73-5.93,3.82,.13-.25,2.21-4.27,3.22-9.76v-.02c.54-2.92,.77-6.25,.24-9.65-.22-1.35-.54-2.72-1.03-4.07-4.05-11.35-22.3-25.54-22.3-25.54v-6.49c1.62-18.65-8.92-49.46-8.92-49.46,37.7-13.38,51.48,8.51,51.48,8.51l-3.24-12.97c62.43,0,45.4,51.89,45.4,51.89Z"/><path class="s" d="M741.44,729.9c-15.06,14.44-34.12,25.87-34.12,25.87l-7.26,5.93-1.66,1.36c-.92,6.45-6.02,11.59-10.27,14.82l-2.48-15.62-1.03-6.5,23.92-11.76c25.13-39.73-26.76-46.21-26.76-46.21,33.09-2.47,50.84,16.72,59.66,32.1Z"/><path class="y" d="M684.62,710.37s27.57,25.95,24.32,40.54l-1.62,4.86s1.62-6.49,0-9.73c-1.62-3.24-8.92-18.65-22.7-35.67Z"/><path class="l" d="M718.67,735.5c-3.24,8.92-9.46,19.1-9.46,19.1l-.61-10.6s.07-.08,.19-.24c4.68-4.33,8.06-14.08,9.5-18.88,1.09,3.45,1.59,7.26,.37,10.61Z"/><path class="u" d="M708.79,743.77c1.11-1.36,6.47-8.46,5.01-17.19-1.62-9.73-.81-12.16-.81-12.16,0,0,3.48,4.74,5.3,10.48-1.44,4.79-4.82,14.55-9.5,18.88Z"/><path class="ak" d="M760.81,679.26c-.82,6.37-2.19,13.8-3.19,18.9l-51.53-11.71s-1.62-12.97-10.54-14.59c0,0,10.54-25.95,36.49-16.22,16.65,6.24,24.96,16.83,28.77,23.62Z"/><path class="l" d="M699.99,762.31c-1.89,4.01-5.81,11.05-10.91,13.32l-3.4,1.33,1.31-2.42s11-7.83,10.19-17.56c0,0,1.58,2.16,2.81,5.33Z"/><circle class="aj" cx="656.64" cy="747.26" r="16.22"/><path class="l" d="M664.75,735.91s17.84,25.13,17.03,30.81l-9.73,4.86s-5.68,3.24-7.3,1.62-9.73-22.7-9.73-22.7l9.73-14.59Z"/><path class="y" d="M664.75,728.61s25.13,29.19,23.51,39.73-4.86,15.4-4.86,15.4c0,0,0,8.11,4.86,9.73,0,0-7.7-1.22-7.7-9.32,0,0,0,9.73,1.62,12.16,0,0-4.86-5.68-4.05-9.73,0,0-.81,7.3-3.24,9.73,0,0,2.03-11.76-.41-14.19,0,0-3.24-3.24-4.05-8.92-.19-1.32,6.58-2.41,6.49-4.05-.31-5.41-.54-9.97-3.65-17.43-4.05-9.73-11.35-12.97-11.35-12.97l.81-12.16,2.03,2.03Z"/><path class="y" d="M662.32,767.53s2.43,4.86,4.86,4.86,5.68-4.86,5.68-4.86l.81,1.62s3.14-.38,2.79-4.24l2.08,3.43s-3.24,4.05-4.86,4.05c0,0-4.05,4.86-8.11,2.43s-2.43-1.62-2.43-1.62l-.81-5.68Z"/><path class="an" d="M467.73,534.02c-.53-2.64-4.14,7.81-1.07,14.18,2.27,4.7,13.49,31.21,21.47,38.11,5.87,5.08,23.24,16.08,37.17,23.48,5,2.65,9.55,4.84,12.97,6.12,12.97,4.86,0,0,0,0,0,0,9.73,11.35,16.22,12.97s5.27-15.09,5.27-15.09c0,0-12.57-26.64-27.97-34.56-15.4-7.92-64.58-38.79-70.8-57.81,1.07,3.68,0,0,0,0"/><path class="ah" d="M534.35,580.83c-1.75,12.05-12.13,21.3-24.67,21.3-.13,0-.26,0-.39,0-7.22-4.78-17.85-12.38-23.93-19.35-.4-1.78-.62-3.64-.62-5.55,0-9,4.78-16.89,11.94-21.27l37.65,24.88Z"/><g class="k"><path d="M499.23,579.28c0-1.96-1.59-3.55-3.55-3.55s-3.55,1.59-3.55,3.55c0,.44,.09,.85,.24,1.24-.67,.31-1.82,.44-3.79-.06,0,0,4.32,4.83,8.85,1.89,.18-.1,.35-.22,.51-.35,.03-.03,.07-.04,.1-.07h0c.73-.66,1.2-1.59,1.2-2.65Z"/><path d="M520.94,585.03c-1.92,.43-3.12,2.33-2.69,4.24s2.33,3.12,4.24,2.69c.43-.1,.81-.27,1.16-.5,.45,.59,.82,1.68,.77,3.71,0,0,3.78-5.27-.08-9.05-.14-.16-.29-.3-.46-.42-.03-.03-.06-.06-.09-.08h0c-.79-.56-1.81-.82-2.84-.59Z"/><path d="M513.66,568.7c1.64,1.08,3.84,.63,4.92-1s.63-3.84-1-4.92c-.37-.24-.76-.4-1.16-.49,.11-.73,.64-1.76,2.14-3.13,0,0-6.42,.94-6.46,6.34-.01,.21,0,.42,.01,.62,0,.04,0,.08,0,.12h0c.14,.96,.66,1.88,1.54,2.46Z"/><path class="ag" d="M524.8,578.1c0,2.09-.26,3.94-1.01,5.76s-1.66,3.65-3.08,5.07-2.85,3.12-4.73,3.9-4.01,1.05-6.1,1.05-4.13-.67-5.95-1.42-3.69-1.89-5.1-3.31-2.24-3.34-3.02-5.22-1.68-3.74-1.68-5.83,.64-4.14,1.39-5.95,2.18-3.4,3.6-4.82,2.88-2.95,4.76-3.73,3.92-.63,6.01-.63,4.14,0,5.96,.75,3.47,2.11,4.89,3.53,3.12,2.86,3.9,4.74,.17,4.02,.17,6.11Z"/><circle cx="509.89" cy="578.1" r="3.55"/></g><path class="v" d="M466.92,529.97s5.68,28.38,26.76,40.54c21.08,12.16,59.19,52.13,59.19,52.13l9.73,3.01s-5.68-33.24-20.27-40.54c-14.59-12.97-65.38-33.85-75.66-56.25"/><path class="ae" d="M501.91,565.9c.14,1.18,.31,3.07,.19,4.31-3.3-.82-5.17,.49-6.15-1.48-1.62-3.24,1.62-3.24,1.62-3.24,1.64-.13,3.07,.04,4.34,.41Z"/><path class="ae" d="M510.55,576.03c-2.67-2.9-4.9-4.44-6.75-5.25,1.12-.45,2.46-1.01,3.37-1.41,2.6,3.01,3.38,6.66,3.38,6.66Z"/><path class="x" d="M528.54,612.67s14.59,8.11,15.4,6.49-4.05-5.68-4.05-5.68l9.73-.81s-4.08-18.53-7.72-23.05c-3.63-4.52,8.93,3.64,8.93,3.64l5.27,12.11,4.86,15.4-2.43,9.73,.08,1.62-30.08-19.45Z"/><ellipse class="aq" cx="516.38" cy="561.59" rx="6.89" ry="6.08"/><g><path class="y" d="M548.64,608.13c-.33-.58-.67-1.11-1.04-1.55,0,0,.41,.59,1.04,1.55Z"/><path class="y" d="M560.57,603.34c-16.22-29.19-56.75-46.21-72.16-54.32-15.4-8.11-32.43-34.86-32.43-34.86,7.79,18.58,26.53,35.47,26.53,35.47l.92,.74,2.55,1.9,5.27,3.2,1.42,.87,3.82,2.35,5.9,3.67,6.68,4.23,5.54,3.57,1.44,.94,4.51,2.97,1.56,1.04s16.49,11.41,20.63,15.27c11.22,10.47,13.47,29.19,13.75,32.05-.46-2.93-5.6-10.91-7.84-14.29,3.3,5.87,4.71,18.21,5.44,21.16,.81,3.24,17.03,5.68,17.03,5.68,0,0,5.68-2.43-10.54-31.62Z"/><path class="y" d="M490.03,585.51c-10.54-8.11-25.13-42.16-25.13-42.16l3.24,8.92c10.95,39.32,38.11,49.46,48.65,55.13,10.54,5.68,35.27,20.67,35.27,20.67l-10.95-11.76c-8.11-4.05-39.73-17.84-51.08-30.81Z"/></g><path class="ae" d="M513.54,548.21s.81,8.11,8.92,13.78c8.11,5.68,17.84,12.16,21.89,16.22,0,0-2.43-9.73-7.3-13.78s-17.84-9.73-23.51-16.22Z"/><g><path class="ad" d="M644.08,543.35c-.9-4.52-1.62-7.33-2.18-9.05,.08-.15,.19-.5-.32-.89-1.07-2.76-1.47-1.09-1.54-.68-2.63-.74-8.33,7.31-8.49,3.85-.16-3.46,6.6-7.23,6.6-7.23l-21.25-29.35c-6.01,1.14-13.4-8.92-13.4-8.92,4.6,5.86,10.61,4.72,10.61,4.72l-25.3-23.11-25.58-10.1,20.16,5.15-24.32-20.55c-5.93,2.87-27.66,1.25-36.46-1.81-8.8-3.07-23.3,1.92-23.3,1.92,3.46-.16,6.33,5.78,9.7,3.89,3.38-1.89,8.72,1.34,12.34,4.64,3.61,3.3,14.81,1.93,14.81,1.93l7.23,6.6c2.72-.67,7.29,1.01,10.26,2.33-1.57,.04-2.29,1.64-2.29,1.64,8.21,9.16,16.93,10.49,20.7,17.25,3.77,6.76,10.84,9.9,14.69,18.39,3.85,8.49,9.7,3.89,9.7,3.89l-.59,6.09c5.03-3.69,.95-17.37,.95-17.37,5.58,8.41,1.84,21.57,1.84,21.57l11.75,10.73,1.06,4.28,4.52,4.13s.16,3.46,2.87,5.93c2.71,2.48,2.16-9.63,2.16-9.63l.86,19.02c3.38-1.89,11.43,3.81,11.43,3.81l-1.49,5.26c-.15,.52-.06,.79,.16,.89-.02,.08-.04,.16-.07,.23,0,0,15.4-3.24,12.16-19.46Z"/><path class="o" d="M629.64,564.94l.59-2.12c-.13-.4-.15-.92,.03-1.58l1.17-4.13c-3.04-1.96-7.3-3.9-8.76-3.09l-2.29,1.28-.46-10.17c-.54,.1-1.32,.04-2.16-.72-2.41-2.2-3.11-5.03-3.31-6.34l-4.43-4.05-1.06-4.28-12.12-11.07,.27-.96s.37-1.33,.68-3.33c-.28,.32-.6,.61-.95,.87l-2.92,2.15,.67-6.91c-.96,.24-2.1,.34-3.32,.04-2.47-.6-4.48-2.59-5.98-5.9-2.01-4.42-5.01-7.37-7.91-10.22-2.42-2.38-4.92-4.83-6.72-8.05-1.73-3.1-4.68-4.96-8.41-7.32-3.72-2.35-7.93-5.01-12.09-9.64l-.7-.79,.43-.96c.08-.18,.2-.39,.34-.61-2.87-1.04-5.14-1.44-6.45-1.12l-.84,.21-7.33-6.69c-2.82,.28-11.76,.86-15.35-2.42-3.36-3.07-8.06-5.76-10.45-4.42-2.83,1.58-5.33-.41-7.16-1.87-1.15-.92-2.35-1.88-3.27-1.82l-11.25,.51,10.65-3.66c.61-.21,15.14-5.13,24.36-1.92,8.43,2.94,29.83,4.49,35.22,1.88l.95-.46,29.22,23.91-7.3-.81,8.44,2.93,27.92,25.5-3.19,.6c-.08,.02-.69,.13-1.65,.12,1.34,.73,2.67,1.12,3.84,.9l1.01-.19,22.92,31.66,2.43,2.61s.67,1.18,.62,1.75c.62,2,1.32,4.95,2.09,8.8,3.52,17.59-13.25,21.33-13.42,21.36l-2.61,.55Zm-6.09-14.33c4.13,0,9.49,3.62,10.71,4.48l.94,.66-1.34,4.73c3.8-1.55,10.82-5.94,8.64-16.82-.8-4.01-1.52-7-2.13-8.86l-.11-.33-.65-.18c-.59,.02-2.51,1.63-3.43,2.41-1.97,1.66-3.4,2.85-4.91,2.2-.47-.21-1.26-.77-1.33-2.24-.15-3.26,3.57-6.24,5.88-7.77l-19.68-27.18c-6.53,.2-11.42-9.59-12.19-10.65,0,0,4.05,3.24,5.31,2.49l-21.31-19.47-24.53-11.4,13.55,1.73-18.18-15.36c-7.76,2.69-28.48,.71-36.7-2.15-5.41-1.88-13.32-.46-18.11,.74,.24,.18,.47,.37,.7,.55,1.78,1.42,2.72,2.04,3.55,1.57,5.13-2.86,12.18,2.99,14.22,4.86,2.23,2.03,9.48,2.01,13.52,1.51l.74-.09,7.2,6.57c2.47-.26,5.97,.61,10.41,2.58l6.58,2.92-7.2,.18s-.08,0-.11,.01c3.54,3.66,7.17,5.95,10.4,7.99,3.96,2.5,7.37,4.66,9.51,8.48,1.57,2.81,3.8,5,6.16,7.32,3.12,3.06,6.34,6.22,8.59,11.19,1.06,2.35,2.33,3.72,3.77,4.08,1.79,.45,3.45-.79,3.46-.8l1.27-.97c-.13-2.95-.77-6.19-1.48-8.56l-3.1-10.42,6.01,9.06c5.07,7.65,3.08,18.59,2.3,21.92l11.39,10.41,1.06,4.28,4.65,4.25,.03,.67s.14,2.07,1.51,3.9c.28-1.63,1.98-4.23,1.85-7.08l2.45,16.59s.09,0,.13,0Z"/></g><g><path class="ad" d="M699.21,673.07s4.05-18.65,33.24-11.35l-13.78,2.43s10.54-.81,15.4,1.62c4.86,2.43,15.4,6.49,19.46,17.84l-4.86-1.62s10.54,10.54,10.54,17.03c2.43,9.73-6.49,22.7-6.49,22.7l.81-8.92-3.24,8.11s-3.24,2.43-4.86,4.86c0,0,2.43-20.27-1.62-25.95l4.05,7.3s0-8.11-8.92-12.97v-3.24s-12.16-6.49-12.16-6.49l-6.49-4.05,8.92-.81-17.03-.81-6.49-3.24v-4.05l-6.49,1.62Z"/><path class="o" d="M743.61,730.68l.61-5.06c.61-5.1,1.54-18.54-.78-23.95l-.7-1.26,1.04-.66c-1.22-1.59-2.95-3.19-5.43-4.54l-.63-.35v-3.24l-11.59-6.18-8.36-5.22-5.91-.28-7.39-3.69v-3.25l-6.87,1.72,.42-1.91c.06-.26,1.45-6.38,8.04-10.47,6.45-4.01,15.43-4.62,26.69-1.8l5.54,1.38-8.11,1.43c1.65,.29,3.21,.71,4.45,1.33,.46,.23,.97,.47,1.51,.73,5.5,2.63,14.71,7.04,18.55,17.78l.84,2.35-2.8-.93c3.18,3.74,7.61,9.73,7.71,14.24,2.42,10.12-6.32,23-6.7,23.54l-2.63,3.83,.48-5.25-.27,.69-.27,.2s-3.1,2.34-4.58,4.57l-2.83,4.24Zm3.61-22.21c.36,4.8,.08,10.12-.21,13.64,.96-.91,1.84-1.63,2.28-1.97l6.21-15.54-1.07,11.73c2.29-4.5,5-11.42,3.6-17.03l-.04-.3c0-4.9-7.35-13.33-10.18-16.17l-3.64-3.64,7.2,2.4c-3.95-8.09-11.57-11.74-16.29-13.99-.56-.27-1.08-.52-1.55-.75-4.5-2.25-15.97-2.31-16.08-2.3l8.37-2.9c-7.63-1.05-13.83-.13-18.48,2.75-3.52,2.19-5.33,5.05-6.21,6.93l5.78-1.44v4.86l5.58,2.79,18.74,1.61-7.24,2.1,3.39,2.12,12.77,6.81v3.26c8.81,5.18,8.92,13.33,8.92,13.68v4.69l-1.86-3.34Z"/></g><path class="t" d="M92.49,629.73c-.41,.36-.86,.66-1.34,.88,0,0-.02,.02-.02,.02-2.09,1.01-4.79,.9-7.31-.53-4.69-2.67-3.31-10.69-1.09-12.84,.35-.34,.72-.54,1.09-.54,0,0,9.96-1.03,10.86,6.18,.39,3.09-.55,5.42-2.19,6.83Z"/><path class="am" d="M92.5,629.72h0c-.08,.06-.58,.44-1.34,.89,0,0-.02,.02-.02,.02-2.09,1.01-4.79,.9-7.31-.53-4.69-2.67-3.31-10.69-1.09-12.84,1.18,5.69,4.35,9.92,9.77,12.46Z"/><path class="y" d="M88.14,632.91c-1.71,0-3.48-.47-5.11-1.4-2.13-1.21-3.5-3.44-3.86-6.29-.43-3.38,.64-7.39,2.44-9.13,.79-.77,1.58-.97,2.12-.99,4.01-.39,11.7,.69,12.57,7.6,.43,3.44-.54,6.37-2.74,8.25-.44,.38-.91,.71-1.42,.98l-.29,.3h-.35c-1.05,.45-2.19,.68-3.36,.68Zm-4.18-14.57s-.05,.04-.09,.08c-.85,.83-1.83,3.66-1.48,6.39,.16,1.28,.68,2.99,2.24,3.88,1.87,1.06,3.94,1.27,5.59,.57l.24-.11c.34-.16,.67-.38,.96-.64h.02c1.35-1.17,1.93-3.08,1.64-5.41-.69-5.54-8.74-4.8-9.08-4.77h-.04Zm-.12,0h0Z"/><polygon class="am" points="166.93 1130.76 168.75 1129.96 169.15 1131.71 166.93 1130.76"/><path class="am" d="M386.11,1123.83s-156.42,32.49-221.04,10.79l-24.96-26.72,34.12,19.62,59.19,2.43,152.7-6.12Z"/><path class="am" d="M408.55,1100.21v14.33s-9.45,5.27-28.5,11.29h0c-4.99-5.76-18.52-3.18-18.52-3.18-56.75,24.32-184.86,4.05-184.86,4.05l-7.91,3.25,5.48-2.44c-78.65-17.84-119.19-173.51-125.67-185.67-3.02-5.68-7.11-7.99-10.61-8.85-6.26-28.08-11.08-59.91-13.85-95.96h0s.11-.29,.11-.29l7.25-20.27,.11-.32s24.7,237.68,125.06,298.48c6.29,3.82,12.89,6.94,19.79,9.26,0,0,.02,0,.02,0,0,0,0,0,.02,0,2.05,.31,137.95,20.8,232.09-23.71Z"/><path class="t" d="M173.42,1138.05s-36.34-10.84-73.47-60.18c-12.15-16.14-24.39-36.4-35.46-61.76-10.13-23.2-19.3-50.66-26.55-83.12,3.5,.85,7.59,3.17,10.61,8.85,6.49,12.16,46.21,155.67,115.94,179.99l1.44,5.26,1,3.66s11.31,7.89,6.49,7.3Z"/><path class="t" d="M380.05,1125.83c-10.3,3.24-23.4,6.71-39.34,9.67-26.34,4.91-60.44,8.46-102.41,7.43-15.76-.38-32.64-1.41-50.63-3.27h0l-7.57-3.25h0l-10.92-4.69-.41-1.76,7.91-3.25s128.1,20.27,184.86-4.05c0,0,13.52-2.58,18.52,3.17h0Z"/><path class="ai" d="M173.42,1138.05s-36.34-10.84-73.47-60.18c-12.15-16.14-24.39-36.4-35.46-61.76,15.49,22.87,38.91,57.21,50.38,72.92,10.5,14.39,33.62,28.66,51.06,38.06l1,3.66s11.31,7.89,6.49,7.3Z"/><path class="ai" d="M340.71,1135.5c-26.34,4.91-60.44,8.46-102.41,7.43-15.76-.38-29.05-.58-47.04-2.44l-11.35-1.62-12.16-7.3c24.97,1.15,97.33,8.57,109.46,7.3,10.27-1.08,42.91-2.52,63.51-3.36Z"/><path class="p" d="M676.85,784.15s.06,47.41-31.17,103.53c-1.74,3.13-3.58,6.29-5.52,9.47-36.76,60.16-104.43,128.66-115.29,139.53-10.86,10.86-30.92,23.39-49.29,54.31-8.54,14.35-22.84,23.48-35.71,29.14-24.42-15.17-60.4-29.92-112.23-36.4l-207.5-187.03s-19.32-103.68-46.33-168.62c0,0,66.89-30.89,82.37-68.07,0,0,7.01-32.08-28.17-16.52,42.01-66.13,64.16-133.63,64.05-202.7l13.78-28.38s3.02,3.87,8.46,10.7c38.16,47.88,195.67,241.37,273.19,272.43,0,0,136.06-10.49,159.33,2.55,7.03,3.94,11.68,6.58,14.73,8.44,7.09,4.31,5.73,4.45,5.91,6.86,.24,3.46,5.26,44.15,5.51,47.6,.25,3.46-.19,16.7-.19,16.7,0,0,.39,.69,1.09,1.84,.71,1.15,1.71,2.76,2.96,4.61Z"/><path class="x" d="M140.34,351.43s51.72,30.98,73.62,71.52c21.89,40.54-22.57,45.13-22.57,45.13,0,0-21.21-80.81-51.21-95.4-30-14.59,.17-21.25,.17-21.25Z"/><path class="y" d="M226.93,791.85s16.29-85.37,111.08-85.94c0,0-118.32-14.02-111.08,85.94Z"/><path class="j" d="M228.32,840.76s19.01-141.07,166.08-130.06c0,0-193.09-44.02-166.08,130.06Z"/><path class="y" d="M226.12,662.94s29.19-42.97,88.38-22.7c0,0-63.24-38.92-88.38,22.7Z"/><path class="j" d="M214.93,691.36s47.08-78.23,130.88-34.33c0,0-102.5-75.04-130.88,34.33Z"/><path class="y" d="M607.07,929.64c-4.29,5.4-6.93,8.5-6.93,8.5-.03,7.78-.67,14.43-2.28,18.71-6.74,17.97-77.11,69.14-98.68,96.66l-24.15-32.2-25.95-4.86-19.46-22.7h-37.3l-30.81-25.95-28.38,4.05-38.92-38.11-11.35-67.29,36.49-80.27,54.32-29.19,68.92-2.43,6.49,48.65,21.89,38.92,20.27,6.49,25.13,17.84,39.73,12.97,46.21,34.86,4.75,15.36Z"/><path class="w" d="M600.3,939.01s12.97-5.68,11.35-15.4-4.05-17.84-8.92-20.27-16.22-8.92-16.22-8.92l-.81-9.73-8.11,2.43s-10.54-37.3-47.03-21.89c0,0-8.92-22.7-24.32-25.13-15.4-2.43-30.81,3.24-42.16-30-11.35-33.24,4.05-47.84-23.51-63.24-27.57-15.4-49.46-13.78-69.73,0-20.27,13.78-29.19,8.11-43.78,20.27-14.59,12.16-58.38,90-52.7,109.46,5.68,19.46-6.49,36.49,4.86,58.38,11.35,21.89,46.21,49.46,57.57,50.27,11.35,.81,28.38,.81,38.11,7.3s19.46,13.78,33.24,12.16,25.95,12.97,25.95,12.97c0,0,11.35,11.35,25.95,12.16s13.78,8.92,15.4,16.22,16.22,19.46,16.22,19.46c0,0,31.62-14.59,17.84-38.92-13.78-24.32-35.67-33.24-35.67-33.24,0,0-26.76-3.24-47.84-21.89,0,0-3.24-4.05-25.95,3.24-22.7,7.3-20.27-19.46-44.59-20.27s-53.51,1.62-53.51-46.21-1.62-59.19-12.16-62.43,97.61-77.42,111.64-78.03,31.06,5.06,32.68,10.74,9.06,52.48,22.37,67.19c13.31,14.7,13.31,20.38,23.85,20.38s23.7-8.18,38.2,18.2c0,0,28.28-5.23,45.71,15.44,17.43,20.67,34.46,36.89,36.08,39.32Z"/><path class="am" d="M429.28,934.39c1.19,.2,2.38,.39,3.54,.54-2.32,.06-3.54-.54-3.54-.54Z"/><path class="am" d="M403.68,906.17s-12.16,21.08-14.59,40.54c-.34,2.7-.79,4.95-1.31,6.82-.41,1.45-.85,2.68-1.32,3.7-.15,.31-.28,.6-.43,.87-3.27,6.13-7.48,4.02-7.48,4.02-8.11-14.59-27.57-11.35-27.57-11.35-.2-2.22,.6-4.44,2.05-6.62,.56-.84,1.22-1.68,1.95-2.51,.92-1.03,1.95-2.05,3.06-3.04,4.01-3.57,9-6.86,13.05-9.59,.62-.42,1.18-.79,1.67-1.14,.33-.23,.64-.44,.91-.62,8.11-5.68,30-21.08,30-21.08Z"/><path class="am" d="M470.77,865.01l-1.85,8.79-.43,2.03-.75,3.55c-4.4-1.19-10.81-.86-17.56,.15-6.69,1-13.72,2.68-19.49,4.24-7.32,1.99-12.62,3.79-12.62,3.79-4.11-19.69-.68-33.3,3.84-42.02,.16-.3,.31-.59,.47-.88,4.56-8.34,9.99-11.91,9.99-11.91l12.91,1.26,2.24,2.72,16.54,20.12,6.72,8.16Z"/><path class="t" d="M480.7,869.69l-11.35,4.05-5.68,21.08,31.62,15.4,10.82-9.28,3.77-15.05s-21.08-9.73-29.19-16.22Z"/><path class="am" d="M538.27,885.9l-8.2,13.97-5.18,8.82-.36,.62-5.6,9.55-2.55,4.34h-13.78v-15.4l.98-1.87h0s.17-.33,.17-.33l5.12-9.83,3.45-6.62,1.05-1.05,2.2-2.2h22.7Z"/><path class="am" d="M578.81,933.74l-4.56,6.62-2.89,4.2-.12,.17-2.21,3.19-6.43,9.33-13.78,1.62-2.42-8.31-3.25-11.15-8.85,.84-8.18,.78-6.49-19.46,.96-1.69,4.4-7.71,.91-1.59,3.46-6.06,3.24-5.66s.62-.2,1.44-.47c.24-.08,.51-.16,.79-.25,1.39-.43,3.02-.9,3.45-.9,.81,0,28.38,6.49,28.38,6.49l11.81,29.14,.16,.39,.19,.47Z"/><polygon class="am" points="429.63 932.93 435.3 932.12 437.73 938.6 429.63 965.36 421.52 970.22 410.98 971.84 429.63 932.93"/><polygon class="am" points="449.08 946.71 448.13 948.62 448.13 948.63 436.98 970.92 434.49 975.9 429.63 972.66 423.14 968.6 429.63 957.25 429.63 957.22 432.6 941.63 432.87 940.22 447.46 938.6 449.08 946.71"/><path class="q" d="M223,968.93s50-85,71-96,11-29,11-29c0,0-69,49-82,125Z"/><polygon class="am" points="480.7 958.06 470.38 987.58 469.35 990.49 451.52 987.25 452.2 982.51 453.14 975.9 447.32 979.92 442.6 983.2 435.3 978.33 437.55 973.94 450.71 948.33 461.25 948.33 466.11 957.25 474.56 957.72 480.7 958.06"/><path class="am" d="M496.11,962.12v16.22l-10.61,12.84h0l-4.79,5.81-9.73-4.05,2.38-7.53,7.35-23.28h15.4Z"/><polygon class="am" points="534.22 992.11 529.35 1009.14 514.72 1018.29 509.89 1021.3 505.84 1020.49 498.54 1012.38 506.65 1003.46 497.73 1010.76 485.57 1000.22 485.57 993.74 489.83 988.68 498.54 978.33 519.62 978.33 515.57 992.11 534.22 992.11"/><polygon class="am" points="539.89 1014.01 537.46 1018.06 533.19 1021.76 513.14 1039.14 512.33 1030.22 509.89 1026.17 510.7 1022.11 513.58 1020.31 530.16 1009.95 530.16 1010.76 539.89 1014.01"/><path class="t" d="M403.68,906.17s-12.16,21.08-14.59,40.54c-.34,2.7-.79,4.95-1.31,6.82-.41,1.45-.85,2.68-1.32,3.7-1.01,.34-2.05,.63-3.05,.84-4.05,.81-8.11-4.86-11.35-8.11s-12.16-3.24-16.22-3.24c-1.2,0-2.12-1.06-2.81-2.56,.56-.84,1.22-1.68,1.95-2.51,.92-1.03,1.95-2.05,3.06-3.04,4.01-3.57,9-6.86,13.05-9.59,.62-.42,1.18-.79,1.67-1.14,.33-.23,.64-.44,.91-.62,8.11-5.68,30-21.08,30-21.08Z"/><path class="q" d="M177.33,714.54s66.67,10.4,99.67,94.4,20-50,20-50c0,0-84.33-46.79-119.67-44.4Z"/><g><polygon class="am" points="440.17 808.07 433.95 820.5 429.63 829.15 420.71 845.36 394.76 855.09 381.79 834.01 388.28 816.17 388.34 816.17 389.69 815.96 436.82 808.59 440.17 808.07"/><path class="t" d="M437.73,808.07l-3.79,12.43-1.66,2.55-12.39,19.07s-21.08,6.49-23.51,5.68-11.35-13.78-11.35-13.78l3.31-17.85,1.35-.21,47.13-7.36,.92-.53Z"/></g><g><g><path class="am" d="M431.21,821.36l-.06,.06c-.24,.23-.49,.45-.74,.66-1.05,.92-2.15,1.69-3.28,2.33-3.47,1.94-7.19,2.47-10.48,1.12-14.08-5.81-98.84-15.76-168.2,95.42-2.94,4.7-5.84,9.62-8.71,14.76-5.49,9.84-10.86,20.51-16.06,32.08,0,0,.33-5.38,1.45-14.4,3.56-28.73,15.15-94.42,49.6-140.77,.96-1.29,1.93-2.55,2.93-3.81,14.33-18.14,32.41-32.92,55.19-40.68,1.15-.4,2.32-.77,3.49-1.13,1.04-.32,2.08-.62,3.15-.91,4.61-1.26,9.41-2.23,14.38-2.89,18.27-2.44,39.07-.78,62.77,6.3,3.04,1.83,5.72,3.73,8.08,5.68,20.48,16.9,16.03,37.05,6.49,46.18Z"/><path class="t" d="M284.5,861.58c-23.69,24.1-36,50.33-44.75,74.13-5.49,9.84-10.86,20.51-16.06,32.08,0,0,.33-5.38,1.45-14.4,3.56-28.73,15.15-94.42,49.6-140.77,.96-1.29,1.93-2.55,2.93-3.81,6.97,11.21,17.97,40.39,6.83,52.77Z"/><path class="t" d="M431.21,821.36l-.06,.06c-31.96,.02-70.21-15.96-76.93-27.14-5.41-9.02-16.17-20.71-21.36-26.15,1.15-.4,2.32-.77,3.49-1.13,1.04-.32,2.08-.62,3.15-.91,4.61-1.26,9.41-2.23,14.38-2.89,18.27-2.44,39.07-.78,62.77,6.3,3.04,1.83,5.72,3.73,8.08,5.68,20.48,16.9,16.03,37.05,6.49,46.18Z"/></g><path class="ai" d="M424.73,775.18c-3.87,.22-8.29-.09-11.32-1.98-6.49-4.05-35.67-7.3-48.65-6.49-5.08,.32-8.55-1.35-10.88-3.51,18.27-2.44,39.07-.78,62.77,6.3,3.04,1.83,5.72,3.73,8.08,5.68Z"/></g><g><path class="am" d="M512.05,884.92c-.12,1.32-.42,2.85-.9,4.53-.28,.96-.61,1.98-1.01,3.04-2.58,6.93-7.71,15.64-15.64,23.42-3.24,3.19-6.92,6.2-11.1,8.89-7.23,4.65-15.91,8.29-26.1,9.96-1.32,.22-2.68,.41-4.05,.55-3.75,.41-7.69,.55-11.84,.38-2.76-.11-5.62-.36-8.56-.75,2.46-.06,6.14-.88,10.91-3.93,.25-.16,.5-.33,.76-.5,4.43-2.99,9.76-7.91,15.88-15.84,4.97-6.45,10.46-14.9,16.43-25.97,.32-.58,.63-1.18,.96-1.79,.86-1.63,1.74-3.32,2.62-5.05,.57-1.64,1.18-3.12,1.82-4.47,.51-1.06,1.04-2.04,1.59-2.94,10.99-17.89,29.54-3.36,28.23,10.48Z"/><path class="t" d="M512.05,884.92c-.12,1.32-.42,2.85-.9,4.53-.28,.96-.61,1.98-1.01,3.04-2.58,6.93-7.71,15.64-15.64,23.42-10.56,6.66-22.97,11.33-36.5,10.53,0,0,12.23-20.06,18.83-37.75,.32-.58,.63-1.18,.96-1.79,.86-1.63,1.74-3.32,2.62-5.05,.57-1.64,1.18-3.12,1.82-4.47,.51-1.06,1.04-2.04,1.59-2.94,10.99-17.89,29.54-3.36,28.23,10.48Z"/></g><path class="am" d="M596.95,956.75c-2.74,6.06-6.48,10.68-9.06,13.43-.03,.04-.07,.07-.11,.11-.62,.66-1.18,1.21-1.62,1.64,0,0-.02,.02-.02,.02-.77,.73-1.24,1.11-1.24,1.11-.12,.2-.24,.4-.35,.6-6.25,10.67-9.64,23.67-11.45,33.58-1.63,8.89-1.99,15.28-1.99,15.28-3.5-8.87-3.64-19.36-2.07-29.8,1.36-8.98,3.98-17.92,6.83-25.76h0c.24-.65,.47-1.29,.71-1.91,5.16-13.71,10.74-23.61,10.74-23.61,2.43-12.97,12.97-4.86,12.97-4.86,.86,7.74-.82,14.58-3.34,20.17Z"/><path class="am" d="M590.16,943.47l-2.89,5-2.98,5.33h0s-4.35,7.79-4.35,7.79l-1.72,3.09-3.36,6.01-5.79,1.97-4.86-15.4,5.69-8.25,2.64-3.83,.49-.71,.47-.68,6.93-10.05,9.73,9.73Z"/><g><path class="am" d="M378.14,890.36c-.33,6.5-1.17,12.53-2.42,18.05-2.32,10.24-6.08,18.76-10.7,25.42-8.4,12.09-19.66,18.03-30.41,16.95-11.39-1.14-22.21-10.18-28.43-28.11-4.24-12.21-6.35-28.54-5.06-49.33-8.98-54.41-26.78-90.2-46.24-113.73-10.56-12.79-21.62-21.96-32.02-28.53-25.76-16.3-47.41-16.65-47.41-16.65,12.31-2.05,24.24-2.69,35.73-2.1,3.44,.18,6.83,.46,10.2,.86,96.35,11.22,159.58,108.88,156.76,177.18Z"/><path class="t" d="M378.14,890.36c-.33,6.5-1.17,12.53-2.42,18.05-8.52,24.52-37.71,39.11-57.98,19.65-18.65-25.13-8.11-107.02-62.86-168.46-10.56-12.79-21.62-21.96-32.02-28.53-25.76-16.3-47.41-16.65-47.41-16.65,12.31-2.05,24.24-2.69,35.73-2.1,3.44,.18,6.83,.46,10.2,.86,96.35,11.22,159.58,108.88,156.76,177.18Z"/><path class="ai" d="M378.21,883.87c-3.44-2.85-7.02-10.96-8.59-27.15-2.43-25.13-47.03-84.32-54.32-91.62-3.71-3.71-3.86-7.61-3.11-10.57,40.83,35.54,65.24,87.12,66.02,129.34Z"/></g><path class="am" d="M429.28,934.39c1.19,.2,2.38,.39,3.54,.54-2.32,.06-3.54-.54-3.54-.54Z"/><path class="am" d="M406.19,972.14c-2.08,1-4.09,1.74-5.96,2.26-3.41,.96-6.35,1.23-8.31,1.09-7.39-.53-11.69-7.6-9.53-14.69,.91-2.99,2.97-5.98,6.41-8.51,.93-.68,1.97-1.33,3.12-1.94,33.24-15.4,34.05-66.48,34.05-66.48,15.42,58.13-3.88,80.67-19.78,88.26Z"/><path class="t" d="M596.95,956.75c-2.74,6.06-6.48,10.68-9.06,13.43-.03,.04-.07,.07-.11,.11-.62,.66-1.18,1.21-1.62,1.64,0,0-.02,.02-.02,.02-.77,.73-1.24,1.11-1.24,1.11-.12,.2-.24,.4-.35,.6-6.25,10.67-9.64,23.67-11.45,33.58-.53-7.49-.47-21.36,3.49-42.19,5.16-13.71,10.74-23.61,10.74-23.61,2.43-12.97,12.97-4.86,12.97-4.86,.86,7.74-.82,14.58-3.34,20.17Z"/><path class="t" d="M578.62,933.27l-12.79,17.5s-10.54,3.24-12.16,2.43c-1.62-.81-7.3-17.84-7.3-17.84,0,0-17.03,3.24-18.65,2.43s-6.49-17.03-6.49-17.03l8.12-16.23,3.24-5.66s.62-.2,1.44-.47c.24-.08,.51-.16,.79-.25,1.39-.43,3.02-.9,3.45-.9,.81,0,28.38,6.49,28.38,6.49l11.81,29.14,.16,.39Z"/><path class="t" d="M538.27,885.9l-8.2,13.97-12.07,20.08h-12.97s-1.31-10.13-1.28-14.37l5.12-9.83,3.45-6.62,1.05-1.05,2.2-2.2h22.7Z"/><polygon class="t" points="590.16 943.47 578 965.36 570.7 965.36 568.27 953.2 573.5 943.78 581.24 932.12 590.16 943.47"/><path class="ai" d="M487.6,913.06s16.22-18.65,17.03-24.32c.81-5.68-2.43,.81-3.24,2.43s-6.49,11.35-13.78,21.89Z"/><path class="t" d="M406.19,972.14c-14.5,1.43-20.96-5.47-23.8-11.33,.91-2.99,2.97-5.98,6.41-8.51,.93-.68,1.97-1.33,3.12-1.94,33.24-15.4,34.05-66.48,34.05-66.48,15.42,58.13-3.88,80.67-19.78,88.26Z"/><path class="t" d="M448.13,948.63h0s-1.48-9.22-1.48-9.22l-14.05,2.22-2.97,15.58c.02,5.61,.28,13.08,3.24,13.82,1.65,.41,3.1,.19,4.11-.11l11.15-22.29Z"/><path class="ai" d="M428,906.98s.81,28.38-2.43,33.24,.81-10.54,2.43-33.24Z"/><path class="t" d="M480.7,958.06l-10.33,29.52c-2.67,.32-5.89,.48-9.94-.33-4.05-.81-6.8-2.83-8.24-4.74l.94-6.61-5.81,4.02c-2.88-.24-3.92,.03-6.35-.78-2.43-.81-3.16-4.51-3.42-5.21l13.15-25.6h7.35l8.06,10.54,8.45-1.15,6.15,.34Z"/><path class="t" d="M496.11,962.12v16.22l-10.61,12.84h0c-2.92,1.22-7.22,2.56-8.85,1.75-1.62-.81-2.76-3.96-3.3-7.53l7.35-23.28h15.4Z"/><path class="t" d="M470.77,865.01l-1.85,8.79-.43,2.03-.75,3.55c-4.4-1.19-10.81-.86-17.56,.15-14.48-.93-29.28,3.3-29.28,3.3-2.23-13.83-.7-27.61,1.48-38.17,4.56-8.34,9.99-11.91,9.99-11.91l12.91,1.26,2.24,2.72,16.54,20.12,6.72,8.16Z"/><path class="t" d="M534.22,992.11l-4.86,17.03-14.63,9.15c-4.5-.18-6.85-3.06-9.28-6.31-2.38-3.16,1.43-8.65,1.61-8.91-.19,.18-2.65,2.39-8.1,1.61-5.68-.81-9.73-8.11-10.54-11.35-.21-.84,.4-2.56,1.42-4.65l8.72-10.35h21.08l-4.05,13.78h18.65Z"/><path class="t" d="M539.89,1014.01l-2.43,4.05-4.26,3.7c-1.8,1.01-3.89,2.21-6.28,3.6-9.73,5.68-12.16,2.43-12.97,1.62-.81-.81-1.62-3.24-1.62-4.86,0-.25,.47-.89,1.26-1.8l16.58-10.36v.81l9.73,3.24Z"/><path class="ai" d="M430.44,834.82s-8.11,8.11-8.11,12.97,.81,0,.81,0l7.3-12.97Z"/><polygon class="ai" points="388.28 919.14 399.63 911.85 393.64 924.61 397.19 915.09 388.28 919.14"/><path class="y" d="M591.78,869.69s38.92,11.35,52.7-11.35c0,0-12.16,27.57-52.7,11.35Z"/><path class="w" d="M598.27,842.93s4.05-11.35-4.05-17.84c-8.11-6.49-25.95-25.13-42.16-19.46-16.22,5.68,26.76,17.84,35.67,23.51,8.92,5.68,10.54,13.78,10.54,13.78Z"/><path class="w" d="M629.89,864.82s-17.84-4.05-22.7-6.49c-4.86-2.43-7.3-1.62-11.35,4.86s30,7.3,34.05,1.62Z"/><path class="ak" d="M580.43,750.5s-28.38-8.92-28.38,9.73,22.7,18.65,42.16,25.95c19.46,7.3,34.05,15.4,47.84,35.67,13.78,20.27,10.54,28.38,2.43,36.49-8.11,8.11-28.38,0-28.38,0,0,0-15.4-1.62-15.4-15.4-.81-11.35,10.54-36.49-8.92-44.59-19.46-8.11-58.38-25.95-50.27-40.54,8.11-14.59,31.62-11.35,38.92-7.3Z"/><path class="y" d="M659.89,761.85s1.62,67.29-7.3,93.24c0,0,8.11-81.08,7.3-93.24Z"/><path class="y" d="M540.7,816.17s-31.28-10.54-14.42-54.73c0,0,14.42-29.59,44.42-19.86,0,0-36.96-12.39-49.69,18.54-12.74,30.92,4.29,51.19,19.69,56.06Z"/><path class="aa" d="M676.85,784.15s.06,47.41-31.17,103.53c-2.21-8.63,6.92-33.4,6.92-33.4,10.15-26.1,9.28-126.72,8.98-147.75,7.09,4.31,5.73,4.45,5.91,6.86,.24,3.46,5.26,44.15,5.51,47.6,.25,3.46-.19,16.7-.19,16.7,0,0,.39,.69,1.09,1.84,.71,1.15,1.71,2.76,2.96,4.61Z"/></g></svg>