<svg xmlns="http://www.w3.org/2000/svg" version="1.1" xmlns:xlink="http://www.w3.org/1999/xlink" xmlns:svgjs="http://svgjs.com/svgjs" width="1980" height="1080" preserveAspectRatio="none" viewBox="0 0 1980 1080"><g mask="url(&quot;#SvgjsMask1264&quot;)" fill="none"><rect width="1980" height="1080" x="0" y="0" fill="rgba(18, 18, 18, 1)"></rect><path d="M540 204.83C463.38 237.42 386.76 237.57 386.76 270C386.76 302.37 459.52 326.32 540 334.43C671.14 347.64 684.82 339.79 810 312.63C833.32 307.57 837 294.16 837 270C837 182.85 866.85 102.48 810 90C718.35 69.89 675 147.42 540 204.83" stroke="rgba(11, 11, 12, 1)" stroke-width="2"></path><path d="M1890 481.5C1860.81 481.5 1828.42 511.36 1828.42 540C1828.42 567.61 1860.69 594 1890 594C1916.2 594 1939.44 567.49 1939.44 540C1939.44 511.24 1916.32 481.5 1890 481.5" stroke="rgba(11, 11, 12, 1)" stroke-width="2"></path><path d="M205.71 0C262.63 76.63 255.4 164.62 200.57 270C152.55 362.3 65.55 395.36 0 395.36C-34.74 395.36 0 332.68 0 270C0 135 -58.38 76.62 0 0C44.48 -58.38 162.35 -58.37 205.71 0" stroke="rgba(14, 14, 16, 1)" stroke-width="2"></path><path d="M540 127.24C424.15 127.24 299.35 33.77 299.35 0C299.35 -29.85 419.67 0 540 0C627.86 0 715.71 -28.47 715.71 0C715.71 35.15 632.33 127.24 540 127.24" stroke="rgba(11, 11, 12, 1)" stroke-width="2"></path><path d="M949.5 270C1006.32 194.74 998.79 173.69 1080 132.63C1199.04 72.44 1214.71 68.82 1350 67.5C1484.71 66.19 1504.08 148.79 1620 127.36C1686.62 115.04 1650.8 30.31 1715.07 0C1785.8 -33.37 1802.53 0 1890 0C2025 0 2039.73 -14.73 2160 0C2174.73 1.8 2168.95 19.53 2160 33.06C2079.64 154.53 2074.22 154.48 1981.38 270C1939.22 322.45 1937.73 321.51 1890 369C1802.04 456.51 1800.88 455.46 1710 540C1665.88 581.04 1672.65 592.37 1620 620.16C1492.65 687.37 1484.6 731.14 1350 730C1214.6 728.86 1220.5 648.64 1080 615.6C950.5 585.14 921.37 554.61 810 603C697.66 651.81 692.89 691.91 632.57 810C571.06 930.41 608.62 956.68 566.34 1080C562.33 1091.68 553.17 1080 540 1080C405 1080 405 1080 270 1080C135 1080 67.5 1147.5 0 1080C-67.5 1012.5 0 945 0 810C0 730.48 -40.2 707.23 0 650.96C56.23 572.23 116.82 614.71 192.86 540C251.82 482.08 202.52 410.76 270 385.71C376.09 346.33 407.48 385.48 540 411.14C677.48 437.76 703.73 526.89 810 490.26C908.48 456.32 871.32 373.56 949.5 270" stroke="rgba(14, 14, 16, 1)" stroke-width="2"></path><path d="M2034.51 540C2034.51 481.38 2122.71 422.76 2160 422.76C2185.46 422.76 2160 481.38 2160 540C2160 598.62 2185.46 657.24 2160 657.24C2122.71 657.24 2034.51 598.62 2034.51 540" stroke="rgba(14, 14, 16, 1)" stroke-width="2"></path><path d="M270 680.87C229.99 680.87 215 744.78 215 810C215 883.59 228.95 958.5 270 958.5C321.01 958.5 399.13 882 399.13 810C399.13 743.19 322.06 680.87 270 680.87" stroke="rgba(14, 14, 16, 1)" stroke-width="2"></path><path d="M1788.75 810C1788.75 751.62 1838.98 697.85 1890 697.85C1941.68 697.85 1994.14 751.55 1994.14 810C1994.14 875.12 1941.61 945 1890 945C1838.92 945 1788.75 875.2 1788.75 810" stroke="rgba(14, 14, 16, 1)" stroke-width="2"></path><path d="M930.36 1080C930.36 1019.76 991.48 885.94 1080 885.94C1198.43 885.94 1344.26 1026.27 1344.26 1080C1344.26 1123.3 1212.13 1080 1080 1080C1005.18 1080 930.36 1116.79 930.36 1080" stroke="rgba(11, 11, 12, 1)" stroke-width="2"></path><path d="M0 243C1.97 243 7.71 257.98 7.71 270C7.71 273.89 2.52 274.82 0 274.82C-1.34 274.82 0 272.41 0 270C0 256.5 -1.89 243 0 243" stroke="rgba(11, 11, 12, 1)" stroke-width="2"></path><path d="M540 49.66C494.79 49.66 446.09 13.18 446.09 0C446.09 -11.65 493.05 0 540 0C574.29 0 608.57 -11.11 608.57 0C608.57 13.72 576.03 49.66 540 49.66" stroke="rgba(14, 14, 16, 1)" stroke-width="2"></path><path d="M1062 270C1062 258.66 1067.36 253.2 1080 251.05C1211.36 228.66 1215.11 219.99 1350 220.91C1485.11 221.83 1484.94 238.35 1620 254.72C1687.44 262.89 1755 246.01 1755 270C1755 298.65 1694.71 331.54 1620 360C1492.21 408.68 1482.09 434.3 1350 424.29C1212.09 413.84 1201.99 384.44 1080 319.09C1057.99 307.3 1062 292.68 1062 270" stroke="rgba(11, 11, 12, 1)" stroke-width="2"></path><path d="M1890 236.25C1837.36 236.25 1810.14 89.47 1810.14 0C1810.14 -28.65 1850.07 0 1890 0C1960.88 0 2031.75 -40.13 2031.75 0C2031.75 78 1948.16 236.25 1890 236.25" stroke="rgba(14, 14, 16, 1)" stroke-width="2"></path><path d="M387 540C387 496.14 464.15 487.84 540 487.84C606.22 487.84 671.14 497.75 671.14 540C671.14 600.33 608.51 693 540 693C466.44 693 387 598.72 387 540" stroke="rgba(14, 14, 16, 1)" stroke-width="2"></path><path d="M2129.58 540C2129.58 525.79 2150.96 511.58 2160 511.58C2166.17 511.58 2160 525.79 2160 540C2160 554.21 2166.17 568.42 2160 568.42C2150.96 568.42 2129.58 554.21 2129.58 540" stroke="rgba(11, 11, 12, 1)" stroke-width="2"></path><path d="M0 743.42C28.22 743.42 72.35 760.9 90 810C132.86 929.19 152.16 986.6 121.03 1080C107.16 1121.6 18.73 1121.78 0 1080C-41.78 986.78 0 945 0 810C0 776.71 -16.78 743.42 0 743.42" stroke="rgba(11, 11, 12, 1)" stroke-width="2"></path><path d="M1882.5 810C1882.5 805.67 1886.22 801.69 1890 801.69C1893.83 801.69 1897.71 805.67 1897.71 810C1897.71 814.82 1893.82 820 1890 820C1886.22 820 1882.5 814.83 1882.5 810" stroke="rgba(14, 14, 16, 1)" stroke-width="2"></path><path d="M1011.69 1080C1011.69 1052.5 1039.59 991.41 1080 991.41C1134.07 991.41 1200.64 1055.47 1200.64 1080C1200.64 1099.77 1140.32 1080 1080 1080C1045.85 1080 1011.69 1096.79 1011.69 1080" stroke="rgba(11, 11, 12, 1)" stroke-width="2"></path></g><defs><mask id="SvgjsMask1264"><rect width="1980" height="1080" fill="#ffffff"></rect></mask></defs></svg>