<?xml version="1.0" encoding="UTF-8"?>
<svg xmlns="http://www.w3.org/2000/svg" xmlns:xlink="http://www.w3.org/1999/xlink" viewBox="0 0 237.43 397.01">
  <defs>
    <style>
      .cls-1 {
        fill: #c6659c;
      }

      .cls-2, .cls-3, .cls-4, .cls-5, .cls-6, .cls-7, .cls-8, .cls-9, .cls-10, .cls-11, .cls-12, .cls-13, .cls-14, .cls-15, .cls-16, .cls-17, .cls-18, .cls-19, .cls-20, .cls-21, .cls-22, .cls-23, .cls-24, .cls-25, .cls-26, .cls-27, .cls-28, .cls-29, .cls-30, .cls-31, .cls-32, .cls-33, .cls-34, .cls-35, .cls-36, .cls-37, .cls-38, .cls-39, .cls-40, .cls-41, .cls-42, .cls-43, .cls-44, .cls-45 {
        mix-blend-mode: multiply;
      }

      .cls-2, .cls-28, .cls-37 {
        opacity: .4;
      }

      .cls-3 {
        fill: url(#_Áåçûìÿííûé_ãðàäèåíò_35);
      }

      .cls-3, .cls-14, .cls-18, .cls-36, .cls-38, .cls-39, .cls-40, .cls-45 {
        opacity: .6;
      }

      .cls-46 {
        fill: #7a496c;
      }

      .cls-46, .cls-47, .cls-48, .cls-13, .cls-49, .cls-50, .cls-24, .cls-28, .cls-33, .cls-36, .cls-37, .cls-51, .cls-52 {
        fill-rule: evenodd;
      }

      .cls-4 {
        fill: url(#_Áåçûìÿííûé_ãðàäèåíò_285-2);
      }

      .cls-4, .cls-44 {
        opacity: .8;
      }

      .cls-53, .cls-47, .cls-48 {
        fill: #fff;
      }

      .cls-47, .cls-5, .cls-6, .cls-54, .cls-7, .cls-11, .cls-12, .cls-15, .cls-16, .cls-17, .cls-19, .cls-20, .cls-21, .cls-22, .cls-23, .cls-25, .cls-26, .cls-30, .cls-31, .cls-32, .cls-33, .cls-34, .cls-35, .cls-41, .cls-43 {
        opacity: .5;
      }

      .cls-5 {
        fill: url(#_Áåçûìÿííûé_ãðàäèåíò_4-6);
      }

      .cls-55 {
        fill: #34c7ff;
      }

      .cls-6 {
        fill: url(#_Áåçûìÿííûé_ãðàäèåíò_397);
      }

      .cls-56 {
        fill: url(#_Áåçûìÿííûé_ãðàäèåíò_141-6);
      }

      .cls-57 {
        fill: #ffebed;
      }

      .cls-7 {
        fill: #7a4ac0;
      }

      .cls-8 {
        fill: url(#_Áåçûìÿííûé_ãðàäèåíò_73-2);
      }

      .cls-8, .cls-29 {
        opacity: .91;
      }

      .cls-58 {
        fill: url(#_Áåçûìÿííûé_ãðàäèåíò_141-2);
      }

      .cls-9 {
        opacity: .2;
      }

      .cls-10 {
        fill: url(#_Áåçûìÿííûé_ãðàäèåíò_70-7);
      }

      .cls-10, .cls-27 {
        opacity: .3;
      }

      .cls-11 {
        fill: url(#_Áåçûìÿííûé_ãðàäèåíò_4-8);
      }

      .cls-59 {
        isolation: isolate;
      }

      .cls-12 {
        fill: url(#_Áåçûìÿííûé_ãðàäèåíò_4-10);
      }

      .cls-13 {
        fill: url(#_Áåçûìÿííûé_ãðàäèåíò_261-2);
        opacity: .72;
      }

      .cls-14 {
        fill: url(#_Áåçûìÿííûé_ãðàäèåíò_52);
      }

      .cls-15 {
        fill: url(#_Áåçûìÿííûé_ãðàäèåíò_4-3);
      }

      .cls-16 {
        fill: url(#_Áåçûìÿííûé_ãðàäèåíò_4-4);
      }

      .cls-60 {
        fill: url(#_Áåçûìÿííûé_ãðàäèåíò_64);
      }

      .cls-61 {
        fill: url(#_Áåçûìÿííûé_ãðàäèåíò_141);
      }

      .cls-49 {
        fill: url(#linear-gradient-2);
      }

      .cls-17 {
        fill: url(#_Áåçûìÿííûé_ãðàäèåíò_4-2);
      }

      .cls-50 {
        fill: url(#linear-gradient);
      }

      .cls-62 {
        fill: url(#_Áåçûìÿííûé_ãðàäèåíò_26);
      }

      .cls-63 {
        fill: #e28183;
      }

      .cls-64 {
        fill: url(#_Áåçûìÿííûé_ãðàäèåíò_178);
      }

      .cls-18, .cls-36 {
        fill: #3c2e92;
      }

      .cls-19 {
        fill: url(#_Áåçûìÿííûé_ãðàäèåíò_70-11);
      }

      .cls-65 {
        fill: url(#_Áåçûìÿííûé_ãðàäèåíò_71);
      }

      .cls-66 {
        fill: url(#_Áåçûìÿííûé_ãðàäèåíò_71-4);
      }

      .cls-20 {
        fill: url(#_Áåçûìÿííûé_ãðàäèåíò_4-5);
      }

      .cls-21 {
        fill: url(#_Áåçûìÿííûé_ãðàäèåíò_4);
      }

      .cls-22 {
        fill: url(#_Áåçûìÿííûé_ãðàäèåíò_70-13);
      }

      .cls-67 {
        fill: url(#_Áåçûìÿííûé_ãðàäèåíò_59);
      }

      .cls-68 {
        fill: #7f9ec9;
      }

      .cls-69, .cls-37 {
        fill: #2c1852;
      }

      .cls-70 {
        fill: #ee8183;
      }

      .cls-23 {
        fill: url(#_Áåçûìÿííûé_ãðàäèåíò_4-9);
      }

      .cls-24 {
        fill: url(#_Áåçûìÿííûé_ãðàäèåíò_21);
        opacity: .7;
      }

      .cls-25 {
        fill: url(#_Áåçûìÿííûé_ãðàäèåíò_70-8);
      }

      .cls-26 {
        fill: url(#_Áåçûìÿííûé_ãðàäèåíò_70-3);
      }

      .cls-27 {
        fill: url(#_Áåçûìÿííûé_ãðàäèåíò_70-10);
      }

      .cls-71 {
        fill: url(#_Áåçûìÿííûé_ãðàäèåíò_387);
      }

      .cls-72 {
        fill: url(#_Áåçûìÿííûé_ãðàäèåíò_141-3);
      }

      .cls-28 {
        fill: #66044f;
      }

      .cls-29 {
        fill: url(#_Áåçûìÿííûé_ãðàäèåíò_73);
      }

      .cls-73 {
        fill: #9f4a8b;
      }

      .cls-30 {
        fill: url(#_Áåçûìÿííûé_ãðàäèåíò_70-4);
      }

      .cls-74 {
        fill: url(#_Áåçûìÿííûé_ãðàäèåíò_64-2);
      }

      .cls-31 {
        fill: url(#_Áåçûìÿííûé_ãðàäèåíò_70-9);
      }

      .cls-75 {
        fill: #38368e;
      }

      .cls-76 {
        fill: #5b91c0;
      }

      .cls-32 {
        fill: url(#_Áåçûìÿííûé_ãðàäèåíò_70);
      }

      .cls-33 {
        fill: url(#_Áåçûìÿííûé_ãðàäèåíò_261);
      }

      .cls-34 {
        fill: url(#_Áåçûìÿííûé_ãðàäèåíò_70-2);
      }

      .cls-77 {
        fill: #fe9083;
      }

      .cls-35 {
        fill: url(#_Áåçûìÿííûé_ãðàäèåíò_4-7);
      }

      .cls-78 {
        fill: #ffbcaf;
      }

      .cls-79 {
        fill: #cb5f7d;
      }

      .cls-80 {
        fill: #cb4d7a;
      }

      .cls-38 {
        fill: url(#_Áåçûìÿííûé_ãðàäèåíò_48-3);
      }

      .cls-81 {
        fill: url(#_Áåçûìÿííûé_ãðàäèåíò_55);
      }

      .cls-39 {
        fill: url(#_Áåçûìÿííûé_ãðàäèåíò_48-2);
      }

      .cls-82 {
        fill: url(#_Áåçûìÿííûé_ãðàäèåíò_141-4);
      }

      .cls-40 {
        fill: url(#_Áåçûìÿííûé_ãðàäèåíò_48);
      }

      .cls-83 {
        fill: url(#_Áåçûìÿííûé_ãðàäèåíò_292);
      }

      .cls-84 {
        fill: url(#_Áåçûìÿííûé_ãðàäèåíò_71-5);
      }

      .cls-85 {
        fill: url(#_Áåçûìÿííûé_ãðàäèåíò_141-5);
      }

      .cls-41 {
        fill: url(#_Áåçûìÿííûé_ãðàäèåíò_70-6);
      }

      .cls-86 {
        fill: url(#_Áåçûìÿííûé_ãðàäèåíò_184);
      }

      .cls-87 {
        fill: url(#_Áåçûìÿííûé_ãðàäèåíò_71-2);
      }

      .cls-88 {
        fill: url(#_Áåçûìÿííûé_ãðàäèåíò_354);
      }

      .cls-42 {
        fill: url(#_Áåçûìÿííûé_ãðàäèåíò_70-5);
        opacity: .76;
      }

      .cls-51 {
        fill: url(#_Áåçûìÿííûé_ãðàäèåíò_74);
      }

      .cls-43 {
        fill: url(#_Áåçûìÿííûé_ãðàäèåíò_70-12);
      }

      .cls-52 {
        fill: #953752;
      }

      .cls-89 {
        fill: #d2726c;
      }

      .cls-44 {
        fill: url(#_Áåçûìÿííûé_ãðàäèåíò_285);
      }

      .cls-90 {
        fill: #131163;
      }

      .cls-91 {
        fill: url(#_Áåçûìÿííûé_ãðàäèåíò_71-3);
      }

      .cls-45 {
        fill: url(#_Áåçûìÿííûé_ãðàäèåíò_48-4);
      }
    </style>
    <linearGradient id="linear-gradient" x1="4832.66" y1="450.48" x2="4832.66" y2="418.63" gradientTransform="translate(-4685.58 240.4) rotate(-3.01) scale(1 .91) skewX(.52)" gradientUnits="userSpaceOnUse">
      <stop offset="0" stop-color="#693760"/>
      <stop offset=".99" stop-color="#371143"/>
    </linearGradient>
    <linearGradient id="linear-gradient-2" x1="4730.06" y1="392.26" x2="4730.06" y2="361.66" gradientTransform="translate(-4650.32)" xlink:href="#linear-gradient"/>
    <linearGradient id="_Áåçûìÿííûé_ãðàäèåíò_74" data-name="Áåçûìÿííûé ãðàäèåíò 74" x1="113.16" y1="375.36" x2="113.16" y2="155.7" gradientTransform="translate(237.43) rotate(-180) scale(1 -1)" gradientUnits="userSpaceOnUse">
      <stop offset="0" stop-color="#6456c0"/>
      <stop offset="1" stop-color="#5f2c95"/>
    </linearGradient>
    <linearGradient id="_Áåçûìÿííûé_ãðàäèåíò_261" data-name="Áåçûìÿííûé ãðàäèåíò 261" x1="-3340.52" y1="391.11" x2="-3340.52" y2="337.32" gradientTransform="translate(-3228.98 87.77) rotate(176.72) scale(1 -1)" gradientUnits="userSpaceOnUse">
      <stop offset=".01" stop-color="#6a2279"/>
      <stop offset="1" stop-color="#fff"/>
    </linearGradient>
    <linearGradient id="_Áåçûìÿííûé_ãðàäèåíò_261-2" data-name="Áåçûìÿííûé ãðàäèåíò 261" x1="-3355.89" y1="463.79" x2="-3355.89" y2="405.84" xlink:href="#_Áåçûìÿííûé_ãðàäèåíò_261"/>
    <linearGradient id="_Áåçûìÿííûé_ãðàäèåíò_21" data-name="Áåçûìÿííûé ãðàäèåíò 21" x1="121.4" y1="220.31" x2="121.4" y2="184.12" gradientTransform="translate(237.43) rotate(-180) scale(1 -1)" gradientUnits="userSpaceOnUse">
      <stop offset=".01" stop-color="#63517c"/>
      <stop offset="1" stop-color="#8e72b3"/>
    </linearGradient>
    <linearGradient id="_Áåçûìÿííûé_ãðàäèåíò_354" data-name="Áåçûìÿííûé ãðàäèåíò 354" x1="128.13" y1="91.7" x2="128.13" y2="65" gradientTransform="translate(237.43) rotate(-180) scale(1 -1)" gradientUnits="userSpaceOnUse">
      <stop offset="0" stop-color="#d5cdf8"/>
      <stop offset="1" stop-color="#f3edfb"/>
    </linearGradient>
    <linearGradient id="_Áåçûìÿííûé_ãðàäèåíò_70" data-name="Áåçûìÿííûé ãðàäèåíò 70" x1="114.38" y1="78.32" x2="141.87" y2="78.32" gradientTransform="translate(237.43) rotate(-180) scale(1 -1)" gradientUnits="userSpaceOnUse">
      <stop offset="0" stop-color="#ccf"/>
      <stop offset="1" stop-color="#755cbb"/>
    </linearGradient>
    <linearGradient id="_Áåçûìÿííûé_ãðàäèåíò_26" data-name="Áåçûìÿííûé ãðàäèåíò 26" x1="120.26" y1="198.38" x2="120.26" y2="63.84" gradientTransform="translate(237.43) rotate(-180) scale(1 -1)" gradientUnits="userSpaceOnUse">
      <stop offset="0" stop-color="#9e8cef"/>
      <stop offset="1" stop-color="#caafee"/>
    </linearGradient>
    <linearGradient id="_Áåçûìÿííûé_ãðàäèåíò_70-2" data-name="Áåçûìÿííûé ãðàäèåíò 70" x1="64.43" y1="114.54" x2="97.2" y2="114.54" xlink:href="#_Áåçûìÿííûé_ãðàäèåíò_70"/>
    <linearGradient id="_Áåçûìÿííûé_ãðàäèåíò_178" data-name="Áåçûìÿííûé ãðàäèåíò 178" x1="63.42" y1="152.22" x2="63.42" y2="89.31" gradientTransform="translate(237.43) rotate(-180) scale(1 -1)" gradientUnits="userSpaceOnUse">
      <stop offset="0" stop-color="#9e8cef"/>
      <stop offset="1" stop-color="#dac7f3"/>
    </linearGradient>
    <linearGradient id="_Áåçûìÿííûé_ãðàäèåíò_55" data-name="Áåçûìÿííûé ãðàäèåíò 55" x1="171.6" y1="134.09" x2="213.82" y2="134.09" gradientTransform="translate(237.43) rotate(-180) scale(1 -1)" gradientUnits="userSpaceOnUse">
      <stop offset="0" stop-color="#a999f1"/>
      <stop offset="1" stop-color="#dac7f3"/>
    </linearGradient>
    <linearGradient id="_Áåçûìÿííûé_ãðàäèåíò_71" data-name="Áåçûìÿííûé ãðàäèåíò 71" x1="49.68" y1="80.73" x2="49.68" y2="64.14" gradientTransform="translate(237.43) rotate(-180) scale(1 -1)" gradientUnits="userSpaceOnUse">
      <stop offset=".02" stop-color="#ffc2a9"/>
      <stop offset="1" stop-color="#ff9595"/>
    </linearGradient>
    <linearGradient id="_Áåçûìÿííûé_ãðàäèåíò_48" data-name="Áåçûìÿííûé ãðàäèåíò 48" x1="60.13" y1="80.33" x2="60.13" y2="52.88" gradientTransform="translate(237.43) rotate(-180) scale(1 -1)" gradientUnits="userSpaceOnUse">
      <stop offset="0" stop-color="#ffeadb"/>
      <stop offset=".99" stop-color="#c27cb6"/>
    </linearGradient>
    <linearGradient id="_Áåçûìÿííûé_ãðàäèåíò_71-2" data-name="Áåçûìÿííûé ãðàäèåíò 71" x1="59.24" y1="99.02" x2="59.24" y2="56.68" xlink:href="#_Áåçûìÿííûé_ãðàäèåíò_71"/>
    <linearGradient id="_Áåçûìÿííûé_ãðàäèåíò_73" data-name="Áåçûìÿííûé ãðàäèåíò 73" x1="51.67" y1="92.41" x2="64.98" y2="92.41" gradientTransform="translate(237.43) rotate(-180) scale(1 -1)" gradientUnits="userSpaceOnUse">
      <stop offset=".02" stop-color="#d1a1d6"/>
      <stop offset=".99" stop-color="#bd89c4"/>
    </linearGradient>
    <linearGradient id="_Áåçûìÿííûé_ãðàäèåíò_71-3" data-name="Áåçûìÿííûé ãðàäèåíò 71" x1="214.69" y1="124.8" x2="214.69" y2="68.19" xlink:href="#_Áåçûìÿííûé_ãðàäèåíò_71"/>
    <linearGradient id="_Áåçûìÿííûé_ãðàäèåíò_48-2" data-name="Áåçûìÿííûé ãðàäèåíò 48" x1="221.38" y1="106.66" x2="221.38" y2="78.54" xlink:href="#_Áåçûìÿííûé_ãðàäèåíò_48"/>
    <linearGradient id="_Áåçûìÿííûé_ãðàäèåíò_64" data-name="Áåçûìÿííûé ãðàäèåíò 64" x1="226.93" y1="96.96" x2="226.93" y2="84.35" gradientTransform="translate(237.43) rotate(-180) scale(1 -1)" gradientUnits="userSpaceOnUse">
      <stop offset="0" stop-color="#ffb0b0"/>
      <stop offset=".98" stop-color="#ffc2a9"/>
    </linearGradient>
    <linearGradient id="_Áåçûìÿííûé_ãðàäèåíò_64-2" data-name="Áåçûìÿííûé ãðàäèåíò 64" x1="234.24" y1="98.9" x2="234.24" y2="91.98" xlink:href="#_Áåçûìÿííûé_ãðàäèåíò_64"/>
    <linearGradient id="_Áåçûìÿííûé_ãðàäèåíò_73-2" data-name="Áåçûìÿííûé ãðàäèåíò 73" x1="204.67" y1="112.68" x2="217.53" y2="112.68" xlink:href="#_Áåçûìÿííûé_ãðàäèåíò_73"/>
    <linearGradient id="_Áåçûìÿííûé_ãðàäèåíò_70-3" data-name="Áåçûìÿííûé ãðàäèåíò 70" x1="186.77" y1="157.06" x2="186.77" y2="93.69" xlink:href="#_Áåçûìÿííûé_ãðàäèåíò_70"/>
    <linearGradient id="_Áåçûìÿííûé_ãðàäèåíò_70-4" data-name="Áåçûìÿííûé ãðàäèåíò 70" x1="47.26" y1="144.29" x2="153.24" y2="144.29" xlink:href="#_Áåçûìÿííûé_ãðàäèåíò_70"/>
    <linearGradient id="_Áåçûìÿííûé_ãðàäèåíò_4" data-name="Áåçûìÿííûé ãðàäèåíò 4" x1="140.69" y1="126.56" x2="160.95" y2="126.56" gradientTransform="translate(237.43) rotate(-180) scale(1 -1)" gradientUnits="userSpaceOnUse">
      <stop offset="0" stop-color="#ccedff"/>
      <stop offset="1" stop-color="#755cbb"/>
    </linearGradient>
    <linearGradient id="_Áåçûìÿííûé_ãðàäèåíò_4-2" data-name="Áåçûìÿííûé ãðàäèåíò 4" x1="122.32" y1="162.11" x2="152.09" y2="162.11" xlink:href="#_Áåçûìÿííûé_ãðàäèåíò_4"/>
    <linearGradient id="_Áåçûìÿííûé_ãðàäèåíò_4-3" data-name="Áåçûìÿííûé ãðàäèåíò 4" x1="123.7" y1="175.57" x2="155.51" y2="175.57" xlink:href="#_Áåçûìÿííûé_ãðàäèåíò_4"/>
    <linearGradient id="_Áåçûìÿííûé_ãðàäèåíò_4-4" data-name="Áåçûìÿííûé ãðàäèåíò 4" x1="96.33" y1="142.24" x2="96.33" y2="106.54" xlink:href="#_Áåçûìÿííûé_ãðàäèåíò_4"/>
    <linearGradient id="_Áåçûìÿííûé_ãðàäèåíò_4-5" data-name="Áåçûìÿííûé ãðàäèåíò 4" x1="99.2" y1="145.24" x2="99.2" y2="118.18" xlink:href="#_Áåçûìÿííûé_ãðàäèåíò_4"/>
    <linearGradient id="_Áåçûìÿííûé_ãðàäèåíò_4-6" data-name="Áåçûìÿííûé ãðàäèåíò 4" x1="56.43" y1="110.65" x2="56.43" y2="90.21" xlink:href="#_Áåçûìÿííûé_ãðàäèåíò_4"/>
    <linearGradient id="_Áåçûìÿííûé_ãðàäèåíò_4-7" data-name="Áåçûìÿííûé ãðàäèåíò 4" x1="72.98" y1="92.65" x2="81.22" y2="92.65" xlink:href="#_Áåçûìÿííûé_ãðàäèåíò_4"/>
    <linearGradient id="_Áåçûìÿííûé_ãðàäèåíò_70-5" data-name="Áåçûìÿííûé ãðàäèåíò 70" x1="162.54" y1="142.24" x2="162.54" y2="104.35" xlink:href="#_Áåçûìÿííûé_ãðàäèåíò_70"/>
    <linearGradient id="_Áåçûìÿííûé_ãðàäèåíò_70-6" data-name="Áåçûìÿííûé ãðàäèåíò 70" x1="205.15" y1="134.09" x2="205.15" y2="114.29" xlink:href="#_Áåçûìÿííûé_ãðàäèåíò_70"/>
    <linearGradient id="_Áåçûìÿííûé_ãðàäèåíò_70-7" data-name="Áåçûìÿííûé ãðàäèåíò 70" x1="182.69" y1="133.21" x2="182.69" y2="118.07" xlink:href="#_Áåçûìÿííûé_ãðàäèåíò_70"/>
    <linearGradient id="_Áåçûìÿííûé_ãðàäèåíò_4-8" data-name="Áåçûìÿííûé ãðàäèåíò 4" x1="52.15" y1="111.96" x2="52.15" y2="106.33" xlink:href="#_Áåçûìÿííûé_ãðàäèåíò_4"/>
    <linearGradient id="_Áåçûìÿííûé_ãðàäèåíò_70-8" data-name="Áåçûìÿííûé ãðàäèåíò 70" x1="67.17" y1="129.09" x2="67.17" y2="98.37" xlink:href="#_Áåçûìÿííûé_ãðàäèåíò_70"/>
    <linearGradient id="_Áåçûìÿííûé_ãðàäèåíò_4-9" data-name="Áåçûìÿííûé ãðàäèåíò 4" x1="146.22" y1="107.47" x2="146.22" y2="84.35" xlink:href="#_Áåçûìÿííûé_ãðàäèåíò_4"/>
    <linearGradient id="_Áåçûìÿííûé_ãðàäèåíò_4-10" data-name="Áåçûìÿííûé ãðàäèåíò 4" x1="115.93" y1="104.34" x2="115.93" y2="72.43" xlink:href="#_Áåçûìÿííûé_ãðàäèåíò_4"/>
    <linearGradient id="_Áåçûìÿííûé_ãðàäèåíò_70-9" data-name="Áåçûìÿííûé ãðàäèåíò 70" x1="109.75" y1="79.42" x2="144.43" y2="79.42" xlink:href="#_Áåçûìÿííûé_ãðàäèåíò_70"/>
    <linearGradient id="_Áåçûìÿííûé_ãðàäèåíò_70-10" data-name="Áåçûìÿííûé ãðàäèåíò 70" x1="198.91" y1="131.83" x2="198.91" y2="111.76" xlink:href="#_Áåçûìÿííûé_ãðàäèåíò_70"/>
    <linearGradient id="_Áåçûìÿííûé_ãðàäèåíò_70-11" data-name="Áåçûìÿííûé ãðàäèåíò 70" x1="170.54" y1="154.48" x2="170.54" y2="93.69" xlink:href="#_Áåçûìÿííûé_ãðàäèåíò_70"/>
    <linearGradient id="_Áåçûìÿííûé_ãðàäèåíò_70-12" data-name="Áåçûìÿííûé ãðàäèåíò 70" x1="105.19" y1="183.03" x2="105.19" y2="165.6" xlink:href="#_Áåçûìÿííûé_ãðàäèåíò_70"/>
    <linearGradient id="_Áåçûìÿííûé_ãðàäèåíò_70-13" data-name="Áåçûìÿííûé ãðàäèåíò 70" x1="139.04" y1="178.24" x2="139.04" y2="169.78" xlink:href="#_Áåçûìÿííûé_ãðàäèåíò_70"/>
    <linearGradient id="_Áåçûìÿííûé_ãðàäèåíò_71-4" data-name="Áåçûìÿííûé ãðàäèåíò 71" x1="138.66" y1="69.48" x2="138.66" y2="11.59" xlink:href="#_Áåçûìÿííûé_ãðàäèåíò_71"/>
    <linearGradient id="_Áåçûìÿííûé_ãðàäèåíò_71-5" data-name="Áåçûìÿííûé ãðàäèåíò 71" x1="117.08" y1="46.12" x2="117.08" y2="29.05" xlink:href="#_Áåçûìÿííûé_ãðàäèåíò_71"/>
    <linearGradient id="_Áåçûìÿííûé_ãðàäèåíò_387" data-name="Áåçûìÿííûé ãðàäèåíò 387" x1="146.71" y1="52.57" x2="147.43" y2="48.84" gradientTransform="translate(237.43) rotate(-180) scale(1 -1)" gradientUnits="userSpaceOnUse">
      <stop offset="0" stop-color="#e1616a"/>
      <stop offset="1" stop-color="#ff8883"/>
    </linearGradient>
    <linearGradient id="_Áåçûìÿííûé_ãðàäèåíò_48-3" data-name="Áåçûìÿííûé ãðàäèåíò 48" x1="140.25" y1="49.72" x2="140.25" y2="12.43" xlink:href="#_Áåçûìÿííûé_ãðàäèåíò_48"/>
    <linearGradient id="_Áåçûìÿííûé_ãðàäèåíò_59" data-name="Áåçûìÿííûé ãðàäèåíò 59" x1="138.43" y1="34.45" x2="138.43" y2="27.06" gradientTransform="translate(237.43) rotate(-180) scale(1 -1)" gradientUnits="userSpaceOnUse">
      <stop offset="0" stop-color="#cf6074"/>
      <stop offset="1" stop-color="#f37270"/>
    </linearGradient>
    <linearGradient id="_Áåçûìÿííûé_ãðàäèåíò_184" data-name="Áåçûìÿííûé ãðàäèåíò 184" x1="153.17" y1="36.79" x2="153.17" y2="30.36" gradientTransform="translate(237.43) rotate(-180) scale(1 -1)" gradientUnits="userSpaceOnUse">
      <stop offset="0" stop-color="#cf6074"/>
      <stop offset="1" stop-color="#ff817f"/>
    </linearGradient>
    <linearGradient id="_Áåçûìÿííûé_ãðàäèåíò_48-4" data-name="Áåçûìÿííûé ãðàäèåíò 48" x1="153.77" y1="40.53" x2="153.77" y2="26.07" xlink:href="#_Áåçûìÿííûé_ãðàäèåíò_48"/>
    <linearGradient id="_Áåçûìÿííûé_ãðàäèåíò_292" data-name="Áåçûìÿííûé ãðàäèåíò 292" x1="139.44" y1="70.2" x2="139.44" y2="0" gradientTransform="translate(237.43) rotate(-180) scale(1 -1)" gradientUnits="userSpaceOnUse">
      <stop offset="0" stop-color="#2e33a0"/>
      <stop offset="1" stop-color="#0665a5"/>
    </linearGradient>
    <linearGradient id="_Áåçûìÿííûé_ãðàäèåíò_35" data-name="Áåçûìÿííûé ãðàäèåíò 35" x1="157.88" y1="25.99" x2="157.88" y2="9.8" gradientTransform="translate(237.43) rotate(-180) scale(1 -1)" gradientUnits="userSpaceOnUse">
      <stop offset="0" stop-color="#ffeadb"/>
      <stop offset=".99" stop-color="#8860c7"/>
    </linearGradient>
    <linearGradient id="_Áåçûìÿííûé_ãðàäèåíò_52" data-name="Áåçûìÿííûé ãðàäèåíò 52" x1="135.81" y1="70.2" x2="135.81" y2="0" gradientTransform="translate(237.43) rotate(-180) scale(1 -1)" gradientUnits="userSpaceOnUse">
      <stop offset="0" stop-color="#ccc2db"/>
      <stop offset=".99" stop-color="#8860c7"/>
    </linearGradient>
    <linearGradient id="_Áåçûìÿííûé_ãðàäèåíò_397" data-name="Áåçûìÿííûé ãðàäèåíò 397" x1="140.52" y1="70.19" x2="140.52" y2="67.17" gradientTransform="translate(237.43) rotate(-180) scale(1 -1)" gradientUnits="userSpaceOnUse">
      <stop offset="0" stop-color="#776d7e"/>
      <stop offset="1" stop-color="#9d68c2"/>
    </linearGradient>
    <linearGradient id="_Áåçûìÿííûé_ãðàäèåíò_141" data-name="Áåçûìÿííûé ãðàäèåíò 141" x1="149.37" y1="5.04" x2="149.37" y2="2.8" gradientTransform="translate(237.43) rotate(-180) scale(1 -1)" gradientUnits="userSpaceOnUse">
      <stop offset="0" stop-color="#1f77d1"/>
      <stop offset="1" stop-color="#0686c9"/>
    </linearGradient>
    <linearGradient id="_Áåçûìÿííûé_ãðàäèåíò_141-2" data-name="Áåçûìÿííûé ãðàäèåíò 141" x1="135.09" y1="12.42" x2="135.09" y2="5.79" xlink:href="#_Áåçûìÿííûé_ãðàäèåíò_141"/>
    <linearGradient id="_Áåçûìÿííûé_ãðàäèåíò_141-3" data-name="Áåçûìÿííûé ãðàäèåíò 141" x1="159.1" y1="15.78" x2="159.1" y2="9.8" xlink:href="#_Áåçûìÿííûé_ãðàäèåíò_141"/>
    <linearGradient id="_Áåçûìÿííûé_ãðàäèåíò_285" data-name="Áåçûìÿííûé ãðàäèåíò 285" x1="119.57" y1="42.07" x2="111.92" y2="32.71" gradientTransform="translate(237.43) rotate(-180) scale(1 -1)" gradientUnits="userSpaceOnUse">
      <stop offset="0" stop-color="#ffeadb"/>
      <stop offset=".99" stop-color="#b060f4"/>
    </linearGradient>
    <linearGradient id="_Áåçûìÿííûé_ãðàäèåíò_285-2" data-name="Áåçûìÿííûé ãðàäèåíò 285" x1="120.37" y1="40.87" x2="116.61" y2="36.26" xlink:href="#_Áåçûìÿííûé_ãðàäèåíò_285"/>
    <linearGradient id="_Áåçûìÿííûé_ãðàäèåíò_141-4" data-name="Áåçûìÿííûé ãðàäèåíò 141" x1="134.65" y1="13.01" x2="147.6" y2="13.01" xlink:href="#_Áåçûìÿííûé_ãðàäèåíò_141"/>
    <linearGradient id="_Áåçûìÿííûé_ãðàäèåíò_141-5" data-name="Áåçûìÿííûé ãðàäèåíò 141" x1="152.91" y1="51.73" x2="156.84" y2="51.73" xlink:href="#_Áåçûìÿííûé_ãðàäèåíò_141"/>
    <linearGradient id="_Áåçûìÿííûé_ãðàäèåíò_141-6" data-name="Áåçûìÿííûé ãðàäèåíò 141" x1="148.06" y1="48.81" x2="152.3" y2="48.81" xlink:href="#_Áåçûìÿííûé_ãðàäèåíò_141"/>
  </defs>
  <g class="cls-59">
    <g id="Layer_2" data-name="Layer 2">
      <g id="Layer_2-2" data-name="Layer 2">
        <g>
          <g>
            <path class="cls-28" d="M163.81,366.74s-13.28,5.9-14.86,8.58c-.09-1.47-.13-2.2-.22-3.67,0,0,6.66-8.8,15.08-4.91Z"/>
            <path class="cls-52" d="M167.61,372.73c0-.08,.02-.17,.03-.25-.05-.42-.06-.86-.04-1.29-1.47-1.69-2.21-2.53-3.71-4.22-.03-.09-.05-.14-.08-.23-8.42-3.89-15.08,4.91-15.08,4.91,.09,1.47,.13,2.2,.22,3.67,6.76-4.25,15.2-3.24,18.66-2.56,0-.01,0-.02,0-.03Z"/>
            <g>
              <path class="cls-50" d="M179.32,393.01s-.06,0-.16,.02c-8.7,1.29-17.74,1.73-26.09,1.2,0,0-1.2-2.88-2.61-4.54h-.02c-.41-.5-.81-.88-1.23-1.05-1.79-.82-.82,.24-.82,.24-.17-1.23-.25-1.85-.42-3.09,0,0-1.07-.16-1.24-.45-.17-.29-.06-8.21,2.88-10.94h.02c-.08-1.33-.12-2-.21-3.33,0,0,6.68-7.98,15.09-4.46,.03,.08,.05,.13,.08,.21,.22,.56,.85,2.13,1.77,3.98h.02c1.31,2.66,3.07,5.46,4.82,7.34,3.28,3.54,9.18,4.39,10.33,5.25,.18,.15,.25,.45,.25,.89,0,2.4-2.46,8.72-2.46,8.72Z"/>
              <path class="cls-37" d="M179.32,393.02c-8.93,1.34-17.58,1.41-26.24,1.22,0,0-2.05-4.79-3.85-5.6-1.79-.8-.82,.24-.82,.24-.17-1.23-.26-1.84-.44-3.07,0,0-1.07-.18-1.24-.46-.17-.28-.05-8.21,2.89-10.93-.11,.29-1.63,7.27,1.48,7.92,3.11,.65-.5,3.81,4.48,4.85,7.33,1.52,18.4,1.05,26.2-2.89-.02,2.43-2.47,8.73-2.47,8.73Z"/>
              <path class="cls-46" d="M147.96,385.8s1.84,1.52,2.51,3.89c-2.86-.79,1.04-.17-2.06-.82-.17-1.23-.26-1.84-.44-3.07Z"/>
              <path class="cls-46" d="M153.08,394.23s26.24-1.22,26.24-1.22c-.01-.11-26.24,1.22-26.24,1.22Z"/>
              <path class="cls-47" d="M154.26,381.89s-1.31,2.53,0,3.91c1.32,1.38,6.58,.72,6.58,.72,0,0-5.21-1.13-6.59-4.62Z"/>
            </g>
            <g>
              <path class="cls-49" d="M104.87,383.28c-.68,.27-1.02,.41-1.71,.68-.08,2.33-.12,3.49-.2,5.82-5.96,.24-8.94,.37-14.89,.63-.44-1.24-.66-1.87-1.1-3.11,0,0-6.23,1.53-9.66,4.59-7.97,1.01-14.9-.22-22.6-2.12,0,0-.48-4.88,.65-6.52,0,0,10.3-1.33,11.62-2.16,5.71-3.6,11.23-10.15,16.81-15.21,.45-1.69,.67-2.54,1.13-4.23,11.7,1.53,15.41,7.37,15.41,7.37,.06,1.55,.1,2.32,.16,3.87,0,0,3.91,3.99,4.38,10.38Z"/>
              <g class="cls-2">
                <path class="cls-69" d="M54.89,389.79c1.27,.14,8.86,.79,14.1,.93,.37,0,.74,.01,1.13,0,1.29-.01,2.41-.08,3.19-.23,4.25-.79,2.55-2.38,9.65-5.85,4.46-2.18,18.43-6.69,15.45-11.74-1.62-2.75-6.28-4.74-9.55-5.85,.51-1.84-.59-4.1-3.27-4.1-.24,0-.47,.02-.68,.06,0-.41,0-.84,.01-1.36,11.7,1.53,15.41,7.37,15.41,7.37,.06,1.55,.1,2.32,.16,3.87,0,0,3.91,3.99,4.38,10.38-.68,.27-1.02,.41-1.71,.68-.08,2.33-.12,3.49-.2,5.82-5.96,.24-8.94,.37-14.89,.63-.44-1.24-.66-1.87-1.1-3.11,0,0-6.23,1.53-9.66,4.59-7.97,1.01-14.9-.22-22.6-2.12,0,0,.07,.02,.18,.02Z"/>
              </g>
              <path class="cls-46" d="M103.16,383.97c-.08,2.33-.12,3.49-.19,5.82-5.97,.24-8.94,.37-14.89,.63-.44-1.25-.66-1.87-1.11-3.12,0,0-6.22,1.55-9.65,4.59-7.96,1.02-14.9-.22-22.59-2.12,0,0,7.93,1.13,16.28,.94,8.35-.19,6.78-1.15,12.79-3.55,5.83-2.32,12.82-2.87,19.36-3.19Z"/>
              <g class="cls-54">
                <path class="cls-48" d="M70.57,385.58s1.49-.27,4.14-1.49c2.65-1.22,6.14-1.9,6.14-1.9,0,0-2.8,2.19-4.98,3.33-2.19,1.15-5.3,.05-5.3,.05Z"/>
              </g>
            </g>
            <g>
              <path class="cls-55" d="M83.38,360.56c.85-1.52,2.23-4.18,1.99-4.8v-.02c-.09-.2-.25-.49-.45-.82,0,0,0,0,0-.01-.07-.14-.16-.27-.25-.42-.04-.07-.09-.15-.13-.23-.58-1-1.28-2.21-1.35-2.91-.09-.82,1.57-3.37,2.32-6.94,.03-.14,.06-.28,.08-.42,.05-.28,.1-.57,.14-.86,.04-.3,.07-.61,.09-.92,.02-.31,.04-.62,.05-.93,0-.33,0-.67-.02-1.01-.02-.5-.03-1.18-.04-1.96-.01-.8-.01-1.69,0-2.68,0-.62,.01-1.29,.01-2,.01-1.17,.02-2.41,.04-3.7,0-.31,0-.62,.01-.93,.02-2.18,.07-4.47,.12-6.72,.02-.02,.02-.04,0-.06,0-.32,0-.64,.02-.96,.04-2.52,.08-7.4,.11-9.52,.01-.58,.01-1.13,.01-1.65,0-.45,0-.88,0-1.29,0-2.22-.05-3.79-.18-4.27-.3-1.12-1.41-3.73-2.51-6.27-.04-.08-.05-.12-.09-.19-.04-.1-.09-.21-.13-.31-.02-.06-.04-.12-.07-.19-.41-.95-.81-1.88-1.13-2.7,0-.01,0-.01,0-.02-.43-1.07-.77-1.95-.86-2.46-2.98-18.55-5.3-54.19-.71-72.85v-.02c.09-.41,.25-3,.46-6.54,.04-.39,.06-.78,.08-1.18t0-.02c.02-.41,.06-.84,.07-1.27,.01-.42,.05-.88,.07-1.32,0-.23,.01-.45,.04-.68,.05-.68,.09-1.37,.12-2.06,0-.24,.01-.49,.04-.72,.05-.91,.11-1.83,.17-2.74,.15-2.31,1.55-7.65,1.69-9.71,.06-.72,.11-1.41,.16-2.06,.05-.58,.1-1.13,.14-1.65,.02-.35,.05-.68,.08-1.01,.04-.47,.09-.91,.11-1.31,.04-.27,.05-.51,.08-.74,.02-.11,.03-.22,.04-.32,0-.03,0-.05,.01-.08,.02-.24,.04-.46,.06-.63,.04-.23,.08-.4,.11-.5,.01-.04,.03-.06,.03-.08,.73-.02,1.46-.03,2.19-.05,.5-.01,.96-.03,1.42-.03,.46-.01,.92-.03,1.38-.03,.32,0,.64-.02,.96-.02,.69-.02,1.39-.04,2.09-2.5l2.99,175.88-11.66,2.46Z"/>
              <path class="cls-51" d="M85.56,304.04c.12,.47,.14,2.04,.1,4.25,0,.4-.02,.83-.03,1.28,0,.52-.02,1.07-.04,1.65-.07,2.11-.16,6.98-.25,9.49-.01,.31-.02,.63-.04,.95,.02,.02,.02,.04,0,.06-.09,2.24-.18,4.52-.25,6.69,0,.31-.02,.61-.03,.92-.04,1.28-.07,2.52-.11,3.68-.01,.7-.03,1.36-.05,1.99-.02,.99-.04,1.88-.04,2.67s0,1.45,0,1.95c.01,.34,.01,.68,0,1.01-.01,.31-.04,.62-.06,.93-.03,.31-.07,.62-.11,.92-.04,.29-.1,.58-.15,.86-.03,.14-.06,.28-.09,.42-.82,3.56-2.53,6.09-2.46,6.91,.06,.7,.74,1.9,1.3,2.9,.04,.08,.08,.15,.13,.22,.08,.15,.17,.28,.24,.42,0,0,0,0,0,.01,.19,.33,.34,.61,.43,.81v.02c.32,.87-2.65,5.71-2.74,5.85h0s0,0,0,.02h0s0,0,0,0c.35,.49,.65,.9,.92,1.28,.59,.83,1.09,1.52,1.82,2.56,0,0,0,0,0,0,.01,.02,.03,.04,.04,.06v.02c.19,.06,.38,.13,.57,.2,.06,.02,.13,.04,.19,.07h0c1.32,.5,2.62,1.12,3.87,1.81,.17,.09,.34,.19,.51,.29t.01,0c.81,.46,1.61,.95,2.38,1.46,.33,.22,.66,.44,.98,.66,.25,.18,.51,.37,.76,.54,.25,.19,.51,.37,.74,.55,.25,.19,.48,.37,.72,.56,.46,.37,.91,.74,1.33,1.1,.22,.18,.43,.36,.64,.54,.2,.18,.41,.35,.6,.53,.2,.17,.39,.35,.57,.52,.29,.26,.57,.51,.83,.76,.74,.72,1.39,1.37,1.9,1.91,.22,.22,.41,.44,.62,.67h0s.13,.14,.13,.14h0c.07,.07,.13,.13,.17,.19,.02,.02,.04,.04,.06,.06,.04,.04,.07,.08,.1,.11s.06,.06,.08,.1,.06,.06,.08,.09c.02,.03,.04,.04,.06,.07,.02,.03,.04,.04,.06,.06,.03,.04,.06,.07,.09,.11,0,0,.32-.57,.78-1.42,.08-.14,.16-.28,.24-.44,.18-.33,.37-.69,.57-1.06,.11-.2,.22-.42,.34-.64,.91-1.72,1.89-3.65,2.3-4.71,.12-.32,.19-.56,.2-.7,0-.04,0-.08-.01-.12,0,0,0-.01,0-.02,0,0,0-.02,0-.03,0-.03,0-.06,0-.1h0s0-.08-.01-.12c-.04-.17-.08-.37-.16-.58-.6-1.87-2.25-5.33-2.25-5.33,3.87-16.45,6.73-38,5.21-54.54-.62-6.76-.11-13.97,.32-20.86-.05-.64-.09-1.3-.12-1.97-.04-.97-.05-1.95-.07-2.92-.15-11.01,1.16-36.09,2.7-47.06,.01-.07,.03-.13,.04-.2s.01-.12,.01-.17c.06-.44,.1-.66,.16-1.1,.44-3.21,.79-5.19,.79-5.19,.01,.03,.03,.05,.05,.08,.06,.12,.09,.17,.15,.29,1.12,2.17,1.68,3.26,2.79,5.43,0,0,5.16,7.41,7.29,13.06,.02,.06,.04,.12,.07,.18,3.01,8.17,5.99,30.72,8.23,39.22,0,.03,0,.04,0,.06h0s0,.01,0,.02c.56,2.1,.97,3.67,1.21,4.37,.15,.5,.34,.97,.58,1.48h.03s0,.01,0,.01c0,.01,.02,.02,.03,.02,.24,.55,.56,1.14,.86,1.72,.17,.31,.35,.63,.54,.96,.34,.6,.72,1.24,1.11,1.94,.14,.2,.26,.45,.39,.68,.07,.11,.14,.24,.21,.35,.21,.35,.43,.73,.63,1.13,.32,.55,.66,1.13,.98,1.73,0,0,0,.01,0,.02,.44,.8,.94,1.73,1.35,2.64,6.51,14.93,7.38,38.51,7.85,54.85t0,.01h0c-.04,2.82-2.94,8.96-2.64,9.83,0,.03,.02,.05,.03,.09,.03,.06,.07,.15,.12,.24,.05,.1,.12,.21,.18,.33,.07,.12,.15,.26,.23,.41,.43,.73,1.04,1.7,1.64,2.66,.12,.19,.25,.38,.36,.58,.05,.09,.12,.19,.18,.28,.18,.27,.35,.54,.51,.79,.16,.25,.31,.49,.45,.69,.09,.14,.17,.26,.24,.38,.15,.24,.27,.41,.34,.53,.08-.13,.14-.26,.25-.37,.08-.08,.16-.14,.24-.21h0c.62-.54,1.33-.92,2.07-1.2,.03,0,.07-.02,.1-.03,.24-.09,.5-.17,.75-.24h0c.37-.1,.74-.17,1.11-.25,.11-.06,.16-.09,.27-.15,.39-.12,.78-.21,1.17-.27,.39-.07,.77-.11,1.15-.16,.36-.1,.72-.21,1.08-.32,.2-.06,.4-.12,.59-.18,0,0,0,0,0,0,.4-.11,.8-.21,1.21-.29,1.4-.27,2.78-.4,4.12-.13,.1,.02,.2,.04,.3,.07,.04,.01,.06,.02,.1,.04,.04,.02,.07,.03,.1,.05,.06,.03,.12,.07,.18,.11,.06,0,.12-.03,.17-.04,.02,0,.04,0,.05,0,.43,0,.84,.11,1.24,.28h0s.07,.03,.12,.05h0c.07,.04,.14,.07,.21,.1h0c.21,.11,.42,.23,.62,.36,.14,.08,.27,.18,.4,.27l.02,.02c.05,.03,.1,.06,.15,.11,.2,.14,.4,.29,.58,.43,0,0,.02,.01,.03,.02h0c.79,.1,1.22-3.52,.64-4,.02,0,.03-.01,.06-.02-.09-.08-.16-.13-.24-.2-.05-.05-.13-.11-.18-.15-.02-.02-.04-.03-.05-.05-.05-.05-.07-.11-.07-.16,0,0,0,0,0-.02,.03-.27,.52-1.53,1.05-2.99,.12-.32,.24-.65,.36-.98,.11-.33,.24-.67,.34-.99,.14-.43,.27-.84,.39-1.23,.24-.79,.38-1.43,.36-1.77h0c-.1-1.2-2.05-4.5-2.45-6.51-.05-.19-.08-.39-.09-.56,0-.54-.02-2.48-.03-5.13,0-.44,0-.91,0-1.39,0-.97,0-2-.01-3.07,0-.53,0-1.08,0-1.63,0-1.46-.02-2.98-.03-4.49,0-.33,0-.66-.01-.99-.04-1.97-.08-3.91-.11-5.67,0-.3-.01-.58-.01-.86,0-.33,0-.64-.03-.95-.03-.91-.07-1.76-.09-2.52-.02-.5-.05-.95-.07-1.36-.01-.21-.02-.43-.04-.66-.24-3.4-.89-10.79-1.81-15.44-.17-.86-.34-1.73-.52-2.56-.07-.28-.12-.56-.19-.83-.12-.56-.25-1.1-.38-1.61-.26-1.04-.55-2.03-.84-2.9-.15-.46-.3-.89-.45-1.28-.22-.6-.46-1.15-.68-1.62-1.58-3.3-3.76-9.07-5.25-13.01-.14-.38-.27-.74-.4-1.1-.55-1.54-.97-2.75-1.04-3.21-1.81-12.02-2.59-39.62-4.91-52.2-.19-1.05-.41-2.14-.61-3.24-.41-2.32-.62-3.65-.9-5.91,0-.04,0-.12,.06-.24v-.02s0-.01,0-.03c-.25-2.32-.5-4.65-.74-6.98-.04-.33-.07-.67-.1-1.01-.22-2.06-.43-4.11-.63-6.17-.05,.21-.11,.44-.17,.71-.35-3.22-3.65-13.92-5.12-18.36-.16-.48-.33-.92-.46-1.34-.05-.13-.1-.26-.12-.39-.04-.12-.08-.23-.11-.34-.25-.75-.43-1.29-.5-1.52,0-.02-.01-.03-.03-.05,0-.01,0-.02-.02-.04-.1-.25-.15-.43-.19-.53-.03-.08-.03-.12-.03-.12-7.05,1.51-9.6,2.83-16.84,2.96h-.03c-9.99,.19-18.62-2.62-28.61-2.39-.61,.01-1.23,.03-1.84,.04h-.03c-.72,.01-1.45,.03-2.18,.05-.32,0-.65,.01-.97,.02-.46,0-.93,.02-1.39,.03-.46,0-.93,.02-1.43,.03-.74,.02-1.47,.03-2.2,.05,0,.02-.02,.04-.03,.08-.04,.1-.07,.27-.12,.5-.02,.17-.04,.39-.07,.63,0,.03,0,.05-.01,.08,0,.1-.02,.21-.04,.32-.04,.23-.05,.47-.09,.74-.03,.39-.08,.83-.13,1.3-.04,.33-.07,.65-.1,1.01-.05,.52-.11,1.07-.17,1.65-.07,.65-.13,1.33-.2,2.05-.18,2.05-1.69,7.36-1.88,9.66-.07,.91-.15,1.82-.22,2.73-.04,.23-.04,.48-.06,.72-.04,.69-.09,1.37-.15,2.05-.03,.23-.05,.45-.06,.68-.03,.44-.08,.89-.1,1.31-.02,.43-.07,.85-.1,1.26v.02c-.02,.4-.05,.79-.1,1.18-.28,3.52-.49,6.1-.59,6.51v.02c-4.96,18.56-3.04,54.1-.39,72.55,.08,.51,.4,1.39,.81,2.45,0,0,0,0,0,.02,.3,.82,.69,1.74,1.08,2.69,.03,.06,.05,.13,.07,.19,.04,.1,.08,.2,.13,.31,.04,.08,.05,.12,.08,.19,1.05,2.53,2.12,5.12,2.4,6.24Z"/>
              <path class="cls-18" d="M81.33,360.89h0s0,.02,0,.02h0c.35,.49,.65,.9,.92,1.28,.59,.83,1.09,1.52,1.82,2.56,0,0,0,0,0,0,.01,.02,.03,.04,.04,.06,.25,.08,.51,.18,.76,.28,.41,.15,.81,.31,1.21,.49,.28,.12,.55,.24,.84,.38,.63,.3,1.26,.62,1.87,.97,.18,.1,.35,.19,.52,.29,.8,.45,1.59,.95,2.34,1.45,.33,.22,.66,.44,.98,.66,.25,.18,.51,.37,.76,.54,.25,.19,.5,.37,.74,.55,.25,.19,.48,.37,.72,.56,.46,.37,.91,.73,1.33,1.1,.22,.18,.43,.36,.64,.54,.2,.18,.41,.36,.6,.53,.2,.18,.39,.35,.57,.52,.29,.27,.57,.53,.82,.78,1.09,1.04,1.94,1.93,2.53,2.56h0c.04,.06,.08,.1,.13,.14h0c.06,.06,.11,.13,.17,.19,.02,.02,.04,.04,.06,.06,.04,.04,.07,.08,.1,.11s.06,.06,.08,.1,.06,.06,.08,.09c.02,.03,.04,.04,.06,.07,.02,.03,.04,.04,.06,.06,.03,.04,.06,.07,.09,.11,0,0,.32-.57,.78-1.42,.08-.14,.16-.28,.24-.44,.18-.33,.37-.69,.57-1.06,.11-.2,.22-.42,.34-.64,.91-1.72,1.89-3.65,2.3-4.71,.12-.32,.19-.56,.2-.7,0-.04,0-.08-.01-.12,0,0,0-.01,0-.02,0,0,0-.02,0-.03,0-.03,0-.06,0-.1h0s0-.08-.01-.12c-.04-.17-.08-.37-.16-.58-.6-1.87-2.25-5.33-2.25-5.33,3.87-16.45,6.73-38,5.21-54.54-.62-6.76-.11-13.97,.32-20.86-.05-.64-.09-1.3-.12-1.97-.48-11.5,.72-37.01,2.37-48.45h0c.01-.07,.02-.13,.03-.19,.05-.33,.08-.54,.14-.92,.04-.17,.06-.26,.09-.42,.01-.07,.03-.13,.04-.2,.45-2.39,.69-3.65,1.16-6.09,.04-.22,.06-.33,.1-.54-.25-2.21-.41-3.48-.63-5.41-.04-.35-.08-.72-.13-1.11,5.1-4.29,10.27-8.53,15.49-12.69-2.24,3.45-3.34,5.17-5.51,8.62-1.68,3.29-2.51,4.93-4.13,8.22,4.54-4.41,10.28-11.05,15.27-12.13,1.87-.4,6.62,2.85,8.39,4.14,5.48,4.02,6.1,15.1,7.41,22.21,1.67,9.09,5.98,34.34,4.58,42.06-.86,4.76-5.08,12.85-9.39,15.82-2.19,1.51-10.49-4.74-11.24-5.34-.01,0-.02-.01-.03-.02-.01,0-.02-.01-.02-.01,.26,.57,.57,1.15,.92,1.75,.17,.32,.35,.63,.54,.96,.34,.6,.72,1.24,1.11,1.94,.14,.2,.26,.45,.39,.68,.07,.11,.14,.24,.21,.35,.2,.36,.41,.75,.63,1.13,.32,.55,.66,1.13,.98,1.73,0,0,0,.01,0,.02,.44,.8,.94,1.73,1.35,2.64,6.51,14.93,7.38,38.51,7.85,54.85t0,.01c4.33-5.7,8.15-11.91,10.01-18.66,0,0-.03,.4-.14,1.07-.02,.14-.03,.27-.05,.39-.28,2.03-.88,5.92-1.95,9.93-.04,.08-.06,.16-.08,.24-.61,2.32-1.39,4.71-2.33,6.76-2.16,4.72-4.96,7.58-6.63,8.97-.31,.29-.58,.5-.8,.66-.43,.33-.68,.48-.68,.48,0,.03,.02,.05,.03,.09,.03,.06,.07,.15,.12,.24,.05,.1,.12,.21,.18,.33,.07,.12,.15,.26,.23,.41,.43,.73,1.04,1.7,1.64,2.66,.12,.19,.25,.38,.36,.58,.05,.09,.12,.19,.18,.28,.18,.27,.35,.54,.51,.79,.16,.25,.31,.49,.45,.69,.09,.14,.17,.26,.24,.38,.15,.24,.27,.41,.34,.53,.08-.13,.14-.26,.25-.37,.08-.08,.16-.14,.24-.21h0c.62-.54,1.33-.92,2.07-1.2,.03,0,.07-.02,.1-.03,.24-.09,.5-.17,.75-.24h0c.37-.1,.74-.17,1.11-.25,.11-.06,.16-.09,.27-.15,.39-.12,.78-.21,1.17-.27,.39-.07,.77-.11,1.15-.16,.36-.1,.72-.21,1.08-.32,.2-.06,.4-.12,.59-.18,0,0,0,0,0,0,.4-.11,.8-.21,1.21-.29,1.4-.27,2.78-.4,4.12-.13,.1,.02,.2,.04,.3,.07,.04,.01,.06,.02,.1,.04,.04,.02,.07,.03,.1,.05,.06,.03,.12,.07,.18,.11,.06,0,.12-.03,.17-.04,.02,0,.04,0,.05,0,.43,0,.84,.11,1.24,.28h0s.07,.03,.12,.05h0s0,0,0,0c.07,.03,.14,.06,.21,.1h0s0,0,0,0c.21,.1,.42,.23,.62,.36,.14,.08,.27,.18,.4,.27,0,0,.01,0,.02,.01h0c.05,.04,.1,.07,.15,.11,.2,.14,.4,.29,.58,.43-.13-.14-.22-.44-.34-.7,0-.01,0-.03-.02-.04-.05-.08-.09-.16-.12-.24t0-.01s-.05-.07-.08-.09c0,0,0,0,0-.01-1.56-1.66-3.19-3.53-4.58-5.27-.4-.5-.79-.99-1.14-1.46-.04-.05-.08-.1-.11-.15-1.07-1.43-1.87-2.75-2.16-3.79,1.69,1.7,2.61,2.62,4.13,4.19,.14,.15,.3,.3,.46,.47h.01c.04,.06,.08,.1,.12,.14,.05,.05,.1,.1,.16,.16,0,0,0,.01,.02,.02,0,0,0,.01,0,.02,0,0,.42,.3,1,.7,1.24,.87,3.21,2.22,3.34,2.09,.02,0,.03-.01,.06-.02-.09-.08-.16-.13-.24-.2-.05-.05-.13-.11-.18-.15-.02-.02-.04-.03-.05-.05-1.61-1.35-3.15-2.73-3.4-3.37,.3,.32,2.83,2.94,3.32,3.19,0,.01,.01,.02,.01,.02,0,0,0,0,0-.02,.03-.27,.52-1.53,1.05-2.99,.12-.32,.24-.65,.36-.98,.11-.33,.24-.67,.34-.99,.14-.43,.28-.84,.39-1.23,.24-.79,.38-1.43,.36-1.77,0,0-.02,0-.02-.02-.37-.37-5.6-5.36-7.65-8.26-.2-.28-.38-.58-.57-.9-.07-.15-.17-.3-.25-.45-.78-1.48-1.29-3.04-1.59-4.18-.02-.03-.02-.06-.03-.09-.13-.51-.22-.92-.27-1.21-.03-.11-.05-.23-.05-.34,0-.02,0-.04-.01-.06,0,0,0,0,0,.01h0c.33,.44,6.23,8.19,7.97,8.99-.05-.19-.08-.39-.09-.56,0-.54-.02-2.48-.03-5.13,0-.44,0-.91,0-1.39,0-.97,0-1.99-.01-3.07,0-.53,0-1.08,0-1.63,0-1.46-.02-2.98-.03-4.49,0-.33,0-.66-.01-.99-.03-1.97-.07-3.92-.11-5.67,0-.3-.01-.58-.01-.86,0-.33,0-.64-.03-.95,0-.91-.06-1.77-.09-2.52-.02-.5-.05-.95-.07-1.36-.01-.21-.02-.43-.04-.66-.24-3.41-.94-10.82-1.81-15.44-.16-.85-.34-1.72-.52-2.56-.07-.28-.12-.56-.19-.83-.12-.56-.25-1.1-.38-1.61-.26-1.04-.55-2.03-.84-2.9-.15-.46-.3-.89-.45-1.28-.22-.6-.46-1.15-.68-1.62-1.58-3.3-3.76-9.07-5.25-13.01-.14-.38-.27-.74-.4-1.1-.55-1.54-.97-2.75-1.04-3.21-1.81-12.02-2.59-39.62-4.91-52.2-.19-1.05-.41-2.14-.61-3.24-.42-2.38-.56-3.77-.83-6.19-.25-2.32-.5-4.65-.74-6.98-.04-.33-.07-.67-.1-1.01-.22-2.06-.43-4.11-.63-6.17-.5-4.97-3.68-12.93-5.29-17.65-.16-.48-.33-.92-.46-1.34-.05-.13-.1-.26-.12-.39-.04-.12-.08-.23-.11-.34-.23-.66-.41-1.19-.52-1.57,0-.01,0-.02-.02-.04-.1-.25-.15-.43-.19-.53-.03-.08-.03-.12-.03-.12-7.05,1.51-9.6,2.83-16.84,2.96h-.03c-9.99,.19-18.62-2.62-28.61-2.39-.61,.01-1.23,.03-1.84,.04h-.03c-.72,.01-1.45,.03-2.18,.05-.32,0-.65,.01-.97,.02-.46,0-.93,.02-1.39,.03-.48,0-.95,.02-1.43,.03-.74,.02-1.47,.03-2.2,.05,0,.02-.02,.04-.03,.08-.03,.1-.06,.28-.1,.5-.03,.17-.06,.38-.09,.63,0,.03,0,.05-.01,.08-.01,.1-.03,.21-.04,.32-.04,.23-.05,.47-.09,.74-.03,.39-.08,.83-.13,1.3-.04,.33-.07,.65-.1,1.01-.05,.52-.11,1.07-.17,1.65-.07,.65-.13,1.33-.2,2.05-.27,2.86-1.86,9.2-2.1,12.39-.04,.23-.04,.48-.06,.72-.04,.69-.09,1.37-.15,2.05-.03,.23-.05,.45-.06,.68-.03,.44-.08,.89-.1,1.31-.02,.43-.07,.85-.1,1.26v.02c-.02,.4-.05,.79-.1,1.18-.28,3.52-.49,6.1-.59,6.51v.02c.62,.56,11.97,11.01,12.83,13.43,3.78,10.55,3.78,40.66,1.69,52.45-1.33,7.57-14.1,9.13-14.1,9.13,0,0,0,0,0,.02,.3,.82,.69,1.74,1.08,2.69,.03,.06,.05,.13,.07,.19,.04,.1,.08,.2,.13,.31,.04,.08,.05,.12,.08,.19,1.05,2.53,2.12,5.12,2.4,6.24,.12,.47,.14,2.04,.1,4.25,0,.4-.01,.83-.03,1.28,0,.52-.02,1.07-.04,1.65-.06,2.12-.15,6.99-.25,9.49-.01,.31-.02,.63-.04,.95,.02,.02,.02,.04,0,.06-.07,2.24-.18,4.52-.25,6.69,0,.31-.02,.61-.03,.92-.04,1.27-.08,2.52-.11,3.68-.01,.7-.03,1.36-.05,1.99-.02,.99-.04,1.88-.04,2.67s0,1.45,0,1.95c.01,.34,.01,.68,0,1.01-.01,.32-.04,.63-.06,.93-.03,.31-.07,.62-.11,.92-.05,.29-.1,.58-.15,.86-.03,.14-.06,.28-.09,.42,3.9-4.94,7.91-9.82,12.02-14.61-4.38,7.22-8.59,15.23-14.49,21.52,.06,.7,.74,1.9,1.3,2.9,.04,.08,.08,.15,.13,.22,.08,.15,.17,.28,.24,.42,0,0,0,0,0,.01,.19,.34,.34,.63,.41,.83h.02v-.02c6.25-2.97,10.51-8.24,12.62-14.35-.11,.6-.69,3.1-1.55,6.05,0,.03-.02,.06-.03,.09,0,0,0,.01,0,.03-.02,.08-.04,.16-.06,.24-.62,1.93-1.34,4.03-2.17,5.89-.02,.05-.04,.1-.06,.15-.6,1.33-1.27,2.52-1.99,3.43-1.68,2.15-3.94,3.22-5.8,3.77-.06,.02-.11,.04-.17,.05-.27,.08-.53,.15-.78,.21-.25,.06-.49,.12-.72,.14-.06,0-.09,.02-.17,.02-.34,.06-.66,.1-.91,.12-.11,0-.23,.02-.35,.03-.13,0-.28,.01-.42,.01-.06,0-.12,0-.18,0h0Z"/>
              <path class="cls-36" d="M150.17,294.96s-3.84,4.17-4.87,4.52c-1.02,.35-7.73-1.72-7.73-1.72,0,0,6.93,5.87,8.61,5.93,1.69,.06,3.98-8.73,3.98-8.73Z"/>
              <path class="cls-36" d="M167.57,373.73c-.2-.22-.32-.85-.53-1.07-1.96-2.15-4.09-4.56-5.69-6.7-1.13-1.51-2.07-2.93-2.36-3.97-1.8-6.44-1.6-13.8-1.61-20.67-.02,.14-.03,.27-.05,.39-.43,3.8-1.13,7.07-1.96,9.92-.04,.08-.06,.16-.08,.24-2.59,9.13-6.83,13.84-8.95,15.73-.32,.29-.58,.5-.81,.66-.43,.33-.67,.48-.67,.48,.26,.79,3.72,6.09,4.29,6.98,.08-.13,.13-.27,.25-.38,.9-.87,2-1.36,3.16-1.67,.37-.1,.74-.17,1.11-.25,.11-.06,.16-.09,.27-.15,.78-.23,1.55-.35,2.32-.44,.96-.27,1.91-.6,2.89-.79,1.49-.29,2.98-.42,4.41-.06,.15,.04,.25,.12,.38,.19,.08-.01,.15-.04,.22-.04,1.27,.02,2.42,.91,3.4,1.65,0-.01,0-.03,0-.05Z"/>
              <path class="cls-36" d="M170.25,361.21c-2.45-3.58-9.77-9.41-10.44-15.53,0,0,.06,8.98,.87,13.13,.82,4.15,7.05,10.38,7.05,10.38,0,0,3.1-7.13,2.52-7.98Z"/>
              <path class="cls-36" d="M81.33,360.88s0,.01,.01,.02c1.13,1.57,1.69,2.35,2.8,3.92,7.02,2.44,13.45,7.77,18.03,13.12,0,0,4.38-7.86,4.41-8.97,0-.2-.07-.55-.21-.96,0,0-12.27-7.5-12.87-7.65-.52-.13,1.21-11.17,1.68-13.97-1.13,6.17-5.73,14.61-13.85,14.49Z"/>
              <path class="cls-36" d="M112.83,223.08c-7.91-1-16.11-6.23-20.97-11.87,3.88,5.58,5.77,8.38,9.46,13.97,4.34,4.67,6.46,7,10.61,11.68,.35-5.51,.53-8.26,.91-13.77Z"/>
              <path class="cls-36" d="M142.11,187.43c.03,.17,.09,.33,.14,.5-.2,.24-.36,.65-.6,1.04-2.7,4.42-11.62,9.7-15.59,7.96-2-.87-5.62,.55-8.54,1.34-9.59,2.6-25.16-.55-31.68-8.97,13.3-.99,25.27,.11,38.39-2.11,.01,0,.02,0,.03,0,7.24-.17,9.8-1.53,16.84-3.08,0,0,.08,.29,.26,.83,.16,.57,.42,1.42,.75,2.49Z"/>
              <path class="cls-36" d="M85.56,304.03s4.7-3.47,7.44-9.21c0,0-6.37,3.92-7.18,4-.82,.08-2.94-1.71-2.94-1.71,1.09,2.77,1.62,4.16,2.68,6.93Z"/>
              <path class="cls-33" d="M123.49,247.7c2.61,8.18,6.01,30.73,8.23,39.24,0,.02,0,.04,.01,.06-.75-12.31-.99-40.89-5.04-50.94-.32-.79-.99-1.71-1.48-2.57-3.16,3.95-3.17,9.7-1.73,14.2Z"/>
              <path class="cls-13" d="M138.3,301.38c.43,.82,.95,1.73,1.35,2.66,6.49,15,6.82,38.02,7.86,54.85,3-7.09,5.66-14.79,5.69-22.17,.02-8.65-2.4-24.42-8.48-30.74-2.64-2.74-6.18-4.48-6.41-4.61Z"/>
            </g>
            <path class="cls-24" d="M99.23,210.95c0-.42-1.24-3.77-1.03-4.16,.78-1.46,6.72-2.36,15.15-3.78,7.07-1.19,14.1-3.64,20.75-6.19-4.13,3.02-6.16,4.54-10.16,7.57,0,0,.44,1.52,6.53,3.41,6.32,4.13,12.6,8.29,18.84,12.51,.01,0,.02,0,.03-.02v-.02s0-.01,0-.03c-.25-2.32-.5-4.65-.74-6.98l-.25,.25c.06-.45,.11-.86,.15-1.26-.22-2.06-.43-4.11-.63-6.17-.05,.21-.11,.44-.17,.71-.35-3.22-3.65-13.92-5.12-18.36-.16-.48-.33-.92-.46-1.34-.05-.13-.1-.26-.12-.39-.04-.12-.08-.23-.11-.34-.25-.75-.43-1.29-.5-1.52,0-.02-.01-.03-.03-.05,0-.01,0-.02-.02-.04-.1-.25-.15-.43-.19-.53-.03-.08-.03-.12-.03-.12-7.05,1.51-9.6,2.83-16.84,2.96h-.03c-9.99,.19-18.62-2.62-28.61-2.39-.61,.01-1.23,.03-1.84,.04h-.03c-3.32,.31-4.98,.46-8.3,.77h-.02c-.02,.17-.04,.39-.07,.63,0,.03,0,.05-.01,.08,0,.1-.02,.21-.04,.32-.04,.23-.05,.47-.09,.74-.03,.39-.08,.83-.13,1.3-.04,.33-.07,.65-.1,1.01-.05,.52-.11,1.07-.17,1.65-.07,.65-.13,1.33-.2,2.05-.18,2.05-1.69,7.36-1.88,9.66,5.18,.7,11.64,5.34,16.49,8.03Z"/>
          </g>
          <g>
            <path class="cls-77" d="M95.87,71.6c-.05,.32-.08,.49-.08,.49,.37,1.53,.79,2.95,1.24,4.24,1.47,4.22,3.3,7.22,4.67,9.09,1.19,1.61,2.04,2.38,2.04,2.38,10.94-3.43,16.33-14.13,18.4-19.46,.01-.02,.02-.05,.03-.08,.4-1,.66-1.81,.82-2.34h0c.13-.43,.19-.66,.19-.66-.04-.09-.09-.19-.13-.28l-.02-.04c-.18-.37-.36-.76-.52-1.12-1.43-3.13-2.38-6.07-3-8.38-.53-1.96-.82-3.48-.95-4.28-.07-.41-.1-.64-.1-.64l-5.1,2.69-17.57,9.3c.26,1.61,.37,3.13,.37,4.45,.01,.94-.01,1.78-.07,2.49-.05,.87-.14,1.56-.21,2.01h0c0,.05,0,.08-.01,.12Z"/>
            <path class="cls-88" d="M100.75,88.99c1.01,1,2.2,1.9,3.63,2.65,.03,.02,.06,.04,.09,.05,0,0,.04-.02,.1-.06h0c.38-.24,1.69-1.04,3.44-2.36,4.59-3.46,12.25-10.44,14.44-19.86,0-.01,0-.02,.02-.04,.25-1.12,.43-2.26,.52-3.44h0c.02-.31,.04-.62,.05-.94,0,0-1.52,3.58-4.16,7.44-3.1,4.54-7.76,9.5-13.32,9.53-4.81,.03-7.28-3.26-8.53-6.3-.53-1.29-.85-2.53-1.01-3.45,0,0,0-.02,0-.02-.05-.27-.09-.51-.13-.71h0c-.01-.11-.03-.2-.04-.28-.04-.34-.06-.53-.06-.53,0,0-1.84,11.52,4.96,18.32Z"/>
            <path class="cls-32" d="M100.75,88.99c1.01,1,2.2,1.9,3.63,2.65h.19s0-.02,0-.02c.38-.23,1.69-1.03,3.44-2.35,4.59-3.46,12.25-10.44,14.44-19.86,0-.01,0-.02,.02-.04,.25-1.12,.43-2.26,.52-3.44h0c.02-.31,.04-.62,.05-.94,0,0-1.52,3.58-4.16,7.44,0,0-3.03,8.32-9.58,12.45-3.28,2.06-5.77,1.76-7.6,.55-1.83-1.21-3.01-3.31-3.71-4.9-.7-1.6-.92-3.09-.96-4.18,0-.25,0-.47,0-.67-.53-1.29-.85-2.53-1.01-3.45,0,0,0-.02,0-.02-.05-.27-.09-.51-.13-.71h0c-.01-.11-.03-.2-.04-.28-.04-.34-.06-.53-.06-.53,0,0-1.84,11.52,4.96,18.32Z"/>
            <path class="cls-62" d="M58.64,156.99c.08,.04,.12,.06,.12,.06,.61,.08,2.53-.34,5.03-2.51h0s0-.02,.02-.03c0,0,.01-.02,.03-.03,2.1-1.84,4.62-4.9,7.13-9.93,5.02-10.04,6.46-16.74,6.7-17.91l.03-.18,2.93,4.65c1.99,5.98,5.75,30.7,5.68,31.77s-3.34,6.25-3.27,6.89c0,0,0,0,0,.01,.09,.64,1.56,2.06,1.98,3.61,.28,1.03-1.71,4.27-3.11,6.69h0c-.73,1.27-1.29,2.3-1.29,2.69,0,1.13,3.55,6.67,3.55,6.67v2.98l.05,.05,.16,.15,.13,.11c1.35,1.06,7.07,4.55,24.95,5.51,21.18,1.13,35.29-5.68,35.29-5.68l-1.06-2.92s.99-.85,1.06-1.27c.07-.43-.78-1.42-.78-1.42,0,0,2.13-1.13,2.13-2.56s-4.27-5.82-4.12-9.59c.14-3.76,3.41-7.1,3.84-9.23,.43-2.13-5.54-7.39-5.54-7.39,5.11-16.2,6.11-37.93,6.11-37.93l.99-1.14s6.11,13.92,11.65,20.74c.66,.81,1.36,1.61,2.08,2.38,1.54,1.67,3.19,3.24,4.77,4.61,3.84,3.34,7.33,5.54,8.21,5.37,1.42-.28,7.11-11.51,6.85-23.02-.12-5.47-3.42-11.6-6.85-16.51-.37-.52-.73-1.04-1.11-1.54-2.43-3.31-4.76-5.9-5.88-7.09-.43-.46-.68-.71-.68-.71,0,0,.78-2.51,1.31-4.69,0-.05,.02-.11,.04-.16,0-.02,0-.05,.01-.08,0-.04,.01-.05,.01-.05,.31-1.34,.51-2.5,.33-2.79-.47-.76-3.22-1.61-3.7-2.17-.47-.57-2.46-10.14-3.97-11.18-1.45-1-4.01-1.72-12.54-5.08-.42-.16-.85-.33-1.3-.51-9.56-3.79-18.94-8.38-18.94-8.38l-3.6-4.42h-1.6l.52,1.12,.02,.04c-.25,1.14-.55,2.23-.88,3.28,0,.03-.01,.06-.03,.08-4.95,15.61-17.68,20.64-17.68,20.64-8.85-6.53-8.67-16.9-8.67-16.9v-1.42l-1.66,.49-1.13,2.7s-1.92,2.98-9.52,6.33c-1.31,.58-2.72,1.3-4.18,2.14-6.96,3.95-14.7,10.06-15.29,11.36-.06,.14-.13,.34-.2,.64h0c-.82,3.22-2.5,15.24-4.06,19.52-.97,2.68-2.51,4.15-3.64,4.92t-.01,0c-.84,.58-1.45,.76-1.45,.76-.12,.66-.23,1.31-.34,1.96-3.26,20.56,2.94,34.51,4.33,35.49Z"/>
            <path class="cls-34" d="M140.24,118.18l6.18,2.08,.99-1.14s6.11,13.92,11.65,20.74c.66,.81,1.36,1.61,2.08,2.38,1.54,1.67,3.19,3.24,4.77,4.61l4.71-20.3,2.39-15.41c-2.43-3.31-4.76-5.9-5.88-7.09-.43-.46-.68-.71-.68-.71,0,0,.78-2.51,1.31-4.69,0-.05,.02-.11,.04-.16,0-.02,0-.05,.01-.08,0-.04,.01-.05,.01-.05,.31-1.34,.51-2.5,.33-2.79-.47-.76-3.22-1.61-3.7-2.17-.47-.57-2.46-10.14-3.97-11.18,0,0,.99,9.18-4.27,20.84l-2.56,3.6-7.48,6.01s-2.84,3.77-5.94,5.5Z"/>
            <path class="cls-64" d="M158.11,134.79c1.33,9.84,16,17.42,16,17.42,3.27,0,6.92-5.68,10.23-12.69,3.31-7.01,3.52-27.15,3.69-28.39,.18-1.24,2.02-3.73,2.14-4.8,.1-1.06-2.98-3.27-2.98-3.27l.02-.05,.02-.05c.32-.69,2.14-4.58,2.01-5.29-.14-.78-3.61-2.48-3.61-2.48l-.22,3.83s-8.08-1.53-10.82-7.79l-.48-1.92-1.35,.9v8.24s-.28,1.28-.7,1.28-3.58-1.57-4.24-1.36c-.67,.22-1.32,4.63-2.2,5.19-.88,.57-3.22,2.2-3.58,2.98-.16,.35-.17,1.62-.19,3.11-.02,1.83-.04,3.99-.31,5.2-.5,2.2-4.76,10.08-3.43,19.94Z"/>
            <path class="cls-81" d="M23.91,126.36c.66,1.04,3.97,3.22,4.83,4.08,.85,.85,0,3.65,0,3.65,13.92,14.78,28.44,22.18,29.9,22.9,.08,.04,.12,.06,.12,.06,8.74-5.88,7.99-15.56,5.09-23.72-2.77-7.83-7.53-14.25-7.74-14.53h0s0,0,0-.02c-.16-.06-2.65-1.09-4.44-1.23-.59-.05-1.13,.19-1.64,.51-1.06,.66-1.96,1.7-2.83,1.27-1.28-.64-4.15-7.42-6.09-7.6-1.36-.13-3.24,1.25-4.49,2.04-.55,.34-.97,.58-1.18,.52-.71-.19-3.13-3.08-3.32-3.16-.19-.08-1.29,.73-1.29,.73l.77,.96c-1.18,6.82-5.07,11.41-5.07,11.41l-2.6-3.81s-.67,4.9,0,5.94Z"/>
            <path class="cls-80" d="M95.83,71.31c.01,.1,.03,.19,.04,.29,.04,.2,.08,.4,.14,.6,0,0,0,0,0,.02,.89,3.31,4.5,6.69,9.05,5.06,4.97-1.78,14.43-21.82,14.43-21.82l-.95-4.28-22.46,18.29-.25,1.73v.11Z"/>
            <g>
              <path class="cls-70" d="M170.61,67.64s1.37-7.58,.76-13.16c-.62-5.59,.16-11.93,.16-11.93,0,0,1.36-.57,2.35,0,.99,.57,3.31,6.35,2.27,10.99-1.04,4.64-.24,15.77-.24,15.77h1.56l3.41-4.69,1.66-.47s9.54,9,9.4,14.35l-1.25,4.76-11.75-.4-7.67-8.76-.66-6.44Z"/>
              <path class="cls-65" d="M182.54,64.14s-.25,5.97-1.59,11.08c0,0,.22,2.1,2.67,2.24l.6-.67s.43,2.38,2.59,2.56l2.06-2.06-.53,1.7s.75,1.81,2.7,1.74c0,0,3.27-2.56,3.48-5.9l-3.23-2.73v-2.1l-3.84-2.7-.07-1.53s-2.25-1.67-4.85-1.63Z"/>
              <path class="cls-40" d="M171.23,52.88s.58,1.46,1.39,2.03c.82,.57,3.18,1,3.18,1l.11,13.39h1.56l3.41-4.69s-1.73,2.68-1.83,4.69l1.35,.66,1.17-4.01,.56,2.89-.55,3.59s-2.02-1.74-5.68-1.81l-.55,1s6.62,5.48,8.14,8.71c0,0-3.27-4.16-10.73-8.74l-.71-2.2-.94-5.26s.89-7.58,.12-11.26Z"/>
              <path class="cls-87" d="M165.68,76.21c.61,1.84,7.06,9.51,7.77,11.18,.71,1.66,1.14,3.83,1.14,3.83,3.16,6.85,10.82,7.79,10.82,7.79l.35-6.18s4.12-2.37,4.81-3.67v-.02s.09-.22,.09-.22c.21-1.21,.03-5.68,.03-5.68l-7.21-2.92c-3.13-4.05-10.73-8.73-10.73-8.73l-.35-2.12c5.46-2.68,4.54-10.8,3.62-11.8-.92-.99-2.62-.99-2.62-.99,0,0-1.99,6.53-3.27,9.59-1.28,3.05-5.07,8.1-4.45,9.94Z"/>
              <path class="cls-63" d="M187.4,65.77s-.8,7.46-3.16,11.01c0,0,3-3.72,3.23-9.48l-.07-1.53Z"/>
              <path class="cls-63" d="M191.31,70s-.78,6-4.48,9.34c0,0,3.27-1.63,4.48-7.25v-2.1Z"/>
              <path class="cls-29" d="M172.45,85.8s8.12,7.89,13.31,7.03l-.35,6.18s-8.53-.74-11.3-9.71c0,0-1-2.58-1.66-3.5Z"/>
            </g>
            <g>
              <path class="cls-91" d="M.72,96.53s7.46,13.64,16.2,17.83h2.98l6.89,10.44s4.45-2.8,4.78-11.98c0,0-1.56-1.63-1.94-3.46,0,0,2.46-1.93,3.13-3.35,.66-1.42,.9-5.68,1.37-7.44,.47-1.75,4.5-5.4,5.4-5.87,.9-.47,4.97-.71,4.97-.71,0,0,.57-1.47,0-2.17-.57-.71-6.91-3.18-10.37-.81,0,0-.24,1.8-.61,2.75-.38,.94-3.41,4.3-3.88,4.3s-2.51-1.7-3.41-3.03c-.86-1.27-5.44-11.15-6.55-14.49,0-.04-.01-.07-.03-.1-.01-.05-.04-.1-.04-.15-.01-.04-.02-.07-.03-.1,0-.02-.01-.02-.01-.04-.85-2.89-5.83-8.43-8.48-9.94,0,0-1.13-.28-1.75,1.13,0,0,2.13,6.07,4.36,9.66,.37,.61,.78,1.32,1.2,2.08h0c1.9,3.49,4.03,8.05,4.34,8.72l.04,.08-1.18,.61-3.2-3.04-3.28-3.11-7.54,7.96,.74,.94,2.35,3.02-1.19,.22-2.77-3.07-2.47,3.1Z"/>
              <path class="cls-39" d="M2.47,99.43l2.38,3.5s13.09-10.09,15.93-10.95c2.84-.85,3.88-.28,3.88-.28l2.93,3.74s-5.4,4.78-5.87,11.22c0,0,1.8-8.14,7.91-10.61-.47,0-2.51-1.7-3.41-3.03-.86-1.27-5.44-11.15-6.55-14.49,.15,.57,.34,1.68-.12,2.56-.64,1.19-4.44,.07-4.66,0h0l4.35,8.72,.04,.08-1.18,.61-3.2-3.04,1.6,3.73-11.68,2.06,2.35,3.02-1.19,.22-3.5,2.93Z"/>
              <path class="cls-60" d="M11.59,84.36s-2.27-.33-3.74,2.6l.33,.95s-2.22,.43-4.36,4.03c0,0,1.89,3.46,6.58,5.02,0,0,2.18-.62,2.56-2.46l-.43-1.18,1.7,1.28s2.04,.62,2.94-2.42l-5.59-7.81Z"/>
              <path class="cls-74" d="M.04,95.58s-.47-2.18,1.85-3.6l4.5,4.97s-.14,1.59-2.08,1.94c0,0-3.08-1.04-4.26-3.31Z"/>
              <path class="cls-8" d="M32.76,106s-5.21,5.82-12.86,8.35l3.3,5,6.88-8.73-.44-1.26s2.75-2.07,3.13-3.35Z"/>
              <path class="cls-63" d="M8.18,87.91s2.18,3.6,4.36,5.4l.43,1.18s-4.23-2.85-5.78-6.15c0,0,.5-.36,1-.43Z"/>
            </g>
            <path class="cls-26" d="M23.91,126.36c.66,1.04,3.97,3.22,4.83,4.08,.85,.85,0,3.65,0,3.65,13.92,14.78,28.44,22.18,29.9,22.9,.08,.04,.12,.06,.12,.06,1.14,.14,6.68-1.42,12.22-12.5,5.02-10.04,6.46-16.74,6.7-17.91l.03-.18-1.22-1.66-1.81-20.45-1.27,4.12c-4.83-5.83-9.38-14.77-9.38-14.77l-.2,.64h0c-.82,3.22-2.5,15.24-4.06,19.52-.97,2.68-2.51,4.15-3.64,4.92h0s0,.02,0,.02c4.45,4.06,6.65,9.89,7.74,14.53,1,4.26,1.06,7.52,1.06,7.52,0,0-1.23-5.77-5.11-12.72-1.41-2.53-3.46-4.78-5.5-6.64-1.53-1.39-3.05-2.56-4.29-3.43-1.06,.66-1.96,1.7-2.83,1.27,5.85,8.78,5.71,26.16,.21,22.85-5.49-3.31-6.74-10.35-6.74-10.35,1.3-8.57,.91-18.24-.13-20.07-1.26,.04-4.89,2.59-5.1,2.53,.33,10.08-4.41,16.82-4.41,16.82l-3.13-4.84c4.55-7.67,4.21-15.14,4.21-15.14-.19-.08-1.29,.73-1.29,.73l.77,.96c-1.18,6.82-5.07,11.41-5.07,11.41l-2.6-3.81s-.67,4.9,0,5.94Z"/>
            <path class="cls-30" d="M84.19,189.44v2.98l.05,.05,.16,.15,.13,.11c1.35,1.06,7.07,4.55,24.95,5.51,21.18,1.13,35.29-5.68,35.29-5.68l-1.06-2.92s.99-.85,1.06-1.27c.07-.43-.78-1.42-.78-1.42,0,0,2.13-1.13,2.13-2.56,0-1.28-3.48-4.99-4.04-8.48-.07-.37-.1-.74-.08-1.11,.14-3.75,3.38-7.07,3.83-9.2,0-.02,0-.03,0-.03,.43-2.13-5.54-7.39-5.54-7.39,5.11-16.2,6.11-37.93,6.11-37.93l.99-1.14s6.11,13.92,11.65,20.74c5.54,6.82,13.64,12.65,15.06,12.36,3.27,0,6.92-5.68,10.23-12.69,3.31-7.01,3.52-27.15,3.69-28.39,.18-1.24,2.02-3.73,2.14-4.8-3.55,6.11-9.21,4.31-9.21,4.31,4.1,.09,6.23-7.58,6.23-7.58l.02-.05,.02-.05,2-5.29c-.22,.25-4.91,5.5-9.44,2.26-4.64-3.31-7.03-9.73-7.03-9.73v8.24s-.28,1.28-.7,1.28c.28,3.79,1.08,8.41,2.05,12.96,2.11,9.84,4.99,19.35,4.99,19.35,0,0-7.83-4.26-10.58-15.06-1.31-5.17-1.53-9.66-1.4-12.93,.11-2.8,.48-4.71,.63-5.41,0-.05,.02-.11,.04-.16,0-.02,0-.05,.01-.08,0-.01,0-.03,0-.04l-.76,1.6-1.44,3.57c-1.67,13.86,1.78,34.74,1.78,34.74-5.02-6.25-6.07-20.08-5.85-23.44,.1-1.6,.22-3.58,.31-5.2,.11-1.77,.19-3.11,.19-3.11l-10.28,6.13,1.9-6.01-7.48,6.01s-6.73,8.1-13.64,9.04c-6.91,.95-32.29,.38-32.29,.38,0,0,22.07,1.42,28.51,3.31,6.44,1.9,7.67,4.07,7.67,4.07-4.66,23.69-30.43,31.67-31.23,31.91,23.38-3.51,34.26-23.39,34.26-23.39,0,0,.38,11.18-1.42,15.44s-12.41,14.68-26.05,16.86c-1.15,.18-2.28,.29-3.4,.34-11.5,.54-21.02-5.34-22-5.97-.05-.04-.08-.05-.08-.05,0,0,0,.01,.02,.04,.37,.56,5.08,7.19,24.13,7.92,1.15,.05,2.28,.04,3.37,0h.01c17.65-.74,26.64-12.5,26.64-12.5,0,0,6.53,3.51,2.36,8.71-.04,.05-.09,.11-.13,.16-1.23,1.42-3.94,3.15-7.14,4.93-.09,.05-.18,.11-.26,.15-3.87,2.14-8.4,4.34-11.91,6.16-.02,0-.04,.02-.05,.02-2.14,1.12-3.91,2.08-4.89,2.8,0,0,0,0,0,0-.99,.72-1.19,1.18-.22,1.3,4.93,.57,23.58-3.5,24.34-2.37,.76,1.14-.92,4.07-.92,4.07-17.12,8.49-53.77,4.3-54.92,4.18,30.67,7.85,55.75-2.09,55.75-2.09l-.83,2.94s-13.66,4.73-29.76,5.11c-16.11,.37-26.14-3.74-26.14-3.74l-1.75-2.98Z"/>
            <path class="cls-21" d="M96.74,122.01s-12.2,.66-20.26,2.79l4.16,6.31s6.25-5.5,16.1-9.1Z"/>
            <path class="cls-17" d="M85.34,155.63s7.61,6.35,15.09,9.28,14.68,3.22,14.68,3.22c0,0-4.3,1.28-14.89-.43-10.58-1.7-14.2-7.44-14.2-7.44l-.68-4.64Z"/>
            <path class="cls-15" d="M81.93,180.07h0c14.08,3.64,31.96-1.57,31.81-2.21-.15-.64-4.9,.28-15.9-1.92-10.67-2.14-14.54-5.93-14.77-6.16,.09,.64,1.56,2.06,1.98,3.61,.28,1.03-1.71,4.27-3.11,6.69Z"/>
            <path class="cls-16" d="M120.17,123.92c12.03,1.22,15.27,4.57,15.27,4.57,3.38,.43,10.98-8.23,10.98-8.23l.99-1.14s6.11,13.92,11.65,20.74c.66,.81,1.36,1.61,2.08,2.38l-.79-1.77s-1.29-.61-1.66-7.39c-.38-6.76,2.84-16.86,2.86-18.23s.49-8.31,.49-8.31l-10.28,6.13,1.9-6.01-7.48,6.01s-2.93,4.41-10.33,8.08c-6.98,3.47-14.81,3.19-15.67,3.16Z"/>
            <path class="cls-20" d="M147.4,119.12l-7.16-.94s-2.86,1.9-8.61,4.24l4.79,7.07s-1.9,10.08-7.36,15.75c0,0,14.49-8.05,16.52-14.81l1.82-11.31Z"/>
            <path class="cls-5" d="M189.23,97.67l-2.05,5.39s-2.09,7.28-6.23,7.58c-4.14,.3-8.19-12.2-8.19-12.2v-8.24s4.41,9.45,9.17,10.52,7.31-3.05,7.31-3.05Z"/>
            <path class="cls-35" d="M164.45,93.41s-3.69,7.38-8.24,9.66c0,0,5.41-13.12,4.27-20.84,0,0,1.99,1.24,3.97,11.18Z"/>
            <path class="cls-42" d="M74.67,104.35l-1.27,4.12-1.29,33.78s3.27-6.43,5.57-15.6l-1.19-1.84s-2-12.73-1.81-20.45Z"/>
            <path class="cls-41" d="M35.42,114.29s.72,16.59-6.33,18.03l-.35,1.77s9.12-.34,6.68-19.8Z"/>
            <path class="cls-10" d="M47.18,119.33s.27,.59,2.83-1.27c0,0,8.87,6.28,12.29,15.14,0,0-5.47-8.14-8.38-9.02-2.91-.88-3.61,2.37-3.61,2.37,0,0-1.15-4.57-3.13-7.22Z"/>
            <path class="cls-11" d="M190.17,106.33s-3.41,6.29-9.81,4.32c0,0,3.83,2.58,7.67,.48,0,0,2.38-4.09,2.14-4.8Z"/>
            <path class="cls-25" d="M167.82,98.37s-4.69,17.54,7.55,30.72c0,0-7.95-4.08-9.75-13.53-1.8-9.45,2.2-17.2,2.2-17.2Z"/>
            <path class="cls-23" d="M83.74,84.35s.53,7.92,4.32,13.6c3.8,5.68,11.32,9.52,11.32,9.52,0,0-9.45-3.48-13.78-8.38-4.33-4.9-1.87-14.74-1.87-14.74Z"/>
            <path class="cls-12" d="M132.06,72.43s0,6.62-2.13,13.37c-2.13,6.75-20.63,18.54-20.63,18.54,0,0,19.06-7.92,22.76-15.04,3.69-7.12,0-16.87,0-16.87Z"/>
            <path class="cls-31" d="M93,73.87c.58,6.97,2.71,11.83,4.97,15.11,3.12,4.5,6.49,6.04,6.49,6.04,3.37-1.47,6.3-3.3,8.82-5.32,10.69-8.55,14.14-20.39,14.4-21.37-4.51,10.9-11.14,17.51-16.17,21.23-4.05,3.01-7.06,4.14-7.06,4.14v-3.49c.8-.3,1.58-.64,2.32-1.02,8.85-4.46,13.5-13.76,15.67-19.77,0-.01,0-.02,.02-.04,1.18-3.25,1.63-5.54,1.63-5.54h-1.6l.52,1.12,.02,.04c-.25,1.14-.55,2.23-.88,3.28,0,.03-.01,.06-.03,.08-4.95,15.61-17.68,20.64-17.68,20.64-8.85-6.53-8.67-16.9-8.67-16.9v-1.42l-1.66,.49-1.13,2.7Z"/>
            <path class="cls-27" d="M40.51,111.76s2.41,7.86,.13,20.07c0,0-1.14-15.48-1.99-16.83-.85-1.35-3.24-.71-3.24-.71,0,0,3.76-2.07,5.1-2.53Z"/>
            <path class="cls-19" d="M63.85,154.48c2.1-1.84,4.62-4.9,7.13-9.93,5.02-10.04,6.46-16.74,6.7-17.91l-1.19-1.84-1.6-15.45-1.49-.89s-5.33-5.89-9.38-14.77c-.06,.14-.13,.34-.2,.64h0c-.82,3.22-2.5,15.24-4.06,19.52-.97,2.68-2.51,4.15-3.64,4.92,0,0,9.23,13.69,9.68,23.46,.4,8.89-1.58,11.79-1.94,12.24Z"/>
            <path class="cls-43" d="M118.65,183.03s16.64-2.73,23.43-7.11c0,0,0,0,0,0-.07-.37-.1-.74-.08-1.11,.14-3.75,3.38-7.07,3.83-9.2-.07,.2-.56,1.33-2.92,3.35-1.49,1.28-3.75,2.93-7.14,4.93-.09,.05-.18,.11-.26,.15-4.8,2.83-8.93,4.75-11.91,6.16-.02,0-.04,.02-.05,.02-2.68,1.26-4.42,2.09-4.89,2.8,0,0,0,0,0,0Z"/>
            <path class="cls-22" d="M83.06,169.78c.09,.64,1.56,2.06,1.98,3.61,0,0,6.1,6.46,28.69,4.48-.15-.64-4.9,.28-15.9-1.92-10.67-2.14-14.54-5.93-14.77-6.16Z"/>
            <path class="cls-7" d="M79.3,82.33l14.44,4.68,4.23,1.96h.02s2.75,.02,2.75,.02h3.72s2.32,.19,2.32,.19l1.23,.09,3.5,.28,1.76,.14,17.32-6.27,3.1-1.12,14.25-5.16c-.42-.16-.85-.33-1.3-.51-9.56-3.79-18.94-8.38-18.94-8.38l-3.6-4.42h-1.6c-1.43-3.13-2.38-6.07-3-8.38l-.95-4.28c-.07-.41-.1-.64-.1-.64l-5.1,2.69-17.19,13.75c.01,.94-.01,1.78-.07,2.49l-.25,1.73c-.04-.34-.06-.53-.06-.53l-1.66,.49-1.13,2.7s-1.92,2.98-9.52,6.33c-1.31,.58-2.72,1.3-4.18,2.14Z"/>
            <g>
              <path class="cls-66" d="M90.3,69.16s6.73,1.51,14.16-2.08,13.68-14.21,14.06-16.85c.37-2.65-2.84-9.57-2.84-14.97s2.65-14.68-1.8-19.7c-4.45-5.02-24.91-5.77-31.54,.67,0,0-2.05,5.16-2.05,8.08,0,.7,.13,1.74,.31,2.93,.06,.44,.14,.91,.22,1.4,.59,3.53,1.41,7.84,1.03,9.73-.13,.66-.34,1.27-.59,1.84h0c-.82,1.9-2.03,3.4-2.25,5.04-.28,2.14,2.58,17.29,11.3,23.92Z"/>
              <path class="cls-84" d="M115.74,33.73s1.84-4.61,6.45-4.68c0,0,2.7,1.07,3.13,3.13,0,0-.99,7.46-2.13,10.94s-5.3,2.98-5.3,2.98c0,0-3.63-5.55-2.14-12.36Z"/>
              <path class="cls-71" d="M97.99,48.92s-1.54-.12-2.2,.38c-.66,.5-3.08,2.84-6.13,3.48-3.05,.64-5.1-1.96-5.75-2.09-.65-.13-1.37,.79-1.37,.79,0,0,.28-1.06,1.87-1.55,0,0,.64,2.45,5.07,1.61,4.43-.84,6.31-2.81,6.31-2.81l.22-.4s1.25,.26,1.98,.59Z"/>
              <path class="cls-38" d="M104.52,25.98l-.06-.47s-4.42-7.75-13.15-7.96-10.71,5.26-10.71,5.26l-1.62-2.46,3.69-7.49,25.67-.43,6.25,5.04,.79,12.35-2.78,16.3-6.76,3.6-1.91-1.69c.71-5.46,4.76-10.44,4.76-10.44l-2.96-2.05s-7.6,3.68-11.99,2.58c0,0-3.3-9.64-3.11-16.78,0,0,11.26,1.67,13.9,4.66Z"/>
              <path class="cls-75" d="M104.91,26.55s-.43-2.79-5.14-3.91c-5.25-1.24-9.51-2.3-9.51-2.3,0,0,.93,3.06,2.68,4.21,0,0,5.55-.2,8.36,.44,2.81,.64,3.61,1.56,3.61,1.56Z"/>
              <path class="cls-75" d="M80.6,22.8s2.66,2.05,4.48,6.96c0,0-1.74-2.27-3.34-2.24-1.1,.02-.92,1.11-.92,1.11,0,0-1.09-2.93-.22-5.82Z"/>
              <path class="cls-67" d="M103.15,34.45s-.28-5.9-6.04-7.39c0,0-2.06,2.66-2.27,5.68,0,0,3.05-.57,8.31,1.7Z"/>
              <path class="cls-86" d="M86.67,36.79s-.47-4.69-3.16-6.43c0,0-1.84,1.38-1.65,5.31,0,0,1.61-.58,4.81,1.12Z"/>
              <path class="cls-57" d="M103.15,34.45s-1.87,2.3-7.1,2.75c0,0-1-1.52-.9-4.49,0,0,4.81-.46,8,1.74Z"/>
              <path class="cls-57" d="M86.67,36.79v.69s-.81,1.68-3.69,1.97c0,0-.93-1.45-1.01-3.8,0,0,1.84-.46,4.7,1.15Z"/>
              <path class="cls-68" d="M97.56,32.59s1.33,1.61,1.21,4.16c0,0-1.74,.41-2.72,.45,0,0-1.14-1.59-.9-4.49,0,0,1.52-.33,2.41-.12Z"/>
              <path class="cls-68" d="M83.93,35.72s.75,.8,.89,3.27c0,0-1.03,.45-1.85,.45,0,0-1.05-1.49-1.01-3.8,0,0,.73-.28,1.96,.08Z"/>
              <path class="cls-75" d="M97.99,36.92s.48-3.19-1.35-4.4l-1.49,.19s-.5,2.52,.9,4.49c0,0,1.48-.17,1.94-.27Z"/>
              <path class="cls-75" d="M83.27,35.58s.67,1.41,.99,3.62c0,0-.52,.21-1.28,.24,0,0-1.02-1.25-1.01-3.8,0,0,.78-.21,1.3-.06Z"/>
              <path class="cls-90" d="M103.15,34.45s-3.48-2.02-9.41-.87l1.1-.83s4.23-1.31,8.31,1.7Z"/>
              <path class="cls-90" d="M86.67,36.79s-2.79-1.48-6.05-.7l1.34-.99s2.18-.33,4.7,1.69Z"/>
              <path class="cls-53" d="M99.39,34.45s-.95-.21-1.8,.65c0,0,1.17,.34,1.8-.65Z"/>
              <path class="cls-53" d="M85.4,37.19s-1.48-.29-2,.39c0,0,.79,.55,2-.39Z"/>
              <path class="cls-1" d="M102.8,34.79s-2.7,2.67-7.04,3.31l-.11-1.58,.4,.67s4.17-.25,6.75-2.4Z"/>
              <path class="cls-1" d="M86.67,37.48s-.48,1.73-4.01,2.51l.11-.85,.2,.3s2.5-.32,3.69-1.97Z"/>
              <path class="cls-79" d="M93.74,44.39s-1.31-.28-3.73,0c-2.41,.28-5.13,.95-6.61,0,0,0,1.97,1.97,3.68,2.27,1.71,.3,4.31-1.2,4.31-1.2l1.14,.02s.88-.43,1.22-1.09Z"/>
              <path class="cls-73" d="M92.36,45.48s-.59-.38-1.09-.29c-.5,.09-1,.82-1,.82,0,0,1.05-.56,2.09-.53Z"/>
              <path class="cls-78" d="M83.4,44.39c-.63-.62,2.64-6.44,4.2-6.65s3.03,6.52,3.03,6.52c0,0-2.17,.3-4.28,.59-2.11,.28-2.95-.46-2.95-.46Z"/>
              <path class="cls-45" d="M81.06,26.07c.88-.11,4.01,3.69,4.01,3.69,0,0,1.99,6.16,1.6,7.98-.39,1.83-5.22,2.8-5.22,2.8l-.2-.32h0c.25-.58,.46-1.19,.59-1.85,.38-1.89-.43-6.2-1.03-9.73,0,0-.19-.73-.22-1.4-.02-.57,.06-1.11,.46-1.15Z"/>
              <path class="cls-83" d="M81.21,51.07c1-2.08,.38-3.17,9.04-4.3,12.26-1.61,13.31,2.13,15.39,1.56,.07-.02,.16-.05,.25-.09,2.26-.88,7.57-6.1,7.71-13.14,.14-7.32-4.76-12.51-4.76-12.51,1.78-1.49,2.49-5.82,.57-7.67-1.92-1.84-5.19-1.42-13.21-.57-8.03,.85-8.03,.36-8.03,.36-2.55,.65-4.01,3.04-4.42,3.81-.08,.15-.12,.24-.12,.24l-1-.92c-2.7,3.91-2.2,8.17-2.2,8.17,0,0-4.4-8.95-3.9-10.22,.91-2.34,3.46-5.75,3.61-5.97h0s.71-6.82,2.84-6.82,11.22,2.05,11.22,2.05c-1-2.34-.85-5.04-.85-5.04l.04,.04c2.97,2.66,5.87,2.95,9.98,4.86,2.07,.97,3.04,1.86,3.85,2.79l.28,.33,.29,.35c.28,.36,.58,.73,.93,1.1,.01,.02,.04,.04,.04,.05l.02,.02c.33,.36,.72,.73,1.19,1.12,2.7,2.2,8.64,3.67,9.35,5.99,.71,2.32-.9,5.49-1.75,8.76-.85,3.27-.46,6.16-.46,6.16,0,0-2.83,3.64-1.89,8.97,.83,4.78,2.65,5.56,2.65,5.56,1.28,2.63,.67,5.09,.67,5.09-2.62,10.44-13.48,16.65-13.48,16.65-9.66,3.6-16.01,2.03-16.01,2.03h0c-7.03-4.59-9.43-19.75-9.54-20.45,.12,.19,1.42,2.21,1.69,1.66Zm4.33,9.66c1.7-.28,2.06-4.6,2.62-5.17,.57-.56,3.65-.33,3.65-.33,0,0,2.84,3.22,3.97,3.31,1.14,.1,7.2-2.37,5.89-6.06-1.3-3.7-5.89-4.17-5.89-4.17,0,0-2.37,1.99-5.92,2.22-3.55,.23-4.84-.42-5.26-.61-.43-.19-2.71,.85-2.65,4.07,.04,2.24,1.87,7.01,3.58,6.73Z"/>
              <path class="cls-89" d="M85.98,39.04s-3.06,3.8-2.77,5.23c.32,1.56,3.87,2.4,3.87,2.4,0,0-2.84-.98-3.43-2.4,0,0,.73-2.88,2.33-5.23Z"/>
              <path class="cls-3" d="M80.42,25.99s-.49-4.26,2.2-8.17c-2.17-3.87-2.48-8.03-2.48-8.03h0c-.73,1.81-1.15,5.33-1.15,5.33l-2.46,.64c-.5,1.27,3.9,10.22,3.9,10.22Z"/>
              <path class="cls-14" d="M83.74,18.51c.41-.76,1.87-3.16,4.42-3.81,0,0,0,.49,8.03-.36,8.02-.85,11.29-1.27,13.21,.57,1.92,1.85,1.21,6.18-.57,7.67,0,0,4.9,5.19,4.76,12.51-.13,7.04-5.45,12.27-7.71,13.14l.1,.78s-.4,16.12-4.32,17.4c-3.91,1.27-12.04,.61-12.8,1.37-.72,.72,.1,1.96,.18,2.07h0s6.35,1.57,16.01-2.02c0,0,10.86-6.22,13.48-16.65,0,0,.61-2.46-.67-5.09,0,0-1.82-.78-2.65-5.56-.94-5.33,1.89-8.97,1.89-8.97,0,0-.39-2.89,.46-6.16,.85-3.27,2.47-6.44,1.75-8.76-4.54,.71-7.53-1.66-7.53-1.66,0,0-.79-1.1-4.31-1.67-3.52-.57-17.65,.85-17.65,.85,0,0,1.42-1.18,4.4-1.96,2.82-.74,12.45,.12,13.48,.2-1.1-.19-12.02-2.07-13.26-1.69-1.32,.39-6.04,2.56-6.04,2.56,.43-2.17,4.66-7.39,4.66-7.39,0,0,5.97,.11,9.87,.92,3.49,.73,5.4,2.32,5.77,2.65l-.93-1.1-.29-.35-.28-.33-1.36-.23-6.85-2.77c-2.3-1.23-5.25-4.27-5.61-4.65l-.04-.04s-.14,2.7,.85,5.04c-5.79-.71-7.75-.35-7.75-.35-2.63,3.73-2.72,13.83-2.72,13.83Z"/>
              <path class="cls-6" d="M105.07,67.83s-3.55-.84-8.9-.63c-5.35,.22-8.43,.24-7.1,2.66,0,0,6.73,1.52,16.01-2.03Z"/>
              <path class="cls-61" d="M86.46,4.69s-3.26-1.27-4.54-1.06c0,0,.51-.68,1.04-.82,.53-.14,11.24,2.23,11.24,2.23,0,0-6.68-.78-7.75-.35Z"/>
              <path class="cls-58" d="M93.07,5.89s.26,3.54,1.39,4.83l13.26,1.69,3.89-.69s-1.51-.64-3.16-2.58c-1.66-1.93-10.3-3.83-15.38-3.26Z"/>
              <path class="cls-72" d="M80.14,9.8s-1.08,3.49-1.16,5.33l-2.46,.64s.75-2.64,3.62-5.98Z"/>
              <path class="cls-44" d="M116.28,39.99s.93-4.47,3.22-6.69,4.89-1.5,4.89-1.5c0,0-.71,8.3-1.46,10.32-.75,2.02-1.88,2.56-1.88,2.56,0,0,1.6-1.4,1.81-4.15,.21-2.74,.28-6.62-.32-7.08-.6-.46-3.04,1.34-3.04,1.34,0,0,.77,.94,1.23,3.39,.46,2.45-1.24,4.22-1.88,4.19s.04-2.83-.07-3.63c-.11-.81-1.53-.63-2.5,1.25Z"/>
              <path class="cls-4" d="M118.56,34.43s2.5,1.64,2.23,5c-.27,3.36-2.19,3.22-2.2,2.51,0-.71,.37-2.52,.17-3.55-.2-1.03-1.85-.56-1.85-.56,0,0,1.09-2.67,1.66-3.4Z"/>
              <path class="cls-55" d="M79.52,49.41s3.1,14.15,9.54,20.45c0,0-7.35-2.89-9.54-20.45Z"/>
              <path class="cls-55" d="M82.96,2.8s-1.64,1.27-1.95,5.69c-.31,4.42,1.61,9.33,1.61,9.33,0,0-2.46-3.67-2.7-7.7-.24-4.03,1.74-6.82,3.04-7.33Z"/>
            </g>
            <path class="cls-82" d="M102.78,12.06s-3.79,1.29-7.94,1.66c-4.15,.37-5.01,.45-5.01,.45,0,0,1.67-1.62,5.22-2.11,3.56-.49,7.72,0,7.72,0Z"/>
            <path class="cls-85" d="M84.49,49.72s-1.81,0-2.52,2.27c-.57,1.81-.73,3.37-.73,3.37l-.64-2.49s.84-3.16,1.71-3.87c.63-.51,1.71-1.03,2.22-.91l-.04,1.62Z"/>
            <path class="cls-56" d="M89.37,47.45l-.31,2.7s-2.21,.18-3.67-.43l-.26-1.63s2.81-.71,4.24-.64Z"/>
            <path class="cls-55" d="M79.3,82.33s-12.92,9.43-14.59,12.68-2.35,13.42-4.62,17.83c0,0,1.55-7.2,2.64-12.85,1.09-5.65,.83-5.73,1.43-7.11,.6-1.39,10.25-8.08,15.15-10.54Z"/>
            <path class="cls-55" d="M81.62,134.85s6.23,26.65,5.94,28.45c-.28,1.8-4.31,5.47-4.5,6.48,0,0,3.08,4.13,2.94,5.04-.14,.91-5.4,6.69-5.26,8.48,.04,.52,3.45,6.14,3.45,6.14,0,0-3.85-5.53-4.04-6.41-.19-.88,4.72-8.27,4.86-9.02,.37-1.94-2.45-3.37-2.54-4.65-.09-1.28,3.82-4.4,3.85-6.49s-4.7-28.02-4.7-28.02Z"/>
            <path class="cls-78" d="M165.68,76.21s3.48-.74,4.93-3.78,.5-7.43,.5-7.43c0,0-2.73,5.23-4.08,7.02-1.36,1.79-1.72,3.82-1.34,4.2Z"/>
          </g>
          <path class="cls-55" d="M95.03,194.85c-3.14-1-7.61-1.79-8.72-2.95l-3.57-4.9,3.2,5.42c1.39,1.05,5.59,1.69,9.1,2.43Z"/>
        </g>
        <g class="cls-9">
          <path class="cls-76" d="M13.2,393.01s50.2,4,112.12,4,112.12-4,112.12-4c0,0-50.2-4-112.12-4s-112.12,4-112.12,4Z"/>
        </g>
      </g>
    </g>
  </g>
</svg>